M48
; DRILL file {KiCad (6.0.0)} date Fri Mar 25 10:29:39 2022
; FORMAT={-:-/ absolute / inch / decimal}
; #@! TF.CreationDate,2022-03-25T10:29:39-06:00
; #@! TF.GenerationSoftware,Kicad,Pcbnew,(6.0.0)
; #@! TF.FileFunction,Plated,1,2,PTH
FMAT,2
INCH
; #@! TA.AperFunction,Plated,PTH,ViaDrill
T1C0.0059
; #@! TA.AperFunction,Plated,PTH,ViaDrill
T2C0.0079
; #@! TA.AperFunction,Plated,PTH,ViaDrill
T3C0.0118
; #@! TA.AperFunction,Plated,PTH,ViaDrill
T4C0.0157
; #@! TA.AperFunction,Plated,PTH,ComponentDrill
T5C0.0197
; #@! TA.AperFunction,Plated,PTH,ViaDrill
T6C0.0236
; #@! TA.AperFunction,Plated,PTH,ViaDrill
T7C0.0308
; #@! TA.AperFunction,Plated,PTH,ComponentDrill
T8C0.0320
; #@! TA.AperFunction,Plated,PTH,ViaDrill
T9C0.0394
; #@! TA.AperFunction,Plated,PTH,ComponentDrill
T10C0.0394
; #@! TA.AperFunction,Plated,PTH,ViaDrill
T11C0.0472
; #@! TA.AperFunction,Plated,PTH,ViaDrill
T12C0.0800
%
G90
G05
T1
X2.744Y-3.06
T2
X2.893Y-4.323
T3
X1.828Y-2.735
X1.828Y-2.967
X1.87Y-2.802
X1.87Y-2.9
X1.933Y-2.909
X1.943Y-2.797
X2.33Y-2.636
X2.361Y-2.638
X2.442Y-2.608
X2.6285Y-3.1025
X2.629Y-2.976
X2.672Y-2.916
X2.672Y-3.024
X2.68Y-2.43
X2.702Y-3.154
X2.7739Y-3.154
X2.782Y-3.0614
X2.84Y-2.62
X3.766Y-5.198
X4.567Y-4.926
X4.653Y-5.012
T4
X2.144Y-2.636
X2.144Y-2.832
X2.218Y-2.822
X2.2285Y-5.3
X2.294Y-2.8259
X2.3941Y-5.3344
X2.45Y-2.48
X2.455Y-2.792
X2.5953Y-4.5232
X2.596Y-4.746
X2.596Y-4.856
X2.63Y-2.884
X2.6302Y-2.78
X2.636Y-2.56
X2.638Y-2.83
X2.691Y-2.561
X2.702Y-2.784
X2.76Y-2.56
X2.7735Y-2.976
X2.8045Y-4.525
X2.8045Y-4.675
X2.852Y-2.976
X3.161Y-5.6972
X3.22Y-5.068
X3.4057Y-4.9843
X3.561Y-4.6
X3.82Y-5.363
X4.0Y-5.1
X4.071Y-4.7
X4.2Y-5.1
X4.3Y-4.8
X4.3065Y-4.9935
X4.3344Y-4.8941
X4.4Y-4.7
X4.4077Y-5.2077
X4.5Y-4.5
X4.5Y-5.2
X4.5308Y-4.5245
X4.5798Y-4.8202
X4.6Y-2.5
X4.7Y-3.6
X4.7Y-4.7
X4.7Y-4.8
X4.7Y-4.9
X4.8Y-3.6
X4.81Y-2.524
X4.924Y-2.724
T6
X2.556Y-2.564
X2.68Y-2.47
X2.76Y-2.471
T7
X2.8Y-3.8
X3.0Y-3.8
X3.3Y-4.4
X4.8366Y-3.4268
X4.9878Y-3.4268
T8
X2.52Y-5.13
X2.52Y-5.43
X2.62Y-5.13
X2.62Y-5.43
X2.72Y-5.13
X2.72Y-5.43
X2.82Y-5.13
X2.82Y-5.43
X2.92Y-5.13
X2.92Y-5.43
X3.02Y-5.13
X3.02Y-5.43
X3.12Y-5.13
X3.12Y-5.43
X3.22Y-5.13
X3.22Y-5.43
X3.32Y-5.13
X3.32Y-5.43
X3.42Y-5.13
X3.42Y-5.43
X3.52Y-5.13
X3.52Y-5.43
X3.62Y-5.13
X3.62Y-5.43
X3.72Y-5.13
X3.72Y-5.43
X3.82Y-5.13
X3.82Y-5.43
T9
X2.302Y-2.544
T10
X1.601Y-4.9012
X1.601Y-5.0012
X1.601Y-5.1012
X1.601Y-5.2012
X1.601Y-5.3012
X5.0536Y-3.0246
X5.0536Y-3.1246
X5.0536Y-3.2246
X5.0536Y-3.3246
X5.0536Y-3.4246
X5.0536Y-3.5246
X5.0536Y-3.6246
X5.0536Y-3.7246
X5.0536Y-3.8246
X5.0536Y-3.9246
X5.0536Y-4.0246
X5.0536Y-4.1246
X5.0536Y-4.2246
X5.0536Y-4.3246
X5.0536Y-4.4246
X5.0536Y-4.5246
X5.0536Y-4.6246
X5.0536Y-4.7246
X5.0536Y-4.8246
X5.0536Y-4.9246
X5.1536Y-3.0246
X5.1536Y-3.1246
X5.1536Y-3.2246
X5.1536Y-3.3246
X5.1536Y-3.4246
X5.1536Y-3.5246
X5.1536Y-3.6246
X5.1536Y-3.7246
X5.1536Y-3.8246
X5.1536Y-3.9246
X5.1536Y-4.0246
X5.1536Y-4.1246
X5.1536Y-4.2246
X5.1536Y-4.3246
X5.1536Y-4.4246
X5.1536Y-4.5246
X5.1536Y-4.6246
X5.1536Y-4.7246
X5.1536Y-4.8246
X5.1536Y-4.9246
T11
X2.8035Y-3.3975
T12
X2.3Y-3.6
X3.3Y-3.0
X3.3Y-3.7
T5
G00X1.606Y-2.6832
M15
G01X1.5824Y-2.6832
M16
G05
G00X1.606Y-3.0368
M15
G01X1.5824Y-3.0368
M16
G05
G00X1.8403Y-2.6974
M15
G01X1.8166Y-2.6974
M16
G05
G00X1.8403Y-3.0226
M15
G01X1.8166Y-3.0226
M16
G05
T0
M30
