G04 #@! TF.GenerationSoftware,KiCad,Pcbnew,(6.0.2)*
G04 #@! TF.CreationDate,2022-05-04T12:59:18-06:00*
G04 #@! TF.ProjectId,master_schematic,6d617374-6572-45f7-9363-68656d617469,rev?*
G04 #@! TF.SameCoordinates,Original*
G04 #@! TF.FileFunction,Soldermask,Bot*
G04 #@! TF.FilePolarity,Negative*
%FSLAX46Y46*%
G04 Gerber Fmt 4.6, Leading zero omitted, Abs format (unit mm)*
G04 Created by KiCad (PCBNEW (6.0.2)) date 2022-05-04 12:59:18*
%MOMM*%
%LPD*%
G01*
G04 APERTURE LIST*
%ADD10C,0.650000*%
%ADD11O,0.650000X0.950000*%
%ADD12O,1.400000X0.800000*%
%ADD13C,3.000000*%
%ADD14R,1.700000X1.700000*%
%ADD15O,1.700000X1.700000*%
%ADD16R,1.320800X1.320800*%
%ADD17C,1.320800*%
%ADD18R,2.919999X1.270000*%
%ADD19R,1.650000X3.430001*%
G04 APERTURE END LIST*
D10*
X47692400Y-69044000D03*
D11*
X47692400Y-76244000D03*
D12*
X40492400Y-68154000D03*
X46442400Y-76774000D03*
X40492400Y-77134000D03*
X46442400Y-68514000D03*
D13*
X121442000Y-141730000D03*
D14*
X128362000Y-76825000D03*
D15*
X130902000Y-76825000D03*
X128362000Y-79365000D03*
X130902000Y-79365000D03*
X128362000Y-81905000D03*
X130902000Y-81905000D03*
X128362000Y-84445000D03*
X130902000Y-84445000D03*
X128362000Y-86985000D03*
X130902000Y-86985000D03*
X128362000Y-89525000D03*
X130902000Y-89525000D03*
X128362000Y-92065000D03*
X130902000Y-92065000D03*
X128362000Y-94605000D03*
X130902000Y-94605000D03*
X128362000Y-97145000D03*
X130902000Y-97145000D03*
X128362000Y-99685000D03*
X130902000Y-99685000D03*
X128362000Y-102225000D03*
X130902000Y-102225000D03*
X128362000Y-104765000D03*
X130902000Y-104765000D03*
X128362000Y-107305000D03*
X130902000Y-107305000D03*
X128362000Y-109845000D03*
X130902000Y-109845000D03*
X128362000Y-112385000D03*
X130902000Y-112385000D03*
X128362000Y-114925000D03*
X130902000Y-114925000D03*
X128362000Y-117465000D03*
X130902000Y-117465000D03*
X128362000Y-120005000D03*
X130902000Y-120005000D03*
X128362000Y-122545000D03*
X130902000Y-122545000D03*
X128362000Y-125085000D03*
X130902000Y-125085000D03*
D16*
X64008000Y-137922000D03*
D17*
X66548000Y-137922000D03*
X69088000Y-137922000D03*
X71628000Y-137922000D03*
X74168000Y-137922000D03*
X76708000Y-137922000D03*
X79248000Y-137922000D03*
X81788000Y-137922000D03*
X84328000Y-137922000D03*
X86868000Y-137922000D03*
X89408000Y-137922000D03*
X91948000Y-137922000D03*
X94488000Y-137922000D03*
X97028000Y-137922000D03*
X97028000Y-130302000D03*
X94488000Y-130302000D03*
X91948000Y-130302000D03*
X89408000Y-130302000D03*
X86868000Y-130302000D03*
X84328000Y-130302000D03*
X81788000Y-130302000D03*
X79248000Y-130302000D03*
X76708000Y-130302000D03*
X74168000Y-130302000D03*
X71628000Y-130302000D03*
X69088000Y-130302000D03*
X66548000Y-130302000D03*
X64008000Y-130302000D03*
D13*
X41742000Y-60030000D03*
X41742000Y-141730000D03*
X121442000Y-60030000D03*
D14*
X48088000Y-124236800D03*
D15*
X48088000Y-126776800D03*
X48088000Y-129316800D03*
X48088000Y-131856800D03*
X48088000Y-134396800D03*
D18*
X69880000Y-96500000D03*
X69880000Y-93500000D03*
D19*
X75350012Y-100385006D03*
X75350012Y-89614994D03*
M02*
