G04 #@! TF.GenerationSoftware,KiCad,Pcbnew,(6.0.2)*
G04 #@! TF.CreationDate,2022-05-04T12:59:17-06:00*
G04 #@! TF.ProjectId,master_schematic,6d617374-6572-45f7-9363-68656d617469,rev?*
G04 #@! TF.SameCoordinates,Original*
G04 #@! TF.FileFunction,Copper,L2,Bot*
G04 #@! TF.FilePolarity,Positive*
%FSLAX46Y46*%
G04 Gerber Fmt 4.6, Leading zero omitted, Abs format (unit mm)*
G04 Created by KiCad (PCBNEW (6.0.2)) date 2022-05-04 12:59:17*
%MOMM*%
%LPD*%
G01*
G04 APERTURE LIST*
G04 #@! TA.AperFunction,ComponentPad*
%ADD10O,1.400000X0.800000*%
G04 #@! TD*
G04 #@! TA.AperFunction,ComponentPad*
%ADD11R,1.700000X1.700000*%
G04 #@! TD*
G04 #@! TA.AperFunction,ComponentPad*
%ADD12O,1.700000X1.700000*%
G04 #@! TD*
G04 #@! TA.AperFunction,ComponentPad*
%ADD13R,1.320800X1.320800*%
G04 #@! TD*
G04 #@! TA.AperFunction,ComponentPad*
%ADD14C,1.320800*%
G04 #@! TD*
G04 #@! TA.AperFunction,SMDPad,CuDef*
%ADD15R,2.919999X1.270000*%
G04 #@! TD*
G04 #@! TA.AperFunction,SMDPad,CuDef*
%ADD16R,1.650000X3.430001*%
G04 #@! TD*
G04 #@! TA.AperFunction,ViaPad*
%ADD17C,0.800000*%
G04 #@! TD*
G04 #@! TA.AperFunction,ViaPad*
%ADD18C,1.100000*%
G04 #@! TD*
G04 #@! TA.AperFunction,ViaPad*
%ADD19C,0.500000*%
G04 #@! TD*
G04 #@! TA.AperFunction,ViaPad*
%ADD20C,2.600000*%
G04 #@! TD*
G04 #@! TA.AperFunction,ViaPad*
%ADD21C,0.400000*%
G04 #@! TD*
G04 #@! TA.AperFunction,ViaPad*
%ADD22C,0.600000*%
G04 #@! TD*
G04 #@! TA.AperFunction,ViaPad*
%ADD23C,1.500000*%
G04 #@! TD*
G04 #@! TA.AperFunction,ViaPad*
%ADD24C,1.000000*%
G04 #@! TD*
G04 #@! TA.AperFunction,ViaPad*
%ADD25C,2.000000*%
G04 #@! TD*
G04 #@! TA.AperFunction,Conductor*
%ADD26C,0.300000*%
G04 #@! TD*
G04 #@! TA.AperFunction,Conductor*
%ADD27C,0.500000*%
G04 #@! TD*
G04 #@! TA.AperFunction,Conductor*
%ADD28C,0.250000*%
G04 #@! TD*
G04 #@! TA.AperFunction,Conductor*
%ADD29C,1.367030*%
G04 #@! TD*
G04 #@! TA.AperFunction,Conductor*
%ADD30C,0.781437*%
G04 #@! TD*
G04 #@! TA.AperFunction,Conductor*
%ADD31C,2.032860*%
G04 #@! TD*
G04 #@! TA.AperFunction,Conductor*
%ADD32C,1.000000*%
G04 #@! TD*
G04 #@! TA.AperFunction,Conductor*
%ADD33C,1.500000*%
G04 #@! TD*
G04 #@! TA.AperFunction,Conductor*
%ADD34C,0.800000*%
G04 #@! TD*
G04 #@! TA.AperFunction,Conductor*
%ADD35C,1.600000*%
G04 #@! TD*
G04 #@! TA.AperFunction,Conductor*
%ADD36C,0.400000*%
G04 #@! TD*
G04 #@! TA.AperFunction,Conductor*
%ADD37C,0.200000*%
G04 #@! TD*
G04 #@! TA.AperFunction,Conductor*
%ADD38C,0.180000*%
G04 #@! TD*
G04 #@! TA.AperFunction,Conductor*
%ADD39C,0.220000*%
G04 #@! TD*
G04 APERTURE END LIST*
D10*
X40492400Y-68154000D03*
X46442400Y-76774000D03*
X40492400Y-77134000D03*
X46442400Y-68514000D03*
D11*
X128362000Y-76825000D03*
D12*
X130902000Y-76825000D03*
X128362000Y-79365000D03*
X130902000Y-79365000D03*
X128362000Y-81905000D03*
X130902000Y-81905000D03*
X128362000Y-84445000D03*
X130902000Y-84445000D03*
X128362000Y-86985000D03*
X130902000Y-86985000D03*
X128362000Y-89525000D03*
X130902000Y-89525000D03*
X128362000Y-92065000D03*
X130902000Y-92065000D03*
X128362000Y-94605000D03*
X130902000Y-94605000D03*
X128362000Y-97145000D03*
X130902000Y-97145000D03*
X128362000Y-99685000D03*
X130902000Y-99685000D03*
X128362000Y-102225000D03*
X130902000Y-102225000D03*
X128362000Y-104765000D03*
X130902000Y-104765000D03*
X128362000Y-107305000D03*
X130902000Y-107305000D03*
X128362000Y-109845000D03*
X130902000Y-109845000D03*
X128362000Y-112385000D03*
X130902000Y-112385000D03*
X128362000Y-114925000D03*
X130902000Y-114925000D03*
X128362000Y-117465000D03*
X130902000Y-117465000D03*
X128362000Y-120005000D03*
X130902000Y-120005000D03*
X128362000Y-122545000D03*
X130902000Y-122545000D03*
X128362000Y-125085000D03*
X130902000Y-125085000D03*
D13*
X64008000Y-137922000D03*
D14*
X66548000Y-137922000D03*
X69088000Y-137922000D03*
X71628000Y-137922000D03*
X74168000Y-137922000D03*
X76708000Y-137922000D03*
X79248000Y-137922000D03*
X81788000Y-137922000D03*
X84328000Y-137922000D03*
X86868000Y-137922000D03*
X89408000Y-137922000D03*
X91948000Y-137922000D03*
X94488000Y-137922000D03*
X97028000Y-137922000D03*
X97028000Y-130302000D03*
X94488000Y-130302000D03*
X91948000Y-130302000D03*
X89408000Y-130302000D03*
X86868000Y-130302000D03*
X84328000Y-130302000D03*
X81788000Y-130302000D03*
X79248000Y-130302000D03*
X76708000Y-130302000D03*
X74168000Y-130302000D03*
X71628000Y-130302000D03*
X69088000Y-130302000D03*
X66548000Y-130302000D03*
X64008000Y-130302000D03*
D11*
X48088000Y-124236800D03*
D12*
X48088000Y-126776800D03*
X48088000Y-129316800D03*
X48088000Y-131856800D03*
X48088000Y-134396800D03*
D15*
X69880000Y-96500000D03*
X69880000Y-93500000D03*
D16*
X75350012Y-100385006D03*
X75350012Y-89614994D03*
D17*
X94750000Y-98500000D03*
D18*
X122850000Y-87040000D03*
D17*
X61060000Y-63050000D03*
D19*
X45970000Y-69430000D03*
D17*
X90460000Y-118130000D03*
D20*
X83820000Y-76200000D03*
D17*
X61380000Y-69980000D03*
D21*
X65550000Y-82475000D03*
X65575000Y-78700000D03*
D17*
X65540000Y-111760000D03*
D20*
X83820000Y-93980000D03*
D17*
X110094549Y-124309951D03*
X63120000Y-71880000D03*
D19*
X45980000Y-75160000D03*
D18*
X83820000Y-111760000D03*
D21*
X65557400Y-81407000D03*
D17*
X94000000Y-82250000D03*
X67840000Y-73240000D03*
X67540000Y-70612000D03*
D18*
X126690000Y-87040000D03*
D17*
X87490000Y-125600000D03*
X109385100Y-126834900D03*
X109220000Y-121920000D03*
X125069600Y-69189600D03*
X111955458Y-132275458D03*
D22*
X49352200Y-71043800D03*
D23*
X58470800Y-64617600D03*
D22*
X47498000Y-73660000D03*
X49098200Y-73888600D03*
X47498000Y-71170800D03*
D17*
X68351400Y-65049400D03*
X70104000Y-65024000D03*
D24*
X69620000Y-70740000D03*
D17*
X66954400Y-65024000D03*
D19*
X73280000Y-66560000D03*
D21*
X75075000Y-74525000D03*
D17*
X67005200Y-71882000D03*
D21*
X73307500Y-70932500D03*
X72075000Y-77039299D03*
D25*
X70025000Y-89475000D03*
D21*
X66960000Y-61760000D03*
X62026800Y-66243200D03*
D17*
X68810000Y-62720000D03*
X64922400Y-65125600D03*
X54457600Y-71932800D03*
X54457600Y-66954400D03*
X117050000Y-137550000D03*
X116327701Y-122432299D03*
X119380000Y-119380000D03*
X111760000Y-119380000D03*
X103403400Y-119380000D03*
X50901600Y-124561600D03*
X55041800Y-131978400D03*
X59660000Y-135490000D03*
X56604500Y-134619211D03*
X114300000Y-114300000D03*
X119380000Y-91440000D03*
X115082971Y-114921258D03*
X121920000Y-91440000D03*
X119380000Y-124460000D03*
X116840000Y-63500000D03*
X119380000Y-121920000D03*
X122174000Y-64109600D03*
D21*
X116001800Y-125120400D03*
X118186200Y-127304800D03*
X59182000Y-66954400D03*
D17*
X56340000Y-70690000D03*
D21*
X59969400Y-67005200D03*
D17*
X58270000Y-70640000D03*
X67350000Y-114950000D03*
X65938400Y-123342400D03*
X65938400Y-120548400D03*
X71650000Y-119990000D03*
X69600000Y-114960000D03*
X117881400Y-130581400D03*
X80400000Y-134800000D03*
D21*
X72125000Y-78100000D03*
X78625000Y-123550000D03*
X63150000Y-79375000D03*
D17*
X101925000Y-126675000D03*
X94875000Y-126525000D03*
X101600000Y-129540000D03*
X114300000Y-132080000D03*
X111825000Y-129675000D03*
D21*
X64125000Y-79375000D03*
D26*
X46442400Y-77517400D02*
X47740000Y-78815000D01*
X40492400Y-77134000D02*
X44405000Y-77134000D01*
D27*
X97544598Y-111760000D02*
X88930000Y-111760000D01*
D26*
X44405000Y-77134000D02*
X44765000Y-76774000D01*
D27*
X110094549Y-124309951D02*
X102112299Y-116327701D01*
X65125600Y-73253600D02*
X67826400Y-73253600D01*
D28*
X45980000Y-76311600D02*
X46442400Y-76774000D01*
X45980000Y-69440000D02*
X45970000Y-69430000D01*
D29*
X65540000Y-111760000D02*
X65540000Y-96285000D01*
D26*
X47740000Y-78815000D02*
X65540000Y-78815000D01*
D27*
X90450000Y-113280000D02*
X90450000Y-122655000D01*
D29*
X65540000Y-78815000D02*
X65540000Y-75540000D01*
D27*
X66852800Y-70658800D02*
X66806000Y-70612000D01*
D30*
X67853600Y-73253600D02*
X67840000Y-73240000D01*
D28*
X85250000Y-79500000D02*
X83820000Y-78070000D01*
D27*
X63296800Y-71882000D02*
X63550800Y-71882000D01*
X66852800Y-70662800D02*
X66852800Y-70658800D01*
D29*
X65540000Y-75540000D02*
X66127500Y-74952500D01*
D28*
X91250000Y-79500000D02*
X85250000Y-79500000D01*
X45980000Y-75160000D02*
X45980000Y-76311600D01*
X92000000Y-95750000D02*
X85590000Y-95750000D01*
X85590000Y-95750000D02*
X83820000Y-93980000D01*
D30*
X80873600Y-73253600D02*
X67853600Y-73253600D01*
D26*
X40492400Y-68154000D02*
X40492400Y-77134000D01*
D27*
X90450000Y-122655000D02*
X90435000Y-122655000D01*
D26*
X44942800Y-68514000D02*
X46442400Y-68514000D01*
D27*
X67826400Y-73253600D02*
X67840000Y-73240000D01*
D31*
X83820000Y-76200000D02*
X83820000Y-93980000D01*
D30*
X80873600Y-73253600D02*
X83820000Y-76200000D01*
D29*
X126690000Y-87040000D02*
X122850000Y-87040000D01*
D28*
X45970000Y-68986400D02*
X46442400Y-68514000D01*
X45970000Y-69430000D02*
X45970000Y-68986400D01*
D27*
X64973200Y-70662800D02*
X66852800Y-70662800D01*
X60706000Y-69306000D02*
X61380000Y-69980000D01*
X66806000Y-70612000D02*
X67540000Y-70612000D01*
X63550800Y-71882000D02*
X63754000Y-71882000D01*
D32*
X66127500Y-74952500D02*
X67840000Y-73240000D01*
D26*
X46442400Y-76774000D02*
X46442400Y-77517400D01*
D28*
X65755000Y-96500000D02*
X65540000Y-96285000D01*
D33*
X69880000Y-96500000D02*
X65755000Y-96500000D01*
D26*
X44765000Y-76774000D02*
X46442400Y-76774000D01*
D27*
X63754000Y-71882000D02*
X64973200Y-70662800D01*
D29*
X65540000Y-96285000D02*
X65540000Y-78815000D01*
D27*
X90435000Y-122655000D02*
X87490000Y-125600000D01*
D28*
X83820000Y-78070000D02*
X83820000Y-76200000D01*
X94000000Y-82250000D02*
X91250000Y-79500000D01*
D26*
X40492400Y-68154000D02*
X44582800Y-68154000D01*
X44582800Y-68154000D02*
X44942800Y-68514000D01*
D27*
X88930000Y-111760000D02*
X83820000Y-111760000D01*
D31*
X83820000Y-93980000D02*
X83820000Y-111760000D01*
D27*
X60706000Y-63404000D02*
X60706000Y-69306000D01*
X61060000Y-63050000D02*
X60706000Y-63404000D01*
D28*
X94750000Y-98500000D02*
X92000000Y-95750000D01*
D27*
X88930000Y-111760000D02*
X90450000Y-113280000D01*
D28*
X45980000Y-75160000D02*
X45980000Y-69440000D01*
D27*
X102112299Y-116327701D02*
X97544598Y-111760000D01*
X63754000Y-71882000D02*
X65125600Y-73253600D01*
D28*
X109220000Y-127000000D02*
X109385100Y-126834900D01*
X109220000Y-67944283D02*
X114388794Y-62775489D01*
X114388794Y-62775489D02*
X118655489Y-62775489D01*
X109220000Y-129540000D02*
X109220000Y-127000000D01*
X111955458Y-132275458D02*
X109220000Y-129540000D01*
X118655489Y-62775489D02*
X125069600Y-69189600D01*
X109220000Y-121920000D02*
X109220000Y-67944283D01*
D26*
X47498000Y-71170800D02*
X48899900Y-71170800D01*
X49098200Y-73888600D02*
X49123600Y-73863200D01*
X47498000Y-71170800D02*
X47498000Y-73660000D01*
X48899900Y-71170800D02*
X49024450Y-71295350D01*
X47701200Y-73863200D02*
X49123600Y-73863200D01*
X49123600Y-71394500D02*
X49123600Y-73863200D01*
X49126050Y-71295350D02*
X49024450Y-71295350D01*
X47498000Y-73660000D02*
X47701200Y-73863200D01*
X49024450Y-71295350D02*
X49123600Y-71394500D01*
X49377600Y-71043800D02*
X49126050Y-71295350D01*
D34*
X71221600Y-69388400D02*
X71221600Y-65024000D01*
D28*
X69620000Y-70740000D02*
X69870000Y-70740000D01*
D35*
X72250300Y-63741300D02*
X74917300Y-61074300D01*
D34*
X69870000Y-70740000D02*
X71221600Y-69388400D01*
D32*
X66954400Y-65024000D02*
X71221600Y-65024000D01*
D35*
X71297800Y-64693800D02*
X72364600Y-63627000D01*
X75158600Y-60833000D02*
X76504800Y-60833000D01*
D36*
X73640000Y-70600000D02*
X73307500Y-70932500D01*
X73307500Y-70932500D02*
X72358000Y-71882000D01*
X73280000Y-66560000D02*
X73640000Y-66920000D01*
X72358000Y-71882000D02*
X67005200Y-71882000D01*
X73640000Y-66920000D02*
X73640000Y-70600000D01*
D37*
X72075000Y-77039299D02*
X72560701Y-77039299D01*
X72560701Y-77039299D02*
X75075000Y-74525000D01*
D33*
X70025000Y-89475000D02*
X70025000Y-93355000D01*
D32*
X70025000Y-93355000D02*
X69880000Y-93500000D01*
D28*
X66960000Y-61760000D02*
X65824000Y-61760000D01*
D37*
X62026800Y-66243200D02*
X62026800Y-65481200D01*
X65786000Y-61722000D02*
X62026800Y-65481200D01*
D34*
X67310000Y-62738000D02*
X68792000Y-62738000D01*
X64947800Y-65100200D02*
X67310000Y-62738000D01*
X68792000Y-62738000D02*
X68810000Y-62720000D01*
D28*
X54457600Y-71932800D02*
X54457600Y-66954400D01*
X133466980Y-75046980D02*
X133466980Y-76200000D01*
X124060000Y-137560000D02*
X121080000Y-137560000D01*
X133466980Y-76200000D02*
X133466980Y-128153020D01*
X121080000Y-137560000D02*
X117590000Y-137560000D01*
X128362000Y-74838000D02*
X129540000Y-73660000D01*
X117590000Y-137560000D02*
X117060000Y-137560000D01*
X132080000Y-73660000D02*
X133466980Y-75046980D01*
X129540000Y-73660000D02*
X132080000Y-73660000D01*
X117060000Y-137560000D02*
X117050000Y-137550000D01*
X128362000Y-76825000D02*
X128362000Y-74838000D01*
X133466980Y-128153020D02*
X124060000Y-137560000D01*
X124460000Y-114300000D02*
X124460000Y-93980000D01*
X114812299Y-122432299D02*
X116327701Y-122432299D01*
X111760000Y-119380000D02*
X114812299Y-122432299D01*
X124460000Y-93980000D02*
X126375000Y-92065000D01*
X119380000Y-119380000D02*
X124460000Y-114300000D01*
X126375000Y-92065000D02*
X128362000Y-92065000D01*
X124909520Y-114486197D02*
X124909520Y-98057480D01*
X124909520Y-98057480D02*
X128362000Y-94605000D01*
X104140000Y-119380000D02*
X103403400Y-119380000D01*
X104140000Y-119380000D02*
X114300000Y-129540000D01*
X121920000Y-117475718D02*
X121920000Y-124460000D01*
X121920000Y-117475718D02*
X124909520Y-114486197D01*
X121920000Y-124460000D02*
X116840000Y-129540000D01*
X116840000Y-129540000D02*
X114300000Y-129540000D01*
X61163200Y-134823200D02*
X64008000Y-137668000D01*
X50901600Y-124561600D02*
X61163200Y-134823200D01*
X64008000Y-137668000D02*
X64008000Y-137922000D01*
X58504452Y-135494549D02*
X59655451Y-135494549D01*
X55119903Y-132110000D02*
X58504452Y-135494549D01*
X59655451Y-135494549D02*
X59660000Y-135490000D01*
X48088000Y-134396800D02*
X56382089Y-134396800D01*
X56382089Y-134396800D02*
X56604500Y-134619211D01*
X114300000Y-93980000D02*
X114300000Y-114300000D01*
X116840000Y-91440000D02*
X114300000Y-93980000D01*
X119380000Y-91440000D02*
X116840000Y-91440000D01*
X119500000Y-92730000D02*
X119470000Y-92760000D01*
X120810000Y-91360000D02*
X119500000Y-92670000D01*
X119500000Y-92670000D02*
X119500000Y-92730000D01*
X114749520Y-112209520D02*
X115082971Y-112542971D01*
X114749520Y-96070480D02*
X114749520Y-112209520D01*
X115082971Y-112542971D02*
X115082971Y-114921258D01*
X121920000Y-91440000D02*
X121840000Y-91360000D01*
X118060000Y-92760000D02*
X114749520Y-96070480D01*
X119470000Y-92760000D02*
X118060000Y-92760000D01*
X121840000Y-91360000D02*
X120810000Y-91360000D01*
X114300000Y-63500000D02*
X111760000Y-66040000D01*
X116840000Y-63500000D02*
X114300000Y-63500000D01*
X111760000Y-66040000D02*
X111760000Y-116840000D01*
X111760000Y-116840000D02*
X119380000Y-124460000D01*
X125069600Y-64109600D02*
X127000000Y-66040000D01*
X122174000Y-64109600D02*
X125069600Y-64109600D01*
X112209520Y-114749520D02*
X119380000Y-121920000D01*
X124460000Y-71120000D02*
X112209520Y-71120000D01*
X112209520Y-71120000D02*
X112209520Y-114749520D01*
X127000000Y-66040000D02*
X127000000Y-68580000D01*
X127000000Y-68580000D02*
X124460000Y-71120000D01*
X118186200Y-127304800D02*
X116001800Y-125120400D01*
D38*
X56337200Y-70687200D02*
X56340000Y-70690000D01*
X56337200Y-69799200D02*
X56337200Y-70687200D01*
X59182000Y-66954400D02*
X56337200Y-69799200D01*
X58267600Y-68707000D02*
X58267600Y-70637600D01*
X58267600Y-68707000D02*
X59969400Y-67005200D01*
X58267600Y-70637600D02*
X58270000Y-70640000D01*
D28*
X68596911Y-131286911D02*
X73183089Y-131286911D01*
X68103089Y-115513089D02*
X68103089Y-130793089D01*
X73183089Y-131286911D02*
X74168000Y-130302000D01*
X67350000Y-114950000D02*
X67540000Y-114950000D01*
X67540000Y-114950000D02*
X68103089Y-115513089D01*
X68103089Y-130793089D02*
X68596911Y-131286911D01*
X65938400Y-120548400D02*
X65938400Y-123342400D01*
X71650000Y-119990000D02*
X71628000Y-120012000D01*
X71628000Y-120012000D02*
X71628000Y-130302000D01*
X69600000Y-114960000D02*
X69088000Y-115472000D01*
X69088000Y-115472000D02*
X69088000Y-130302000D01*
X122925000Y-135525000D02*
X124225000Y-134225000D01*
X124225000Y-134225000D02*
X124225000Y-132050000D01*
X116150000Y-135525000D02*
X122925000Y-135525000D01*
X122756400Y-130581400D02*
X117881400Y-130581400D01*
X108500000Y-143175000D02*
X116150000Y-135525000D01*
X80375000Y-140950000D02*
X82600000Y-143175000D01*
X124225000Y-132050000D02*
X122756400Y-130581400D01*
X80400000Y-140925000D02*
X80375000Y-140950000D01*
X80400000Y-134800000D02*
X80400000Y-140925000D01*
X82600000Y-143175000D02*
X108500000Y-143175000D01*
X72125000Y-117050000D02*
X78625000Y-123550000D01*
X72125000Y-78100000D02*
X72125000Y-117050000D01*
D39*
X63450000Y-132525000D02*
X96100295Y-132525000D01*
X96100295Y-132525000D02*
X101925000Y-126700295D01*
X59275000Y-128350000D02*
X63450000Y-132525000D01*
X59275000Y-83250000D02*
X59275000Y-128350000D01*
X63150000Y-79375000D02*
X59275000Y-83250000D01*
X101925000Y-126700295D02*
X101925000Y-126675000D01*
X63617431Y-131667431D02*
X92332569Y-131667431D01*
X93200000Y-130800000D02*
X93225000Y-130775000D01*
X93225000Y-128175000D02*
X94875000Y-126525000D01*
X63325000Y-131375000D02*
X63617431Y-131667431D01*
D28*
X111825000Y-129675000D02*
X111825000Y-130825000D01*
X114300000Y-132080000D02*
X111760000Y-134620000D01*
D39*
X64125000Y-79375000D02*
X62025000Y-81475000D01*
X62025000Y-130075000D02*
X63325000Y-131375000D01*
D28*
X111760000Y-134620000D02*
X106680000Y-134620000D01*
D39*
X92332569Y-131667431D02*
X93200000Y-130800000D01*
D28*
X111825000Y-130825000D02*
X113080000Y-132080000D01*
D39*
X93225000Y-130775000D02*
X93225000Y-128175000D01*
D28*
X106680000Y-134620000D02*
X101600000Y-129540000D01*
D39*
X62025000Y-81475000D02*
X62025000Y-130075000D01*
D28*
X113080000Y-132080000D02*
X114300000Y-132080000D01*
G04 #@! TA.AperFunction,Conductor*
G36*
X47536208Y-71077424D02*
G01*
X49123600Y-71170800D01*
X49211898Y-71347396D01*
X49225200Y-71403744D01*
X49225200Y-73827889D01*
X49205198Y-73896010D01*
X49151542Y-73942503D01*
X49088761Y-73953456D01*
X48080129Y-73869593D01*
X47546920Y-73825259D01*
X47480691Y-73799681D01*
X47452522Y-73769585D01*
X47406130Y-73699997D01*
X47384973Y-73629142D01*
X47396397Y-72136334D01*
X47396400Y-72136000D01*
X47396400Y-71202830D01*
X47416402Y-71134709D01*
X47470058Y-71088216D01*
X47529798Y-71077047D01*
X47536208Y-71077424D01*
G37*
G04 #@! TD.AperFunction*
G04 #@! TA.AperFunction,Conductor*
G36*
X106139521Y-56738202D02*
G01*
X106186014Y-56791858D01*
X106197400Y-56844200D01*
X106197400Y-75286235D01*
X106177398Y-75354356D01*
X106123742Y-75400849D01*
X106071035Y-75412234D01*
X99058502Y-75391937D01*
X88699076Y-75361954D01*
X88631015Y-75341755D01*
X88609032Y-75323717D01*
X82765816Y-69304197D01*
X82765817Y-69304197D01*
X82753200Y-69291200D01*
X76377566Y-69291200D01*
X76309445Y-69271198D01*
X76262952Y-69217542D01*
X76251568Y-69164436D01*
X76326241Y-56843436D01*
X76346656Y-56775438D01*
X76400592Y-56729271D01*
X76452239Y-56718200D01*
X106071400Y-56718200D01*
X106139521Y-56738202D01*
G37*
G04 #@! TD.AperFunction*
G04 #@! TA.AperFunction,Conductor*
G36*
X58870121Y-64180402D02*
G01*
X58916614Y-64234058D01*
X58928000Y-64286400D01*
X58928000Y-64948800D01*
X58907998Y-65016921D01*
X58854342Y-65063414D01*
X58802000Y-65074800D01*
X56692800Y-65074800D01*
X54508400Y-65735200D01*
X54499282Y-65742255D01*
X54499283Y-65742255D01*
X50253074Y-69028011D01*
X50253072Y-69028013D01*
X50241200Y-69037200D01*
X50234835Y-69050797D01*
X50234834Y-69050799D01*
X49713761Y-70164001D01*
X49123600Y-71424800D01*
X47498000Y-71221600D01*
X49672659Y-68389486D01*
X49695002Y-68366950D01*
X54083043Y-64937217D01*
X54125083Y-64915611D01*
X56675392Y-64165520D01*
X56710945Y-64160400D01*
X58802000Y-64160400D01*
X58870121Y-64180402D01*
G37*
G04 #@! TD.AperFunction*
G04 #@! TA.AperFunction,Conductor*
G36*
X76454000Y-60452000D02*
G01*
X76304369Y-60452257D01*
X61671200Y-60477400D01*
X61430069Y-60706005D01*
X59751855Y-62297039D01*
X59688658Y-62329391D01*
X59665166Y-62331600D01*
X55829200Y-62331600D01*
X55813108Y-62343201D01*
X55813106Y-62343202D01*
X51493402Y-65457408D01*
X51419717Y-65481200D01*
X46150800Y-65481200D01*
X46082679Y-65461198D01*
X46036186Y-65407542D01*
X46024800Y-65355200D01*
X46024800Y-56869600D01*
X46044802Y-56801479D01*
X46098458Y-56754986D01*
X46150800Y-56743600D01*
X76454000Y-56743600D01*
X76454000Y-60452000D01*
G37*
G04 #@! TD.AperFunction*
M02*
