G04 #@! TF.GenerationSoftware,KiCad,Pcbnew,(6.0.2)*
G04 #@! TF.CreationDate,2022-05-04T12:59:18-06:00*
G04 #@! TF.ProjectId,master_schematic,6d617374-6572-45f7-9363-68656d617469,rev?*
G04 #@! TF.SameCoordinates,Original*
G04 #@! TF.FileFunction,Legend,Top*
G04 #@! TF.FilePolarity,Positive*
%FSLAX46Y46*%
G04 Gerber Fmt 4.6, Leading zero omitted, Abs format (unit mm)*
G04 Created by KiCad (PCBNEW (6.0.2)) date 2022-05-04 12:59:18*
%MOMM*%
%LPD*%
G01*
G04 APERTURE LIST*
G04 Aperture macros list*
%AMRoundRect*
0 Rectangle with rounded corners*
0 $1 Rounding radius*
0 $2 $3 $4 $5 $6 $7 $8 $9 X,Y pos of 4 corners*
0 Add a 4 corners polygon primitive as box body*
4,1,4,$2,$3,$4,$5,$6,$7,$8,$9,$2,$3,0*
0 Add four circle primitives for the rounded corners*
1,1,$1+$1,$2,$3*
1,1,$1+$1,$4,$5*
1,1,$1+$1,$6,$7*
1,1,$1+$1,$8,$9*
0 Add four rect primitives between the rounded corners*
20,1,$1+$1,$2,$3,$4,$5,0*
20,1,$1+$1,$4,$5,$6,$7,0*
20,1,$1+$1,$6,$7,$8,$9,0*
20,1,$1+$1,$8,$9,$2,$3,0*%
G04 Aperture macros list end*
%ADD10C,0.100000*%
%ADD11C,0.150000*%
%ADD12C,0.120000*%
%ADD13C,0.127000*%
%ADD14C,0.160000*%
%ADD15C,0.203200*%
%ADD16C,0.010000*%
%ADD17R,1.755600X0.880000*%
%ADD18R,0.855600X0.600000*%
%ADD19RoundRect,0.135000X-0.135000X-0.185000X0.135000X-0.185000X0.135000X0.185000X-0.135000X0.185000X0*%
%ADD20RoundRect,0.225000X0.225000X0.250000X-0.225000X0.250000X-0.225000X-0.250000X0.225000X-0.250000X0*%
%ADD21C,0.650000*%
%ADD22O,0.650000X0.950000*%
%ADD23R,0.700000X0.300000*%
%ADD24O,1.400000X0.800000*%
%ADD25R,1.150000X0.349999*%
%ADD26R,1.450000X0.200000*%
%ADD27R,0.449999X0.249999*%
%ADD28RoundRect,0.225000X0.250000X-0.225000X0.250000X0.225000X-0.250000X0.225000X-0.250000X-0.225000X0*%
%ADD29RoundRect,0.200000X-0.275000X0.200000X-0.275000X-0.200000X0.275000X-0.200000X0.275000X0.200000X0*%
%ADD30RoundRect,0.200000X-0.200000X-0.275000X0.200000X-0.275000X0.200000X0.275000X-0.200000X0.275000X0*%
%ADD31RoundRect,0.218750X0.256250X-0.218750X0.256250X0.218750X-0.256250X0.218750X-0.256250X-0.218750X0*%
%ADD32RoundRect,0.225000X-0.250000X0.225000X-0.250000X-0.225000X0.250000X-0.225000X0.250000X0.225000X0*%
%ADD33R,1.498600X1.295400*%
%ADD34RoundRect,0.087500X-0.425000X-0.087500X0.425000X-0.087500X0.425000X0.087500X-0.425000X0.087500X0*%
%ADD35RoundRect,0.087500X-0.087500X-0.425000X0.087500X-0.425000X0.087500X0.425000X-0.087500X0.425000X0*%
%ADD36R,2.100000X2.100000*%
%ADD37R,1.397000X0.558800*%
%ADD38RoundRect,0.225000X-0.225000X-0.250000X0.225000X-0.250000X0.225000X0.250000X-0.225000X0.250000X0*%
%ADD39RoundRect,0.250000X-0.475000X0.250000X-0.475000X-0.250000X0.475000X-0.250000X0.475000X0.250000X0*%
%ADD40RoundRect,0.135000X0.185000X-0.135000X0.185000X0.135000X-0.185000X0.135000X-0.185000X-0.135000X0*%
%ADD41C,3.000000*%
%ADD42RoundRect,0.200000X0.275000X-0.200000X0.275000X0.200000X-0.275000X0.200000X-0.275000X-0.200000X0*%
%ADD43RoundRect,0.218750X-0.256250X0.218750X-0.256250X-0.218750X0.256250X-0.218750X0.256250X0.218750X0*%
%ADD44RoundRect,0.250000X-0.262500X-0.450000X0.262500X-0.450000X0.262500X0.450000X-0.262500X0.450000X0*%
%ADD45R,1.700000X1.700000*%
%ADD46O,1.700000X1.700000*%
%ADD47R,0.711200X0.203200*%
%ADD48R,1.295400X1.397000*%
%ADD49R,1.320800X1.320800*%
%ADD50C,1.320800*%
%ADD51R,0.880000X1.755600*%
%ADD52R,0.600000X0.855600*%
%ADD53RoundRect,0.140000X-0.170000X0.140000X-0.170000X-0.140000X0.170000X-0.140000X0.170000X0.140000X0*%
%ADD54RoundRect,0.135000X0.135000X0.185000X-0.135000X0.185000X-0.135000X-0.185000X0.135000X-0.185000X0*%
%ADD55R,1.498600X2.946400*%
%ADD56R,1.498600X0.711200*%
%ADD57R,1.500000X1.000000*%
%ADD58RoundRect,0.140000X0.170000X-0.140000X0.170000X0.140000X-0.170000X0.140000X-0.170000X-0.140000X0*%
%ADD59R,1.219200X2.235200*%
%ADD60R,3.600000X2.200000*%
%ADD61RoundRect,0.250000X-0.375000X-0.850000X0.375000X-0.850000X0.375000X0.850000X-0.375000X0.850000X0*%
%ADD62RoundRect,0.243750X0.456250X-0.243750X0.456250X0.243750X-0.456250X0.243750X-0.456250X-0.243750X0*%
G04 APERTURE END LIST*
D10*
X87466666Y-108105952D02*
X87466666Y-107705952D01*
X87561904Y-107705952D01*
X87619047Y-107725000D01*
X87657142Y-107763095D01*
X87676190Y-107801190D01*
X87695238Y-107877380D01*
X87695238Y-107934523D01*
X87676190Y-108010714D01*
X87657142Y-108048809D01*
X87619047Y-108086904D01*
X87561904Y-108105952D01*
X87466666Y-108105952D01*
X87771428Y-108144047D02*
X88076190Y-108144047D01*
X88133333Y-107705952D02*
X88380952Y-107705952D01*
X88247619Y-107858333D01*
X88304761Y-107858333D01*
X88342857Y-107877380D01*
X88361904Y-107896428D01*
X88380952Y-107934523D01*
X88380952Y-108029761D01*
X88361904Y-108067857D01*
X88342857Y-108086904D01*
X88304761Y-108105952D01*
X88190476Y-108105952D01*
X88152380Y-108086904D01*
X88133333Y-108067857D01*
X88552380Y-108067857D02*
X88571428Y-108086904D01*
X88552380Y-108105952D01*
X88533333Y-108086904D01*
X88552380Y-108067857D01*
X88552380Y-108105952D01*
X88704761Y-107705952D02*
X88952380Y-107705952D01*
X88819047Y-107858333D01*
X88876190Y-107858333D01*
X88914285Y-107877380D01*
X88933333Y-107896428D01*
X88952380Y-107934523D01*
X88952380Y-108029761D01*
X88933333Y-108067857D01*
X88914285Y-108086904D01*
X88876190Y-108105952D01*
X88761904Y-108105952D01*
X88723809Y-108086904D01*
X88704761Y-108067857D01*
X67933333Y-72180952D02*
X67800000Y-71990476D01*
X67704761Y-72180952D02*
X67704761Y-71780952D01*
X67857142Y-71780952D01*
X67895238Y-71800000D01*
X67914285Y-71819047D01*
X67933333Y-71857142D01*
X67933333Y-71914285D01*
X67914285Y-71952380D01*
X67895238Y-71971428D01*
X67857142Y-71990476D01*
X67704761Y-71990476D01*
X68123809Y-72180952D02*
X68200000Y-72180952D01*
X68238095Y-72161904D01*
X68257142Y-72142857D01*
X68295238Y-72085714D01*
X68314285Y-72009523D01*
X68314285Y-71857142D01*
X68295238Y-71819047D01*
X68276190Y-71800000D01*
X68238095Y-71780952D01*
X68161904Y-71780952D01*
X68123809Y-71800000D01*
X68104761Y-71819047D01*
X68085714Y-71857142D01*
X68085714Y-71952380D01*
X68104761Y-71990476D01*
X68123809Y-72009523D01*
X68161904Y-72028571D01*
X68238095Y-72028571D01*
X68276190Y-72009523D01*
X68295238Y-71990476D01*
X68314285Y-71952380D01*
D11*
X57682142Y-141462142D02*
X57634523Y-141509761D01*
X57491666Y-141557380D01*
X57396428Y-141557380D01*
X57253571Y-141509761D01*
X57158333Y-141414523D01*
X57110714Y-141319285D01*
X57063095Y-141128809D01*
X57063095Y-140985952D01*
X57110714Y-140795476D01*
X57158333Y-140700238D01*
X57253571Y-140605000D01*
X57396428Y-140557380D01*
X57491666Y-140557380D01*
X57634523Y-140605000D01*
X57682142Y-140652619D01*
X58634523Y-141557380D02*
X58063095Y-141557380D01*
X58348809Y-141557380D02*
X58348809Y-140557380D01*
X58253571Y-140700238D01*
X58158333Y-140795476D01*
X58063095Y-140843095D01*
X59205952Y-140985952D02*
X59110714Y-140938333D01*
X59063095Y-140890714D01*
X59015476Y-140795476D01*
X59015476Y-140747857D01*
X59063095Y-140652619D01*
X59110714Y-140605000D01*
X59205952Y-140557380D01*
X59396428Y-140557380D01*
X59491666Y-140605000D01*
X59539285Y-140652619D01*
X59586904Y-140747857D01*
X59586904Y-140795476D01*
X59539285Y-140890714D01*
X59491666Y-140938333D01*
X59396428Y-140985952D01*
X59205952Y-140985952D01*
X59110714Y-141033571D01*
X59063095Y-141081190D01*
X59015476Y-141176428D01*
X59015476Y-141366904D01*
X59063095Y-141462142D01*
X59110714Y-141509761D01*
X59205952Y-141557380D01*
X59396428Y-141557380D01*
X59491666Y-141509761D01*
X59539285Y-141462142D01*
X59586904Y-141366904D01*
X59586904Y-141176428D01*
X59539285Y-141081190D01*
X59491666Y-141033571D01*
X59396428Y-140985952D01*
X49363380Y-72926533D02*
X50077666Y-72926533D01*
X50220523Y-72974152D01*
X50315761Y-73069390D01*
X50363380Y-73212247D01*
X50363380Y-73307485D01*
X50363380Y-71926533D02*
X50363380Y-72497961D01*
X50363380Y-72212247D02*
X49363380Y-72212247D01*
X49506238Y-72307485D01*
X49601476Y-72402723D01*
X49649095Y-72497961D01*
D10*
X98220238Y-96955952D02*
X98220238Y-97279761D01*
X98239285Y-97317857D01*
X98258333Y-97336904D01*
X98296428Y-97355952D01*
X98372619Y-97355952D01*
X98410714Y-97336904D01*
X98429761Y-97317857D01*
X98448809Y-97279761D01*
X98448809Y-96955952D01*
X98620238Y-96994047D02*
X98639285Y-96975000D01*
X98677380Y-96955952D01*
X98772619Y-96955952D01*
X98810714Y-96975000D01*
X98829761Y-96994047D01*
X98848809Y-97032142D01*
X98848809Y-97070238D01*
X98829761Y-97127380D01*
X98601190Y-97355952D01*
X98848809Y-97355952D01*
X98642857Y-101066666D02*
X98661904Y-101085714D01*
X98680952Y-101142857D01*
X98680952Y-101180952D01*
X98661904Y-101238095D01*
X98623809Y-101276190D01*
X98585714Y-101295238D01*
X98509523Y-101314285D01*
X98452380Y-101314285D01*
X98376190Y-101295238D01*
X98338095Y-101276190D01*
X98300000Y-101238095D01*
X98280952Y-101180952D01*
X98280952Y-101142857D01*
X98300000Y-101085714D01*
X98319047Y-101066666D01*
X98319047Y-100914285D02*
X98300000Y-100895238D01*
X98280952Y-100857142D01*
X98280952Y-100761904D01*
X98300000Y-100723809D01*
X98319047Y-100704761D01*
X98357142Y-100685714D01*
X98395238Y-100685714D01*
X98452380Y-100704761D01*
X98680952Y-100933333D01*
X98680952Y-100685714D01*
X100180952Y-78497619D02*
X99990476Y-78630952D01*
X100180952Y-78726190D02*
X99780952Y-78726190D01*
X99780952Y-78573809D01*
X99800000Y-78535714D01*
X99819047Y-78516666D01*
X99857142Y-78497619D01*
X99914285Y-78497619D01*
X99952380Y-78516666D01*
X99971428Y-78535714D01*
X99990476Y-78573809D01*
X99990476Y-78726190D01*
X100180952Y-78154761D02*
X99971428Y-78154761D01*
X99933333Y-78173809D01*
X99914285Y-78211904D01*
X99914285Y-78288095D01*
X99933333Y-78326190D01*
X100161904Y-78154761D02*
X100180952Y-78192857D01*
X100180952Y-78288095D01*
X100161904Y-78326190D01*
X100123809Y-78345238D01*
X100085714Y-78345238D01*
X100047619Y-78326190D01*
X100028571Y-78288095D01*
X100028571Y-78192857D01*
X100009523Y-78154761D01*
X100180952Y-77754761D02*
X100180952Y-77983333D01*
X100180952Y-77869047D02*
X99780952Y-77869047D01*
X99838095Y-77907142D01*
X99876190Y-77945238D01*
X99895238Y-77983333D01*
X109242857Y-136905952D02*
X109109523Y-136715476D01*
X109014285Y-136905952D02*
X109014285Y-136505952D01*
X109166666Y-136505952D01*
X109204761Y-136525000D01*
X109223809Y-136544047D01*
X109242857Y-136582142D01*
X109242857Y-136639285D01*
X109223809Y-136677380D01*
X109204761Y-136696428D01*
X109166666Y-136715476D01*
X109014285Y-136715476D01*
X109395238Y-136544047D02*
X109414285Y-136525000D01*
X109452380Y-136505952D01*
X109547619Y-136505952D01*
X109585714Y-136525000D01*
X109604761Y-136544047D01*
X109623809Y-136582142D01*
X109623809Y-136620238D01*
X109604761Y-136677380D01*
X109376190Y-136905952D01*
X109623809Y-136905952D01*
X109776190Y-136544047D02*
X109795238Y-136525000D01*
X109833333Y-136505952D01*
X109928571Y-136505952D01*
X109966666Y-136525000D01*
X109985714Y-136544047D01*
X110004761Y-136582142D01*
X110004761Y-136620238D01*
X109985714Y-136677380D01*
X109757142Y-136905952D01*
X110004761Y-136905952D01*
X67940952Y-140875238D02*
X67540952Y-140875238D01*
X67540952Y-140780000D01*
X67560000Y-140722857D01*
X67598095Y-140684761D01*
X67636190Y-140665714D01*
X67712380Y-140646666D01*
X67769523Y-140646666D01*
X67845714Y-140665714D01*
X67883809Y-140684761D01*
X67921904Y-140722857D01*
X67940952Y-140780000D01*
X67940952Y-140875238D01*
X67540952Y-140303809D02*
X67540952Y-140380000D01*
X67560000Y-140418095D01*
X67579047Y-140437142D01*
X67636190Y-140475238D01*
X67712380Y-140494285D01*
X67864761Y-140494285D01*
X67902857Y-140475238D01*
X67921904Y-140456190D01*
X67940952Y-140418095D01*
X67940952Y-140341904D01*
X67921904Y-140303809D01*
X67902857Y-140284761D01*
X67864761Y-140265714D01*
X67769523Y-140265714D01*
X67731428Y-140284761D01*
X67712380Y-140303809D01*
X67693333Y-140341904D01*
X67693333Y-140418095D01*
X67712380Y-140456190D01*
X67731428Y-140475238D01*
X67769523Y-140494285D01*
X69994133Y-71262857D02*
X69975085Y-71281904D01*
X69917942Y-71300952D01*
X69879847Y-71300952D01*
X69822704Y-71281904D01*
X69784609Y-71243809D01*
X69765561Y-71205714D01*
X69746514Y-71129523D01*
X69746514Y-71072380D01*
X69765561Y-70996190D01*
X69784609Y-70958095D01*
X69822704Y-70920000D01*
X69879847Y-70900952D01*
X69917942Y-70900952D01*
X69975085Y-70920000D01*
X69994133Y-70939047D01*
X70222704Y-71072380D02*
X70184609Y-71053333D01*
X70165561Y-71034285D01*
X70146514Y-70996190D01*
X70146514Y-70977142D01*
X70165561Y-70939047D01*
X70184609Y-70920000D01*
X70222704Y-70900952D01*
X70298895Y-70900952D01*
X70336990Y-70920000D01*
X70356038Y-70939047D01*
X70375085Y-70977142D01*
X70375085Y-70996190D01*
X70356038Y-71034285D01*
X70336990Y-71053333D01*
X70298895Y-71072380D01*
X70222704Y-71072380D01*
X70184609Y-71091428D01*
X70165561Y-71110476D01*
X70146514Y-71148571D01*
X70146514Y-71224761D01*
X70165561Y-71262857D01*
X70184609Y-71281904D01*
X70222704Y-71300952D01*
X70298895Y-71300952D01*
X70336990Y-71281904D01*
X70356038Y-71262857D01*
X70375085Y-71224761D01*
X70375085Y-71148571D01*
X70356038Y-71110476D01*
X70336990Y-71091428D01*
X70298895Y-71072380D01*
X94433333Y-108180952D02*
X94242857Y-108180952D01*
X94242857Y-107780952D01*
X94528571Y-107780952D02*
X94776190Y-107780952D01*
X94642857Y-107933333D01*
X94700000Y-107933333D01*
X94738095Y-107952380D01*
X94757142Y-107971428D01*
X94776190Y-108009523D01*
X94776190Y-108104761D01*
X94757142Y-108142857D01*
X94738095Y-108161904D01*
X94700000Y-108180952D01*
X94585714Y-108180952D01*
X94547619Y-108161904D01*
X94528571Y-108142857D01*
D11*
X113568422Y-123132380D02*
X113467232Y-123941904D01*
X113502946Y-124037142D01*
X113544613Y-124084761D01*
X113633898Y-124132380D01*
X113824375Y-124132380D01*
X113925565Y-124084761D01*
X113979136Y-124037142D01*
X114038660Y-123941904D01*
X114139851Y-123132380D01*
X114520803Y-123132380D02*
X115139851Y-123132380D01*
X114758898Y-123513333D01*
X114901755Y-123513333D01*
X114991041Y-123560952D01*
X115032708Y-123608571D01*
X115068422Y-123703809D01*
X115038660Y-123941904D01*
X114979136Y-124037142D01*
X114925565Y-124084761D01*
X114824375Y-124132380D01*
X114538660Y-124132380D01*
X114449375Y-124084761D01*
X114407708Y-124037142D01*
X67818095Y-116292380D02*
X67818095Y-117101904D01*
X67865714Y-117197142D01*
X67913333Y-117244761D01*
X68008571Y-117292380D01*
X68199047Y-117292380D01*
X68294285Y-117244761D01*
X68341904Y-117197142D01*
X68389523Y-117101904D01*
X68389523Y-116292380D01*
X68770476Y-116292380D02*
X69437142Y-116292380D01*
X69008571Y-117292380D01*
D10*
X64843057Y-61509257D02*
X64824009Y-61528304D01*
X64766866Y-61547352D01*
X64728771Y-61547352D01*
X64671628Y-61528304D01*
X64633533Y-61490209D01*
X64614485Y-61452114D01*
X64595438Y-61375923D01*
X64595438Y-61318780D01*
X64614485Y-61242590D01*
X64633533Y-61204495D01*
X64671628Y-61166400D01*
X64728771Y-61147352D01*
X64766866Y-61147352D01*
X64824009Y-61166400D01*
X64843057Y-61185447D01*
X65224009Y-61547352D02*
X64995438Y-61547352D01*
X65109723Y-61547352D02*
X65109723Y-61147352D01*
X65071628Y-61204495D01*
X65033533Y-61242590D01*
X64995438Y-61261638D01*
X65357342Y-61147352D02*
X65604961Y-61147352D01*
X65471628Y-61299733D01*
X65528771Y-61299733D01*
X65566866Y-61318780D01*
X65585914Y-61337828D01*
X65604961Y-61375923D01*
X65604961Y-61471161D01*
X65585914Y-61509257D01*
X65566866Y-61528304D01*
X65528771Y-61547352D01*
X65414485Y-61547352D01*
X65376390Y-61528304D01*
X65357342Y-61509257D01*
X102202380Y-85067857D02*
X102183333Y-85086904D01*
X102126190Y-85105952D01*
X102088095Y-85105952D01*
X102030952Y-85086904D01*
X101992857Y-85048809D01*
X101973809Y-85010714D01*
X101954761Y-84934523D01*
X101954761Y-84877380D01*
X101973809Y-84801190D01*
X101992857Y-84763095D01*
X102030952Y-84725000D01*
X102088095Y-84705952D01*
X102126190Y-84705952D01*
X102183333Y-84725000D01*
X102202380Y-84744047D01*
X102545238Y-85105952D02*
X102545238Y-84896428D01*
X102526190Y-84858333D01*
X102488095Y-84839285D01*
X102411904Y-84839285D01*
X102373809Y-84858333D01*
X102545238Y-85086904D02*
X102507142Y-85105952D01*
X102411904Y-85105952D01*
X102373809Y-85086904D01*
X102354761Y-85048809D01*
X102354761Y-85010714D01*
X102373809Y-84972619D01*
X102411904Y-84953571D01*
X102507142Y-84953571D01*
X102545238Y-84934523D01*
X102945238Y-85105952D02*
X102716666Y-85105952D01*
X102830952Y-85105952D02*
X102830952Y-84705952D01*
X102792857Y-84763095D01*
X102754761Y-84801190D01*
X102716666Y-84820238D01*
D11*
X81002380Y-120173866D02*
X80526190Y-120507200D01*
X81002380Y-120745295D02*
X80002380Y-120745295D01*
X80002380Y-120364342D01*
X80050000Y-120269104D01*
X80097619Y-120221485D01*
X80192857Y-120173866D01*
X80335714Y-120173866D01*
X80430952Y-120221485D01*
X80478571Y-120269104D01*
X80526190Y-120364342D01*
X80526190Y-120745295D01*
X80002380Y-119316723D02*
X80002380Y-119507200D01*
X80050000Y-119602438D01*
X80097619Y-119650057D01*
X80240476Y-119745295D01*
X80430952Y-119792914D01*
X80811904Y-119792914D01*
X80907142Y-119745295D01*
X80954761Y-119697676D01*
X81002380Y-119602438D01*
X81002380Y-119411961D01*
X80954761Y-119316723D01*
X80907142Y-119269104D01*
X80811904Y-119221485D01*
X80573809Y-119221485D01*
X80478571Y-119269104D01*
X80430952Y-119316723D01*
X80383333Y-119411961D01*
X80383333Y-119602438D01*
X80430952Y-119697676D01*
X80478571Y-119745295D01*
X80573809Y-119792914D01*
D10*
X62163333Y-62093457D02*
X62144285Y-62112504D01*
X62087142Y-62131552D01*
X62049047Y-62131552D01*
X61991904Y-62112504D01*
X61953809Y-62074409D01*
X61934761Y-62036314D01*
X61915714Y-61960123D01*
X61915714Y-61902980D01*
X61934761Y-61826790D01*
X61953809Y-61788695D01*
X61991904Y-61750600D01*
X62049047Y-61731552D01*
X62087142Y-61731552D01*
X62144285Y-61750600D01*
X62163333Y-61769647D01*
X62525238Y-61731552D02*
X62334761Y-61731552D01*
X62315714Y-61922028D01*
X62334761Y-61902980D01*
X62372857Y-61883933D01*
X62468095Y-61883933D01*
X62506190Y-61902980D01*
X62525238Y-61922028D01*
X62544285Y-61960123D01*
X62544285Y-62055361D01*
X62525238Y-62093457D01*
X62506190Y-62112504D01*
X62468095Y-62131552D01*
X62372857Y-62131552D01*
X62334761Y-62112504D01*
X62315714Y-62093457D01*
X59515352Y-72367742D02*
X59324876Y-72501076D01*
X59515352Y-72596314D02*
X59115352Y-72596314D01*
X59115352Y-72443933D01*
X59134400Y-72405838D01*
X59153447Y-72386790D01*
X59191542Y-72367742D01*
X59248685Y-72367742D01*
X59286780Y-72386790D01*
X59305828Y-72405838D01*
X59324876Y-72443933D01*
X59324876Y-72596314D01*
X59515352Y-71986790D02*
X59515352Y-72215361D01*
X59515352Y-72101076D02*
X59115352Y-72101076D01*
X59172495Y-72139171D01*
X59210590Y-72177266D01*
X59229638Y-72215361D01*
X59115352Y-71739171D02*
X59115352Y-71701076D01*
X59134400Y-71662980D01*
X59153447Y-71643933D01*
X59191542Y-71624885D01*
X59267733Y-71605838D01*
X59362971Y-71605838D01*
X59439161Y-71624885D01*
X59477257Y-71643933D01*
X59496304Y-71662980D01*
X59515352Y-71701076D01*
X59515352Y-71739171D01*
X59496304Y-71777266D01*
X59477257Y-71796314D01*
X59439161Y-71815361D01*
X59362971Y-71834409D01*
X59267733Y-71834409D01*
X59191542Y-71815361D01*
X59153447Y-71796314D01*
X59134400Y-71777266D01*
X59115352Y-71739171D01*
X106152380Y-101942857D02*
X106133333Y-101961904D01*
X106076190Y-101980952D01*
X106038095Y-101980952D01*
X105980952Y-101961904D01*
X105942857Y-101923809D01*
X105923809Y-101885714D01*
X105904761Y-101809523D01*
X105904761Y-101752380D01*
X105923809Y-101676190D01*
X105942857Y-101638095D01*
X105980952Y-101600000D01*
X106038095Y-101580952D01*
X106076190Y-101580952D01*
X106133333Y-101600000D01*
X106152380Y-101619047D01*
X106323809Y-101980952D02*
X106323809Y-101580952D01*
X106323809Y-101733333D02*
X106361904Y-101714285D01*
X106438095Y-101714285D01*
X106476190Y-101733333D01*
X106495238Y-101752380D01*
X106514285Y-101790476D01*
X106514285Y-101904761D01*
X106495238Y-101942857D01*
X106476190Y-101961904D01*
X106438095Y-101980952D01*
X106361904Y-101980952D01*
X106323809Y-101961904D01*
X106647619Y-101580952D02*
X106895238Y-101580952D01*
X106761904Y-101733333D01*
X106819047Y-101733333D01*
X106857142Y-101752380D01*
X106876190Y-101771428D01*
X106895238Y-101809523D01*
X106895238Y-101904761D01*
X106876190Y-101942857D01*
X106857142Y-101961904D01*
X106819047Y-101980952D01*
X106704761Y-101980952D01*
X106666666Y-101961904D01*
X106647619Y-101942857D01*
X94683333Y-91680952D02*
X94492857Y-91680952D01*
X94492857Y-91280952D01*
X94797619Y-91319047D02*
X94816666Y-91300000D01*
X94854761Y-91280952D01*
X94950000Y-91280952D01*
X94988095Y-91300000D01*
X95007142Y-91319047D01*
X95026190Y-91357142D01*
X95026190Y-91395238D01*
X95007142Y-91452380D01*
X94778571Y-91680952D01*
X95026190Y-91680952D01*
X66798857Y-82642057D02*
X66779809Y-82661104D01*
X66722666Y-82680152D01*
X66684571Y-82680152D01*
X66627428Y-82661104D01*
X66589333Y-82623009D01*
X66570285Y-82584914D01*
X66551238Y-82508723D01*
X66551238Y-82451580D01*
X66570285Y-82375390D01*
X66589333Y-82337295D01*
X66627428Y-82299200D01*
X66684571Y-82280152D01*
X66722666Y-82280152D01*
X66779809Y-82299200D01*
X66798857Y-82318247D01*
X67179809Y-82680152D02*
X66951238Y-82680152D01*
X67065523Y-82680152D02*
X67065523Y-82280152D01*
X67027428Y-82337295D01*
X66989333Y-82375390D01*
X66951238Y-82394438D01*
X67541714Y-82280152D02*
X67351238Y-82280152D01*
X67332190Y-82470628D01*
X67351238Y-82451580D01*
X67389333Y-82432533D01*
X67484571Y-82432533D01*
X67522666Y-82451580D01*
X67541714Y-82470628D01*
X67560761Y-82508723D01*
X67560761Y-82603961D01*
X67541714Y-82642057D01*
X67522666Y-82661104D01*
X67484571Y-82680152D01*
X67389333Y-82680152D01*
X67351238Y-82661104D01*
X67332190Y-82642057D01*
D11*
X126238095Y-140152380D02*
X126238095Y-139152380D01*
X126238095Y-139628571D02*
X126809523Y-139628571D01*
X126809523Y-140152380D02*
X126809523Y-139152380D01*
X127190476Y-139152380D02*
X127809523Y-139152380D01*
X127476190Y-139533333D01*
X127619047Y-139533333D01*
X127714285Y-139580952D01*
X127761904Y-139628571D01*
X127809523Y-139723809D01*
X127809523Y-139961904D01*
X127761904Y-140057142D01*
X127714285Y-140104761D01*
X127619047Y-140152380D01*
X127333333Y-140152380D01*
X127238095Y-140104761D01*
X127190476Y-140057142D01*
X51784542Y-130182857D02*
X51832161Y-130230476D01*
X51879780Y-130373333D01*
X51879780Y-130468571D01*
X51832161Y-130611428D01*
X51736923Y-130706666D01*
X51641685Y-130754285D01*
X51451209Y-130801904D01*
X51308352Y-130801904D01*
X51117876Y-130754285D01*
X51022638Y-130706666D01*
X50927400Y-130611428D01*
X50879780Y-130468571D01*
X50879780Y-130373333D01*
X50927400Y-130230476D01*
X50975019Y-130182857D01*
X50975019Y-129801904D02*
X50927400Y-129754285D01*
X50879780Y-129659047D01*
X50879780Y-129420952D01*
X50927400Y-129325714D01*
X50975019Y-129278095D01*
X51070257Y-129230476D01*
X51165495Y-129230476D01*
X51308352Y-129278095D01*
X51879780Y-129849523D01*
X51879780Y-129230476D01*
X51879780Y-128278095D02*
X51879780Y-128849523D01*
X51879780Y-128563809D02*
X50879780Y-128563809D01*
X51022638Y-128659047D01*
X51117876Y-128754285D01*
X51165495Y-128849523D01*
D10*
X96930952Y-94997619D02*
X96740476Y-95130952D01*
X96930952Y-95226190D02*
X96530952Y-95226190D01*
X96530952Y-95073809D01*
X96550000Y-95035714D01*
X96569047Y-95016666D01*
X96607142Y-94997619D01*
X96664285Y-94997619D01*
X96702380Y-95016666D01*
X96721428Y-95035714D01*
X96740476Y-95073809D01*
X96740476Y-95226190D01*
X96930952Y-94826190D02*
X96530952Y-94826190D01*
X96683333Y-94826190D02*
X96664285Y-94788095D01*
X96664285Y-94711904D01*
X96683333Y-94673809D01*
X96702380Y-94654761D01*
X96740476Y-94635714D01*
X96854761Y-94635714D01*
X96892857Y-94654761D01*
X96911904Y-94673809D01*
X96930952Y-94711904D01*
X96930952Y-94788095D01*
X96911904Y-94826190D01*
X96569047Y-94483333D02*
X96550000Y-94464285D01*
X96530952Y-94426190D01*
X96530952Y-94330952D01*
X96550000Y-94292857D01*
X96569047Y-94273809D01*
X96607142Y-94254761D01*
X96645238Y-94254761D01*
X96702380Y-94273809D01*
X96930952Y-94502380D01*
X96930952Y-94254761D01*
X109042857Y-140005952D02*
X108909523Y-139815476D01*
X108814285Y-140005952D02*
X108814285Y-139605952D01*
X108966666Y-139605952D01*
X109004761Y-139625000D01*
X109023809Y-139644047D01*
X109042857Y-139682142D01*
X109042857Y-139739285D01*
X109023809Y-139777380D01*
X109004761Y-139796428D01*
X108966666Y-139815476D01*
X108814285Y-139815476D01*
X109195238Y-139644047D02*
X109214285Y-139625000D01*
X109252380Y-139605952D01*
X109347619Y-139605952D01*
X109385714Y-139625000D01*
X109404761Y-139644047D01*
X109423809Y-139682142D01*
X109423809Y-139720238D01*
X109404761Y-139777380D01*
X109176190Y-140005952D01*
X109423809Y-140005952D01*
X109671428Y-139605952D02*
X109709523Y-139605952D01*
X109747619Y-139625000D01*
X109766666Y-139644047D01*
X109785714Y-139682142D01*
X109804761Y-139758333D01*
X109804761Y-139853571D01*
X109785714Y-139929761D01*
X109766666Y-139967857D01*
X109747619Y-139986904D01*
X109709523Y-140005952D01*
X109671428Y-140005952D01*
X109633333Y-139986904D01*
X109614285Y-139967857D01*
X109595238Y-139929761D01*
X109576190Y-139853571D01*
X109576190Y-139758333D01*
X109595238Y-139682142D01*
X109614285Y-139644047D01*
X109633333Y-139625000D01*
X109671428Y-139605952D01*
D11*
X57777142Y-136182380D02*
X57443809Y-135706190D01*
X57205714Y-136182380D02*
X57205714Y-135182380D01*
X57586666Y-135182380D01*
X57681904Y-135230000D01*
X57729523Y-135277619D01*
X57777142Y-135372857D01*
X57777142Y-135515714D01*
X57729523Y-135610952D01*
X57681904Y-135658571D01*
X57586666Y-135706190D01*
X57205714Y-135706190D01*
X58729523Y-136182380D02*
X58158095Y-136182380D01*
X58443809Y-136182380D02*
X58443809Y-135182380D01*
X58348571Y-135325238D01*
X58253333Y-135420476D01*
X58158095Y-135468095D01*
X59586666Y-135182380D02*
X59396190Y-135182380D01*
X59300952Y-135230000D01*
X59253333Y-135277619D01*
X59158095Y-135420476D01*
X59110476Y-135610952D01*
X59110476Y-135991904D01*
X59158095Y-136087142D01*
X59205714Y-136134761D01*
X59300952Y-136182380D01*
X59491428Y-136182380D01*
X59586666Y-136134761D01*
X59634285Y-136087142D01*
X59681904Y-135991904D01*
X59681904Y-135753809D01*
X59634285Y-135658571D01*
X59586666Y-135610952D01*
X59491428Y-135563333D01*
X59300952Y-135563333D01*
X59205714Y-135610952D01*
X59158095Y-135658571D01*
X59110476Y-135753809D01*
D10*
X59997952Y-75479238D02*
X59597952Y-75479238D01*
X59597952Y-75384000D01*
X59617000Y-75326857D01*
X59655095Y-75288761D01*
X59693190Y-75269714D01*
X59769380Y-75250666D01*
X59826523Y-75250666D01*
X59902714Y-75269714D01*
X59940809Y-75288761D01*
X59978904Y-75326857D01*
X59997952Y-75384000D01*
X59997952Y-75479238D01*
X59636047Y-75098285D02*
X59617000Y-75079238D01*
X59597952Y-75041142D01*
X59597952Y-74945904D01*
X59617000Y-74907809D01*
X59636047Y-74888761D01*
X59674142Y-74869714D01*
X59712238Y-74869714D01*
X59769380Y-74888761D01*
X59997952Y-75117333D01*
X59997952Y-74869714D01*
X75560952Y-140895238D02*
X75160952Y-140895238D01*
X75160952Y-140800000D01*
X75180000Y-140742857D01*
X75218095Y-140704761D01*
X75256190Y-140685714D01*
X75332380Y-140666666D01*
X75389523Y-140666666D01*
X75465714Y-140685714D01*
X75503809Y-140704761D01*
X75541904Y-140742857D01*
X75560952Y-140800000D01*
X75560952Y-140895238D01*
X75560952Y-140476190D02*
X75560952Y-140400000D01*
X75541904Y-140361904D01*
X75522857Y-140342857D01*
X75465714Y-140304761D01*
X75389523Y-140285714D01*
X75237142Y-140285714D01*
X75199047Y-140304761D01*
X75180000Y-140323809D01*
X75160952Y-140361904D01*
X75160952Y-140438095D01*
X75180000Y-140476190D01*
X75199047Y-140495238D01*
X75237142Y-140514285D01*
X75332380Y-140514285D01*
X75370476Y-140495238D01*
X75389523Y-140476190D01*
X75408571Y-140438095D01*
X75408571Y-140361904D01*
X75389523Y-140323809D01*
X75370476Y-140304761D01*
X75332380Y-140285714D01*
X96180952Y-78497619D02*
X95990476Y-78630952D01*
X96180952Y-78726190D02*
X95780952Y-78726190D01*
X95780952Y-78573809D01*
X95800000Y-78535714D01*
X95819047Y-78516666D01*
X95857142Y-78497619D01*
X95914285Y-78497619D01*
X95952380Y-78516666D01*
X95971428Y-78535714D01*
X95990476Y-78573809D01*
X95990476Y-78726190D01*
X96180952Y-78154761D02*
X95971428Y-78154761D01*
X95933333Y-78173809D01*
X95914285Y-78211904D01*
X95914285Y-78288095D01*
X95933333Y-78326190D01*
X96161904Y-78154761D02*
X96180952Y-78192857D01*
X96180952Y-78288095D01*
X96161904Y-78326190D01*
X96123809Y-78345238D01*
X96085714Y-78345238D01*
X96047619Y-78326190D01*
X96028571Y-78288095D01*
X96028571Y-78192857D01*
X96009523Y-78154761D01*
X95819047Y-77983333D02*
X95800000Y-77964285D01*
X95780952Y-77926190D01*
X95780952Y-77830952D01*
X95800000Y-77792857D01*
X95819047Y-77773809D01*
X95857142Y-77754761D01*
X95895238Y-77754761D01*
X95952380Y-77773809D01*
X96180952Y-78002380D01*
X96180952Y-77754761D01*
D11*
X118359180Y-135828066D02*
X117882990Y-136161400D01*
X118359180Y-136399495D02*
X117359180Y-136399495D01*
X117359180Y-136018542D01*
X117406800Y-135923304D01*
X117454419Y-135875685D01*
X117549657Y-135828066D01*
X117692514Y-135828066D01*
X117787752Y-135875685D01*
X117835371Y-135923304D01*
X117882990Y-136018542D01*
X117882990Y-136399495D01*
X117359180Y-134923304D02*
X117359180Y-135399495D01*
X117835371Y-135447114D01*
X117787752Y-135399495D01*
X117740133Y-135304257D01*
X117740133Y-135066161D01*
X117787752Y-134970923D01*
X117835371Y-134923304D01*
X117930609Y-134875685D01*
X118168704Y-134875685D01*
X118263942Y-134923304D01*
X118311561Y-134970923D01*
X118359180Y-135066161D01*
X118359180Y-135304257D01*
X118311561Y-135399495D01*
X118263942Y-135447114D01*
X57762380Y-130182857D02*
X57286190Y-130516190D01*
X57762380Y-130754285D02*
X56762380Y-130754285D01*
X56762380Y-130373333D01*
X56810000Y-130278095D01*
X56857619Y-130230476D01*
X56952857Y-130182857D01*
X57095714Y-130182857D01*
X57190952Y-130230476D01*
X57238571Y-130278095D01*
X57286190Y-130373333D01*
X57286190Y-130754285D01*
X57762380Y-129230476D02*
X57762380Y-129801904D01*
X57762380Y-129516190D02*
X56762380Y-129516190D01*
X56905238Y-129611428D01*
X57000476Y-129706666D01*
X57048095Y-129801904D01*
X56762380Y-128325714D02*
X56762380Y-128801904D01*
X57238571Y-128849523D01*
X57190952Y-128801904D01*
X57143333Y-128706666D01*
X57143333Y-128468571D01*
X57190952Y-128373333D01*
X57238571Y-128325714D01*
X57333809Y-128278095D01*
X57571904Y-128278095D01*
X57667142Y-128325714D01*
X57714761Y-128373333D01*
X57762380Y-128468571D01*
X57762380Y-128706666D01*
X57714761Y-128801904D01*
X57667142Y-128849523D01*
D10*
X109142857Y-141730952D02*
X109009523Y-141540476D01*
X108914285Y-141730952D02*
X108914285Y-141330952D01*
X109066666Y-141330952D01*
X109104761Y-141350000D01*
X109123809Y-141369047D01*
X109142857Y-141407142D01*
X109142857Y-141464285D01*
X109123809Y-141502380D01*
X109104761Y-141521428D01*
X109066666Y-141540476D01*
X108914285Y-141540476D01*
X109523809Y-141730952D02*
X109295238Y-141730952D01*
X109409523Y-141730952D02*
X109409523Y-141330952D01*
X109371428Y-141388095D01*
X109333333Y-141426190D01*
X109295238Y-141445238D01*
X109714285Y-141730952D02*
X109790476Y-141730952D01*
X109828571Y-141711904D01*
X109847619Y-141692857D01*
X109885714Y-141635714D01*
X109904761Y-141559523D01*
X109904761Y-141407142D01*
X109885714Y-141369047D01*
X109866666Y-141350000D01*
X109828571Y-141330952D01*
X109752380Y-141330952D01*
X109714285Y-141350000D01*
X109695238Y-141369047D01*
X109676190Y-141407142D01*
X109676190Y-141502380D01*
X109695238Y-141540476D01*
X109714285Y-141559523D01*
X109752380Y-141578571D01*
X109828571Y-141578571D01*
X109866666Y-141559523D01*
X109885714Y-141540476D01*
X109904761Y-141502380D01*
X109217857Y-135480952D02*
X109084523Y-135290476D01*
X108989285Y-135480952D02*
X108989285Y-135080952D01*
X109141666Y-135080952D01*
X109179761Y-135100000D01*
X109198809Y-135119047D01*
X109217857Y-135157142D01*
X109217857Y-135214285D01*
X109198809Y-135252380D01*
X109179761Y-135271428D01*
X109141666Y-135290476D01*
X108989285Y-135290476D01*
X109370238Y-135119047D02*
X109389285Y-135100000D01*
X109427380Y-135080952D01*
X109522619Y-135080952D01*
X109560714Y-135100000D01*
X109579761Y-135119047D01*
X109598809Y-135157142D01*
X109598809Y-135195238D01*
X109579761Y-135252380D01*
X109351190Y-135480952D01*
X109598809Y-135480952D01*
X109732142Y-135080952D02*
X109979761Y-135080952D01*
X109846428Y-135233333D01*
X109903571Y-135233333D01*
X109941666Y-135252380D01*
X109960714Y-135271428D01*
X109979761Y-135309523D01*
X109979761Y-135404761D01*
X109960714Y-135442857D01*
X109941666Y-135461904D01*
X109903571Y-135480952D01*
X109789285Y-135480952D01*
X109751190Y-135461904D01*
X109732142Y-135442857D01*
X66824257Y-80216352D02*
X66690923Y-80025876D01*
X66595685Y-80216352D02*
X66595685Y-79816352D01*
X66748066Y-79816352D01*
X66786161Y-79835400D01*
X66805209Y-79854447D01*
X66824257Y-79892542D01*
X66824257Y-79949685D01*
X66805209Y-79987780D01*
X66786161Y-80006828D01*
X66748066Y-80025876D01*
X66595685Y-80025876D01*
X67205209Y-80216352D02*
X66976638Y-80216352D01*
X67090923Y-80216352D02*
X67090923Y-79816352D01*
X67052828Y-79873495D01*
X67014733Y-79911590D01*
X66976638Y-79930638D01*
X67357590Y-79854447D02*
X67376638Y-79835400D01*
X67414733Y-79816352D01*
X67509971Y-79816352D01*
X67548066Y-79835400D01*
X67567114Y-79854447D01*
X67586161Y-79892542D01*
X67586161Y-79930638D01*
X67567114Y-79987780D01*
X67338542Y-80216352D01*
X67586161Y-80216352D01*
D11*
X129298666Y-73947380D02*
X129298666Y-74661666D01*
X129251047Y-74804523D01*
X129155809Y-74899761D01*
X129012952Y-74947380D01*
X128917714Y-74947380D01*
X129679619Y-73947380D02*
X130298666Y-73947380D01*
X129965333Y-74328333D01*
X130108190Y-74328333D01*
X130203428Y-74375952D01*
X130251047Y-74423571D01*
X130298666Y-74518809D01*
X130298666Y-74756904D01*
X130251047Y-74852142D01*
X130203428Y-74899761D01*
X130108190Y-74947380D01*
X129822476Y-74947380D01*
X129727238Y-74899761D01*
X129679619Y-74852142D01*
X121534180Y-135624866D02*
X121057990Y-135958200D01*
X121534180Y-136196295D02*
X120534180Y-136196295D01*
X120534180Y-135815342D01*
X120581800Y-135720104D01*
X120629419Y-135672485D01*
X120724657Y-135624866D01*
X120867514Y-135624866D01*
X120962752Y-135672485D01*
X121010371Y-135720104D01*
X121057990Y-135815342D01*
X121057990Y-136196295D01*
X120534180Y-135291533D02*
X120534180Y-134624866D01*
X121534180Y-135053438D01*
D10*
X67427457Y-66703542D02*
X67446504Y-66722590D01*
X67465552Y-66779733D01*
X67465552Y-66817828D01*
X67446504Y-66874971D01*
X67408409Y-66913066D01*
X67370314Y-66932114D01*
X67294123Y-66951161D01*
X67236980Y-66951161D01*
X67160790Y-66932114D01*
X67122695Y-66913066D01*
X67084600Y-66874971D01*
X67065552Y-66817828D01*
X67065552Y-66779733D01*
X67084600Y-66722590D01*
X67103647Y-66703542D01*
X67465552Y-66322590D02*
X67465552Y-66551161D01*
X67465552Y-66436876D02*
X67065552Y-66436876D01*
X67122695Y-66474971D01*
X67160790Y-66513066D01*
X67179838Y-66551161D01*
X67103647Y-66170209D02*
X67084600Y-66151161D01*
X67065552Y-66113066D01*
X67065552Y-66017828D01*
X67084600Y-65979733D01*
X67103647Y-65960685D01*
X67141742Y-65941638D01*
X67179838Y-65941638D01*
X67236980Y-65960685D01*
X67465552Y-66189257D01*
X67465552Y-65941638D01*
X72720238Y-76666752D02*
X72720238Y-76990561D01*
X72739285Y-77028657D01*
X72758333Y-77047704D01*
X72796428Y-77066752D01*
X72872619Y-77066752D01*
X72910714Y-77047704D01*
X72929761Y-77028657D01*
X72948809Y-76990561D01*
X72948809Y-76666752D01*
X73310714Y-76666752D02*
X73234523Y-76666752D01*
X73196428Y-76685800D01*
X73177380Y-76704847D01*
X73139285Y-76761990D01*
X73120238Y-76838180D01*
X73120238Y-76990561D01*
X73139285Y-77028657D01*
X73158333Y-77047704D01*
X73196428Y-77066752D01*
X73272619Y-77066752D01*
X73310714Y-77047704D01*
X73329761Y-77028657D01*
X73348809Y-76990561D01*
X73348809Y-76895323D01*
X73329761Y-76857228D01*
X73310714Y-76838180D01*
X73272619Y-76819133D01*
X73196428Y-76819133D01*
X73158333Y-76838180D01*
X73139285Y-76857228D01*
X73120238Y-76895323D01*
D11*
X93940380Y-134873904D02*
X94749904Y-134873904D01*
X94845142Y-134826285D01*
X94892761Y-134778666D01*
X94940380Y-134683428D01*
X94940380Y-134492952D01*
X94892761Y-134397714D01*
X94845142Y-134350095D01*
X94749904Y-134302476D01*
X93940380Y-134302476D01*
X94368952Y-133683428D02*
X94321333Y-133778666D01*
X94273714Y-133826285D01*
X94178476Y-133873904D01*
X94130857Y-133873904D01*
X94035619Y-133826285D01*
X93988000Y-133778666D01*
X93940380Y-133683428D01*
X93940380Y-133492952D01*
X93988000Y-133397714D01*
X94035619Y-133350095D01*
X94130857Y-133302476D01*
X94178476Y-133302476D01*
X94273714Y-133350095D01*
X94321333Y-133397714D01*
X94368952Y-133492952D01*
X94368952Y-133683428D01*
X94416571Y-133778666D01*
X94464190Y-133826285D01*
X94559428Y-133873904D01*
X94749904Y-133873904D01*
X94845142Y-133826285D01*
X94892761Y-133778666D01*
X94940380Y-133683428D01*
X94940380Y-133492952D01*
X94892761Y-133397714D01*
X94845142Y-133350095D01*
X94749904Y-133302476D01*
X94559428Y-133302476D01*
X94464190Y-133350095D01*
X94416571Y-133397714D01*
X94368952Y-133492952D01*
X60920380Y-137922000D02*
X61158476Y-137922000D01*
X61063238Y-138160095D02*
X61158476Y-137922000D01*
X61063238Y-137683904D01*
X61348952Y-138064857D02*
X61158476Y-137922000D01*
X61348952Y-137779142D01*
X85702380Y-120022857D02*
X85226190Y-120356190D01*
X85702380Y-120594285D02*
X84702380Y-120594285D01*
X84702380Y-120213333D01*
X84750000Y-120118095D01*
X84797619Y-120070476D01*
X84892857Y-120022857D01*
X85035714Y-120022857D01*
X85130952Y-120070476D01*
X85178571Y-120118095D01*
X85226190Y-120213333D01*
X85226190Y-120594285D01*
X85702380Y-119070476D02*
X85702380Y-119641904D01*
X85702380Y-119356190D02*
X84702380Y-119356190D01*
X84845238Y-119451428D01*
X84940476Y-119546666D01*
X84988095Y-119641904D01*
X85035714Y-118213333D02*
X85702380Y-118213333D01*
X84654761Y-118451428D02*
X85369047Y-118689523D01*
X85369047Y-118070476D01*
X60858476Y-67151304D02*
X60858476Y-67798923D01*
X60896571Y-67875114D01*
X60934666Y-67913209D01*
X61010857Y-67951304D01*
X61163238Y-67951304D01*
X61239428Y-67913209D01*
X61277523Y-67875114D01*
X61315619Y-67798923D01*
X61315619Y-67151304D01*
X62077523Y-67151304D02*
X61696571Y-67151304D01*
X61658476Y-67532257D01*
X61696571Y-67494161D01*
X61772761Y-67456066D01*
X61963238Y-67456066D01*
X62039428Y-67494161D01*
X62077523Y-67532257D01*
X62115619Y-67608447D01*
X62115619Y-67798923D01*
X62077523Y-67875114D01*
X62039428Y-67913209D01*
X61963238Y-67951304D01*
X61772761Y-67951304D01*
X61696571Y-67913209D01*
X61658476Y-67875114D01*
D10*
X110655952Y-102570238D02*
X110255952Y-102570238D01*
X110255952Y-102475000D01*
X110275000Y-102417857D01*
X110313095Y-102379761D01*
X110351190Y-102360714D01*
X110427380Y-102341666D01*
X110484523Y-102341666D01*
X110560714Y-102360714D01*
X110598809Y-102379761D01*
X110636904Y-102417857D01*
X110655952Y-102475000D01*
X110655952Y-102570238D01*
X110389285Y-101998809D02*
X110655952Y-101998809D01*
X110236904Y-102094047D02*
X110522619Y-102189285D01*
X110522619Y-101941666D01*
D11*
X42418095Y-63952380D02*
X42418095Y-62952380D01*
X42418095Y-63428571D02*
X42989523Y-63428571D01*
X42989523Y-63952380D02*
X42989523Y-62952380D01*
X43989523Y-63952380D02*
X43418095Y-63952380D01*
X43703809Y-63952380D02*
X43703809Y-62952380D01*
X43608571Y-63095238D01*
X43513333Y-63190476D01*
X43418095Y-63238095D01*
X89032142Y-115767142D02*
X88984523Y-115814761D01*
X88841666Y-115862380D01*
X88746428Y-115862380D01*
X88603571Y-115814761D01*
X88508333Y-115719523D01*
X88460714Y-115624285D01*
X88413095Y-115433809D01*
X88413095Y-115290952D01*
X88460714Y-115100476D01*
X88508333Y-115005238D01*
X88603571Y-114910000D01*
X88746428Y-114862380D01*
X88841666Y-114862380D01*
X88984523Y-114910000D01*
X89032142Y-114957619D01*
X89984523Y-115862380D02*
X89413095Y-115862380D01*
X89698809Y-115862380D02*
X89698809Y-114862380D01*
X89603571Y-115005238D01*
X89508333Y-115100476D01*
X89413095Y-115148095D01*
X90317857Y-114862380D02*
X90984523Y-114862380D01*
X90555952Y-115862380D01*
D10*
X62985714Y-73440952D02*
X63214285Y-73440952D01*
X63100000Y-73840952D02*
X63100000Y-73440952D01*
X63347619Y-73840952D02*
X63347619Y-73440952D01*
X63347619Y-73631428D02*
X63576190Y-73631428D01*
X63576190Y-73840952D02*
X63576190Y-73440952D01*
X63976190Y-73840952D02*
X63747619Y-73840952D01*
X63861904Y-73840952D02*
X63861904Y-73440952D01*
X63823809Y-73498095D01*
X63785714Y-73536190D01*
X63747619Y-73555238D01*
D11*
X105357380Y-125841666D02*
X104881190Y-126175000D01*
X105357380Y-126413095D02*
X104357380Y-126413095D01*
X104357380Y-126032142D01*
X104405000Y-125936904D01*
X104452619Y-125889285D01*
X104547857Y-125841666D01*
X104690714Y-125841666D01*
X104785952Y-125889285D01*
X104833571Y-125936904D01*
X104881190Y-126032142D01*
X104881190Y-126413095D01*
X104690714Y-124984523D02*
X105357380Y-124984523D01*
X104309761Y-125222619D02*
X105024047Y-125460714D01*
X105024047Y-124841666D01*
D10*
X104302380Y-101867857D02*
X104283333Y-101886904D01*
X104226190Y-101905952D01*
X104188095Y-101905952D01*
X104130952Y-101886904D01*
X104092857Y-101848809D01*
X104073809Y-101810714D01*
X104054761Y-101734523D01*
X104054761Y-101677380D01*
X104073809Y-101601190D01*
X104092857Y-101563095D01*
X104130952Y-101525000D01*
X104188095Y-101505952D01*
X104226190Y-101505952D01*
X104283333Y-101525000D01*
X104302380Y-101544047D01*
X104473809Y-101905952D02*
X104473809Y-101505952D01*
X104473809Y-101658333D02*
X104511904Y-101639285D01*
X104588095Y-101639285D01*
X104626190Y-101658333D01*
X104645238Y-101677380D01*
X104664285Y-101715476D01*
X104664285Y-101829761D01*
X104645238Y-101867857D01*
X104626190Y-101886904D01*
X104588095Y-101905952D01*
X104511904Y-101905952D01*
X104473809Y-101886904D01*
X104816666Y-101544047D02*
X104835714Y-101525000D01*
X104873809Y-101505952D01*
X104969047Y-101505952D01*
X105007142Y-101525000D01*
X105026190Y-101544047D01*
X105045238Y-101582142D01*
X105045238Y-101620238D01*
X105026190Y-101677380D01*
X104797619Y-101905952D01*
X105045238Y-101905952D01*
D11*
X44958095Y-142692380D02*
X44958095Y-141692380D01*
X44958095Y-142168571D02*
X45529523Y-142168571D01*
X45529523Y-142692380D02*
X45529523Y-141692380D01*
X46434285Y-142025714D02*
X46434285Y-142692380D01*
X46196190Y-141644761D02*
X45958095Y-142359047D01*
X46577142Y-142359047D01*
D10*
X67903733Y-61128257D02*
X67884685Y-61147304D01*
X67827542Y-61166352D01*
X67789447Y-61166352D01*
X67732304Y-61147304D01*
X67694209Y-61109209D01*
X67675161Y-61071114D01*
X67656114Y-60994923D01*
X67656114Y-60937780D01*
X67675161Y-60861590D01*
X67694209Y-60823495D01*
X67732304Y-60785400D01*
X67789447Y-60766352D01*
X67827542Y-60766352D01*
X67884685Y-60785400D01*
X67903733Y-60804447D01*
X68094209Y-61166352D02*
X68170400Y-61166352D01*
X68208495Y-61147304D01*
X68227542Y-61128257D01*
X68265638Y-61071114D01*
X68284685Y-60994923D01*
X68284685Y-60842542D01*
X68265638Y-60804447D01*
X68246590Y-60785400D01*
X68208495Y-60766352D01*
X68132304Y-60766352D01*
X68094209Y-60785400D01*
X68075161Y-60804447D01*
X68056114Y-60842542D01*
X68056114Y-60937780D01*
X68075161Y-60975876D01*
X68094209Y-60994923D01*
X68132304Y-61013971D01*
X68208495Y-61013971D01*
X68246590Y-60994923D01*
X68265638Y-60975876D01*
X68284685Y-60937780D01*
X63242857Y-72680952D02*
X63109523Y-72490476D01*
X63014285Y-72680952D02*
X63014285Y-72280952D01*
X63166666Y-72280952D01*
X63204761Y-72300000D01*
X63223809Y-72319047D01*
X63242857Y-72357142D01*
X63242857Y-72414285D01*
X63223809Y-72452380D01*
X63204761Y-72471428D01*
X63166666Y-72490476D01*
X63014285Y-72490476D01*
X63623809Y-72680952D02*
X63395238Y-72680952D01*
X63509523Y-72680952D02*
X63509523Y-72280952D01*
X63471428Y-72338095D01*
X63433333Y-72376190D01*
X63395238Y-72395238D01*
X64004761Y-72680952D02*
X63776190Y-72680952D01*
X63890476Y-72680952D02*
X63890476Y-72280952D01*
X63852380Y-72338095D01*
X63814285Y-72376190D01*
X63776190Y-72395238D01*
X71288257Y-66601942D02*
X71307304Y-66620990D01*
X71326352Y-66678133D01*
X71326352Y-66716228D01*
X71307304Y-66773371D01*
X71269209Y-66811466D01*
X71231114Y-66830514D01*
X71154923Y-66849561D01*
X71097780Y-66849561D01*
X71021590Y-66830514D01*
X70983495Y-66811466D01*
X70945400Y-66773371D01*
X70926352Y-66716228D01*
X70926352Y-66678133D01*
X70945400Y-66620990D01*
X70964447Y-66601942D01*
X71326352Y-66220990D02*
X71326352Y-66449561D01*
X71326352Y-66335276D02*
X70926352Y-66335276D01*
X70983495Y-66373371D01*
X71021590Y-66411466D01*
X71040638Y-66449561D01*
X70926352Y-65973371D02*
X70926352Y-65935276D01*
X70945400Y-65897180D01*
X70964447Y-65878133D01*
X71002542Y-65859085D01*
X71078733Y-65840038D01*
X71173971Y-65840038D01*
X71250161Y-65859085D01*
X71288257Y-65878133D01*
X71307304Y-65897180D01*
X71326352Y-65935276D01*
X71326352Y-65973371D01*
X71307304Y-66011466D01*
X71288257Y-66030514D01*
X71250161Y-66049561D01*
X71173971Y-66068609D01*
X71078733Y-66068609D01*
X71002542Y-66049561D01*
X70964447Y-66030514D01*
X70945400Y-66011466D01*
X70926352Y-65973371D01*
X104027380Y-85117857D02*
X104008333Y-85136904D01*
X103951190Y-85155952D01*
X103913095Y-85155952D01*
X103855952Y-85136904D01*
X103817857Y-85098809D01*
X103798809Y-85060714D01*
X103779761Y-84984523D01*
X103779761Y-84927380D01*
X103798809Y-84851190D01*
X103817857Y-84813095D01*
X103855952Y-84775000D01*
X103913095Y-84755952D01*
X103951190Y-84755952D01*
X104008333Y-84775000D01*
X104027380Y-84794047D01*
X104370238Y-85155952D02*
X104370238Y-84946428D01*
X104351190Y-84908333D01*
X104313095Y-84889285D01*
X104236904Y-84889285D01*
X104198809Y-84908333D01*
X104370238Y-85136904D02*
X104332142Y-85155952D01*
X104236904Y-85155952D01*
X104198809Y-85136904D01*
X104179761Y-85098809D01*
X104179761Y-85060714D01*
X104198809Y-85022619D01*
X104236904Y-85003571D01*
X104332142Y-85003571D01*
X104370238Y-84984523D01*
X104541666Y-84794047D02*
X104560714Y-84775000D01*
X104598809Y-84755952D01*
X104694047Y-84755952D01*
X104732142Y-84775000D01*
X104751190Y-84794047D01*
X104770238Y-84832142D01*
X104770238Y-84870238D01*
X104751190Y-84927380D01*
X104522619Y-85155952D01*
X104770238Y-85155952D01*
X55400552Y-72329666D02*
X55210076Y-72463000D01*
X55400552Y-72558238D02*
X55000552Y-72558238D01*
X55000552Y-72405857D01*
X55019600Y-72367761D01*
X55038647Y-72348714D01*
X55076742Y-72329666D01*
X55133885Y-72329666D01*
X55171980Y-72348714D01*
X55191028Y-72367761D01*
X55210076Y-72405857D01*
X55210076Y-72558238D01*
X55171980Y-72101095D02*
X55152933Y-72139190D01*
X55133885Y-72158238D01*
X55095790Y-72177285D01*
X55076742Y-72177285D01*
X55038647Y-72158238D01*
X55019600Y-72139190D01*
X55000552Y-72101095D01*
X55000552Y-72024904D01*
X55019600Y-71986809D01*
X55038647Y-71967761D01*
X55076742Y-71948714D01*
X55095790Y-71948714D01*
X55133885Y-71967761D01*
X55152933Y-71986809D01*
X55171980Y-72024904D01*
X55171980Y-72101095D01*
X55191028Y-72139190D01*
X55210076Y-72158238D01*
X55248171Y-72177285D01*
X55324361Y-72177285D01*
X55362457Y-72158238D01*
X55381504Y-72139190D01*
X55400552Y-72101095D01*
X55400552Y-72024904D01*
X55381504Y-71986809D01*
X55362457Y-71967761D01*
X55324361Y-71948714D01*
X55248171Y-71948714D01*
X55210076Y-71967761D01*
X55191028Y-71986809D01*
X55171980Y-72024904D01*
X66875057Y-64201657D02*
X66856009Y-64220704D01*
X66798866Y-64239752D01*
X66760771Y-64239752D01*
X66703628Y-64220704D01*
X66665533Y-64182609D01*
X66646485Y-64144514D01*
X66627438Y-64068323D01*
X66627438Y-64011180D01*
X66646485Y-63934990D01*
X66665533Y-63896895D01*
X66703628Y-63858800D01*
X66760771Y-63839752D01*
X66798866Y-63839752D01*
X66856009Y-63858800D01*
X66875057Y-63877847D01*
X67256009Y-64239752D02*
X67027438Y-64239752D01*
X67141723Y-64239752D02*
X67141723Y-63839752D01*
X67103628Y-63896895D01*
X67065533Y-63934990D01*
X67027438Y-63954038D01*
X67636961Y-64239752D02*
X67408390Y-64239752D01*
X67522676Y-64239752D02*
X67522676Y-63839752D01*
X67484580Y-63896895D01*
X67446485Y-63934990D01*
X67408390Y-63954038D01*
D11*
X99407380Y-125766666D02*
X98931190Y-126100000D01*
X99407380Y-126338095D02*
X98407380Y-126338095D01*
X98407380Y-125957142D01*
X98455000Y-125861904D01*
X98502619Y-125814285D01*
X98597857Y-125766666D01*
X98740714Y-125766666D01*
X98835952Y-125814285D01*
X98883571Y-125861904D01*
X98931190Y-125957142D01*
X98931190Y-126338095D01*
X98407380Y-125433333D02*
X98407380Y-124814285D01*
X98788333Y-125147619D01*
X98788333Y-125004761D01*
X98835952Y-124909523D01*
X98883571Y-124861904D01*
X98978809Y-124814285D01*
X99216904Y-124814285D01*
X99312142Y-124861904D01*
X99359761Y-124909523D01*
X99407380Y-125004761D01*
X99407380Y-125290476D01*
X99359761Y-125385714D01*
X99312142Y-125433333D01*
X123698095Y-58872380D02*
X123698095Y-57872380D01*
X123698095Y-58348571D02*
X124269523Y-58348571D01*
X124269523Y-58872380D02*
X124269523Y-57872380D01*
X124698095Y-57967619D02*
X124745714Y-57920000D01*
X124840952Y-57872380D01*
X125079047Y-57872380D01*
X125174285Y-57920000D01*
X125221904Y-57967619D01*
X125269523Y-58062857D01*
X125269523Y-58158095D01*
X125221904Y-58300952D01*
X124650476Y-58872380D01*
X125269523Y-58872380D01*
X116673333Y-99512380D02*
X116340000Y-99036190D01*
X116101904Y-99512380D02*
X116101904Y-98512380D01*
X116482857Y-98512380D01*
X116578095Y-98560000D01*
X116625714Y-98607619D01*
X116673333Y-98702857D01*
X116673333Y-98845714D01*
X116625714Y-98940952D01*
X116578095Y-98988571D01*
X116482857Y-99036190D01*
X116101904Y-99036190D01*
X117625714Y-99512380D02*
X117054285Y-99512380D01*
X117340000Y-99512380D02*
X117340000Y-98512380D01*
X117244761Y-98655238D01*
X117149523Y-98750476D01*
X117054285Y-98798095D01*
X54592380Y-140533333D02*
X55306666Y-140533333D01*
X55449523Y-140580952D01*
X55544761Y-140676190D01*
X55592380Y-140819047D01*
X55592380Y-140914285D01*
X55592380Y-140057142D02*
X54592380Y-140057142D01*
X54592380Y-139676190D01*
X54640000Y-139580952D01*
X54687619Y-139533333D01*
X54782857Y-139485714D01*
X54925714Y-139485714D01*
X55020952Y-139533333D01*
X55068571Y-139580952D01*
X55116190Y-139676190D01*
X55116190Y-140057142D01*
X55592380Y-138533333D02*
X55592380Y-139104761D01*
X55592380Y-138819047D02*
X54592380Y-138819047D01*
X54735238Y-138914285D01*
X54830476Y-139009523D01*
X54878095Y-139104761D01*
X119857780Y-137240828D02*
X119381590Y-137574161D01*
X119857780Y-137812257D02*
X118857780Y-137812257D01*
X118857780Y-137431304D01*
X118905400Y-137336066D01*
X118953019Y-137288447D01*
X119048257Y-137240828D01*
X119191114Y-137240828D01*
X119286352Y-137288447D01*
X119333971Y-137336066D01*
X119381590Y-137431304D01*
X119381590Y-137812257D01*
X119191114Y-136812257D02*
X120191114Y-136812257D01*
X119238733Y-136812257D02*
X119191114Y-136717019D01*
X119191114Y-136526542D01*
X119238733Y-136431304D01*
X119286352Y-136383685D01*
X119381590Y-136336066D01*
X119667304Y-136336066D01*
X119762542Y-136383685D01*
X119810161Y-136431304D01*
X119857780Y-136526542D01*
X119857780Y-136717019D01*
X119810161Y-136812257D01*
X119191114Y-135478923D02*
X119857780Y-135478923D01*
X119191114Y-135907495D02*
X119714923Y-135907495D01*
X119810161Y-135859876D01*
X119857780Y-135764638D01*
X119857780Y-135621780D01*
X119810161Y-135526542D01*
X119762542Y-135478923D01*
X119857780Y-134478923D02*
X119857780Y-135050352D01*
X119857780Y-134764638D02*
X118857780Y-134764638D01*
X119000638Y-134859876D01*
X119095876Y-134955114D01*
X119143495Y-135050352D01*
X57347142Y-117482857D02*
X57394761Y-117530476D01*
X57442380Y-117673333D01*
X57442380Y-117768571D01*
X57394761Y-117911428D01*
X57299523Y-118006666D01*
X57204285Y-118054285D01*
X57013809Y-118101904D01*
X56870952Y-118101904D01*
X56680476Y-118054285D01*
X56585238Y-118006666D01*
X56490000Y-117911428D01*
X56442380Y-117768571D01*
X56442380Y-117673333D01*
X56490000Y-117530476D01*
X56537619Y-117482857D01*
X57442380Y-116530476D02*
X57442380Y-117101904D01*
X57442380Y-116816190D02*
X56442380Y-116816190D01*
X56585238Y-116911428D01*
X56680476Y-117006666D01*
X56728095Y-117101904D01*
X56442380Y-115673333D02*
X56442380Y-115863809D01*
X56490000Y-115959047D01*
X56537619Y-116006666D01*
X56680476Y-116101904D01*
X56870952Y-116149523D01*
X57251904Y-116149523D01*
X57347142Y-116101904D01*
X57394761Y-116054285D01*
X57442380Y-115959047D01*
X57442380Y-115768571D01*
X57394761Y-115673333D01*
X57347142Y-115625714D01*
X57251904Y-115578095D01*
X57013809Y-115578095D01*
X56918571Y-115625714D01*
X56870952Y-115673333D01*
X56823333Y-115768571D01*
X56823333Y-115959047D01*
X56870952Y-116054285D01*
X56918571Y-116101904D01*
X57013809Y-116149523D01*
X119213333Y-74112380D02*
X118880000Y-73636190D01*
X118641904Y-74112380D02*
X118641904Y-73112380D01*
X119022857Y-73112380D01*
X119118095Y-73160000D01*
X119165714Y-73207619D01*
X119213333Y-73302857D01*
X119213333Y-73445714D01*
X119165714Y-73540952D01*
X119118095Y-73588571D01*
X119022857Y-73636190D01*
X118641904Y-73636190D01*
X119594285Y-73207619D02*
X119641904Y-73160000D01*
X119737142Y-73112380D01*
X119975238Y-73112380D01*
X120070476Y-73160000D01*
X120118095Y-73207619D01*
X120165714Y-73302857D01*
X120165714Y-73398095D01*
X120118095Y-73540952D01*
X119546666Y-74112380D01*
X120165714Y-74112380D01*
D10*
X65300952Y-140875238D02*
X64900952Y-140875238D01*
X64900952Y-140780000D01*
X64920000Y-140722857D01*
X64958095Y-140684761D01*
X64996190Y-140665714D01*
X65072380Y-140646666D01*
X65129523Y-140646666D01*
X65205714Y-140665714D01*
X65243809Y-140684761D01*
X65281904Y-140722857D01*
X65300952Y-140780000D01*
X65300952Y-140875238D01*
X64900952Y-140284761D02*
X64900952Y-140475238D01*
X65091428Y-140494285D01*
X65072380Y-140475238D01*
X65053333Y-140437142D01*
X65053333Y-140341904D01*
X65072380Y-140303809D01*
X65091428Y-140284761D01*
X65129523Y-140265714D01*
X65224761Y-140265714D01*
X65262857Y-140284761D01*
X65281904Y-140303809D01*
X65300952Y-140341904D01*
X65300952Y-140437142D01*
X65281904Y-140475238D01*
X65262857Y-140494285D01*
D11*
X55127142Y-117482857D02*
X55174761Y-117530476D01*
X55222380Y-117673333D01*
X55222380Y-117768571D01*
X55174761Y-117911428D01*
X55079523Y-118006666D01*
X54984285Y-118054285D01*
X54793809Y-118101904D01*
X54650952Y-118101904D01*
X54460476Y-118054285D01*
X54365238Y-118006666D01*
X54270000Y-117911428D01*
X54222380Y-117768571D01*
X54222380Y-117673333D01*
X54270000Y-117530476D01*
X54317619Y-117482857D01*
X54317619Y-117101904D02*
X54270000Y-117054285D01*
X54222380Y-116959047D01*
X54222380Y-116720952D01*
X54270000Y-116625714D01*
X54317619Y-116578095D01*
X54412857Y-116530476D01*
X54508095Y-116530476D01*
X54650952Y-116578095D01*
X55222380Y-117149523D01*
X55222380Y-116530476D01*
X54222380Y-115911428D02*
X54222380Y-115816190D01*
X54270000Y-115720952D01*
X54317619Y-115673333D01*
X54412857Y-115625714D01*
X54603333Y-115578095D01*
X54841428Y-115578095D01*
X55031904Y-115625714D01*
X55127142Y-115673333D01*
X55174761Y-115720952D01*
X55222380Y-115816190D01*
X55222380Y-115911428D01*
X55174761Y-116006666D01*
X55127142Y-116054285D01*
X55031904Y-116101904D01*
X54841428Y-116149523D01*
X54603333Y-116149523D01*
X54412857Y-116101904D01*
X54317619Y-116054285D01*
X54270000Y-116006666D01*
X54222380Y-115911428D01*
D10*
X95392857Y-82316666D02*
X95411904Y-82335714D01*
X95430952Y-82392857D01*
X95430952Y-82430952D01*
X95411904Y-82488095D01*
X95373809Y-82526190D01*
X95335714Y-82545238D01*
X95259523Y-82564285D01*
X95202380Y-82564285D01*
X95126190Y-82545238D01*
X95088095Y-82526190D01*
X95050000Y-82488095D01*
X95030952Y-82430952D01*
X95030952Y-82392857D01*
X95050000Y-82335714D01*
X95069047Y-82316666D01*
X95430952Y-81935714D02*
X95430952Y-82164285D01*
X95430952Y-82050000D02*
X95030952Y-82050000D01*
X95088095Y-82088095D01*
X95126190Y-82126190D01*
X95145238Y-82164285D01*
X60893333Y-71262857D02*
X60874285Y-71281904D01*
X60817142Y-71300952D01*
X60779047Y-71300952D01*
X60721904Y-71281904D01*
X60683809Y-71243809D01*
X60664761Y-71205714D01*
X60645714Y-71129523D01*
X60645714Y-71072380D01*
X60664761Y-70996190D01*
X60683809Y-70958095D01*
X60721904Y-70920000D01*
X60779047Y-70900952D01*
X60817142Y-70900952D01*
X60874285Y-70920000D01*
X60893333Y-70939047D01*
X61236190Y-70900952D02*
X61160000Y-70900952D01*
X61121904Y-70920000D01*
X61102857Y-70939047D01*
X61064761Y-70996190D01*
X61045714Y-71072380D01*
X61045714Y-71224761D01*
X61064761Y-71262857D01*
X61083809Y-71281904D01*
X61121904Y-71300952D01*
X61198095Y-71300952D01*
X61236190Y-71281904D01*
X61255238Y-71262857D01*
X61274285Y-71224761D01*
X61274285Y-71129523D01*
X61255238Y-71091428D01*
X61236190Y-71072380D01*
X61198095Y-71053333D01*
X61121904Y-71053333D01*
X61083809Y-71072380D01*
X61064761Y-71091428D01*
X61045714Y-71129523D01*
D11*
X85087142Y-128387142D02*
X85039523Y-128434761D01*
X84896666Y-128482380D01*
X84801428Y-128482380D01*
X84658571Y-128434761D01*
X84563333Y-128339523D01*
X84515714Y-128244285D01*
X84468095Y-128053809D01*
X84468095Y-127910952D01*
X84515714Y-127720476D01*
X84563333Y-127625238D01*
X84658571Y-127530000D01*
X84801428Y-127482380D01*
X84896666Y-127482380D01*
X85039523Y-127530000D01*
X85087142Y-127577619D01*
X86039523Y-128482380D02*
X85468095Y-128482380D01*
X85753809Y-128482380D02*
X85753809Y-127482380D01*
X85658571Y-127625238D01*
X85563333Y-127720476D01*
X85468095Y-127768095D01*
X86515714Y-128482380D02*
X86706190Y-128482380D01*
X86801428Y-128434761D01*
X86849047Y-128387142D01*
X86944285Y-128244285D01*
X86991904Y-128053809D01*
X86991904Y-127672857D01*
X86944285Y-127577619D01*
X86896666Y-127530000D01*
X86801428Y-127482380D01*
X86610952Y-127482380D01*
X86515714Y-127530000D01*
X86468095Y-127577619D01*
X86420476Y-127672857D01*
X86420476Y-127910952D01*
X86468095Y-128006190D01*
X86515714Y-128053809D01*
X86610952Y-128101428D01*
X86801428Y-128101428D01*
X86896666Y-128053809D01*
X86944285Y-128006190D01*
X86991904Y-127910952D01*
D10*
X70480952Y-140905238D02*
X70080952Y-140905238D01*
X70080952Y-140810000D01*
X70100000Y-140752857D01*
X70138095Y-140714761D01*
X70176190Y-140695714D01*
X70252380Y-140676666D01*
X70309523Y-140676666D01*
X70385714Y-140695714D01*
X70423809Y-140714761D01*
X70461904Y-140752857D01*
X70480952Y-140810000D01*
X70480952Y-140905238D01*
X70080952Y-140543333D02*
X70080952Y-140276666D01*
X70480952Y-140448095D01*
D11*
X110032142Y-128416666D02*
X110079761Y-128464285D01*
X110127380Y-128607142D01*
X110127380Y-128702380D01*
X110079761Y-128845238D01*
X109984523Y-128940476D01*
X109889285Y-128988095D01*
X109698809Y-129035714D01*
X109555952Y-129035714D01*
X109365476Y-128988095D01*
X109270238Y-128940476D01*
X109175000Y-128845238D01*
X109127380Y-128702380D01*
X109127380Y-128607142D01*
X109175000Y-128464285D01*
X109222619Y-128416666D01*
X109127380Y-128083333D02*
X109127380Y-127464285D01*
X109508333Y-127797619D01*
X109508333Y-127654761D01*
X109555952Y-127559523D01*
X109603571Y-127511904D01*
X109698809Y-127464285D01*
X109936904Y-127464285D01*
X110032142Y-127511904D01*
X110079761Y-127559523D01*
X110127380Y-127654761D01*
X110127380Y-127940476D01*
X110079761Y-128035714D01*
X110032142Y-128083333D01*
D10*
X123261904Y-102169047D02*
X123223809Y-102150000D01*
X123185714Y-102111904D01*
X123128571Y-102054761D01*
X123090476Y-102035714D01*
X123052380Y-102035714D01*
X123071428Y-102130952D02*
X123033333Y-102111904D01*
X122995238Y-102073809D01*
X122976190Y-101997619D01*
X122976190Y-101864285D01*
X122995238Y-101788095D01*
X123033333Y-101750000D01*
X123071428Y-101730952D01*
X123147619Y-101730952D01*
X123185714Y-101750000D01*
X123223809Y-101788095D01*
X123242857Y-101864285D01*
X123242857Y-101997619D01*
X123223809Y-102073809D01*
X123185714Y-102111904D01*
X123147619Y-102130952D01*
X123071428Y-102130952D01*
X123395238Y-101769047D02*
X123414285Y-101750000D01*
X123452380Y-101730952D01*
X123547619Y-101730952D01*
X123585714Y-101750000D01*
X123604761Y-101769047D01*
X123623809Y-101807142D01*
X123623809Y-101845238D01*
X123604761Y-101902380D01*
X123376190Y-102130952D01*
X123623809Y-102130952D01*
X102577380Y-101842857D02*
X102558333Y-101861904D01*
X102501190Y-101880952D01*
X102463095Y-101880952D01*
X102405952Y-101861904D01*
X102367857Y-101823809D01*
X102348809Y-101785714D01*
X102329761Y-101709523D01*
X102329761Y-101652380D01*
X102348809Y-101576190D01*
X102367857Y-101538095D01*
X102405952Y-101500000D01*
X102463095Y-101480952D01*
X102501190Y-101480952D01*
X102558333Y-101500000D01*
X102577380Y-101519047D01*
X102748809Y-101880952D02*
X102748809Y-101480952D01*
X102748809Y-101633333D02*
X102786904Y-101614285D01*
X102863095Y-101614285D01*
X102901190Y-101633333D01*
X102920238Y-101652380D01*
X102939285Y-101690476D01*
X102939285Y-101804761D01*
X102920238Y-101842857D01*
X102901190Y-101861904D01*
X102863095Y-101880952D01*
X102786904Y-101880952D01*
X102748809Y-101861904D01*
X103320238Y-101880952D02*
X103091666Y-101880952D01*
X103205952Y-101880952D02*
X103205952Y-101480952D01*
X103167857Y-101538095D01*
X103129761Y-101576190D01*
X103091666Y-101595238D01*
X105877380Y-85142857D02*
X105858333Y-85161904D01*
X105801190Y-85180952D01*
X105763095Y-85180952D01*
X105705952Y-85161904D01*
X105667857Y-85123809D01*
X105648809Y-85085714D01*
X105629761Y-85009523D01*
X105629761Y-84952380D01*
X105648809Y-84876190D01*
X105667857Y-84838095D01*
X105705952Y-84800000D01*
X105763095Y-84780952D01*
X105801190Y-84780952D01*
X105858333Y-84800000D01*
X105877380Y-84819047D01*
X106220238Y-85180952D02*
X106220238Y-84971428D01*
X106201190Y-84933333D01*
X106163095Y-84914285D01*
X106086904Y-84914285D01*
X106048809Y-84933333D01*
X106220238Y-85161904D02*
X106182142Y-85180952D01*
X106086904Y-85180952D01*
X106048809Y-85161904D01*
X106029761Y-85123809D01*
X106029761Y-85085714D01*
X106048809Y-85047619D01*
X106086904Y-85028571D01*
X106182142Y-85028571D01*
X106220238Y-85009523D01*
X106372619Y-84780952D02*
X106620238Y-84780952D01*
X106486904Y-84933333D01*
X106544047Y-84933333D01*
X106582142Y-84952380D01*
X106601190Y-84971428D01*
X106620238Y-85009523D01*
X106620238Y-85104761D01*
X106601190Y-85142857D01*
X106582142Y-85161904D01*
X106544047Y-85180952D01*
X106429761Y-85180952D01*
X106391666Y-85161904D01*
X106372619Y-85142857D01*
X109192857Y-138405952D02*
X109059523Y-138215476D01*
X108964285Y-138405952D02*
X108964285Y-138005952D01*
X109116666Y-138005952D01*
X109154761Y-138025000D01*
X109173809Y-138044047D01*
X109192857Y-138082142D01*
X109192857Y-138139285D01*
X109173809Y-138177380D01*
X109154761Y-138196428D01*
X109116666Y-138215476D01*
X108964285Y-138215476D01*
X109345238Y-138044047D02*
X109364285Y-138025000D01*
X109402380Y-138005952D01*
X109497619Y-138005952D01*
X109535714Y-138025000D01*
X109554761Y-138044047D01*
X109573809Y-138082142D01*
X109573809Y-138120238D01*
X109554761Y-138177380D01*
X109326190Y-138405952D01*
X109573809Y-138405952D01*
X109954761Y-138405952D02*
X109726190Y-138405952D01*
X109840476Y-138405952D02*
X109840476Y-138005952D01*
X109802380Y-138063095D01*
X109764285Y-138101190D01*
X109726190Y-138120238D01*
X55070352Y-75403038D02*
X54670352Y-75403038D01*
X54670352Y-75307800D01*
X54689400Y-75250657D01*
X54727495Y-75212561D01*
X54765590Y-75193514D01*
X54841780Y-75174466D01*
X54898923Y-75174466D01*
X54975114Y-75193514D01*
X55013209Y-75212561D01*
X55051304Y-75250657D01*
X55070352Y-75307800D01*
X55070352Y-75403038D01*
X55070352Y-74793514D02*
X55070352Y-75022085D01*
X55070352Y-74907800D02*
X54670352Y-74907800D01*
X54727495Y-74945895D01*
X54765590Y-74983990D01*
X54784638Y-75022085D01*
X69389657Y-73853657D02*
X69370609Y-73872704D01*
X69313466Y-73891752D01*
X69275371Y-73891752D01*
X69218228Y-73872704D01*
X69180133Y-73834609D01*
X69161085Y-73796514D01*
X69142038Y-73720323D01*
X69142038Y-73663180D01*
X69161085Y-73586990D01*
X69180133Y-73548895D01*
X69218228Y-73510800D01*
X69275371Y-73491752D01*
X69313466Y-73491752D01*
X69370609Y-73510800D01*
X69389657Y-73529847D01*
X69770609Y-73891752D02*
X69542038Y-73891752D01*
X69656323Y-73891752D02*
X69656323Y-73491752D01*
X69618228Y-73548895D01*
X69580133Y-73586990D01*
X69542038Y-73606038D01*
X70113466Y-73625085D02*
X70113466Y-73891752D01*
X70018228Y-73472704D02*
X69922990Y-73758419D01*
X70170609Y-73758419D01*
X98195238Y-81530952D02*
X98195238Y-81854761D01*
X98214285Y-81892857D01*
X98233333Y-81911904D01*
X98271428Y-81930952D01*
X98347619Y-81930952D01*
X98385714Y-81911904D01*
X98404761Y-81892857D01*
X98423809Y-81854761D01*
X98423809Y-81530952D01*
X98823809Y-81930952D02*
X98595238Y-81930952D01*
X98709523Y-81930952D02*
X98709523Y-81530952D01*
X98671428Y-81588095D01*
X98633333Y-81626190D01*
X98595238Y-81645238D01*
X112640238Y-108465952D02*
X112506904Y-108275476D01*
X112411666Y-108465952D02*
X112411666Y-108065952D01*
X112564047Y-108065952D01*
X112602142Y-108085000D01*
X112621190Y-108104047D01*
X112640238Y-108142142D01*
X112640238Y-108199285D01*
X112621190Y-108237380D01*
X112602142Y-108256428D01*
X112564047Y-108275476D01*
X112411666Y-108275476D01*
X112716428Y-108504047D02*
X113021190Y-108504047D01*
X113078333Y-108065952D02*
X113325952Y-108065952D01*
X113192619Y-108218333D01*
X113249761Y-108218333D01*
X113287857Y-108237380D01*
X113306904Y-108256428D01*
X113325952Y-108294523D01*
X113325952Y-108389761D01*
X113306904Y-108427857D01*
X113287857Y-108446904D01*
X113249761Y-108465952D01*
X113135476Y-108465952D01*
X113097380Y-108446904D01*
X113078333Y-108427857D01*
X113497380Y-108427857D02*
X113516428Y-108446904D01*
X113497380Y-108465952D01*
X113478333Y-108446904D01*
X113497380Y-108427857D01*
X113497380Y-108465952D01*
X113649761Y-108065952D02*
X113897380Y-108065952D01*
X113764047Y-108218333D01*
X113821190Y-108218333D01*
X113859285Y-108237380D01*
X113878333Y-108256428D01*
X113897380Y-108294523D01*
X113897380Y-108389761D01*
X113878333Y-108427857D01*
X113859285Y-108446904D01*
X113821190Y-108465952D01*
X113706904Y-108465952D01*
X113668809Y-108446904D01*
X113649761Y-108427857D01*
X71129533Y-61115552D02*
X70939057Y-61115552D01*
X70939057Y-60715552D01*
X71472390Y-61115552D02*
X71243819Y-61115552D01*
X71358104Y-61115552D02*
X71358104Y-60715552D01*
X71320009Y-60772695D01*
X71281914Y-60810790D01*
X71243819Y-60829838D01*
X73010952Y-140915238D02*
X72610952Y-140915238D01*
X72610952Y-140820000D01*
X72630000Y-140762857D01*
X72668095Y-140724761D01*
X72706190Y-140705714D01*
X72782380Y-140686666D01*
X72839523Y-140686666D01*
X72915714Y-140705714D01*
X72953809Y-140724761D01*
X72991904Y-140762857D01*
X73010952Y-140820000D01*
X73010952Y-140915238D01*
X72782380Y-140458095D02*
X72763333Y-140496190D01*
X72744285Y-140515238D01*
X72706190Y-140534285D01*
X72687142Y-140534285D01*
X72649047Y-140515238D01*
X72630000Y-140496190D01*
X72610952Y-140458095D01*
X72610952Y-140381904D01*
X72630000Y-140343809D01*
X72649047Y-140324761D01*
X72687142Y-140305714D01*
X72706190Y-140305714D01*
X72744285Y-140324761D01*
X72763333Y-140343809D01*
X72782380Y-140381904D01*
X72782380Y-140458095D01*
X72801428Y-140496190D01*
X72820476Y-140515238D01*
X72858571Y-140534285D01*
X72934761Y-140534285D01*
X72972857Y-140515238D01*
X72991904Y-140496190D01*
X73010952Y-140458095D01*
X73010952Y-140381904D01*
X72991904Y-140343809D01*
X72972857Y-140324761D01*
X72934761Y-140305714D01*
X72858571Y-140305714D01*
X72820476Y-140324761D01*
X72801428Y-140343809D01*
X72782380Y-140381904D01*
D11*
X85702380Y-114942857D02*
X85226190Y-115276190D01*
X85702380Y-115514285D02*
X84702380Y-115514285D01*
X84702380Y-115133333D01*
X84750000Y-115038095D01*
X84797619Y-114990476D01*
X84892857Y-114942857D01*
X85035714Y-114942857D01*
X85130952Y-114990476D01*
X85178571Y-115038095D01*
X85226190Y-115133333D01*
X85226190Y-115514285D01*
X85702380Y-113990476D02*
X85702380Y-114561904D01*
X85702380Y-114276190D02*
X84702380Y-114276190D01*
X84845238Y-114371428D01*
X84940476Y-114466666D01*
X84988095Y-114561904D01*
X84702380Y-113657142D02*
X84702380Y-113038095D01*
X85083333Y-113371428D01*
X85083333Y-113228571D01*
X85130952Y-113133333D01*
X85178571Y-113085714D01*
X85273809Y-113038095D01*
X85511904Y-113038095D01*
X85607142Y-113085714D01*
X85654761Y-113133333D01*
X85702380Y-113228571D01*
X85702380Y-113514285D01*
X85654761Y-113609523D01*
X85607142Y-113657142D01*
X52142380Y-123348571D02*
X51142380Y-123348571D01*
X51142380Y-123110476D01*
X51190000Y-122967619D01*
X51285238Y-122872380D01*
X51380476Y-122824761D01*
X51570952Y-122777142D01*
X51713809Y-122777142D01*
X51904285Y-122824761D01*
X51999523Y-122872380D01*
X52094761Y-122967619D01*
X52142380Y-123110476D01*
X52142380Y-123348571D01*
X52142380Y-122348571D02*
X51475714Y-122348571D01*
X51142380Y-122348571D02*
X51190000Y-122396190D01*
X51237619Y-122348571D01*
X51190000Y-122300952D01*
X51142380Y-122348571D01*
X51237619Y-122348571D01*
X51475714Y-121872380D02*
X52142380Y-121872380D01*
X51570952Y-121872380D02*
X51523333Y-121824761D01*
X51475714Y-121729523D01*
X51475714Y-121586666D01*
X51523333Y-121491428D01*
X51618571Y-121443809D01*
X52142380Y-121443809D01*
X52142380Y-120443809D02*
X52142380Y-121015238D01*
X52142380Y-120729523D02*
X51142380Y-120729523D01*
X51285238Y-120824761D01*
X51380476Y-120920000D01*
X51428095Y-121015238D01*
D10*
X73237733Y-65878057D02*
X73218685Y-65897104D01*
X73161542Y-65916152D01*
X73123447Y-65916152D01*
X73066304Y-65897104D01*
X73028209Y-65859009D01*
X73009161Y-65820914D01*
X72990114Y-65744723D01*
X72990114Y-65687580D01*
X73009161Y-65611390D01*
X73028209Y-65573295D01*
X73066304Y-65535200D01*
X73123447Y-65516152D01*
X73161542Y-65516152D01*
X73218685Y-65535200D01*
X73237733Y-65554247D01*
X73371066Y-65516152D02*
X73637733Y-65516152D01*
X73466304Y-65916152D01*
X100930952Y-95247619D02*
X100740476Y-95380952D01*
X100930952Y-95476190D02*
X100530952Y-95476190D01*
X100530952Y-95323809D01*
X100550000Y-95285714D01*
X100569047Y-95266666D01*
X100607142Y-95247619D01*
X100664285Y-95247619D01*
X100702380Y-95266666D01*
X100721428Y-95285714D01*
X100740476Y-95323809D01*
X100740476Y-95476190D01*
X100930952Y-95076190D02*
X100530952Y-95076190D01*
X100683333Y-95076190D02*
X100664285Y-95038095D01*
X100664285Y-94961904D01*
X100683333Y-94923809D01*
X100702380Y-94904761D01*
X100740476Y-94885714D01*
X100854761Y-94885714D01*
X100892857Y-94904761D01*
X100911904Y-94923809D01*
X100930952Y-94961904D01*
X100930952Y-95038095D01*
X100911904Y-95076190D01*
X100930952Y-94504761D02*
X100930952Y-94733333D01*
X100930952Y-94619047D02*
X100530952Y-94619047D01*
X100588095Y-94657142D01*
X100626190Y-94695238D01*
X100645238Y-94733333D01*
D12*
X89152000Y-105577000D02*
X89152000Y-105272740D01*
X86998000Y-103423000D02*
X86998000Y-103867260D01*
X86998000Y-105577000D02*
X89152000Y-105577000D01*
X89152000Y-103423000D02*
X86998000Y-103423000D01*
X89152000Y-103727260D02*
X89152000Y-103423000D01*
X86998000Y-105132740D02*
X86998000Y-105577000D01*
X66142359Y-70232000D02*
X66449641Y-70232000D01*
X66142359Y-70992000D02*
X66449641Y-70992000D01*
X58465580Y-140185000D02*
X58184420Y-140185000D01*
X58465580Y-139165000D02*
X58184420Y-139165000D01*
X48702400Y-67894000D02*
X48702400Y-69394000D01*
X48702400Y-67894000D02*
X41442400Y-67894000D01*
X48702400Y-77394000D02*
X41442400Y-77394000D01*
X48702400Y-75894000D02*
X48702400Y-77394000D01*
X96490000Y-99890580D02*
X96490000Y-99609420D01*
X97510000Y-99890580D02*
X97510000Y-99609420D01*
X98477500Y-78012742D02*
X98477500Y-78487258D01*
X99522500Y-78012742D02*
X99522500Y-78487258D01*
X106887742Y-136152500D02*
X107362258Y-136152500D01*
X106887742Y-137197500D02*
X107362258Y-137197500D01*
X69825000Y-142065000D02*
X69825000Y-139780000D01*
X68355000Y-142065000D02*
X69825000Y-142065000D01*
X68355000Y-139780000D02*
X68355000Y-142065000D01*
X69140800Y-69824020D02*
X69140800Y-70105180D01*
X68120800Y-69824020D02*
X68120800Y-70105180D01*
X99772600Y-107421000D02*
X99772600Y-105471597D01*
X99772600Y-103528403D02*
X99772600Y-101579000D01*
X93727400Y-107421000D02*
X99772600Y-107421000D01*
X93727400Y-101579000D02*
X93727400Y-103528403D01*
X93727400Y-105471597D02*
X93727400Y-107421000D01*
X99772600Y-101579000D02*
X93727400Y-101579000D01*
X100534600Y-104500000D02*
G75*
G03*
X100534600Y-104500000I-76200J0D01*
G01*
X112890000Y-129110000D02*
X112190000Y-129110000D01*
X116410000Y-124890000D02*
X116410000Y-125590000D01*
X115710000Y-124890000D02*
X116410000Y-124890000D01*
X116410000Y-129110000D02*
X116410000Y-128410000D01*
X112890000Y-124890000D02*
X112190000Y-124890000D01*
X115710000Y-129110000D02*
X116410000Y-129110000D01*
X112190000Y-129110000D02*
X112190000Y-128410000D01*
X70662800Y-114261900D02*
X66497200Y-114261900D01*
X66497200Y-119418100D02*
X70662800Y-119418100D01*
X64896420Y-62024800D02*
X65177580Y-62024800D01*
X64896420Y-63044800D02*
X65177580Y-63044800D01*
X103235000Y-82763748D02*
X103235000Y-83286252D01*
X101765000Y-82763748D02*
X101765000Y-83286252D01*
X80027500Y-122487742D02*
X80027500Y-122962258D01*
X81072500Y-122487742D02*
X81072500Y-122962258D01*
X62740000Y-63894580D02*
X62740000Y-63613420D01*
X61720000Y-63894580D02*
X61720000Y-63613420D01*
X58647600Y-72391241D02*
X58647600Y-72083959D01*
X57887600Y-72391241D02*
X57887600Y-72083959D01*
X107210000Y-99413748D02*
X107210000Y-99936252D01*
X105740000Y-99413748D02*
X105740000Y-99936252D01*
X93227400Y-88721597D02*
X93227400Y-90671000D01*
X99272600Y-84829000D02*
X93227400Y-84829000D01*
X99272600Y-86778403D02*
X99272600Y-84829000D01*
X99272600Y-90671000D02*
X99272600Y-88721597D01*
X93227400Y-90671000D02*
X99272600Y-90671000D01*
X93227400Y-84829000D02*
X93227400Y-86778403D01*
X100034600Y-87750000D02*
G75*
G03*
X100034600Y-87750000I-76200J0D01*
G01*
X69690580Y-82985000D02*
X69409420Y-82985000D01*
X69690580Y-81965000D02*
X69409420Y-81965000D01*
X52347400Y-129680580D02*
X52347400Y-129399420D01*
X53367400Y-129680580D02*
X53367400Y-129399420D01*
X98272500Y-94987258D02*
X98272500Y-94512742D01*
X97227500Y-94987258D02*
X97227500Y-94512742D01*
X106887742Y-140322500D02*
X107362258Y-140322500D01*
X106887742Y-139277500D02*
X107362258Y-139277500D01*
X58182742Y-136637500D02*
X58657258Y-136637500D01*
X58182742Y-137682500D02*
X58657258Y-137682500D01*
X59002600Y-73902200D02*
X57532600Y-73902200D01*
X59002600Y-76187200D02*
X59002600Y-73902200D01*
X57532600Y-73902200D02*
X57532600Y-76187200D01*
X77445000Y-142085000D02*
X77445000Y-139800000D01*
X75975000Y-142085000D02*
X77445000Y-142085000D01*
X75975000Y-139800000D02*
X75975000Y-142085000D01*
X97772500Y-78487258D02*
X97772500Y-78012742D01*
X96727500Y-78487258D02*
X96727500Y-78012742D01*
X118403900Y-133130058D02*
X118403900Y-132655542D01*
X117358900Y-133130058D02*
X117358900Y-132655542D01*
X55357500Y-129302742D02*
X55357500Y-129777258D01*
X56402500Y-129302742D02*
X56402500Y-129777258D01*
X106887742Y-140827500D02*
X107362258Y-140827500D01*
X106887742Y-141872500D02*
X107362258Y-141872500D01*
X106887742Y-134577500D02*
X107362258Y-134577500D01*
X106887742Y-135622500D02*
X107362258Y-135622500D01*
X69318136Y-80846600D02*
X69772264Y-80846600D01*
X69318136Y-79376600D02*
X69772264Y-79376600D01*
X127032000Y-76825000D02*
X127032000Y-75495000D01*
X127032000Y-126415000D02*
X132232000Y-126415000D01*
X127032000Y-78095000D02*
X129632000Y-78095000D01*
X129632000Y-75495000D02*
X132232000Y-75495000D01*
X127032000Y-78095000D02*
X127032000Y-126415000D01*
X127032000Y-75495000D02*
X128362000Y-75495000D01*
X132232000Y-75495000D02*
X132232000Y-126415000D01*
X129632000Y-78095000D02*
X129632000Y-75495000D01*
X121553500Y-133104658D02*
X121553500Y-132630142D01*
X120508500Y-133104658D02*
X120508500Y-132630142D01*
X67816000Y-66688580D02*
X67816000Y-66407420D01*
X68836000Y-66688580D02*
X68836000Y-66407420D01*
X69024887Y-78524100D02*
X70217913Y-78524100D01*
X70217913Y-76263500D02*
X69024887Y-76263500D01*
X67722800Y-76593800D02*
G75*
G03*
X67722800Y-76593800I-101600J0D01*
G01*
X80239108Y-137985500D02*
X80796892Y-137985500D01*
X70079108Y-137985500D02*
X70636892Y-137985500D01*
X65556892Y-130238500D02*
X64999108Y-130238500D01*
X98019108Y-137985500D02*
X98425000Y-137985500D01*
X73176892Y-130238500D02*
X72619108Y-130238500D01*
X90956892Y-130238500D02*
X90399108Y-130238500D01*
X75159108Y-137985500D02*
X75716892Y-137985500D01*
X98425000Y-130238500D02*
X98019108Y-130238500D01*
X68096892Y-130238500D02*
X67539108Y-130238500D01*
X98425000Y-137985500D02*
X98425000Y-130238500D01*
X92939108Y-137985500D02*
X93496892Y-137985500D01*
X65001140Y-137985500D02*
X65556892Y-137985500D01*
X85319108Y-137985500D02*
X85876892Y-137985500D01*
X72619108Y-137985500D02*
X73176892Y-137985500D01*
X90399108Y-137985500D02*
X90956892Y-137985500D01*
X67539108Y-137985500D02*
X68096892Y-137985500D01*
X82779108Y-137985500D02*
X83336892Y-137985500D01*
X62611000Y-130238500D02*
X62611000Y-137985500D01*
X78256892Y-130238500D02*
X77699108Y-130238500D01*
X85876892Y-130238500D02*
X85319108Y-130238500D01*
X62611000Y-137985500D02*
X63014860Y-137985500D01*
X88416892Y-130238500D02*
X87859108Y-130238500D01*
X80796892Y-130238500D02*
X80239108Y-130238500D01*
X63016892Y-130238500D02*
X62611000Y-130238500D01*
X70636892Y-130238500D02*
X70079108Y-130238500D01*
X75716892Y-130238500D02*
X75159108Y-130238500D01*
X95479108Y-137985500D02*
X96036892Y-137985500D01*
X87859108Y-137985500D02*
X88416892Y-137985500D01*
X96036892Y-130238500D02*
X95479108Y-130238500D01*
X93496892Y-130238500D02*
X92939108Y-130238500D01*
X77699108Y-137985500D02*
X78256892Y-137985500D01*
X83336892Y-130238500D02*
X82779108Y-130238500D01*
X83297500Y-119142742D02*
X83297500Y-119617258D01*
X84342500Y-119142742D02*
X84342500Y-119617258D01*
D13*
X66016000Y-69064000D02*
X66016000Y-68984000D01*
X63016000Y-66064000D02*
X63016000Y-66144000D01*
X66016000Y-66064000D02*
X66016000Y-66144000D01*
X63016000Y-69064000D02*
X63096000Y-69064000D01*
X66016000Y-69064000D02*
X65936000Y-69064000D01*
X63016000Y-66064000D02*
X63096000Y-66064000D01*
X66016000Y-66064000D02*
X65936000Y-66064000D01*
X63016000Y-69064000D02*
X63016000Y-68984000D01*
D14*
X62226000Y-66564000D02*
G75*
G03*
X62226000Y-66564000I-80000J0D01*
G01*
D12*
X112427260Y-100398000D02*
X112123000Y-100398000D01*
X112123000Y-100398000D02*
X112123000Y-102552000D01*
X112123000Y-102552000D02*
X112567260Y-102552000D01*
X114277000Y-100398000D02*
X113972740Y-100398000D01*
X114277000Y-102552000D02*
X114277000Y-100398000D01*
X113832740Y-102552000D02*
X114277000Y-102552000D01*
X89534420Y-116330000D02*
X89815580Y-116330000D01*
X89534420Y-117350000D02*
X89815580Y-117350000D01*
X65701142Y-72731100D02*
X66175658Y-72731100D01*
X65701142Y-73776100D02*
X66175658Y-73776100D01*
X103997500Y-125437742D02*
X103997500Y-125912258D01*
X102952500Y-125437742D02*
X102952500Y-125912258D01*
X105410000Y-99413748D02*
X105410000Y-99936252D01*
X103940000Y-99413748D02*
X103940000Y-99936252D01*
X68250000Y-62142164D02*
X68250000Y-62357836D01*
X67530000Y-62142164D02*
X67530000Y-62357836D01*
X65787241Y-72262000D02*
X65479959Y-72262000D01*
X65787241Y-71502000D02*
X65479959Y-71502000D01*
X70614000Y-66688580D02*
X70614000Y-66407420D01*
X69594000Y-66688580D02*
X69594000Y-66407420D01*
X103540000Y-82763748D02*
X103540000Y-83286252D01*
X105010000Y-82763748D02*
X105010000Y-83286252D01*
X56717200Y-72391241D02*
X56717200Y-72083959D01*
X55957200Y-72391241D02*
X55957200Y-72083959D01*
X64896420Y-63548800D02*
X65177580Y-63548800D01*
X64896420Y-64568800D02*
X65177580Y-64568800D01*
X97002500Y-125362742D02*
X97002500Y-125837258D01*
X98047500Y-125362742D02*
X98047500Y-125837258D01*
X54340000Y-141100000D02*
X52340000Y-141100000D01*
X52340000Y-141100000D02*
X52340000Y-138300000D01*
X52340000Y-138300000D02*
X54340000Y-138300000D01*
X54340000Y-138300000D02*
X54340000Y-141100000D01*
X119978700Y-133130058D02*
X119978700Y-132655542D01*
X118933700Y-133130058D02*
X118933700Y-132655542D01*
X57910000Y-116980580D02*
X57910000Y-116699420D01*
X58930000Y-116980580D02*
X58930000Y-116699420D01*
X67285000Y-142065000D02*
X67285000Y-139780000D01*
X65815000Y-142065000D02*
X67285000Y-142065000D01*
X65815000Y-139780000D02*
X65815000Y-142065000D01*
X52830000Y-116699420D02*
X52830000Y-116980580D01*
X53850000Y-116699420D02*
X53850000Y-116980580D01*
X96760000Y-83180580D02*
X96760000Y-82899420D01*
X95740000Y-83180580D02*
X95740000Y-82899420D01*
X63271980Y-70406800D02*
X62990820Y-70406800D01*
X63271980Y-71426800D02*
X62990820Y-71426800D01*
X85870580Y-127110000D02*
X85589420Y-127110000D01*
X85870580Y-126090000D02*
X85589420Y-126090000D01*
X70895000Y-142095000D02*
X72365000Y-142095000D01*
X72365000Y-142095000D02*
X72365000Y-139810000D01*
X70895000Y-139810000D02*
X70895000Y-142095000D01*
X111285000Y-127632836D02*
X111285000Y-127417164D01*
X110565000Y-127632836D02*
X110565000Y-127417164D01*
D15*
X116223400Y-105853000D02*
X116223400Y-102297000D01*
X116223400Y-102297000D02*
X122776600Y-102297000D01*
X122776600Y-102297000D02*
X122776600Y-105853000D01*
X122776600Y-105853000D02*
X116223400Y-105853000D01*
D12*
X103635000Y-99413748D02*
X103635000Y-99936252D01*
X102165000Y-99413748D02*
X102165000Y-99936252D01*
X106810000Y-82788748D02*
X106810000Y-83311252D01*
X105340000Y-82788748D02*
X105340000Y-83311252D01*
X106887742Y-137702500D02*
X107362258Y-137702500D01*
X106887742Y-138747500D02*
X107362258Y-138747500D01*
X57072200Y-76161700D02*
X57072200Y-73876700D01*
X57072200Y-73876700D02*
X55602200Y-73876700D01*
X55602200Y-73876700D02*
X55602200Y-76161700D01*
X69787380Y-74369200D02*
X69506220Y-74369200D01*
X69787380Y-75389200D02*
X69506220Y-75389200D01*
X112677500Y-105837742D02*
X112677500Y-106312258D01*
X113722500Y-105837742D02*
X113722500Y-106312258D01*
X70858748Y-63848000D02*
X71381252Y-63848000D01*
X70858748Y-61628000D02*
X71381252Y-61628000D01*
X73425000Y-142105000D02*
X74895000Y-142105000D01*
X74895000Y-142105000D02*
X74895000Y-139820000D01*
X73425000Y-139820000D02*
X73425000Y-142105000D01*
X84342500Y-114062742D02*
X84342500Y-114537258D01*
X83297500Y-114062742D02*
X83297500Y-114537258D01*
X52380000Y-123605000D02*
X54300000Y-123605000D01*
X52380000Y-120920000D02*
X52380000Y-123605000D01*
X54300000Y-123605000D02*
X54300000Y-120920000D01*
X71626000Y-65926580D02*
X71626000Y-65645420D01*
X72646000Y-65926580D02*
X72646000Y-65645420D01*
X100022500Y-94512742D02*
X100022500Y-94987258D01*
X98977500Y-94512742D02*
X98977500Y-94987258D01*
%LPC*%
D16*
X62666000Y-67214000D02*
X63291000Y-67214000D01*
X63291000Y-67214000D02*
X63299000Y-67214000D01*
X63299000Y-67214000D02*
X63307000Y-67215000D01*
X63307000Y-67215000D02*
X63314000Y-67216000D01*
X63314000Y-67216000D02*
X63322000Y-67217000D01*
X63322000Y-67217000D02*
X63330000Y-67219000D01*
X63330000Y-67219000D02*
X63337000Y-67221000D01*
X63337000Y-67221000D02*
X63345000Y-67224000D01*
X63345000Y-67224000D02*
X63352000Y-67227000D01*
X63352000Y-67227000D02*
X63359000Y-67230000D01*
X63359000Y-67230000D02*
X63366000Y-67234000D01*
X63366000Y-67234000D02*
X63373000Y-67238000D01*
X63373000Y-67238000D02*
X63379000Y-67243000D01*
X63379000Y-67243000D02*
X63385000Y-67247000D01*
X63385000Y-67247000D02*
X63391000Y-67253000D01*
X63391000Y-67253000D02*
X63397000Y-67258000D01*
X63397000Y-67258000D02*
X63402000Y-67264000D01*
X63402000Y-67264000D02*
X63408000Y-67270000D01*
X63408000Y-67270000D02*
X63412000Y-67276000D01*
X63412000Y-67276000D02*
X63417000Y-67282000D01*
X63417000Y-67282000D02*
X63421000Y-67289000D01*
X63421000Y-67289000D02*
X63425000Y-67296000D01*
X63425000Y-67296000D02*
X63428000Y-67303000D01*
X63428000Y-67303000D02*
X63431000Y-67310000D01*
X63431000Y-67310000D02*
X63434000Y-67318000D01*
X63434000Y-67318000D02*
X63436000Y-67325000D01*
X63436000Y-67325000D02*
X63438000Y-67333000D01*
X63438000Y-67333000D02*
X63439000Y-67341000D01*
X63439000Y-67341000D02*
X63440000Y-67348000D01*
X63440000Y-67348000D02*
X63441000Y-67356000D01*
X63441000Y-67356000D02*
X63441000Y-67364000D01*
X63441000Y-67364000D02*
X63441000Y-67372000D01*
X63441000Y-67372000D02*
X63440000Y-67380000D01*
X63440000Y-67380000D02*
X63439000Y-67387000D01*
X63439000Y-67387000D02*
X63438000Y-67395000D01*
X63438000Y-67395000D02*
X63436000Y-67403000D01*
X63436000Y-67403000D02*
X63434000Y-67410000D01*
X63434000Y-67410000D02*
X63431000Y-67418000D01*
X63431000Y-67418000D02*
X63428000Y-67425000D01*
X63428000Y-67425000D02*
X63425000Y-67432000D01*
X63425000Y-67432000D02*
X63421000Y-67439000D01*
X63421000Y-67439000D02*
X63417000Y-67446000D01*
X63417000Y-67446000D02*
X63412000Y-67452000D01*
X63412000Y-67452000D02*
X63408000Y-67458000D01*
X63408000Y-67458000D02*
X63402000Y-67464000D01*
X63402000Y-67464000D02*
X63397000Y-67470000D01*
X63397000Y-67470000D02*
X63391000Y-67475000D01*
X63391000Y-67475000D02*
X63385000Y-67481000D01*
X63385000Y-67481000D02*
X63379000Y-67485000D01*
X63379000Y-67485000D02*
X63373000Y-67490000D01*
X63373000Y-67490000D02*
X63366000Y-67494000D01*
X63366000Y-67494000D02*
X63359000Y-67498000D01*
X63359000Y-67498000D02*
X63352000Y-67501000D01*
X63352000Y-67501000D02*
X63345000Y-67504000D01*
X63345000Y-67504000D02*
X63337000Y-67507000D01*
X63337000Y-67507000D02*
X63330000Y-67509000D01*
X63330000Y-67509000D02*
X63322000Y-67511000D01*
X63322000Y-67511000D02*
X63314000Y-67512000D01*
X63314000Y-67512000D02*
X63307000Y-67513000D01*
X63307000Y-67513000D02*
X63299000Y-67514000D01*
X63299000Y-67514000D02*
X63291000Y-67514000D01*
X63291000Y-67514000D02*
X62666000Y-67514000D01*
X62666000Y-67514000D02*
X62666000Y-67214000D01*
X62666000Y-67214000D02*
X62666000Y-67214000D01*
G36*
X63307000Y-67215000D02*
G01*
X63314000Y-67216000D01*
X63322000Y-67217000D01*
X63330000Y-67219000D01*
X63337000Y-67221000D01*
X63345000Y-67224000D01*
X63359000Y-67230000D01*
X63373000Y-67238000D01*
X63379000Y-67243000D01*
X63385000Y-67247000D01*
X63391000Y-67253000D01*
X63397000Y-67258000D01*
X63402000Y-67264000D01*
X63408000Y-67270000D01*
X63412000Y-67276000D01*
X63417000Y-67282000D01*
X63425000Y-67296000D01*
X63431000Y-67310000D01*
X63434000Y-67318000D01*
X63436000Y-67325000D01*
X63438000Y-67333000D01*
X63439000Y-67341000D01*
X63440000Y-67348000D01*
X63441000Y-67356000D01*
X63441000Y-67372000D01*
X63440000Y-67380000D01*
X63439000Y-67387000D01*
X63438000Y-67395000D01*
X63436000Y-67403000D01*
X63434000Y-67410000D01*
X63431000Y-67418000D01*
X63425000Y-67432000D01*
X63417000Y-67446000D01*
X63412000Y-67452000D01*
X63408000Y-67458000D01*
X63402000Y-67464000D01*
X63397000Y-67470000D01*
X63391000Y-67475000D01*
X63385000Y-67481000D01*
X63379000Y-67485000D01*
X63373000Y-67490000D01*
X63359000Y-67498000D01*
X63345000Y-67504000D01*
X63337000Y-67507000D01*
X63330000Y-67509000D01*
X63322000Y-67511000D01*
X63314000Y-67512000D01*
X63307000Y-67513000D01*
X63299000Y-67514000D01*
X62666000Y-67514000D01*
X62666000Y-67214000D01*
X63299000Y-67214000D01*
X63307000Y-67215000D01*
G37*
X63307000Y-67215000D02*
X63314000Y-67216000D01*
X63322000Y-67217000D01*
X63330000Y-67219000D01*
X63337000Y-67221000D01*
X63345000Y-67224000D01*
X63359000Y-67230000D01*
X63373000Y-67238000D01*
X63379000Y-67243000D01*
X63385000Y-67247000D01*
X63391000Y-67253000D01*
X63397000Y-67258000D01*
X63402000Y-67264000D01*
X63408000Y-67270000D01*
X63412000Y-67276000D01*
X63417000Y-67282000D01*
X63425000Y-67296000D01*
X63431000Y-67310000D01*
X63434000Y-67318000D01*
X63436000Y-67325000D01*
X63438000Y-67333000D01*
X63439000Y-67341000D01*
X63440000Y-67348000D01*
X63441000Y-67356000D01*
X63441000Y-67372000D01*
X63440000Y-67380000D01*
X63439000Y-67387000D01*
X63438000Y-67395000D01*
X63436000Y-67403000D01*
X63434000Y-67410000D01*
X63431000Y-67418000D01*
X63425000Y-67432000D01*
X63417000Y-67446000D01*
X63412000Y-67452000D01*
X63408000Y-67458000D01*
X63402000Y-67464000D01*
X63397000Y-67470000D01*
X63391000Y-67475000D01*
X63385000Y-67481000D01*
X63379000Y-67485000D01*
X63373000Y-67490000D01*
X63359000Y-67498000D01*
X63345000Y-67504000D01*
X63337000Y-67507000D01*
X63330000Y-67509000D01*
X63322000Y-67511000D01*
X63314000Y-67512000D01*
X63307000Y-67513000D01*
X63299000Y-67514000D01*
X62666000Y-67514000D01*
X62666000Y-67214000D01*
X63299000Y-67214000D01*
X63307000Y-67215000D01*
X65366000Y-69414000D02*
X65366000Y-68689000D01*
X65366000Y-68689000D02*
X65529000Y-68689000D01*
X65529000Y-68689000D02*
X65666000Y-68826000D01*
X65666000Y-68826000D02*
X65666000Y-69414000D01*
X65666000Y-69414000D02*
X65366000Y-69414000D01*
G36*
X65666000Y-68826000D02*
G01*
X65666000Y-69414000D01*
X65366000Y-69414000D01*
X65366000Y-68689000D01*
X65529000Y-68689000D01*
X65666000Y-68826000D01*
G37*
X65666000Y-68826000D02*
X65666000Y-69414000D01*
X65366000Y-69414000D01*
X65366000Y-68689000D01*
X65529000Y-68689000D01*
X65666000Y-68826000D01*
X64566000Y-69414000D02*
X64566000Y-68789000D01*
X64566000Y-68789000D02*
X64566000Y-68781000D01*
X64566000Y-68781000D02*
X64567000Y-68773000D01*
X64567000Y-68773000D02*
X64568000Y-68766000D01*
X64568000Y-68766000D02*
X64569000Y-68758000D01*
X64569000Y-68758000D02*
X64571000Y-68750000D01*
X64571000Y-68750000D02*
X64573000Y-68743000D01*
X64573000Y-68743000D02*
X64576000Y-68735000D01*
X64576000Y-68735000D02*
X64579000Y-68728000D01*
X64579000Y-68728000D02*
X64582000Y-68721000D01*
X64582000Y-68721000D02*
X64586000Y-68714000D01*
X64586000Y-68714000D02*
X64590000Y-68707000D01*
X64590000Y-68707000D02*
X64595000Y-68701000D01*
X64595000Y-68701000D02*
X64599000Y-68695000D01*
X64599000Y-68695000D02*
X64605000Y-68689000D01*
X64605000Y-68689000D02*
X64610000Y-68683000D01*
X64610000Y-68683000D02*
X64616000Y-68678000D01*
X64616000Y-68678000D02*
X64622000Y-68672000D01*
X64622000Y-68672000D02*
X64628000Y-68668000D01*
X64628000Y-68668000D02*
X64634000Y-68663000D01*
X64634000Y-68663000D02*
X64641000Y-68659000D01*
X64641000Y-68659000D02*
X64648000Y-68655000D01*
X64648000Y-68655000D02*
X64655000Y-68652000D01*
X64655000Y-68652000D02*
X64662000Y-68649000D01*
X64662000Y-68649000D02*
X64670000Y-68646000D01*
X64670000Y-68646000D02*
X64677000Y-68644000D01*
X64677000Y-68644000D02*
X64685000Y-68642000D01*
X64685000Y-68642000D02*
X64693000Y-68641000D01*
X64693000Y-68641000D02*
X64700000Y-68640000D01*
X64700000Y-68640000D02*
X64708000Y-68639000D01*
X64708000Y-68639000D02*
X64716000Y-68639000D01*
X64716000Y-68639000D02*
X64724000Y-68639000D01*
X64724000Y-68639000D02*
X64732000Y-68640000D01*
X64732000Y-68640000D02*
X64739000Y-68641000D01*
X64739000Y-68641000D02*
X64747000Y-68642000D01*
X64747000Y-68642000D02*
X64755000Y-68644000D01*
X64755000Y-68644000D02*
X64762000Y-68646000D01*
X64762000Y-68646000D02*
X64770000Y-68649000D01*
X64770000Y-68649000D02*
X64777000Y-68652000D01*
X64777000Y-68652000D02*
X64784000Y-68655000D01*
X64784000Y-68655000D02*
X64791000Y-68659000D01*
X64791000Y-68659000D02*
X64798000Y-68663000D01*
X64798000Y-68663000D02*
X64804000Y-68668000D01*
X64804000Y-68668000D02*
X64810000Y-68672000D01*
X64810000Y-68672000D02*
X64816000Y-68678000D01*
X64816000Y-68678000D02*
X64822000Y-68683000D01*
X64822000Y-68683000D02*
X64827000Y-68689000D01*
X64827000Y-68689000D02*
X64833000Y-68695000D01*
X64833000Y-68695000D02*
X64837000Y-68701000D01*
X64837000Y-68701000D02*
X64842000Y-68707000D01*
X64842000Y-68707000D02*
X64846000Y-68714000D01*
X64846000Y-68714000D02*
X64850000Y-68721000D01*
X64850000Y-68721000D02*
X64853000Y-68728000D01*
X64853000Y-68728000D02*
X64856000Y-68735000D01*
X64856000Y-68735000D02*
X64859000Y-68743000D01*
X64859000Y-68743000D02*
X64861000Y-68750000D01*
X64861000Y-68750000D02*
X64863000Y-68758000D01*
X64863000Y-68758000D02*
X64864000Y-68766000D01*
X64864000Y-68766000D02*
X64865000Y-68773000D01*
X64865000Y-68773000D02*
X64866000Y-68781000D01*
X64866000Y-68781000D02*
X64866000Y-68789000D01*
X64866000Y-68789000D02*
X64866000Y-69414000D01*
X64866000Y-69414000D02*
X64566000Y-69414000D01*
X64566000Y-69414000D02*
X64566000Y-69414000D01*
G36*
X64732000Y-68640000D02*
G01*
X64739000Y-68641000D01*
X64747000Y-68642000D01*
X64755000Y-68644000D01*
X64762000Y-68646000D01*
X64770000Y-68649000D01*
X64784000Y-68655000D01*
X64798000Y-68663000D01*
X64804000Y-68668000D01*
X64810000Y-68672000D01*
X64816000Y-68678000D01*
X64822000Y-68683000D01*
X64827000Y-68689000D01*
X64833000Y-68695000D01*
X64837000Y-68701000D01*
X64842000Y-68707000D01*
X64850000Y-68721000D01*
X64856000Y-68735000D01*
X64859000Y-68743000D01*
X64861000Y-68750000D01*
X64863000Y-68758000D01*
X64864000Y-68766000D01*
X64865000Y-68773000D01*
X64866000Y-68781000D01*
X64866000Y-69414000D01*
X64566000Y-69414000D01*
X64566000Y-68781000D01*
X64567000Y-68773000D01*
X64568000Y-68766000D01*
X64569000Y-68758000D01*
X64571000Y-68750000D01*
X64573000Y-68743000D01*
X64576000Y-68735000D01*
X64582000Y-68721000D01*
X64590000Y-68707000D01*
X64595000Y-68701000D01*
X64599000Y-68695000D01*
X64605000Y-68689000D01*
X64610000Y-68683000D01*
X64616000Y-68678000D01*
X64622000Y-68672000D01*
X64628000Y-68668000D01*
X64634000Y-68663000D01*
X64648000Y-68655000D01*
X64662000Y-68649000D01*
X64670000Y-68646000D01*
X64677000Y-68644000D01*
X64685000Y-68642000D01*
X64693000Y-68641000D01*
X64700000Y-68640000D01*
X64708000Y-68639000D01*
X64724000Y-68639000D01*
X64732000Y-68640000D01*
G37*
X64732000Y-68640000D02*
X64739000Y-68641000D01*
X64747000Y-68642000D01*
X64755000Y-68644000D01*
X64762000Y-68646000D01*
X64770000Y-68649000D01*
X64784000Y-68655000D01*
X64798000Y-68663000D01*
X64804000Y-68668000D01*
X64810000Y-68672000D01*
X64816000Y-68678000D01*
X64822000Y-68683000D01*
X64827000Y-68689000D01*
X64833000Y-68695000D01*
X64837000Y-68701000D01*
X64842000Y-68707000D01*
X64850000Y-68721000D01*
X64856000Y-68735000D01*
X64859000Y-68743000D01*
X64861000Y-68750000D01*
X64863000Y-68758000D01*
X64864000Y-68766000D01*
X64865000Y-68773000D01*
X64866000Y-68781000D01*
X64866000Y-69414000D01*
X64566000Y-69414000D01*
X64566000Y-68781000D01*
X64567000Y-68773000D01*
X64568000Y-68766000D01*
X64569000Y-68758000D01*
X64571000Y-68750000D01*
X64573000Y-68743000D01*
X64576000Y-68735000D01*
X64582000Y-68721000D01*
X64590000Y-68707000D01*
X64595000Y-68701000D01*
X64599000Y-68695000D01*
X64605000Y-68689000D01*
X64610000Y-68683000D01*
X64616000Y-68678000D01*
X64622000Y-68672000D01*
X64628000Y-68668000D01*
X64634000Y-68663000D01*
X64648000Y-68655000D01*
X64662000Y-68649000D01*
X64670000Y-68646000D01*
X64677000Y-68644000D01*
X64685000Y-68642000D01*
X64693000Y-68641000D01*
X64700000Y-68640000D01*
X64708000Y-68639000D01*
X64724000Y-68639000D01*
X64732000Y-68640000D01*
X64166000Y-69414000D02*
X64166000Y-68139000D01*
X64166000Y-68139000D02*
X64166000Y-68131000D01*
X64166000Y-68131000D02*
X64167000Y-68123000D01*
X64167000Y-68123000D02*
X64168000Y-68116000D01*
X64168000Y-68116000D02*
X64169000Y-68108000D01*
X64169000Y-68108000D02*
X64171000Y-68100000D01*
X64171000Y-68100000D02*
X64173000Y-68093000D01*
X64173000Y-68093000D02*
X64176000Y-68085000D01*
X64176000Y-68085000D02*
X64179000Y-68078000D01*
X64179000Y-68078000D02*
X64182000Y-68071000D01*
X64182000Y-68071000D02*
X64186000Y-68064000D01*
X64186000Y-68064000D02*
X64190000Y-68057000D01*
X64190000Y-68057000D02*
X64195000Y-68051000D01*
X64195000Y-68051000D02*
X64199000Y-68045000D01*
X64199000Y-68045000D02*
X64205000Y-68039000D01*
X64205000Y-68039000D02*
X64210000Y-68033000D01*
X64210000Y-68033000D02*
X64216000Y-68028000D01*
X64216000Y-68028000D02*
X64222000Y-68022000D01*
X64222000Y-68022000D02*
X64228000Y-68018000D01*
X64228000Y-68018000D02*
X64234000Y-68013000D01*
X64234000Y-68013000D02*
X64241000Y-68009000D01*
X64241000Y-68009000D02*
X64248000Y-68005000D01*
X64248000Y-68005000D02*
X64255000Y-68002000D01*
X64255000Y-68002000D02*
X64262000Y-67999000D01*
X64262000Y-67999000D02*
X64270000Y-67996000D01*
X64270000Y-67996000D02*
X64277000Y-67994000D01*
X64277000Y-67994000D02*
X64285000Y-67992000D01*
X64285000Y-67992000D02*
X64293000Y-67991000D01*
X64293000Y-67991000D02*
X64300000Y-67990000D01*
X64300000Y-67990000D02*
X64308000Y-67989000D01*
X64308000Y-67989000D02*
X64316000Y-67989000D01*
X64316000Y-67989000D02*
X64324000Y-67989000D01*
X64324000Y-67989000D02*
X64332000Y-67990000D01*
X64332000Y-67990000D02*
X64339000Y-67991000D01*
X64339000Y-67991000D02*
X64347000Y-67992000D01*
X64347000Y-67992000D02*
X64355000Y-67994000D01*
X64355000Y-67994000D02*
X64362000Y-67996000D01*
X64362000Y-67996000D02*
X64370000Y-67999000D01*
X64370000Y-67999000D02*
X64377000Y-68002000D01*
X64377000Y-68002000D02*
X64384000Y-68005000D01*
X64384000Y-68005000D02*
X64391000Y-68009000D01*
X64391000Y-68009000D02*
X64398000Y-68013000D01*
X64398000Y-68013000D02*
X64404000Y-68018000D01*
X64404000Y-68018000D02*
X64410000Y-68022000D01*
X64410000Y-68022000D02*
X64416000Y-68028000D01*
X64416000Y-68028000D02*
X64422000Y-68033000D01*
X64422000Y-68033000D02*
X64427000Y-68039000D01*
X64427000Y-68039000D02*
X64433000Y-68045000D01*
X64433000Y-68045000D02*
X64437000Y-68051000D01*
X64437000Y-68051000D02*
X64442000Y-68057000D01*
X64442000Y-68057000D02*
X64446000Y-68064000D01*
X64446000Y-68064000D02*
X64450000Y-68071000D01*
X64450000Y-68071000D02*
X64453000Y-68078000D01*
X64453000Y-68078000D02*
X64456000Y-68085000D01*
X64456000Y-68085000D02*
X64459000Y-68093000D01*
X64459000Y-68093000D02*
X64461000Y-68100000D01*
X64461000Y-68100000D02*
X64463000Y-68108000D01*
X64463000Y-68108000D02*
X64464000Y-68116000D01*
X64464000Y-68116000D02*
X64465000Y-68123000D01*
X64465000Y-68123000D02*
X64466000Y-68131000D01*
X64466000Y-68131000D02*
X64466000Y-68139000D01*
X64466000Y-68139000D02*
X64466000Y-69414000D01*
X64466000Y-69414000D02*
X64166000Y-69414000D01*
X64166000Y-69414000D02*
X64166000Y-69414000D01*
G36*
X64332000Y-67990000D02*
G01*
X64339000Y-67991000D01*
X64347000Y-67992000D01*
X64355000Y-67994000D01*
X64362000Y-67996000D01*
X64370000Y-67999000D01*
X64384000Y-68005000D01*
X64398000Y-68013000D01*
X64404000Y-68018000D01*
X64410000Y-68022000D01*
X64416000Y-68028000D01*
X64422000Y-68033000D01*
X64427000Y-68039000D01*
X64433000Y-68045000D01*
X64437000Y-68051000D01*
X64442000Y-68057000D01*
X64450000Y-68071000D01*
X64456000Y-68085000D01*
X64459000Y-68093000D01*
X64461000Y-68100000D01*
X64463000Y-68108000D01*
X64464000Y-68116000D01*
X64465000Y-68123000D01*
X64466000Y-68131000D01*
X64466000Y-69414000D01*
X64166000Y-69414000D01*
X64166000Y-68131000D01*
X64167000Y-68123000D01*
X64168000Y-68116000D01*
X64169000Y-68108000D01*
X64171000Y-68100000D01*
X64173000Y-68093000D01*
X64176000Y-68085000D01*
X64182000Y-68071000D01*
X64190000Y-68057000D01*
X64195000Y-68051000D01*
X64199000Y-68045000D01*
X64205000Y-68039000D01*
X64210000Y-68033000D01*
X64216000Y-68028000D01*
X64222000Y-68022000D01*
X64228000Y-68018000D01*
X64234000Y-68013000D01*
X64248000Y-68005000D01*
X64262000Y-67999000D01*
X64270000Y-67996000D01*
X64277000Y-67994000D01*
X64285000Y-67992000D01*
X64293000Y-67991000D01*
X64300000Y-67990000D01*
X64308000Y-67989000D01*
X64324000Y-67989000D01*
X64332000Y-67990000D01*
G37*
X64332000Y-67990000D02*
X64339000Y-67991000D01*
X64347000Y-67992000D01*
X64355000Y-67994000D01*
X64362000Y-67996000D01*
X64370000Y-67999000D01*
X64384000Y-68005000D01*
X64398000Y-68013000D01*
X64404000Y-68018000D01*
X64410000Y-68022000D01*
X64416000Y-68028000D01*
X64422000Y-68033000D01*
X64427000Y-68039000D01*
X64433000Y-68045000D01*
X64437000Y-68051000D01*
X64442000Y-68057000D01*
X64450000Y-68071000D01*
X64456000Y-68085000D01*
X64459000Y-68093000D01*
X64461000Y-68100000D01*
X64463000Y-68108000D01*
X64464000Y-68116000D01*
X64465000Y-68123000D01*
X64466000Y-68131000D01*
X64466000Y-69414000D01*
X64166000Y-69414000D01*
X64166000Y-68131000D01*
X64167000Y-68123000D01*
X64168000Y-68116000D01*
X64169000Y-68108000D01*
X64171000Y-68100000D01*
X64173000Y-68093000D01*
X64176000Y-68085000D01*
X64182000Y-68071000D01*
X64190000Y-68057000D01*
X64195000Y-68051000D01*
X64199000Y-68045000D01*
X64205000Y-68039000D01*
X64210000Y-68033000D01*
X64216000Y-68028000D01*
X64222000Y-68022000D01*
X64228000Y-68018000D01*
X64234000Y-68013000D01*
X64248000Y-68005000D01*
X64262000Y-67999000D01*
X64270000Y-67996000D01*
X64277000Y-67994000D01*
X64285000Y-67992000D01*
X64293000Y-67991000D01*
X64300000Y-67990000D01*
X64308000Y-67989000D01*
X64324000Y-67989000D01*
X64332000Y-67990000D01*
X62666000Y-67614000D02*
X63291000Y-67614000D01*
X63291000Y-67614000D02*
X63299000Y-67614000D01*
X63299000Y-67614000D02*
X63307000Y-67615000D01*
X63307000Y-67615000D02*
X63314000Y-67616000D01*
X63314000Y-67616000D02*
X63322000Y-67617000D01*
X63322000Y-67617000D02*
X63330000Y-67619000D01*
X63330000Y-67619000D02*
X63337000Y-67621000D01*
X63337000Y-67621000D02*
X63345000Y-67624000D01*
X63345000Y-67624000D02*
X63352000Y-67627000D01*
X63352000Y-67627000D02*
X63359000Y-67630000D01*
X63359000Y-67630000D02*
X63366000Y-67634000D01*
X63366000Y-67634000D02*
X63373000Y-67638000D01*
X63373000Y-67638000D02*
X63379000Y-67643000D01*
X63379000Y-67643000D02*
X63385000Y-67647000D01*
X63385000Y-67647000D02*
X63391000Y-67653000D01*
X63391000Y-67653000D02*
X63397000Y-67658000D01*
X63397000Y-67658000D02*
X63402000Y-67664000D01*
X63402000Y-67664000D02*
X63408000Y-67670000D01*
X63408000Y-67670000D02*
X63412000Y-67676000D01*
X63412000Y-67676000D02*
X63417000Y-67682000D01*
X63417000Y-67682000D02*
X63421000Y-67689000D01*
X63421000Y-67689000D02*
X63425000Y-67696000D01*
X63425000Y-67696000D02*
X63428000Y-67703000D01*
X63428000Y-67703000D02*
X63431000Y-67710000D01*
X63431000Y-67710000D02*
X63434000Y-67718000D01*
X63434000Y-67718000D02*
X63436000Y-67725000D01*
X63436000Y-67725000D02*
X63438000Y-67733000D01*
X63438000Y-67733000D02*
X63439000Y-67741000D01*
X63439000Y-67741000D02*
X63440000Y-67748000D01*
X63440000Y-67748000D02*
X63441000Y-67756000D01*
X63441000Y-67756000D02*
X63441000Y-67764000D01*
X63441000Y-67764000D02*
X63441000Y-67772000D01*
X63441000Y-67772000D02*
X63440000Y-67780000D01*
X63440000Y-67780000D02*
X63439000Y-67787000D01*
X63439000Y-67787000D02*
X63438000Y-67795000D01*
X63438000Y-67795000D02*
X63436000Y-67803000D01*
X63436000Y-67803000D02*
X63434000Y-67810000D01*
X63434000Y-67810000D02*
X63431000Y-67818000D01*
X63431000Y-67818000D02*
X63428000Y-67825000D01*
X63428000Y-67825000D02*
X63425000Y-67832000D01*
X63425000Y-67832000D02*
X63421000Y-67839000D01*
X63421000Y-67839000D02*
X63417000Y-67846000D01*
X63417000Y-67846000D02*
X63412000Y-67852000D01*
X63412000Y-67852000D02*
X63408000Y-67858000D01*
X63408000Y-67858000D02*
X63402000Y-67864000D01*
X63402000Y-67864000D02*
X63397000Y-67870000D01*
X63397000Y-67870000D02*
X63391000Y-67875000D01*
X63391000Y-67875000D02*
X63385000Y-67881000D01*
X63385000Y-67881000D02*
X63379000Y-67885000D01*
X63379000Y-67885000D02*
X63373000Y-67890000D01*
X63373000Y-67890000D02*
X63366000Y-67894000D01*
X63366000Y-67894000D02*
X63359000Y-67898000D01*
X63359000Y-67898000D02*
X63352000Y-67901000D01*
X63352000Y-67901000D02*
X63345000Y-67904000D01*
X63345000Y-67904000D02*
X63337000Y-67907000D01*
X63337000Y-67907000D02*
X63330000Y-67909000D01*
X63330000Y-67909000D02*
X63322000Y-67911000D01*
X63322000Y-67911000D02*
X63314000Y-67912000D01*
X63314000Y-67912000D02*
X63307000Y-67913000D01*
X63307000Y-67913000D02*
X63299000Y-67914000D01*
X63299000Y-67914000D02*
X63291000Y-67914000D01*
X63291000Y-67914000D02*
X62666000Y-67914000D01*
X62666000Y-67914000D02*
X62666000Y-67614000D01*
X62666000Y-67614000D02*
X62666000Y-67614000D01*
G36*
X63307000Y-67615000D02*
G01*
X63314000Y-67616000D01*
X63322000Y-67617000D01*
X63330000Y-67619000D01*
X63337000Y-67621000D01*
X63345000Y-67624000D01*
X63359000Y-67630000D01*
X63373000Y-67638000D01*
X63379000Y-67643000D01*
X63385000Y-67647000D01*
X63391000Y-67653000D01*
X63397000Y-67658000D01*
X63402000Y-67664000D01*
X63408000Y-67670000D01*
X63412000Y-67676000D01*
X63417000Y-67682000D01*
X63425000Y-67696000D01*
X63431000Y-67710000D01*
X63434000Y-67718000D01*
X63436000Y-67725000D01*
X63438000Y-67733000D01*
X63439000Y-67741000D01*
X63440000Y-67748000D01*
X63441000Y-67756000D01*
X63441000Y-67772000D01*
X63440000Y-67780000D01*
X63439000Y-67787000D01*
X63438000Y-67795000D01*
X63436000Y-67803000D01*
X63434000Y-67810000D01*
X63431000Y-67818000D01*
X63425000Y-67832000D01*
X63417000Y-67846000D01*
X63412000Y-67852000D01*
X63408000Y-67858000D01*
X63402000Y-67864000D01*
X63397000Y-67870000D01*
X63391000Y-67875000D01*
X63385000Y-67881000D01*
X63379000Y-67885000D01*
X63373000Y-67890000D01*
X63359000Y-67898000D01*
X63345000Y-67904000D01*
X63337000Y-67907000D01*
X63330000Y-67909000D01*
X63322000Y-67911000D01*
X63314000Y-67912000D01*
X63307000Y-67913000D01*
X63299000Y-67914000D01*
X62666000Y-67914000D01*
X62666000Y-67614000D01*
X63299000Y-67614000D01*
X63307000Y-67615000D01*
G37*
X63307000Y-67615000D02*
X63314000Y-67616000D01*
X63322000Y-67617000D01*
X63330000Y-67619000D01*
X63337000Y-67621000D01*
X63345000Y-67624000D01*
X63359000Y-67630000D01*
X63373000Y-67638000D01*
X63379000Y-67643000D01*
X63385000Y-67647000D01*
X63391000Y-67653000D01*
X63397000Y-67658000D01*
X63402000Y-67664000D01*
X63408000Y-67670000D01*
X63412000Y-67676000D01*
X63417000Y-67682000D01*
X63425000Y-67696000D01*
X63431000Y-67710000D01*
X63434000Y-67718000D01*
X63436000Y-67725000D01*
X63438000Y-67733000D01*
X63439000Y-67741000D01*
X63440000Y-67748000D01*
X63441000Y-67756000D01*
X63441000Y-67772000D01*
X63440000Y-67780000D01*
X63439000Y-67787000D01*
X63438000Y-67795000D01*
X63436000Y-67803000D01*
X63434000Y-67810000D01*
X63431000Y-67818000D01*
X63425000Y-67832000D01*
X63417000Y-67846000D01*
X63412000Y-67852000D01*
X63408000Y-67858000D01*
X63402000Y-67864000D01*
X63397000Y-67870000D01*
X63391000Y-67875000D01*
X63385000Y-67881000D01*
X63379000Y-67885000D01*
X63373000Y-67890000D01*
X63359000Y-67898000D01*
X63345000Y-67904000D01*
X63337000Y-67907000D01*
X63330000Y-67909000D01*
X63322000Y-67911000D01*
X63314000Y-67912000D01*
X63307000Y-67913000D01*
X63299000Y-67914000D01*
X62666000Y-67914000D01*
X62666000Y-67614000D01*
X63299000Y-67614000D01*
X63307000Y-67615000D01*
X64466000Y-65714000D02*
X64466000Y-66739000D01*
X64466000Y-66739000D02*
X64466000Y-66747000D01*
X64466000Y-66747000D02*
X64465000Y-66755000D01*
X64465000Y-66755000D02*
X64464000Y-66762000D01*
X64464000Y-66762000D02*
X64463000Y-66770000D01*
X64463000Y-66770000D02*
X64461000Y-66778000D01*
X64461000Y-66778000D02*
X64459000Y-66785000D01*
X64459000Y-66785000D02*
X64456000Y-66793000D01*
X64456000Y-66793000D02*
X64453000Y-66800000D01*
X64453000Y-66800000D02*
X64450000Y-66807000D01*
X64450000Y-66807000D02*
X64446000Y-66814000D01*
X64446000Y-66814000D02*
X64442000Y-66821000D01*
X64442000Y-66821000D02*
X64437000Y-66827000D01*
X64437000Y-66827000D02*
X64433000Y-66833000D01*
X64433000Y-66833000D02*
X64427000Y-66839000D01*
X64427000Y-66839000D02*
X64422000Y-66845000D01*
X64422000Y-66845000D02*
X64416000Y-66850000D01*
X64416000Y-66850000D02*
X64410000Y-66856000D01*
X64410000Y-66856000D02*
X64404000Y-66860000D01*
X64404000Y-66860000D02*
X64398000Y-66865000D01*
X64398000Y-66865000D02*
X64391000Y-66869000D01*
X64391000Y-66869000D02*
X64384000Y-66873000D01*
X64384000Y-66873000D02*
X64377000Y-66876000D01*
X64377000Y-66876000D02*
X64370000Y-66879000D01*
X64370000Y-66879000D02*
X64362000Y-66882000D01*
X64362000Y-66882000D02*
X64355000Y-66884000D01*
X64355000Y-66884000D02*
X64347000Y-66886000D01*
X64347000Y-66886000D02*
X64339000Y-66887000D01*
X64339000Y-66887000D02*
X64332000Y-66888000D01*
X64332000Y-66888000D02*
X64324000Y-66889000D01*
X64324000Y-66889000D02*
X64316000Y-66889000D01*
X64316000Y-66889000D02*
X64308000Y-66889000D01*
X64308000Y-66889000D02*
X64300000Y-66888000D01*
X64300000Y-66888000D02*
X64293000Y-66887000D01*
X64293000Y-66887000D02*
X64285000Y-66886000D01*
X64285000Y-66886000D02*
X64277000Y-66884000D01*
X64277000Y-66884000D02*
X64270000Y-66882000D01*
X64270000Y-66882000D02*
X64262000Y-66879000D01*
X64262000Y-66879000D02*
X64255000Y-66876000D01*
X64255000Y-66876000D02*
X64248000Y-66873000D01*
X64248000Y-66873000D02*
X64241000Y-66869000D01*
X64241000Y-66869000D02*
X64234000Y-66865000D01*
X64234000Y-66865000D02*
X64228000Y-66860000D01*
X64228000Y-66860000D02*
X64222000Y-66856000D01*
X64222000Y-66856000D02*
X64216000Y-66850000D01*
X64216000Y-66850000D02*
X64210000Y-66845000D01*
X64210000Y-66845000D02*
X64205000Y-66839000D01*
X64205000Y-66839000D02*
X64199000Y-66833000D01*
X64199000Y-66833000D02*
X64195000Y-66827000D01*
X64195000Y-66827000D02*
X64190000Y-66821000D01*
X64190000Y-66821000D02*
X64186000Y-66814000D01*
X64186000Y-66814000D02*
X64182000Y-66807000D01*
X64182000Y-66807000D02*
X64179000Y-66800000D01*
X64179000Y-66800000D02*
X64176000Y-66793000D01*
X64176000Y-66793000D02*
X64173000Y-66785000D01*
X64173000Y-66785000D02*
X64171000Y-66778000D01*
X64171000Y-66778000D02*
X64169000Y-66770000D01*
X64169000Y-66770000D02*
X64168000Y-66762000D01*
X64168000Y-66762000D02*
X64167000Y-66755000D01*
X64167000Y-66755000D02*
X64166000Y-66747000D01*
X64166000Y-66747000D02*
X64166000Y-66739000D01*
X64166000Y-66739000D02*
X64166000Y-65714000D01*
X64166000Y-65714000D02*
X64466000Y-65714000D01*
X64466000Y-65714000D02*
X64466000Y-65714000D01*
G36*
X64466000Y-66747000D02*
G01*
X64465000Y-66755000D01*
X64464000Y-66762000D01*
X64463000Y-66770000D01*
X64461000Y-66778000D01*
X64459000Y-66785000D01*
X64456000Y-66793000D01*
X64450000Y-66807000D01*
X64442000Y-66821000D01*
X64437000Y-66827000D01*
X64433000Y-66833000D01*
X64427000Y-66839000D01*
X64422000Y-66845000D01*
X64416000Y-66850000D01*
X64410000Y-66856000D01*
X64404000Y-66860000D01*
X64398000Y-66865000D01*
X64384000Y-66873000D01*
X64370000Y-66879000D01*
X64362000Y-66882000D01*
X64355000Y-66884000D01*
X64347000Y-66886000D01*
X64339000Y-66887000D01*
X64332000Y-66888000D01*
X64324000Y-66889000D01*
X64308000Y-66889000D01*
X64300000Y-66888000D01*
X64293000Y-66887000D01*
X64285000Y-66886000D01*
X64277000Y-66884000D01*
X64270000Y-66882000D01*
X64262000Y-66879000D01*
X64248000Y-66873000D01*
X64234000Y-66865000D01*
X64228000Y-66860000D01*
X64222000Y-66856000D01*
X64216000Y-66850000D01*
X64210000Y-66845000D01*
X64205000Y-66839000D01*
X64199000Y-66833000D01*
X64195000Y-66827000D01*
X64190000Y-66821000D01*
X64182000Y-66807000D01*
X64176000Y-66793000D01*
X64173000Y-66785000D01*
X64171000Y-66778000D01*
X64169000Y-66770000D01*
X64168000Y-66762000D01*
X64167000Y-66755000D01*
X64166000Y-66747000D01*
X64166000Y-65714000D01*
X64466000Y-65714000D01*
X64466000Y-66747000D01*
G37*
X64466000Y-66747000D02*
X64465000Y-66755000D01*
X64464000Y-66762000D01*
X64463000Y-66770000D01*
X64461000Y-66778000D01*
X64459000Y-66785000D01*
X64456000Y-66793000D01*
X64450000Y-66807000D01*
X64442000Y-66821000D01*
X64437000Y-66827000D01*
X64433000Y-66833000D01*
X64427000Y-66839000D01*
X64422000Y-66845000D01*
X64416000Y-66850000D01*
X64410000Y-66856000D01*
X64404000Y-66860000D01*
X64398000Y-66865000D01*
X64384000Y-66873000D01*
X64370000Y-66879000D01*
X64362000Y-66882000D01*
X64355000Y-66884000D01*
X64347000Y-66886000D01*
X64339000Y-66887000D01*
X64332000Y-66888000D01*
X64324000Y-66889000D01*
X64308000Y-66889000D01*
X64300000Y-66888000D01*
X64293000Y-66887000D01*
X64285000Y-66886000D01*
X64277000Y-66884000D01*
X64270000Y-66882000D01*
X64262000Y-66879000D01*
X64248000Y-66873000D01*
X64234000Y-66865000D01*
X64228000Y-66860000D01*
X64222000Y-66856000D01*
X64216000Y-66850000D01*
X64210000Y-66845000D01*
X64205000Y-66839000D01*
X64199000Y-66833000D01*
X64195000Y-66827000D01*
X64190000Y-66821000D01*
X64182000Y-66807000D01*
X64176000Y-66793000D01*
X64173000Y-66785000D01*
X64171000Y-66778000D01*
X64169000Y-66770000D01*
X64168000Y-66762000D01*
X64167000Y-66755000D01*
X64166000Y-66747000D01*
X64166000Y-65714000D01*
X64466000Y-65714000D01*
X64466000Y-66747000D01*
X66366000Y-68714000D02*
X65803000Y-68714000D01*
X65803000Y-68714000D02*
X65616000Y-68527000D01*
X65616000Y-68527000D02*
X65616000Y-68364000D01*
X65616000Y-68364000D02*
X64841000Y-68364000D01*
X64841000Y-68364000D02*
X64833000Y-68364000D01*
X64833000Y-68364000D02*
X64825000Y-68363000D01*
X64825000Y-68363000D02*
X64818000Y-68362000D01*
X64818000Y-68362000D02*
X64810000Y-68361000D01*
X64810000Y-68361000D02*
X64802000Y-68359000D01*
X64802000Y-68359000D02*
X64795000Y-68357000D01*
X64795000Y-68357000D02*
X64787000Y-68354000D01*
X64787000Y-68354000D02*
X64780000Y-68351000D01*
X64780000Y-68351000D02*
X64773000Y-68348000D01*
X64773000Y-68348000D02*
X64766000Y-68344000D01*
X64766000Y-68344000D02*
X64759000Y-68340000D01*
X64759000Y-68340000D02*
X64753000Y-68335000D01*
X64753000Y-68335000D02*
X64747000Y-68331000D01*
X64747000Y-68331000D02*
X64741000Y-68325000D01*
X64741000Y-68325000D02*
X64735000Y-68320000D01*
X64735000Y-68320000D02*
X64730000Y-68314000D01*
X64730000Y-68314000D02*
X64724000Y-68308000D01*
X64724000Y-68308000D02*
X64720000Y-68302000D01*
X64720000Y-68302000D02*
X64715000Y-68296000D01*
X64715000Y-68296000D02*
X64711000Y-68289000D01*
X64711000Y-68289000D02*
X64707000Y-68282000D01*
X64707000Y-68282000D02*
X64704000Y-68275000D01*
X64704000Y-68275000D02*
X64701000Y-68268000D01*
X64701000Y-68268000D02*
X64698000Y-68260000D01*
X64698000Y-68260000D02*
X64696000Y-68253000D01*
X64696000Y-68253000D02*
X64694000Y-68245000D01*
X64694000Y-68245000D02*
X64693000Y-68237000D01*
X64693000Y-68237000D02*
X64692000Y-68230000D01*
X64692000Y-68230000D02*
X64691000Y-68222000D01*
X64691000Y-68222000D02*
X64691000Y-68214000D01*
X64691000Y-68214000D02*
X64691000Y-68164000D01*
X64691000Y-68164000D02*
X64691000Y-68156000D01*
X64691000Y-68156000D02*
X64692000Y-68148000D01*
X64692000Y-68148000D02*
X64693000Y-68141000D01*
X64693000Y-68141000D02*
X64694000Y-68133000D01*
X64694000Y-68133000D02*
X64696000Y-68125000D01*
X64696000Y-68125000D02*
X64698000Y-68118000D01*
X64698000Y-68118000D02*
X64701000Y-68110000D01*
X64701000Y-68110000D02*
X64704000Y-68103000D01*
X64704000Y-68103000D02*
X64707000Y-68096000D01*
X64707000Y-68096000D02*
X64711000Y-68089000D01*
X64711000Y-68089000D02*
X64715000Y-68082000D01*
X64715000Y-68082000D02*
X64720000Y-68076000D01*
X64720000Y-68076000D02*
X64724000Y-68070000D01*
X64724000Y-68070000D02*
X64730000Y-68064000D01*
X64730000Y-68064000D02*
X64735000Y-68058000D01*
X64735000Y-68058000D02*
X64741000Y-68053000D01*
X64741000Y-68053000D02*
X64747000Y-68047000D01*
X64747000Y-68047000D02*
X64753000Y-68043000D01*
X64753000Y-68043000D02*
X64759000Y-68038000D01*
X64759000Y-68038000D02*
X64766000Y-68034000D01*
X64766000Y-68034000D02*
X64773000Y-68030000D01*
X64773000Y-68030000D02*
X64780000Y-68027000D01*
X64780000Y-68027000D02*
X64787000Y-68024000D01*
X64787000Y-68024000D02*
X64795000Y-68021000D01*
X64795000Y-68021000D02*
X64802000Y-68019000D01*
X64802000Y-68019000D02*
X64810000Y-68017000D01*
X64810000Y-68017000D02*
X64818000Y-68016000D01*
X64818000Y-68016000D02*
X64825000Y-68015000D01*
X64825000Y-68015000D02*
X64833000Y-68014000D01*
X64833000Y-68014000D02*
X64841000Y-68014000D01*
X64841000Y-68014000D02*
X66366000Y-68014000D01*
X66366000Y-68014000D02*
X66366000Y-68714000D01*
X66366000Y-68714000D02*
X66366000Y-68714000D01*
G36*
X66366000Y-68714000D02*
G01*
X65803000Y-68714000D01*
X65616000Y-68527000D01*
X65616000Y-68364000D01*
X64833000Y-68364000D01*
X64825000Y-68363000D01*
X64818000Y-68362000D01*
X64810000Y-68361000D01*
X64802000Y-68359000D01*
X64795000Y-68357000D01*
X64787000Y-68354000D01*
X64773000Y-68348000D01*
X64759000Y-68340000D01*
X64753000Y-68335000D01*
X64747000Y-68331000D01*
X64741000Y-68325000D01*
X64735000Y-68320000D01*
X64730000Y-68314000D01*
X64724000Y-68308000D01*
X64720000Y-68302000D01*
X64715000Y-68296000D01*
X64707000Y-68282000D01*
X64701000Y-68268000D01*
X64698000Y-68260000D01*
X64696000Y-68253000D01*
X64694000Y-68245000D01*
X64693000Y-68237000D01*
X64692000Y-68230000D01*
X64691000Y-68222000D01*
X64691000Y-68156000D01*
X64692000Y-68148000D01*
X64693000Y-68141000D01*
X64694000Y-68133000D01*
X64696000Y-68125000D01*
X64698000Y-68118000D01*
X64701000Y-68110000D01*
X64707000Y-68096000D01*
X64715000Y-68082000D01*
X64720000Y-68076000D01*
X64724000Y-68070000D01*
X64730000Y-68064000D01*
X64735000Y-68058000D01*
X64741000Y-68053000D01*
X64747000Y-68047000D01*
X64753000Y-68043000D01*
X64759000Y-68038000D01*
X64773000Y-68030000D01*
X64787000Y-68024000D01*
X64795000Y-68021000D01*
X64802000Y-68019000D01*
X64810000Y-68017000D01*
X64818000Y-68016000D01*
X64825000Y-68015000D01*
X64833000Y-68014000D01*
X66366000Y-68014000D01*
X66366000Y-68714000D01*
G37*
X66366000Y-68714000D02*
X65803000Y-68714000D01*
X65616000Y-68527000D01*
X65616000Y-68364000D01*
X64833000Y-68364000D01*
X64825000Y-68363000D01*
X64818000Y-68362000D01*
X64810000Y-68361000D01*
X64802000Y-68359000D01*
X64795000Y-68357000D01*
X64787000Y-68354000D01*
X64773000Y-68348000D01*
X64759000Y-68340000D01*
X64753000Y-68335000D01*
X64747000Y-68331000D01*
X64741000Y-68325000D01*
X64735000Y-68320000D01*
X64730000Y-68314000D01*
X64724000Y-68308000D01*
X64720000Y-68302000D01*
X64715000Y-68296000D01*
X64707000Y-68282000D01*
X64701000Y-68268000D01*
X64698000Y-68260000D01*
X64696000Y-68253000D01*
X64694000Y-68245000D01*
X64693000Y-68237000D01*
X64692000Y-68230000D01*
X64691000Y-68222000D01*
X64691000Y-68156000D01*
X64692000Y-68148000D01*
X64693000Y-68141000D01*
X64694000Y-68133000D01*
X64696000Y-68125000D01*
X64698000Y-68118000D01*
X64701000Y-68110000D01*
X64707000Y-68096000D01*
X64715000Y-68082000D01*
X64720000Y-68076000D01*
X64724000Y-68070000D01*
X64730000Y-68064000D01*
X64735000Y-68058000D01*
X64741000Y-68053000D01*
X64747000Y-68047000D01*
X64753000Y-68043000D01*
X64759000Y-68038000D01*
X64773000Y-68030000D01*
X64787000Y-68024000D01*
X64795000Y-68021000D01*
X64802000Y-68019000D01*
X64810000Y-68017000D01*
X64818000Y-68016000D01*
X64825000Y-68015000D01*
X64833000Y-68014000D01*
X66366000Y-68014000D01*
X66366000Y-68714000D01*
X65266000Y-65714000D02*
X65266000Y-66739000D01*
X65266000Y-66739000D02*
X65266000Y-66747000D01*
X65266000Y-66747000D02*
X65265000Y-66755000D01*
X65265000Y-66755000D02*
X65264000Y-66762000D01*
X65264000Y-66762000D02*
X65263000Y-66770000D01*
X65263000Y-66770000D02*
X65261000Y-66778000D01*
X65261000Y-66778000D02*
X65259000Y-66785000D01*
X65259000Y-66785000D02*
X65256000Y-66793000D01*
X65256000Y-66793000D02*
X65253000Y-66800000D01*
X65253000Y-66800000D02*
X65250000Y-66807000D01*
X65250000Y-66807000D02*
X65246000Y-66814000D01*
X65246000Y-66814000D02*
X65242000Y-66821000D01*
X65242000Y-66821000D02*
X65237000Y-66827000D01*
X65237000Y-66827000D02*
X65233000Y-66833000D01*
X65233000Y-66833000D02*
X65227000Y-66839000D01*
X65227000Y-66839000D02*
X65222000Y-66845000D01*
X65222000Y-66845000D02*
X65216000Y-66850000D01*
X65216000Y-66850000D02*
X65210000Y-66856000D01*
X65210000Y-66856000D02*
X65204000Y-66860000D01*
X65204000Y-66860000D02*
X65198000Y-66865000D01*
X65198000Y-66865000D02*
X65191000Y-66869000D01*
X65191000Y-66869000D02*
X65184000Y-66873000D01*
X65184000Y-66873000D02*
X65177000Y-66876000D01*
X65177000Y-66876000D02*
X65170000Y-66879000D01*
X65170000Y-66879000D02*
X65162000Y-66882000D01*
X65162000Y-66882000D02*
X65155000Y-66884000D01*
X65155000Y-66884000D02*
X65147000Y-66886000D01*
X65147000Y-66886000D02*
X65139000Y-66887000D01*
X65139000Y-66887000D02*
X65132000Y-66888000D01*
X65132000Y-66888000D02*
X65124000Y-66889000D01*
X65124000Y-66889000D02*
X65116000Y-66889000D01*
X65116000Y-66889000D02*
X64716000Y-66889000D01*
X64716000Y-66889000D02*
X64708000Y-66889000D01*
X64708000Y-66889000D02*
X64700000Y-66888000D01*
X64700000Y-66888000D02*
X64693000Y-66887000D01*
X64693000Y-66887000D02*
X64685000Y-66886000D01*
X64685000Y-66886000D02*
X64677000Y-66884000D01*
X64677000Y-66884000D02*
X64670000Y-66882000D01*
X64670000Y-66882000D02*
X64662000Y-66879000D01*
X64662000Y-66879000D02*
X64655000Y-66876000D01*
X64655000Y-66876000D02*
X64648000Y-66873000D01*
X64648000Y-66873000D02*
X64641000Y-66869000D01*
X64641000Y-66869000D02*
X64634000Y-66865000D01*
X64634000Y-66865000D02*
X64628000Y-66860000D01*
X64628000Y-66860000D02*
X64622000Y-66856000D01*
X64622000Y-66856000D02*
X64616000Y-66850000D01*
X64616000Y-66850000D02*
X64610000Y-66845000D01*
X64610000Y-66845000D02*
X64605000Y-66839000D01*
X64605000Y-66839000D02*
X64599000Y-66833000D01*
X64599000Y-66833000D02*
X64595000Y-66827000D01*
X64595000Y-66827000D02*
X64590000Y-66821000D01*
X64590000Y-66821000D02*
X64586000Y-66814000D01*
X64586000Y-66814000D02*
X64582000Y-66807000D01*
X64582000Y-66807000D02*
X64579000Y-66800000D01*
X64579000Y-66800000D02*
X64576000Y-66793000D01*
X64576000Y-66793000D02*
X64573000Y-66785000D01*
X64573000Y-66785000D02*
X64571000Y-66778000D01*
X64571000Y-66778000D02*
X64569000Y-66770000D01*
X64569000Y-66770000D02*
X64568000Y-66762000D01*
X64568000Y-66762000D02*
X64567000Y-66755000D01*
X64567000Y-66755000D02*
X64566000Y-66747000D01*
X64566000Y-66747000D02*
X64566000Y-66739000D01*
X64566000Y-66739000D02*
X64566000Y-65714000D01*
X64566000Y-65714000D02*
X65266000Y-65714000D01*
X65266000Y-65714000D02*
X65266000Y-65714000D01*
G36*
X65266000Y-66747000D02*
G01*
X65265000Y-66755000D01*
X65264000Y-66762000D01*
X65263000Y-66770000D01*
X65261000Y-66778000D01*
X65259000Y-66785000D01*
X65256000Y-66793000D01*
X65250000Y-66807000D01*
X65242000Y-66821000D01*
X65237000Y-66827000D01*
X65233000Y-66833000D01*
X65227000Y-66839000D01*
X65222000Y-66845000D01*
X65216000Y-66850000D01*
X65210000Y-66856000D01*
X65204000Y-66860000D01*
X65198000Y-66865000D01*
X65184000Y-66873000D01*
X65170000Y-66879000D01*
X65162000Y-66882000D01*
X65155000Y-66884000D01*
X65147000Y-66886000D01*
X65139000Y-66887000D01*
X65132000Y-66888000D01*
X65124000Y-66889000D01*
X64708000Y-66889000D01*
X64700000Y-66888000D01*
X64693000Y-66887000D01*
X64685000Y-66886000D01*
X64677000Y-66884000D01*
X64670000Y-66882000D01*
X64662000Y-66879000D01*
X64648000Y-66873000D01*
X64634000Y-66865000D01*
X64628000Y-66860000D01*
X64622000Y-66856000D01*
X64616000Y-66850000D01*
X64610000Y-66845000D01*
X64605000Y-66839000D01*
X64599000Y-66833000D01*
X64595000Y-66827000D01*
X64590000Y-66821000D01*
X64582000Y-66807000D01*
X64576000Y-66793000D01*
X64573000Y-66785000D01*
X64571000Y-66778000D01*
X64569000Y-66770000D01*
X64568000Y-66762000D01*
X64567000Y-66755000D01*
X64566000Y-66747000D01*
X64566000Y-65714000D01*
X65266000Y-65714000D01*
X65266000Y-66747000D01*
G37*
X65266000Y-66747000D02*
X65265000Y-66755000D01*
X65264000Y-66762000D01*
X65263000Y-66770000D01*
X65261000Y-66778000D01*
X65259000Y-66785000D01*
X65256000Y-66793000D01*
X65250000Y-66807000D01*
X65242000Y-66821000D01*
X65237000Y-66827000D01*
X65233000Y-66833000D01*
X65227000Y-66839000D01*
X65222000Y-66845000D01*
X65216000Y-66850000D01*
X65210000Y-66856000D01*
X65204000Y-66860000D01*
X65198000Y-66865000D01*
X65184000Y-66873000D01*
X65170000Y-66879000D01*
X65162000Y-66882000D01*
X65155000Y-66884000D01*
X65147000Y-66886000D01*
X65139000Y-66887000D01*
X65132000Y-66888000D01*
X65124000Y-66889000D01*
X64708000Y-66889000D01*
X64700000Y-66888000D01*
X64693000Y-66887000D01*
X64685000Y-66886000D01*
X64677000Y-66884000D01*
X64670000Y-66882000D01*
X64662000Y-66879000D01*
X64648000Y-66873000D01*
X64634000Y-66865000D01*
X64628000Y-66860000D01*
X64622000Y-66856000D01*
X64616000Y-66850000D01*
X64610000Y-66845000D01*
X64605000Y-66839000D01*
X64599000Y-66833000D01*
X64595000Y-66827000D01*
X64590000Y-66821000D01*
X64582000Y-66807000D01*
X64576000Y-66793000D01*
X64573000Y-66785000D01*
X64571000Y-66778000D01*
X64569000Y-66770000D01*
X64568000Y-66762000D01*
X64567000Y-66755000D01*
X64566000Y-66747000D01*
X64566000Y-65714000D01*
X65266000Y-65714000D01*
X65266000Y-66747000D01*
X66366000Y-66714000D02*
X65516000Y-66714000D01*
X65516000Y-66714000D02*
X65508000Y-66714000D01*
X65508000Y-66714000D02*
X65500000Y-66713000D01*
X65500000Y-66713000D02*
X65493000Y-66712000D01*
X65493000Y-66712000D02*
X65485000Y-66711000D01*
X65485000Y-66711000D02*
X65477000Y-66709000D01*
X65477000Y-66709000D02*
X65470000Y-66707000D01*
X65470000Y-66707000D02*
X65462000Y-66704000D01*
X65462000Y-66704000D02*
X65455000Y-66701000D01*
X65455000Y-66701000D02*
X65448000Y-66698000D01*
X65448000Y-66698000D02*
X65441000Y-66694000D01*
X65441000Y-66694000D02*
X65434000Y-66690000D01*
X65434000Y-66690000D02*
X65428000Y-66685000D01*
X65428000Y-66685000D02*
X65422000Y-66681000D01*
X65422000Y-66681000D02*
X65416000Y-66675000D01*
X65416000Y-66675000D02*
X65410000Y-66670000D01*
X65410000Y-66670000D02*
X65405000Y-66664000D01*
X65405000Y-66664000D02*
X65399000Y-66658000D01*
X65399000Y-66658000D02*
X65395000Y-66652000D01*
X65395000Y-66652000D02*
X65390000Y-66646000D01*
X65390000Y-66646000D02*
X65386000Y-66639000D01*
X65386000Y-66639000D02*
X65382000Y-66632000D01*
X65382000Y-66632000D02*
X65379000Y-66625000D01*
X65379000Y-66625000D02*
X65376000Y-66618000D01*
X65376000Y-66618000D02*
X65373000Y-66610000D01*
X65373000Y-66610000D02*
X65371000Y-66603000D01*
X65371000Y-66603000D02*
X65369000Y-66595000D01*
X65369000Y-66595000D02*
X65368000Y-66587000D01*
X65368000Y-66587000D02*
X65367000Y-66580000D01*
X65367000Y-66580000D02*
X65366000Y-66572000D01*
X65366000Y-66572000D02*
X65366000Y-66564000D01*
X65366000Y-66564000D02*
X65366000Y-65714000D01*
X65366000Y-65714000D02*
X65666000Y-65714000D01*
X65666000Y-65714000D02*
X65666000Y-66189000D01*
X65666000Y-66189000D02*
X65891000Y-66414000D01*
X65891000Y-66414000D02*
X66366000Y-66414000D01*
X66366000Y-66414000D02*
X66366000Y-66714000D01*
X66366000Y-66714000D02*
X66366000Y-66714000D01*
G36*
X65666000Y-66189000D02*
G01*
X65891000Y-66414000D01*
X66366000Y-66414000D01*
X66366000Y-66714000D01*
X65508000Y-66714000D01*
X65500000Y-66713000D01*
X65493000Y-66712000D01*
X65485000Y-66711000D01*
X65477000Y-66709000D01*
X65470000Y-66707000D01*
X65462000Y-66704000D01*
X65448000Y-66698000D01*
X65434000Y-66690000D01*
X65428000Y-66685000D01*
X65422000Y-66681000D01*
X65416000Y-66675000D01*
X65410000Y-66670000D01*
X65405000Y-66664000D01*
X65399000Y-66658000D01*
X65395000Y-66652000D01*
X65390000Y-66646000D01*
X65382000Y-66632000D01*
X65376000Y-66618000D01*
X65373000Y-66610000D01*
X65371000Y-66603000D01*
X65369000Y-66595000D01*
X65368000Y-66587000D01*
X65367000Y-66580000D01*
X65366000Y-66572000D01*
X65366000Y-65714000D01*
X65666000Y-65714000D01*
X65666000Y-66189000D01*
G37*
X65666000Y-66189000D02*
X65891000Y-66414000D01*
X66366000Y-66414000D01*
X66366000Y-66714000D01*
X65508000Y-66714000D01*
X65500000Y-66713000D01*
X65493000Y-66712000D01*
X65485000Y-66711000D01*
X65477000Y-66709000D01*
X65470000Y-66707000D01*
X65462000Y-66704000D01*
X65448000Y-66698000D01*
X65434000Y-66690000D01*
X65428000Y-66685000D01*
X65422000Y-66681000D01*
X65416000Y-66675000D01*
X65410000Y-66670000D01*
X65405000Y-66664000D01*
X65399000Y-66658000D01*
X65395000Y-66652000D01*
X65390000Y-66646000D01*
X65382000Y-66632000D01*
X65376000Y-66618000D01*
X65373000Y-66610000D01*
X65371000Y-66603000D01*
X65369000Y-66595000D01*
X65368000Y-66587000D01*
X65367000Y-66580000D01*
X65366000Y-66572000D01*
X65366000Y-65714000D01*
X65666000Y-65714000D01*
X65666000Y-66189000D01*
X64966000Y-69414000D02*
X64966000Y-68789000D01*
X64966000Y-68789000D02*
X64966000Y-68781000D01*
X64966000Y-68781000D02*
X64967000Y-68773000D01*
X64967000Y-68773000D02*
X64968000Y-68766000D01*
X64968000Y-68766000D02*
X64969000Y-68758000D01*
X64969000Y-68758000D02*
X64971000Y-68750000D01*
X64971000Y-68750000D02*
X64973000Y-68743000D01*
X64973000Y-68743000D02*
X64976000Y-68735000D01*
X64976000Y-68735000D02*
X64979000Y-68728000D01*
X64979000Y-68728000D02*
X64982000Y-68721000D01*
X64982000Y-68721000D02*
X64986000Y-68714000D01*
X64986000Y-68714000D02*
X64990000Y-68707000D01*
X64990000Y-68707000D02*
X64995000Y-68701000D01*
X64995000Y-68701000D02*
X64999000Y-68695000D01*
X64999000Y-68695000D02*
X65005000Y-68689000D01*
X65005000Y-68689000D02*
X65010000Y-68683000D01*
X65010000Y-68683000D02*
X65016000Y-68678000D01*
X65016000Y-68678000D02*
X65022000Y-68672000D01*
X65022000Y-68672000D02*
X65028000Y-68668000D01*
X65028000Y-68668000D02*
X65034000Y-68663000D01*
X65034000Y-68663000D02*
X65041000Y-68659000D01*
X65041000Y-68659000D02*
X65048000Y-68655000D01*
X65048000Y-68655000D02*
X65055000Y-68652000D01*
X65055000Y-68652000D02*
X65062000Y-68649000D01*
X65062000Y-68649000D02*
X65070000Y-68646000D01*
X65070000Y-68646000D02*
X65077000Y-68644000D01*
X65077000Y-68644000D02*
X65085000Y-68642000D01*
X65085000Y-68642000D02*
X65093000Y-68641000D01*
X65093000Y-68641000D02*
X65100000Y-68640000D01*
X65100000Y-68640000D02*
X65108000Y-68639000D01*
X65108000Y-68639000D02*
X65116000Y-68639000D01*
X65116000Y-68639000D02*
X65124000Y-68639000D01*
X65124000Y-68639000D02*
X65132000Y-68640000D01*
X65132000Y-68640000D02*
X65139000Y-68641000D01*
X65139000Y-68641000D02*
X65147000Y-68642000D01*
X65147000Y-68642000D02*
X65155000Y-68644000D01*
X65155000Y-68644000D02*
X65162000Y-68646000D01*
X65162000Y-68646000D02*
X65170000Y-68649000D01*
X65170000Y-68649000D02*
X65177000Y-68652000D01*
X65177000Y-68652000D02*
X65184000Y-68655000D01*
X65184000Y-68655000D02*
X65191000Y-68659000D01*
X65191000Y-68659000D02*
X65198000Y-68663000D01*
X65198000Y-68663000D02*
X65204000Y-68668000D01*
X65204000Y-68668000D02*
X65210000Y-68672000D01*
X65210000Y-68672000D02*
X65216000Y-68678000D01*
X65216000Y-68678000D02*
X65222000Y-68683000D01*
X65222000Y-68683000D02*
X65227000Y-68689000D01*
X65227000Y-68689000D02*
X65233000Y-68695000D01*
X65233000Y-68695000D02*
X65237000Y-68701000D01*
X65237000Y-68701000D02*
X65242000Y-68707000D01*
X65242000Y-68707000D02*
X65246000Y-68714000D01*
X65246000Y-68714000D02*
X65250000Y-68721000D01*
X65250000Y-68721000D02*
X65253000Y-68728000D01*
X65253000Y-68728000D02*
X65256000Y-68735000D01*
X65256000Y-68735000D02*
X65259000Y-68743000D01*
X65259000Y-68743000D02*
X65261000Y-68750000D01*
X65261000Y-68750000D02*
X65263000Y-68758000D01*
X65263000Y-68758000D02*
X65264000Y-68766000D01*
X65264000Y-68766000D02*
X65265000Y-68773000D01*
X65265000Y-68773000D02*
X65266000Y-68781000D01*
X65266000Y-68781000D02*
X65266000Y-68789000D01*
X65266000Y-68789000D02*
X65266000Y-69414000D01*
X65266000Y-69414000D02*
X64966000Y-69414000D01*
X64966000Y-69414000D02*
X64966000Y-69414000D01*
G36*
X65132000Y-68640000D02*
G01*
X65139000Y-68641000D01*
X65147000Y-68642000D01*
X65155000Y-68644000D01*
X65162000Y-68646000D01*
X65170000Y-68649000D01*
X65184000Y-68655000D01*
X65198000Y-68663000D01*
X65204000Y-68668000D01*
X65210000Y-68672000D01*
X65216000Y-68678000D01*
X65222000Y-68683000D01*
X65227000Y-68689000D01*
X65233000Y-68695000D01*
X65237000Y-68701000D01*
X65242000Y-68707000D01*
X65250000Y-68721000D01*
X65256000Y-68735000D01*
X65259000Y-68743000D01*
X65261000Y-68750000D01*
X65263000Y-68758000D01*
X65264000Y-68766000D01*
X65265000Y-68773000D01*
X65266000Y-68781000D01*
X65266000Y-69414000D01*
X64966000Y-69414000D01*
X64966000Y-68781000D01*
X64967000Y-68773000D01*
X64968000Y-68766000D01*
X64969000Y-68758000D01*
X64971000Y-68750000D01*
X64973000Y-68743000D01*
X64976000Y-68735000D01*
X64982000Y-68721000D01*
X64990000Y-68707000D01*
X64995000Y-68701000D01*
X64999000Y-68695000D01*
X65005000Y-68689000D01*
X65010000Y-68683000D01*
X65016000Y-68678000D01*
X65022000Y-68672000D01*
X65028000Y-68668000D01*
X65034000Y-68663000D01*
X65048000Y-68655000D01*
X65062000Y-68649000D01*
X65070000Y-68646000D01*
X65077000Y-68644000D01*
X65085000Y-68642000D01*
X65093000Y-68641000D01*
X65100000Y-68640000D01*
X65108000Y-68639000D01*
X65124000Y-68639000D01*
X65132000Y-68640000D01*
G37*
X65132000Y-68640000D02*
X65139000Y-68641000D01*
X65147000Y-68642000D01*
X65155000Y-68644000D01*
X65162000Y-68646000D01*
X65170000Y-68649000D01*
X65184000Y-68655000D01*
X65198000Y-68663000D01*
X65204000Y-68668000D01*
X65210000Y-68672000D01*
X65216000Y-68678000D01*
X65222000Y-68683000D01*
X65227000Y-68689000D01*
X65233000Y-68695000D01*
X65237000Y-68701000D01*
X65242000Y-68707000D01*
X65250000Y-68721000D01*
X65256000Y-68735000D01*
X65259000Y-68743000D01*
X65261000Y-68750000D01*
X65263000Y-68758000D01*
X65264000Y-68766000D01*
X65265000Y-68773000D01*
X65266000Y-68781000D01*
X65266000Y-69414000D01*
X64966000Y-69414000D01*
X64966000Y-68781000D01*
X64967000Y-68773000D01*
X64968000Y-68766000D01*
X64969000Y-68758000D01*
X64971000Y-68750000D01*
X64973000Y-68743000D01*
X64976000Y-68735000D01*
X64982000Y-68721000D01*
X64990000Y-68707000D01*
X64995000Y-68701000D01*
X64999000Y-68695000D01*
X65005000Y-68689000D01*
X65010000Y-68683000D01*
X65016000Y-68678000D01*
X65022000Y-68672000D01*
X65028000Y-68668000D01*
X65034000Y-68663000D01*
X65048000Y-68655000D01*
X65062000Y-68649000D01*
X65070000Y-68646000D01*
X65077000Y-68644000D01*
X65085000Y-68642000D01*
X65093000Y-68641000D01*
X65100000Y-68640000D01*
X65108000Y-68639000D01*
X65124000Y-68639000D01*
X65132000Y-68640000D01*
X64066000Y-65714000D02*
X64066000Y-66739000D01*
X64066000Y-66739000D02*
X64066000Y-66747000D01*
X64066000Y-66747000D02*
X64065000Y-66755000D01*
X64065000Y-66755000D02*
X64064000Y-66762000D01*
X64064000Y-66762000D02*
X64063000Y-66770000D01*
X64063000Y-66770000D02*
X64061000Y-66778000D01*
X64061000Y-66778000D02*
X64059000Y-66785000D01*
X64059000Y-66785000D02*
X64056000Y-66793000D01*
X64056000Y-66793000D02*
X64053000Y-66800000D01*
X64053000Y-66800000D02*
X64050000Y-66807000D01*
X64050000Y-66807000D02*
X64046000Y-66814000D01*
X64046000Y-66814000D02*
X64042000Y-66821000D01*
X64042000Y-66821000D02*
X64037000Y-66827000D01*
X64037000Y-66827000D02*
X64033000Y-66833000D01*
X64033000Y-66833000D02*
X64027000Y-66839000D01*
X64027000Y-66839000D02*
X64022000Y-66845000D01*
X64022000Y-66845000D02*
X64016000Y-66850000D01*
X64016000Y-66850000D02*
X64010000Y-66856000D01*
X64010000Y-66856000D02*
X64004000Y-66860000D01*
X64004000Y-66860000D02*
X63998000Y-66865000D01*
X63998000Y-66865000D02*
X63991000Y-66869000D01*
X63991000Y-66869000D02*
X63984000Y-66873000D01*
X63984000Y-66873000D02*
X63977000Y-66876000D01*
X63977000Y-66876000D02*
X63970000Y-66879000D01*
X63970000Y-66879000D02*
X63962000Y-66882000D01*
X63962000Y-66882000D02*
X63955000Y-66884000D01*
X63955000Y-66884000D02*
X63947000Y-66886000D01*
X63947000Y-66886000D02*
X63939000Y-66887000D01*
X63939000Y-66887000D02*
X63932000Y-66888000D01*
X63932000Y-66888000D02*
X63924000Y-66889000D01*
X63924000Y-66889000D02*
X63916000Y-66889000D01*
X63916000Y-66889000D02*
X63866000Y-66889000D01*
X63866000Y-66889000D02*
X63858000Y-66889000D01*
X63858000Y-66889000D02*
X63850000Y-66888000D01*
X63850000Y-66888000D02*
X63843000Y-66887000D01*
X63843000Y-66887000D02*
X63835000Y-66886000D01*
X63835000Y-66886000D02*
X63827000Y-66884000D01*
X63827000Y-66884000D02*
X63820000Y-66882000D01*
X63820000Y-66882000D02*
X63812000Y-66879000D01*
X63812000Y-66879000D02*
X63805000Y-66876000D01*
X63805000Y-66876000D02*
X63798000Y-66873000D01*
X63798000Y-66873000D02*
X63791000Y-66869000D01*
X63791000Y-66869000D02*
X63784000Y-66865000D01*
X63784000Y-66865000D02*
X63778000Y-66860000D01*
X63778000Y-66860000D02*
X63772000Y-66856000D01*
X63772000Y-66856000D02*
X63766000Y-66850000D01*
X63766000Y-66850000D02*
X63760000Y-66845000D01*
X63760000Y-66845000D02*
X63755000Y-66839000D01*
X63755000Y-66839000D02*
X63749000Y-66833000D01*
X63749000Y-66833000D02*
X63745000Y-66827000D01*
X63745000Y-66827000D02*
X63740000Y-66821000D01*
X63740000Y-66821000D02*
X63736000Y-66814000D01*
X63736000Y-66814000D02*
X63732000Y-66807000D01*
X63732000Y-66807000D02*
X63729000Y-66800000D01*
X63729000Y-66800000D02*
X63726000Y-66793000D01*
X63726000Y-66793000D02*
X63723000Y-66785000D01*
X63723000Y-66785000D02*
X63721000Y-66778000D01*
X63721000Y-66778000D02*
X63719000Y-66770000D01*
X63719000Y-66770000D02*
X63718000Y-66762000D01*
X63718000Y-66762000D02*
X63717000Y-66755000D01*
X63717000Y-66755000D02*
X63716000Y-66747000D01*
X63716000Y-66747000D02*
X63716000Y-66739000D01*
X63716000Y-66739000D02*
X63716000Y-66414000D01*
X63716000Y-66414000D02*
X63503000Y-66414000D01*
X63503000Y-66414000D02*
X63366000Y-66277000D01*
X63366000Y-66277000D02*
X63366000Y-65714000D01*
X63366000Y-65714000D02*
X64066000Y-65714000D01*
X64066000Y-65714000D02*
X64066000Y-65714000D01*
G36*
X64066000Y-66747000D02*
G01*
X64065000Y-66755000D01*
X64064000Y-66762000D01*
X64063000Y-66770000D01*
X64061000Y-66778000D01*
X64059000Y-66785000D01*
X64056000Y-66793000D01*
X64050000Y-66807000D01*
X64042000Y-66821000D01*
X64037000Y-66827000D01*
X64033000Y-66833000D01*
X64027000Y-66839000D01*
X64022000Y-66845000D01*
X64016000Y-66850000D01*
X64010000Y-66856000D01*
X64004000Y-66860000D01*
X63998000Y-66865000D01*
X63984000Y-66873000D01*
X63970000Y-66879000D01*
X63962000Y-66882000D01*
X63955000Y-66884000D01*
X63947000Y-66886000D01*
X63939000Y-66887000D01*
X63932000Y-66888000D01*
X63924000Y-66889000D01*
X63858000Y-66889000D01*
X63850000Y-66888000D01*
X63843000Y-66887000D01*
X63835000Y-66886000D01*
X63827000Y-66884000D01*
X63820000Y-66882000D01*
X63812000Y-66879000D01*
X63798000Y-66873000D01*
X63784000Y-66865000D01*
X63778000Y-66860000D01*
X63772000Y-66856000D01*
X63766000Y-66850000D01*
X63760000Y-66845000D01*
X63755000Y-66839000D01*
X63749000Y-66833000D01*
X63745000Y-66827000D01*
X63740000Y-66821000D01*
X63732000Y-66807000D01*
X63726000Y-66793000D01*
X63723000Y-66785000D01*
X63721000Y-66778000D01*
X63719000Y-66770000D01*
X63718000Y-66762000D01*
X63717000Y-66755000D01*
X63716000Y-66747000D01*
X63716000Y-66414000D01*
X63503000Y-66414000D01*
X63366000Y-66277000D01*
X63366000Y-65714000D01*
X64066000Y-65714000D01*
X64066000Y-66747000D01*
G37*
X64066000Y-66747000D02*
X64065000Y-66755000D01*
X64064000Y-66762000D01*
X64063000Y-66770000D01*
X64061000Y-66778000D01*
X64059000Y-66785000D01*
X64056000Y-66793000D01*
X64050000Y-66807000D01*
X64042000Y-66821000D01*
X64037000Y-66827000D01*
X64033000Y-66833000D01*
X64027000Y-66839000D01*
X64022000Y-66845000D01*
X64016000Y-66850000D01*
X64010000Y-66856000D01*
X64004000Y-66860000D01*
X63998000Y-66865000D01*
X63984000Y-66873000D01*
X63970000Y-66879000D01*
X63962000Y-66882000D01*
X63955000Y-66884000D01*
X63947000Y-66886000D01*
X63939000Y-66887000D01*
X63932000Y-66888000D01*
X63924000Y-66889000D01*
X63858000Y-66889000D01*
X63850000Y-66888000D01*
X63843000Y-66887000D01*
X63835000Y-66886000D01*
X63827000Y-66884000D01*
X63820000Y-66882000D01*
X63812000Y-66879000D01*
X63798000Y-66873000D01*
X63784000Y-66865000D01*
X63778000Y-66860000D01*
X63772000Y-66856000D01*
X63766000Y-66850000D01*
X63760000Y-66845000D01*
X63755000Y-66839000D01*
X63749000Y-66833000D01*
X63745000Y-66827000D01*
X63740000Y-66821000D01*
X63732000Y-66807000D01*
X63726000Y-66793000D01*
X63723000Y-66785000D01*
X63721000Y-66778000D01*
X63719000Y-66770000D01*
X63718000Y-66762000D01*
X63717000Y-66755000D01*
X63716000Y-66747000D01*
X63716000Y-66414000D01*
X63503000Y-66414000D01*
X63366000Y-66277000D01*
X63366000Y-65714000D01*
X64066000Y-65714000D01*
X64066000Y-66747000D01*
X66366000Y-67114000D02*
X65741000Y-67114000D01*
X65741000Y-67114000D02*
X65733000Y-67114000D01*
X65733000Y-67114000D02*
X65725000Y-67113000D01*
X65725000Y-67113000D02*
X65718000Y-67112000D01*
X65718000Y-67112000D02*
X65710000Y-67111000D01*
X65710000Y-67111000D02*
X65702000Y-67109000D01*
X65702000Y-67109000D02*
X65695000Y-67107000D01*
X65695000Y-67107000D02*
X65687000Y-67104000D01*
X65687000Y-67104000D02*
X65680000Y-67101000D01*
X65680000Y-67101000D02*
X65673000Y-67098000D01*
X65673000Y-67098000D02*
X65666000Y-67094000D01*
X65666000Y-67094000D02*
X65659000Y-67090000D01*
X65659000Y-67090000D02*
X65653000Y-67085000D01*
X65653000Y-67085000D02*
X65647000Y-67081000D01*
X65647000Y-67081000D02*
X65641000Y-67075000D01*
X65641000Y-67075000D02*
X65635000Y-67070000D01*
X65635000Y-67070000D02*
X65630000Y-67064000D01*
X65630000Y-67064000D02*
X65624000Y-67058000D01*
X65624000Y-67058000D02*
X65620000Y-67052000D01*
X65620000Y-67052000D02*
X65615000Y-67046000D01*
X65615000Y-67046000D02*
X65611000Y-67039000D01*
X65611000Y-67039000D02*
X65607000Y-67032000D01*
X65607000Y-67032000D02*
X65604000Y-67025000D01*
X65604000Y-67025000D02*
X65601000Y-67018000D01*
X65601000Y-67018000D02*
X65598000Y-67010000D01*
X65598000Y-67010000D02*
X65596000Y-67003000D01*
X65596000Y-67003000D02*
X65594000Y-66995000D01*
X65594000Y-66995000D02*
X65593000Y-66987000D01*
X65593000Y-66987000D02*
X65592000Y-66980000D01*
X65592000Y-66980000D02*
X65591000Y-66972000D01*
X65591000Y-66972000D02*
X65591000Y-66964000D01*
X65591000Y-66964000D02*
X65591000Y-66956000D01*
X65591000Y-66956000D02*
X65592000Y-66948000D01*
X65592000Y-66948000D02*
X65593000Y-66941000D01*
X65593000Y-66941000D02*
X65594000Y-66933000D01*
X65594000Y-66933000D02*
X65596000Y-66925000D01*
X65596000Y-66925000D02*
X65598000Y-66918000D01*
X65598000Y-66918000D02*
X65601000Y-66910000D01*
X65601000Y-66910000D02*
X65604000Y-66903000D01*
X65604000Y-66903000D02*
X65607000Y-66896000D01*
X65607000Y-66896000D02*
X65611000Y-66889000D01*
X65611000Y-66889000D02*
X65615000Y-66882000D01*
X65615000Y-66882000D02*
X65620000Y-66876000D01*
X65620000Y-66876000D02*
X65624000Y-66870000D01*
X65624000Y-66870000D02*
X65630000Y-66864000D01*
X65630000Y-66864000D02*
X65635000Y-66858000D01*
X65635000Y-66858000D02*
X65641000Y-66853000D01*
X65641000Y-66853000D02*
X65647000Y-66847000D01*
X65647000Y-66847000D02*
X65653000Y-66843000D01*
X65653000Y-66843000D02*
X65659000Y-66838000D01*
X65659000Y-66838000D02*
X65666000Y-66834000D01*
X65666000Y-66834000D02*
X65673000Y-66830000D01*
X65673000Y-66830000D02*
X65680000Y-66827000D01*
X65680000Y-66827000D02*
X65687000Y-66824000D01*
X65687000Y-66824000D02*
X65695000Y-66821000D01*
X65695000Y-66821000D02*
X65702000Y-66819000D01*
X65702000Y-66819000D02*
X65710000Y-66817000D01*
X65710000Y-66817000D02*
X65718000Y-66816000D01*
X65718000Y-66816000D02*
X65725000Y-66815000D01*
X65725000Y-66815000D02*
X65733000Y-66814000D01*
X65733000Y-66814000D02*
X65741000Y-66814000D01*
X65741000Y-66814000D02*
X66366000Y-66814000D01*
X66366000Y-66814000D02*
X66366000Y-67114000D01*
X66366000Y-67114000D02*
X66366000Y-67114000D01*
G36*
X66366000Y-67114000D02*
G01*
X65733000Y-67114000D01*
X65725000Y-67113000D01*
X65718000Y-67112000D01*
X65710000Y-67111000D01*
X65702000Y-67109000D01*
X65695000Y-67107000D01*
X65687000Y-67104000D01*
X65673000Y-67098000D01*
X65659000Y-67090000D01*
X65653000Y-67085000D01*
X65647000Y-67081000D01*
X65641000Y-67075000D01*
X65635000Y-67070000D01*
X65630000Y-67064000D01*
X65624000Y-67058000D01*
X65620000Y-67052000D01*
X65615000Y-67046000D01*
X65607000Y-67032000D01*
X65601000Y-67018000D01*
X65598000Y-67010000D01*
X65596000Y-67003000D01*
X65594000Y-66995000D01*
X65593000Y-66987000D01*
X65592000Y-66980000D01*
X65591000Y-66972000D01*
X65591000Y-66956000D01*
X65592000Y-66948000D01*
X65593000Y-66941000D01*
X65594000Y-66933000D01*
X65596000Y-66925000D01*
X65598000Y-66918000D01*
X65601000Y-66910000D01*
X65607000Y-66896000D01*
X65615000Y-66882000D01*
X65620000Y-66876000D01*
X65624000Y-66870000D01*
X65630000Y-66864000D01*
X65635000Y-66858000D01*
X65641000Y-66853000D01*
X65647000Y-66847000D01*
X65653000Y-66843000D01*
X65659000Y-66838000D01*
X65673000Y-66830000D01*
X65687000Y-66824000D01*
X65695000Y-66821000D01*
X65702000Y-66819000D01*
X65710000Y-66817000D01*
X65718000Y-66816000D01*
X65725000Y-66815000D01*
X65733000Y-66814000D01*
X66366000Y-66814000D01*
X66366000Y-67114000D01*
G37*
X66366000Y-67114000D02*
X65733000Y-67114000D01*
X65725000Y-67113000D01*
X65718000Y-67112000D01*
X65710000Y-67111000D01*
X65702000Y-67109000D01*
X65695000Y-67107000D01*
X65687000Y-67104000D01*
X65673000Y-67098000D01*
X65659000Y-67090000D01*
X65653000Y-67085000D01*
X65647000Y-67081000D01*
X65641000Y-67075000D01*
X65635000Y-67070000D01*
X65630000Y-67064000D01*
X65624000Y-67058000D01*
X65620000Y-67052000D01*
X65615000Y-67046000D01*
X65607000Y-67032000D01*
X65601000Y-67018000D01*
X65598000Y-67010000D01*
X65596000Y-67003000D01*
X65594000Y-66995000D01*
X65593000Y-66987000D01*
X65592000Y-66980000D01*
X65591000Y-66972000D01*
X65591000Y-66956000D01*
X65592000Y-66948000D01*
X65593000Y-66941000D01*
X65594000Y-66933000D01*
X65596000Y-66925000D01*
X65598000Y-66918000D01*
X65601000Y-66910000D01*
X65607000Y-66896000D01*
X65615000Y-66882000D01*
X65620000Y-66876000D01*
X65624000Y-66870000D01*
X65630000Y-66864000D01*
X65635000Y-66858000D01*
X65641000Y-66853000D01*
X65647000Y-66847000D01*
X65653000Y-66843000D01*
X65659000Y-66838000D01*
X65673000Y-66830000D01*
X65687000Y-66824000D01*
X65695000Y-66821000D01*
X65702000Y-66819000D01*
X65710000Y-66817000D01*
X65718000Y-66816000D01*
X65725000Y-66815000D01*
X65733000Y-66814000D01*
X66366000Y-66814000D01*
X66366000Y-67114000D01*
X63666000Y-69414000D02*
X63666000Y-68689000D01*
X63666000Y-68689000D02*
X63503000Y-68689000D01*
X63503000Y-68689000D02*
X63366000Y-68826000D01*
X63366000Y-68826000D02*
X63366000Y-69414000D01*
X63366000Y-69414000D02*
X63666000Y-69414000D01*
G36*
X63666000Y-69414000D02*
G01*
X63366000Y-69414000D01*
X63366000Y-68826000D01*
X63503000Y-68689000D01*
X63666000Y-68689000D01*
X63666000Y-69414000D01*
G37*
X63666000Y-69414000D02*
X63366000Y-69414000D01*
X63366000Y-68826000D01*
X63503000Y-68689000D01*
X63666000Y-68689000D01*
X63666000Y-69414000D01*
X63766000Y-69414000D02*
X63766000Y-68789000D01*
X63766000Y-68789000D02*
X63766000Y-68781000D01*
X63766000Y-68781000D02*
X63767000Y-68773000D01*
X63767000Y-68773000D02*
X63768000Y-68766000D01*
X63768000Y-68766000D02*
X63769000Y-68758000D01*
X63769000Y-68758000D02*
X63771000Y-68750000D01*
X63771000Y-68750000D02*
X63773000Y-68743000D01*
X63773000Y-68743000D02*
X63776000Y-68735000D01*
X63776000Y-68735000D02*
X63779000Y-68728000D01*
X63779000Y-68728000D02*
X63782000Y-68721000D01*
X63782000Y-68721000D02*
X63786000Y-68714000D01*
X63786000Y-68714000D02*
X63790000Y-68707000D01*
X63790000Y-68707000D02*
X63795000Y-68701000D01*
X63795000Y-68701000D02*
X63799000Y-68695000D01*
X63799000Y-68695000D02*
X63805000Y-68689000D01*
X63805000Y-68689000D02*
X63810000Y-68683000D01*
X63810000Y-68683000D02*
X63816000Y-68678000D01*
X63816000Y-68678000D02*
X63822000Y-68672000D01*
X63822000Y-68672000D02*
X63828000Y-68668000D01*
X63828000Y-68668000D02*
X63834000Y-68663000D01*
X63834000Y-68663000D02*
X63841000Y-68659000D01*
X63841000Y-68659000D02*
X63848000Y-68655000D01*
X63848000Y-68655000D02*
X63855000Y-68652000D01*
X63855000Y-68652000D02*
X63862000Y-68649000D01*
X63862000Y-68649000D02*
X63870000Y-68646000D01*
X63870000Y-68646000D02*
X63877000Y-68644000D01*
X63877000Y-68644000D02*
X63885000Y-68642000D01*
X63885000Y-68642000D02*
X63893000Y-68641000D01*
X63893000Y-68641000D02*
X63900000Y-68640000D01*
X63900000Y-68640000D02*
X63908000Y-68639000D01*
X63908000Y-68639000D02*
X63916000Y-68639000D01*
X63916000Y-68639000D02*
X63924000Y-68639000D01*
X63924000Y-68639000D02*
X63932000Y-68640000D01*
X63932000Y-68640000D02*
X63939000Y-68641000D01*
X63939000Y-68641000D02*
X63947000Y-68642000D01*
X63947000Y-68642000D02*
X63955000Y-68644000D01*
X63955000Y-68644000D02*
X63962000Y-68646000D01*
X63962000Y-68646000D02*
X63970000Y-68649000D01*
X63970000Y-68649000D02*
X63977000Y-68652000D01*
X63977000Y-68652000D02*
X63984000Y-68655000D01*
X63984000Y-68655000D02*
X63991000Y-68659000D01*
X63991000Y-68659000D02*
X63998000Y-68663000D01*
X63998000Y-68663000D02*
X64004000Y-68668000D01*
X64004000Y-68668000D02*
X64010000Y-68672000D01*
X64010000Y-68672000D02*
X64016000Y-68678000D01*
X64016000Y-68678000D02*
X64022000Y-68683000D01*
X64022000Y-68683000D02*
X64027000Y-68689000D01*
X64027000Y-68689000D02*
X64033000Y-68695000D01*
X64033000Y-68695000D02*
X64037000Y-68701000D01*
X64037000Y-68701000D02*
X64042000Y-68707000D01*
X64042000Y-68707000D02*
X64046000Y-68714000D01*
X64046000Y-68714000D02*
X64050000Y-68721000D01*
X64050000Y-68721000D02*
X64053000Y-68728000D01*
X64053000Y-68728000D02*
X64056000Y-68735000D01*
X64056000Y-68735000D02*
X64059000Y-68743000D01*
X64059000Y-68743000D02*
X64061000Y-68750000D01*
X64061000Y-68750000D02*
X64063000Y-68758000D01*
X64063000Y-68758000D02*
X64064000Y-68766000D01*
X64064000Y-68766000D02*
X64065000Y-68773000D01*
X64065000Y-68773000D02*
X64066000Y-68781000D01*
X64066000Y-68781000D02*
X64066000Y-68789000D01*
X64066000Y-68789000D02*
X64066000Y-69414000D01*
X64066000Y-69414000D02*
X63766000Y-69414000D01*
X63766000Y-69414000D02*
X63766000Y-69414000D01*
G36*
X63932000Y-68640000D02*
G01*
X63939000Y-68641000D01*
X63947000Y-68642000D01*
X63955000Y-68644000D01*
X63962000Y-68646000D01*
X63970000Y-68649000D01*
X63984000Y-68655000D01*
X63998000Y-68663000D01*
X64004000Y-68668000D01*
X64010000Y-68672000D01*
X64016000Y-68678000D01*
X64022000Y-68683000D01*
X64027000Y-68689000D01*
X64033000Y-68695000D01*
X64037000Y-68701000D01*
X64042000Y-68707000D01*
X64050000Y-68721000D01*
X64056000Y-68735000D01*
X64059000Y-68743000D01*
X64061000Y-68750000D01*
X64063000Y-68758000D01*
X64064000Y-68766000D01*
X64065000Y-68773000D01*
X64066000Y-68781000D01*
X64066000Y-69414000D01*
X63766000Y-69414000D01*
X63766000Y-68781000D01*
X63767000Y-68773000D01*
X63768000Y-68766000D01*
X63769000Y-68758000D01*
X63771000Y-68750000D01*
X63773000Y-68743000D01*
X63776000Y-68735000D01*
X63782000Y-68721000D01*
X63790000Y-68707000D01*
X63795000Y-68701000D01*
X63799000Y-68695000D01*
X63805000Y-68689000D01*
X63810000Y-68683000D01*
X63816000Y-68678000D01*
X63822000Y-68672000D01*
X63828000Y-68668000D01*
X63834000Y-68663000D01*
X63848000Y-68655000D01*
X63862000Y-68649000D01*
X63870000Y-68646000D01*
X63877000Y-68644000D01*
X63885000Y-68642000D01*
X63893000Y-68641000D01*
X63900000Y-68640000D01*
X63908000Y-68639000D01*
X63924000Y-68639000D01*
X63932000Y-68640000D01*
G37*
X63932000Y-68640000D02*
X63939000Y-68641000D01*
X63947000Y-68642000D01*
X63955000Y-68644000D01*
X63962000Y-68646000D01*
X63970000Y-68649000D01*
X63984000Y-68655000D01*
X63998000Y-68663000D01*
X64004000Y-68668000D01*
X64010000Y-68672000D01*
X64016000Y-68678000D01*
X64022000Y-68683000D01*
X64027000Y-68689000D01*
X64033000Y-68695000D01*
X64037000Y-68701000D01*
X64042000Y-68707000D01*
X64050000Y-68721000D01*
X64056000Y-68735000D01*
X64059000Y-68743000D01*
X64061000Y-68750000D01*
X64063000Y-68758000D01*
X64064000Y-68766000D01*
X64065000Y-68773000D01*
X64066000Y-68781000D01*
X64066000Y-69414000D01*
X63766000Y-69414000D01*
X63766000Y-68781000D01*
X63767000Y-68773000D01*
X63768000Y-68766000D01*
X63769000Y-68758000D01*
X63771000Y-68750000D01*
X63773000Y-68743000D01*
X63776000Y-68735000D01*
X63782000Y-68721000D01*
X63790000Y-68707000D01*
X63795000Y-68701000D01*
X63799000Y-68695000D01*
X63805000Y-68689000D01*
X63810000Y-68683000D01*
X63816000Y-68678000D01*
X63822000Y-68672000D01*
X63828000Y-68668000D01*
X63834000Y-68663000D01*
X63848000Y-68655000D01*
X63862000Y-68649000D01*
X63870000Y-68646000D01*
X63877000Y-68644000D01*
X63885000Y-68642000D01*
X63893000Y-68641000D01*
X63900000Y-68640000D01*
X63908000Y-68639000D01*
X63924000Y-68639000D01*
X63932000Y-68640000D01*
X62666000Y-68414000D02*
X63391000Y-68414000D01*
X63391000Y-68414000D02*
X63391000Y-68577000D01*
X63391000Y-68577000D02*
X63254000Y-68714000D01*
X63254000Y-68714000D02*
X62666000Y-68714000D01*
X62666000Y-68714000D02*
X62666000Y-68414000D01*
G36*
X63391000Y-68577000D02*
G01*
X63254000Y-68714000D01*
X62666000Y-68714000D01*
X62666000Y-68414000D01*
X63391000Y-68414000D01*
X63391000Y-68577000D01*
G37*
X63391000Y-68577000D02*
X63254000Y-68714000D01*
X62666000Y-68714000D01*
X62666000Y-68414000D01*
X63391000Y-68414000D01*
X63391000Y-68577000D01*
X66366000Y-67914000D02*
X64841000Y-67914000D01*
X64841000Y-67914000D02*
X64833000Y-67914000D01*
X64833000Y-67914000D02*
X64825000Y-67913000D01*
X64825000Y-67913000D02*
X64818000Y-67912000D01*
X64818000Y-67912000D02*
X64810000Y-67911000D01*
X64810000Y-67911000D02*
X64802000Y-67909000D01*
X64802000Y-67909000D02*
X64795000Y-67907000D01*
X64795000Y-67907000D02*
X64787000Y-67904000D01*
X64787000Y-67904000D02*
X64780000Y-67901000D01*
X64780000Y-67901000D02*
X64773000Y-67898000D01*
X64773000Y-67898000D02*
X64766000Y-67894000D01*
X64766000Y-67894000D02*
X64759000Y-67890000D01*
X64759000Y-67890000D02*
X64753000Y-67885000D01*
X64753000Y-67885000D02*
X64747000Y-67881000D01*
X64747000Y-67881000D02*
X64741000Y-67875000D01*
X64741000Y-67875000D02*
X64735000Y-67870000D01*
X64735000Y-67870000D02*
X64730000Y-67864000D01*
X64730000Y-67864000D02*
X64724000Y-67858000D01*
X64724000Y-67858000D02*
X64720000Y-67852000D01*
X64720000Y-67852000D02*
X64715000Y-67846000D01*
X64715000Y-67846000D02*
X64711000Y-67839000D01*
X64711000Y-67839000D02*
X64707000Y-67832000D01*
X64707000Y-67832000D02*
X64704000Y-67825000D01*
X64704000Y-67825000D02*
X64701000Y-67818000D01*
X64701000Y-67818000D02*
X64698000Y-67810000D01*
X64698000Y-67810000D02*
X64696000Y-67803000D01*
X64696000Y-67803000D02*
X64694000Y-67795000D01*
X64694000Y-67795000D02*
X64693000Y-67787000D01*
X64693000Y-67787000D02*
X64692000Y-67780000D01*
X64692000Y-67780000D02*
X64691000Y-67772000D01*
X64691000Y-67772000D02*
X64691000Y-67764000D01*
X64691000Y-67764000D02*
X64691000Y-67714000D01*
X64691000Y-67714000D02*
X64691000Y-67706000D01*
X64691000Y-67706000D02*
X64692000Y-67698000D01*
X64692000Y-67698000D02*
X64693000Y-67691000D01*
X64693000Y-67691000D02*
X64694000Y-67683000D01*
X64694000Y-67683000D02*
X64696000Y-67675000D01*
X64696000Y-67675000D02*
X64698000Y-67668000D01*
X64698000Y-67668000D02*
X64701000Y-67660000D01*
X64701000Y-67660000D02*
X64704000Y-67653000D01*
X64704000Y-67653000D02*
X64707000Y-67646000D01*
X64707000Y-67646000D02*
X64711000Y-67639000D01*
X64711000Y-67639000D02*
X64715000Y-67632000D01*
X64715000Y-67632000D02*
X64720000Y-67626000D01*
X64720000Y-67626000D02*
X64724000Y-67620000D01*
X64724000Y-67620000D02*
X64730000Y-67614000D01*
X64730000Y-67614000D02*
X64735000Y-67608000D01*
X64735000Y-67608000D02*
X64741000Y-67603000D01*
X64741000Y-67603000D02*
X64747000Y-67597000D01*
X64747000Y-67597000D02*
X64753000Y-67593000D01*
X64753000Y-67593000D02*
X64759000Y-67588000D01*
X64759000Y-67588000D02*
X64766000Y-67584000D01*
X64766000Y-67584000D02*
X64773000Y-67580000D01*
X64773000Y-67580000D02*
X64780000Y-67577000D01*
X64780000Y-67577000D02*
X64787000Y-67574000D01*
X64787000Y-67574000D02*
X64795000Y-67571000D01*
X64795000Y-67571000D02*
X64802000Y-67569000D01*
X64802000Y-67569000D02*
X64810000Y-67567000D01*
X64810000Y-67567000D02*
X64818000Y-67566000D01*
X64818000Y-67566000D02*
X64825000Y-67565000D01*
X64825000Y-67565000D02*
X64833000Y-67564000D01*
X64833000Y-67564000D02*
X64841000Y-67564000D01*
X64841000Y-67564000D02*
X65616000Y-67564000D01*
X65616000Y-67564000D02*
X65616000Y-67364000D01*
X65616000Y-67364000D02*
X65616000Y-67356000D01*
X65616000Y-67356000D02*
X65617000Y-67348000D01*
X65617000Y-67348000D02*
X65618000Y-67341000D01*
X65618000Y-67341000D02*
X65619000Y-67333000D01*
X65619000Y-67333000D02*
X65621000Y-67325000D01*
X65621000Y-67325000D02*
X65623000Y-67318000D01*
X65623000Y-67318000D02*
X65626000Y-67310000D01*
X65626000Y-67310000D02*
X65629000Y-67303000D01*
X65629000Y-67303000D02*
X65632000Y-67296000D01*
X65632000Y-67296000D02*
X65636000Y-67289000D01*
X65636000Y-67289000D02*
X65640000Y-67282000D01*
X65640000Y-67282000D02*
X65645000Y-67276000D01*
X65645000Y-67276000D02*
X65649000Y-67270000D01*
X65649000Y-67270000D02*
X65655000Y-67264000D01*
X65655000Y-67264000D02*
X65660000Y-67258000D01*
X65660000Y-67258000D02*
X65666000Y-67253000D01*
X65666000Y-67253000D02*
X65672000Y-67247000D01*
X65672000Y-67247000D02*
X65678000Y-67243000D01*
X65678000Y-67243000D02*
X65684000Y-67238000D01*
X65684000Y-67238000D02*
X65691000Y-67234000D01*
X65691000Y-67234000D02*
X65698000Y-67230000D01*
X65698000Y-67230000D02*
X65705000Y-67227000D01*
X65705000Y-67227000D02*
X65712000Y-67224000D01*
X65712000Y-67224000D02*
X65720000Y-67221000D01*
X65720000Y-67221000D02*
X65727000Y-67219000D01*
X65727000Y-67219000D02*
X65735000Y-67217000D01*
X65735000Y-67217000D02*
X65743000Y-67216000D01*
X65743000Y-67216000D02*
X65750000Y-67215000D01*
X65750000Y-67215000D02*
X65758000Y-67214000D01*
X65758000Y-67214000D02*
X65766000Y-67214000D01*
X65766000Y-67214000D02*
X66366000Y-67214000D01*
X66366000Y-67214000D02*
X66366000Y-67914000D01*
X66366000Y-67914000D02*
X66366000Y-67914000D01*
G36*
X66366000Y-67914000D02*
G01*
X64833000Y-67914000D01*
X64825000Y-67913000D01*
X64818000Y-67912000D01*
X64810000Y-67911000D01*
X64802000Y-67909000D01*
X64795000Y-67907000D01*
X64787000Y-67904000D01*
X64773000Y-67898000D01*
X64759000Y-67890000D01*
X64753000Y-67885000D01*
X64747000Y-67881000D01*
X64741000Y-67875000D01*
X64735000Y-67870000D01*
X64730000Y-67864000D01*
X64724000Y-67858000D01*
X64720000Y-67852000D01*
X64715000Y-67846000D01*
X64707000Y-67832000D01*
X64701000Y-67818000D01*
X64698000Y-67810000D01*
X64696000Y-67803000D01*
X64694000Y-67795000D01*
X64693000Y-67787000D01*
X64692000Y-67780000D01*
X64691000Y-67772000D01*
X64691000Y-67706000D01*
X64692000Y-67698000D01*
X64693000Y-67691000D01*
X64694000Y-67683000D01*
X64696000Y-67675000D01*
X64698000Y-67668000D01*
X64701000Y-67660000D01*
X64707000Y-67646000D01*
X64715000Y-67632000D01*
X64720000Y-67626000D01*
X64724000Y-67620000D01*
X64730000Y-67614000D01*
X64735000Y-67608000D01*
X64741000Y-67603000D01*
X64747000Y-67597000D01*
X64753000Y-67593000D01*
X64759000Y-67588000D01*
X64773000Y-67580000D01*
X64787000Y-67574000D01*
X64795000Y-67571000D01*
X64802000Y-67569000D01*
X64810000Y-67567000D01*
X64818000Y-67566000D01*
X64825000Y-67565000D01*
X64833000Y-67564000D01*
X65616000Y-67564000D01*
X65616000Y-67356000D01*
X65617000Y-67348000D01*
X65618000Y-67341000D01*
X65619000Y-67333000D01*
X65621000Y-67325000D01*
X65623000Y-67318000D01*
X65626000Y-67310000D01*
X65632000Y-67296000D01*
X65640000Y-67282000D01*
X65645000Y-67276000D01*
X65649000Y-67270000D01*
X65655000Y-67264000D01*
X65660000Y-67258000D01*
X65666000Y-67253000D01*
X65672000Y-67247000D01*
X65678000Y-67243000D01*
X65684000Y-67238000D01*
X65698000Y-67230000D01*
X65712000Y-67224000D01*
X65720000Y-67221000D01*
X65727000Y-67219000D01*
X65735000Y-67217000D01*
X65743000Y-67216000D01*
X65750000Y-67215000D01*
X65758000Y-67214000D01*
X66366000Y-67214000D01*
X66366000Y-67914000D01*
G37*
X66366000Y-67914000D02*
X64833000Y-67914000D01*
X64825000Y-67913000D01*
X64818000Y-67912000D01*
X64810000Y-67911000D01*
X64802000Y-67909000D01*
X64795000Y-67907000D01*
X64787000Y-67904000D01*
X64773000Y-67898000D01*
X64759000Y-67890000D01*
X64753000Y-67885000D01*
X64747000Y-67881000D01*
X64741000Y-67875000D01*
X64735000Y-67870000D01*
X64730000Y-67864000D01*
X64724000Y-67858000D01*
X64720000Y-67852000D01*
X64715000Y-67846000D01*
X64707000Y-67832000D01*
X64701000Y-67818000D01*
X64698000Y-67810000D01*
X64696000Y-67803000D01*
X64694000Y-67795000D01*
X64693000Y-67787000D01*
X64692000Y-67780000D01*
X64691000Y-67772000D01*
X64691000Y-67706000D01*
X64692000Y-67698000D01*
X64693000Y-67691000D01*
X64694000Y-67683000D01*
X64696000Y-67675000D01*
X64698000Y-67668000D01*
X64701000Y-67660000D01*
X64707000Y-67646000D01*
X64715000Y-67632000D01*
X64720000Y-67626000D01*
X64724000Y-67620000D01*
X64730000Y-67614000D01*
X64735000Y-67608000D01*
X64741000Y-67603000D01*
X64747000Y-67597000D01*
X64753000Y-67593000D01*
X64759000Y-67588000D01*
X64773000Y-67580000D01*
X64787000Y-67574000D01*
X64795000Y-67571000D01*
X64802000Y-67569000D01*
X64810000Y-67567000D01*
X64818000Y-67566000D01*
X64825000Y-67565000D01*
X64833000Y-67564000D01*
X65616000Y-67564000D01*
X65616000Y-67356000D01*
X65617000Y-67348000D01*
X65618000Y-67341000D01*
X65619000Y-67333000D01*
X65621000Y-67325000D01*
X65623000Y-67318000D01*
X65626000Y-67310000D01*
X65632000Y-67296000D01*
X65640000Y-67282000D01*
X65645000Y-67276000D01*
X65649000Y-67270000D01*
X65655000Y-67264000D01*
X65660000Y-67258000D01*
X65666000Y-67253000D01*
X65672000Y-67247000D01*
X65678000Y-67243000D01*
X65684000Y-67238000D01*
X65698000Y-67230000D01*
X65712000Y-67224000D01*
X65720000Y-67221000D01*
X65727000Y-67219000D01*
X65735000Y-67217000D01*
X65743000Y-67216000D01*
X65750000Y-67215000D01*
X65758000Y-67214000D01*
X66366000Y-67214000D01*
X66366000Y-67914000D01*
X62666000Y-66714000D02*
X63391000Y-66714000D01*
X63391000Y-66714000D02*
X63391000Y-66551000D01*
X63391000Y-66551000D02*
X63254000Y-66414000D01*
X63254000Y-66414000D02*
X62666000Y-66414000D01*
X62666000Y-66414000D02*
X62666000Y-66714000D01*
G36*
X63391000Y-66551000D02*
G01*
X63391000Y-66714000D01*
X62666000Y-66714000D01*
X62666000Y-66414000D01*
X63254000Y-66414000D01*
X63391000Y-66551000D01*
G37*
X63391000Y-66551000D02*
X63391000Y-66714000D01*
X62666000Y-66714000D01*
X62666000Y-66414000D01*
X63254000Y-66414000D01*
X63391000Y-66551000D01*
X62666000Y-66814000D02*
X63291000Y-66814000D01*
X63291000Y-66814000D02*
X63299000Y-66814000D01*
X63299000Y-66814000D02*
X63307000Y-66815000D01*
X63307000Y-66815000D02*
X63314000Y-66816000D01*
X63314000Y-66816000D02*
X63322000Y-66817000D01*
X63322000Y-66817000D02*
X63330000Y-66819000D01*
X63330000Y-66819000D02*
X63337000Y-66821000D01*
X63337000Y-66821000D02*
X63345000Y-66824000D01*
X63345000Y-66824000D02*
X63352000Y-66827000D01*
X63352000Y-66827000D02*
X63359000Y-66830000D01*
X63359000Y-66830000D02*
X63366000Y-66834000D01*
X63366000Y-66834000D02*
X63373000Y-66838000D01*
X63373000Y-66838000D02*
X63379000Y-66843000D01*
X63379000Y-66843000D02*
X63385000Y-66847000D01*
X63385000Y-66847000D02*
X63391000Y-66853000D01*
X63391000Y-66853000D02*
X63397000Y-66858000D01*
X63397000Y-66858000D02*
X63402000Y-66864000D01*
X63402000Y-66864000D02*
X63408000Y-66870000D01*
X63408000Y-66870000D02*
X63412000Y-66876000D01*
X63412000Y-66876000D02*
X63417000Y-66882000D01*
X63417000Y-66882000D02*
X63421000Y-66889000D01*
X63421000Y-66889000D02*
X63425000Y-66896000D01*
X63425000Y-66896000D02*
X63428000Y-66903000D01*
X63428000Y-66903000D02*
X63431000Y-66910000D01*
X63431000Y-66910000D02*
X63434000Y-66918000D01*
X63434000Y-66918000D02*
X63436000Y-66925000D01*
X63436000Y-66925000D02*
X63438000Y-66933000D01*
X63438000Y-66933000D02*
X63439000Y-66941000D01*
X63439000Y-66941000D02*
X63440000Y-66948000D01*
X63440000Y-66948000D02*
X63441000Y-66956000D01*
X63441000Y-66956000D02*
X63441000Y-66964000D01*
X63441000Y-66964000D02*
X63441000Y-66972000D01*
X63441000Y-66972000D02*
X63440000Y-66980000D01*
X63440000Y-66980000D02*
X63439000Y-66987000D01*
X63439000Y-66987000D02*
X63438000Y-66995000D01*
X63438000Y-66995000D02*
X63436000Y-67003000D01*
X63436000Y-67003000D02*
X63434000Y-67010000D01*
X63434000Y-67010000D02*
X63431000Y-67018000D01*
X63431000Y-67018000D02*
X63428000Y-67025000D01*
X63428000Y-67025000D02*
X63425000Y-67032000D01*
X63425000Y-67032000D02*
X63421000Y-67039000D01*
X63421000Y-67039000D02*
X63417000Y-67046000D01*
X63417000Y-67046000D02*
X63412000Y-67052000D01*
X63412000Y-67052000D02*
X63408000Y-67058000D01*
X63408000Y-67058000D02*
X63402000Y-67064000D01*
X63402000Y-67064000D02*
X63397000Y-67070000D01*
X63397000Y-67070000D02*
X63391000Y-67075000D01*
X63391000Y-67075000D02*
X63385000Y-67081000D01*
X63385000Y-67081000D02*
X63379000Y-67085000D01*
X63379000Y-67085000D02*
X63373000Y-67090000D01*
X63373000Y-67090000D02*
X63366000Y-67094000D01*
X63366000Y-67094000D02*
X63359000Y-67098000D01*
X63359000Y-67098000D02*
X63352000Y-67101000D01*
X63352000Y-67101000D02*
X63345000Y-67104000D01*
X63345000Y-67104000D02*
X63337000Y-67107000D01*
X63337000Y-67107000D02*
X63330000Y-67109000D01*
X63330000Y-67109000D02*
X63322000Y-67111000D01*
X63322000Y-67111000D02*
X63314000Y-67112000D01*
X63314000Y-67112000D02*
X63307000Y-67113000D01*
X63307000Y-67113000D02*
X63299000Y-67114000D01*
X63299000Y-67114000D02*
X63291000Y-67114000D01*
X63291000Y-67114000D02*
X62666000Y-67114000D01*
X62666000Y-67114000D02*
X62666000Y-66814000D01*
X62666000Y-66814000D02*
X62666000Y-66814000D01*
G36*
X63307000Y-66815000D02*
G01*
X63314000Y-66816000D01*
X63322000Y-66817000D01*
X63330000Y-66819000D01*
X63337000Y-66821000D01*
X63345000Y-66824000D01*
X63359000Y-66830000D01*
X63373000Y-66838000D01*
X63379000Y-66843000D01*
X63385000Y-66847000D01*
X63391000Y-66853000D01*
X63397000Y-66858000D01*
X63402000Y-66864000D01*
X63408000Y-66870000D01*
X63412000Y-66876000D01*
X63417000Y-66882000D01*
X63425000Y-66896000D01*
X63431000Y-66910000D01*
X63434000Y-66918000D01*
X63436000Y-66925000D01*
X63438000Y-66933000D01*
X63439000Y-66941000D01*
X63440000Y-66948000D01*
X63441000Y-66956000D01*
X63441000Y-66972000D01*
X63440000Y-66980000D01*
X63439000Y-66987000D01*
X63438000Y-66995000D01*
X63436000Y-67003000D01*
X63434000Y-67010000D01*
X63431000Y-67018000D01*
X63425000Y-67032000D01*
X63417000Y-67046000D01*
X63412000Y-67052000D01*
X63408000Y-67058000D01*
X63402000Y-67064000D01*
X63397000Y-67070000D01*
X63391000Y-67075000D01*
X63385000Y-67081000D01*
X63379000Y-67085000D01*
X63373000Y-67090000D01*
X63359000Y-67098000D01*
X63345000Y-67104000D01*
X63337000Y-67107000D01*
X63330000Y-67109000D01*
X63322000Y-67111000D01*
X63314000Y-67112000D01*
X63307000Y-67113000D01*
X63299000Y-67114000D01*
X62666000Y-67114000D01*
X62666000Y-66814000D01*
X63299000Y-66814000D01*
X63307000Y-66815000D01*
G37*
X63307000Y-66815000D02*
X63314000Y-66816000D01*
X63322000Y-66817000D01*
X63330000Y-66819000D01*
X63337000Y-66821000D01*
X63345000Y-66824000D01*
X63359000Y-66830000D01*
X63373000Y-66838000D01*
X63379000Y-66843000D01*
X63385000Y-66847000D01*
X63391000Y-66853000D01*
X63397000Y-66858000D01*
X63402000Y-66864000D01*
X63408000Y-66870000D01*
X63412000Y-66876000D01*
X63417000Y-66882000D01*
X63425000Y-66896000D01*
X63431000Y-66910000D01*
X63434000Y-66918000D01*
X63436000Y-66925000D01*
X63438000Y-66933000D01*
X63439000Y-66941000D01*
X63440000Y-66948000D01*
X63441000Y-66956000D01*
X63441000Y-66972000D01*
X63440000Y-66980000D01*
X63439000Y-66987000D01*
X63438000Y-66995000D01*
X63436000Y-67003000D01*
X63434000Y-67010000D01*
X63431000Y-67018000D01*
X63425000Y-67032000D01*
X63417000Y-67046000D01*
X63412000Y-67052000D01*
X63408000Y-67058000D01*
X63402000Y-67064000D01*
X63397000Y-67070000D01*
X63391000Y-67075000D01*
X63385000Y-67081000D01*
X63379000Y-67085000D01*
X63373000Y-67090000D01*
X63359000Y-67098000D01*
X63345000Y-67104000D01*
X63337000Y-67107000D01*
X63330000Y-67109000D01*
X63322000Y-67111000D01*
X63314000Y-67112000D01*
X63307000Y-67113000D01*
X63299000Y-67114000D01*
X62666000Y-67114000D01*
X62666000Y-66814000D01*
X63299000Y-66814000D01*
X63307000Y-66815000D01*
X62666000Y-68014000D02*
X63291000Y-68014000D01*
X63291000Y-68014000D02*
X63299000Y-68014000D01*
X63299000Y-68014000D02*
X63307000Y-68015000D01*
X63307000Y-68015000D02*
X63314000Y-68016000D01*
X63314000Y-68016000D02*
X63322000Y-68017000D01*
X63322000Y-68017000D02*
X63330000Y-68019000D01*
X63330000Y-68019000D02*
X63337000Y-68021000D01*
X63337000Y-68021000D02*
X63345000Y-68024000D01*
X63345000Y-68024000D02*
X63352000Y-68027000D01*
X63352000Y-68027000D02*
X63359000Y-68030000D01*
X63359000Y-68030000D02*
X63366000Y-68034000D01*
X63366000Y-68034000D02*
X63373000Y-68038000D01*
X63373000Y-68038000D02*
X63379000Y-68043000D01*
X63379000Y-68043000D02*
X63385000Y-68047000D01*
X63385000Y-68047000D02*
X63391000Y-68053000D01*
X63391000Y-68053000D02*
X63397000Y-68058000D01*
X63397000Y-68058000D02*
X63402000Y-68064000D01*
X63402000Y-68064000D02*
X63408000Y-68070000D01*
X63408000Y-68070000D02*
X63412000Y-68076000D01*
X63412000Y-68076000D02*
X63417000Y-68082000D01*
X63417000Y-68082000D02*
X63421000Y-68089000D01*
X63421000Y-68089000D02*
X63425000Y-68096000D01*
X63425000Y-68096000D02*
X63428000Y-68103000D01*
X63428000Y-68103000D02*
X63431000Y-68110000D01*
X63431000Y-68110000D02*
X63434000Y-68118000D01*
X63434000Y-68118000D02*
X63436000Y-68125000D01*
X63436000Y-68125000D02*
X63438000Y-68133000D01*
X63438000Y-68133000D02*
X63439000Y-68141000D01*
X63439000Y-68141000D02*
X63440000Y-68148000D01*
X63440000Y-68148000D02*
X63441000Y-68156000D01*
X63441000Y-68156000D02*
X63441000Y-68164000D01*
X63441000Y-68164000D02*
X63441000Y-68172000D01*
X63441000Y-68172000D02*
X63440000Y-68180000D01*
X63440000Y-68180000D02*
X63439000Y-68187000D01*
X63439000Y-68187000D02*
X63438000Y-68195000D01*
X63438000Y-68195000D02*
X63436000Y-68203000D01*
X63436000Y-68203000D02*
X63434000Y-68210000D01*
X63434000Y-68210000D02*
X63431000Y-68218000D01*
X63431000Y-68218000D02*
X63428000Y-68225000D01*
X63428000Y-68225000D02*
X63425000Y-68232000D01*
X63425000Y-68232000D02*
X63421000Y-68239000D01*
X63421000Y-68239000D02*
X63417000Y-68246000D01*
X63417000Y-68246000D02*
X63412000Y-68252000D01*
X63412000Y-68252000D02*
X63408000Y-68258000D01*
X63408000Y-68258000D02*
X63402000Y-68264000D01*
X63402000Y-68264000D02*
X63397000Y-68270000D01*
X63397000Y-68270000D02*
X63391000Y-68275000D01*
X63391000Y-68275000D02*
X63385000Y-68281000D01*
X63385000Y-68281000D02*
X63379000Y-68285000D01*
X63379000Y-68285000D02*
X63373000Y-68290000D01*
X63373000Y-68290000D02*
X63366000Y-68294000D01*
X63366000Y-68294000D02*
X63359000Y-68298000D01*
X63359000Y-68298000D02*
X63352000Y-68301000D01*
X63352000Y-68301000D02*
X63345000Y-68304000D01*
X63345000Y-68304000D02*
X63337000Y-68307000D01*
X63337000Y-68307000D02*
X63330000Y-68309000D01*
X63330000Y-68309000D02*
X63322000Y-68311000D01*
X63322000Y-68311000D02*
X63314000Y-68312000D01*
X63314000Y-68312000D02*
X63307000Y-68313000D01*
X63307000Y-68313000D02*
X63299000Y-68314000D01*
X63299000Y-68314000D02*
X63291000Y-68314000D01*
X63291000Y-68314000D02*
X62666000Y-68314000D01*
X62666000Y-68314000D02*
X62666000Y-68014000D01*
X62666000Y-68014000D02*
X62666000Y-68014000D01*
G36*
X63307000Y-68015000D02*
G01*
X63314000Y-68016000D01*
X63322000Y-68017000D01*
X63330000Y-68019000D01*
X63337000Y-68021000D01*
X63345000Y-68024000D01*
X63359000Y-68030000D01*
X63373000Y-68038000D01*
X63379000Y-68043000D01*
X63385000Y-68047000D01*
X63391000Y-68053000D01*
X63397000Y-68058000D01*
X63402000Y-68064000D01*
X63408000Y-68070000D01*
X63412000Y-68076000D01*
X63417000Y-68082000D01*
X63425000Y-68096000D01*
X63431000Y-68110000D01*
X63434000Y-68118000D01*
X63436000Y-68125000D01*
X63438000Y-68133000D01*
X63439000Y-68141000D01*
X63440000Y-68148000D01*
X63441000Y-68156000D01*
X63441000Y-68172000D01*
X63440000Y-68180000D01*
X63439000Y-68187000D01*
X63438000Y-68195000D01*
X63436000Y-68203000D01*
X63434000Y-68210000D01*
X63431000Y-68218000D01*
X63425000Y-68232000D01*
X63417000Y-68246000D01*
X63412000Y-68252000D01*
X63408000Y-68258000D01*
X63402000Y-68264000D01*
X63397000Y-68270000D01*
X63391000Y-68275000D01*
X63385000Y-68281000D01*
X63379000Y-68285000D01*
X63373000Y-68290000D01*
X63359000Y-68298000D01*
X63345000Y-68304000D01*
X63337000Y-68307000D01*
X63330000Y-68309000D01*
X63322000Y-68311000D01*
X63314000Y-68312000D01*
X63307000Y-68313000D01*
X63299000Y-68314000D01*
X62666000Y-68314000D01*
X62666000Y-68014000D01*
X63299000Y-68014000D01*
X63307000Y-68015000D01*
G37*
X63307000Y-68015000D02*
X63314000Y-68016000D01*
X63322000Y-68017000D01*
X63330000Y-68019000D01*
X63337000Y-68021000D01*
X63345000Y-68024000D01*
X63359000Y-68030000D01*
X63373000Y-68038000D01*
X63379000Y-68043000D01*
X63385000Y-68047000D01*
X63391000Y-68053000D01*
X63397000Y-68058000D01*
X63402000Y-68064000D01*
X63408000Y-68070000D01*
X63412000Y-68076000D01*
X63417000Y-68082000D01*
X63425000Y-68096000D01*
X63431000Y-68110000D01*
X63434000Y-68118000D01*
X63436000Y-68125000D01*
X63438000Y-68133000D01*
X63439000Y-68141000D01*
X63440000Y-68148000D01*
X63441000Y-68156000D01*
X63441000Y-68172000D01*
X63440000Y-68180000D01*
X63439000Y-68187000D01*
X63438000Y-68195000D01*
X63436000Y-68203000D01*
X63434000Y-68210000D01*
X63431000Y-68218000D01*
X63425000Y-68232000D01*
X63417000Y-68246000D01*
X63412000Y-68252000D01*
X63408000Y-68258000D01*
X63402000Y-68264000D01*
X63397000Y-68270000D01*
X63391000Y-68275000D01*
X63385000Y-68281000D01*
X63379000Y-68285000D01*
X63373000Y-68290000D01*
X63359000Y-68298000D01*
X63345000Y-68304000D01*
X63337000Y-68307000D01*
X63330000Y-68309000D01*
X63322000Y-68311000D01*
X63314000Y-68312000D01*
X63307000Y-68313000D01*
X63299000Y-68314000D01*
X62666000Y-68314000D01*
X62666000Y-68014000D01*
X63299000Y-68014000D01*
X63307000Y-68015000D01*
D17*
X88802800Y-104500000D03*
D18*
X86897200Y-104500000D03*
D19*
X65786000Y-70612000D03*
X66806000Y-70612000D03*
D20*
X59100000Y-139675000D03*
X57550000Y-139675000D03*
D21*
X47692400Y-69044000D03*
D22*
X47692400Y-76244000D03*
D23*
X48352400Y-69894000D03*
X48352400Y-70394000D03*
X48352400Y-70894000D03*
X48352400Y-71394000D03*
X48352400Y-71894000D03*
X48352400Y-72394000D03*
X48352400Y-72894000D03*
X48352400Y-73394000D03*
X48352400Y-73894000D03*
X48352400Y-74394000D03*
X48352400Y-74894000D03*
X48352400Y-75394000D03*
X46652400Y-75144000D03*
X46652400Y-74644000D03*
X46652400Y-74144000D03*
X46652400Y-73644000D03*
X46652400Y-73144000D03*
X46652400Y-72644000D03*
X46652400Y-72144000D03*
X46652400Y-71644000D03*
X46652400Y-71144000D03*
X46652400Y-70644000D03*
X46652400Y-70144000D03*
X46652400Y-69644000D03*
D24*
X40492400Y-68154000D03*
X46442400Y-76774000D03*
X40492400Y-77134000D03*
X46442400Y-68514000D03*
D25*
X101125000Y-100299999D03*
D26*
X100975000Y-99750000D03*
D25*
X101125000Y-99200001D03*
D27*
X99525001Y-98999999D03*
X99525001Y-99500000D03*
X99525001Y-100000000D03*
X99525001Y-100500001D03*
D28*
X97000000Y-100525000D03*
X97000000Y-98975000D03*
D29*
X99000000Y-77425000D03*
X99000000Y-79075000D03*
D30*
X106300000Y-136675000D03*
X107950000Y-136675000D03*
D31*
X69090000Y-141367500D03*
X69090000Y-139792500D03*
D32*
X68630800Y-69189600D03*
X68630800Y-70739600D03*
D33*
X98947100Y-104500000D03*
X94552900Y-104500000D03*
D34*
X112437500Y-126025000D03*
X112437500Y-126675000D03*
X112437500Y-127325000D03*
X112437500Y-127975000D03*
D35*
X113325000Y-128862500D03*
X113975000Y-128862500D03*
X114625000Y-128862500D03*
X115275000Y-128862500D03*
D34*
X116162500Y-127975000D03*
X116162500Y-127325000D03*
X116162500Y-126675000D03*
X116162500Y-126025000D03*
D35*
X115275000Y-125137500D03*
X114625000Y-125137500D03*
X113975000Y-125137500D03*
X113325000Y-125137500D03*
D36*
X114300000Y-127000000D03*
D37*
X65925700Y-114935000D03*
X65925700Y-116205000D03*
X65925700Y-117475000D03*
X65925700Y-118745000D03*
X71234300Y-118745000D03*
X71234300Y-117475000D03*
X71234300Y-116205000D03*
X71234300Y-114935000D03*
D38*
X64262000Y-62534800D03*
X65812000Y-62534800D03*
D39*
X102500000Y-82075000D03*
X102500000Y-83975000D03*
D29*
X80550000Y-121900000D03*
X80550000Y-123550000D03*
D28*
X62230000Y-64529000D03*
X62230000Y-62979000D03*
D40*
X58267600Y-72747600D03*
X58267600Y-71727600D03*
D39*
X106475000Y-98725000D03*
X106475000Y-100625000D03*
D33*
X98447100Y-87750000D03*
X94052900Y-87750000D03*
D20*
X70325000Y-82475000D03*
X68775000Y-82475000D03*
D41*
X121442000Y-141730000D03*
D28*
X52857400Y-130315000D03*
X52857400Y-128765000D03*
D42*
X97750000Y-95575000D03*
X97750000Y-93925000D03*
D30*
X106300000Y-139800000D03*
X107950000Y-139800000D03*
X57595000Y-137160000D03*
X59245000Y-137160000D03*
D43*
X58267600Y-74599700D03*
X58267600Y-76174700D03*
D31*
X76710000Y-141387500D03*
X76710000Y-139812500D03*
D42*
X97250000Y-79075000D03*
X97250000Y-77425000D03*
X117881400Y-133717800D03*
X117881400Y-132067800D03*
D29*
X55880000Y-128715000D03*
X55880000Y-130365000D03*
D30*
X106300000Y-141350000D03*
X107950000Y-141350000D03*
X106300000Y-135100000D03*
X107950000Y-135100000D03*
D44*
X68632700Y-80111600D03*
X70457700Y-80111600D03*
D45*
X128362000Y-76825000D03*
D46*
X130902000Y-76825000D03*
X128362000Y-79365000D03*
X130902000Y-79365000D03*
X128362000Y-81905000D03*
X130902000Y-81905000D03*
X128362000Y-84445000D03*
X130902000Y-84445000D03*
X128362000Y-86985000D03*
X130902000Y-86985000D03*
X128362000Y-89525000D03*
X130902000Y-89525000D03*
X128362000Y-92065000D03*
X130902000Y-92065000D03*
X128362000Y-94605000D03*
X130902000Y-94605000D03*
X128362000Y-97145000D03*
X130902000Y-97145000D03*
X128362000Y-99685000D03*
X130902000Y-99685000D03*
X128362000Y-102225000D03*
X130902000Y-102225000D03*
X128362000Y-104765000D03*
X130902000Y-104765000D03*
X128362000Y-107305000D03*
X130902000Y-107305000D03*
X128362000Y-109845000D03*
X130902000Y-109845000D03*
X128362000Y-112385000D03*
X130902000Y-112385000D03*
X128362000Y-114925000D03*
X130902000Y-114925000D03*
X128362000Y-117465000D03*
X130902000Y-117465000D03*
X128362000Y-120005000D03*
X130902000Y-120005000D03*
X128362000Y-122545000D03*
X130902000Y-122545000D03*
X128362000Y-125085000D03*
X130902000Y-125085000D03*
D42*
X121031000Y-133692400D03*
X121031000Y-132042400D03*
D28*
X68326000Y-67323000D03*
X68326000Y-65773000D03*
D47*
X68427600Y-76593799D03*
X68427600Y-76993801D03*
X68427600Y-77393800D03*
X68427600Y-77793799D03*
X68427600Y-78193801D03*
X70815200Y-78193801D03*
X70815200Y-77793799D03*
X70815200Y-77393800D03*
X70815200Y-76993801D03*
X70815200Y-76593799D03*
D48*
X69621400Y-77393800D03*
D49*
X64008000Y-137922000D03*
D50*
X66548000Y-137922000D03*
X69088000Y-137922000D03*
X71628000Y-137922000D03*
X74168000Y-137922000D03*
X76708000Y-137922000D03*
X79248000Y-137922000D03*
X81788000Y-137922000D03*
X84328000Y-137922000D03*
X86868000Y-137922000D03*
X89408000Y-137922000D03*
X91948000Y-137922000D03*
X94488000Y-137922000D03*
X97028000Y-137922000D03*
X97028000Y-130302000D03*
X94488000Y-130302000D03*
X91948000Y-130302000D03*
X89408000Y-130302000D03*
X86868000Y-130302000D03*
X84328000Y-130302000D03*
X81788000Y-130302000D03*
X79248000Y-130302000D03*
X76708000Y-130302000D03*
X74168000Y-130302000D03*
X71628000Y-130302000D03*
X69088000Y-130302000D03*
X66548000Y-130302000D03*
X64008000Y-130302000D03*
D29*
X83820000Y-118555000D03*
X83820000Y-120205000D03*
D51*
X113200000Y-100747200D03*
D52*
X113200000Y-102652800D03*
D41*
X41742000Y-60030000D03*
D38*
X88900000Y-116840000D03*
X90450000Y-116840000D03*
D30*
X65113400Y-73253600D03*
X66763400Y-73253600D03*
D29*
X103475000Y-124850000D03*
X103475000Y-126500000D03*
D39*
X104675000Y-98725000D03*
X104675000Y-100625000D03*
D41*
X41742000Y-141730000D03*
D53*
X67890000Y-61770000D03*
X67890000Y-62730000D03*
D54*
X66143600Y-71882000D03*
X65123600Y-71882000D03*
D28*
X70104000Y-67323000D03*
X70104000Y-65773000D03*
D39*
X104275000Y-82075000D03*
X104275000Y-83975000D03*
D40*
X56337200Y-72747600D03*
X56337200Y-71727600D03*
D38*
X64262000Y-64058800D03*
X65812000Y-64058800D03*
D29*
X97525000Y-124775000D03*
X97525000Y-126425000D03*
D41*
X121442000Y-60030000D03*
D55*
X120865900Y-97129600D03*
D56*
X120865900Y-94792800D03*
X122974100Y-94792800D03*
D55*
X122974100Y-97129600D03*
D57*
X53340000Y-139050000D03*
X53340000Y-140350000D03*
D42*
X119456200Y-133717800D03*
X119456200Y-132067800D03*
D28*
X58420000Y-117615000D03*
X58420000Y-116065000D03*
D55*
X118325900Y-69189600D03*
D56*
X118325900Y-66852800D03*
X120434100Y-66852800D03*
D55*
X120434100Y-69189600D03*
D31*
X66550000Y-141367500D03*
X66550000Y-139792500D03*
D32*
X53340000Y-116065000D03*
X53340000Y-117615000D03*
D28*
X96250000Y-83815000D03*
X96250000Y-82265000D03*
D20*
X63906400Y-70916800D03*
X62356400Y-70916800D03*
X86505000Y-126600000D03*
X84955000Y-126600000D03*
D31*
X71630000Y-141397500D03*
X71630000Y-139822500D03*
D58*
X110925000Y-128005000D03*
X110925000Y-127045000D03*
D59*
X117188600Y-107173800D03*
X119500000Y-107173800D03*
X121811400Y-107173800D03*
D60*
X119500000Y-100976000D03*
D39*
X102900000Y-98725000D03*
X102900000Y-100625000D03*
X106075000Y-82100000D03*
X106075000Y-84000000D03*
D30*
X106300000Y-138225000D03*
X107950000Y-138225000D03*
D43*
X56337200Y-74574200D03*
X56337200Y-76149200D03*
D20*
X70421800Y-74879200D03*
X68871800Y-74879200D03*
D25*
X100815000Y-83589999D03*
D26*
X100665000Y-83040000D03*
D25*
X100815000Y-82490001D03*
D27*
X99215001Y-82289999D03*
X99215001Y-82790000D03*
X99215001Y-83290000D03*
X99215001Y-83790001D03*
D29*
X113200000Y-105250000D03*
X113200000Y-106900000D03*
D61*
X70045000Y-62738000D03*
X72195000Y-62738000D03*
D31*
X74160000Y-141407500D03*
X74160000Y-139832500D03*
D29*
X83820000Y-113475000D03*
X83820000Y-115125000D03*
D62*
X53340000Y-122857500D03*
X53340000Y-120982500D03*
D28*
X72136000Y-66561000D03*
X72136000Y-65011000D03*
D29*
X99500000Y-93925000D03*
X99500000Y-95575000D03*
D45*
X48088000Y-124236800D03*
D46*
X48088000Y-126776800D03*
X48088000Y-129316800D03*
X48088000Y-131856800D03*
X48088000Y-134396800D03*
M02*
