%FSLAX45Y45*%
G04 Gerber Fmt 4.5, Leading zero omitted, Abs format (unit mm)*
G04 Created by KiCad (PCBNEW (6.0.2)) date 2022-05-04 13:01:19*
%MOMM*%
%LPD*%
G01*
G04 APERTURE LIST*
%TA.AperFunction,Profile*%
%ADD10C,0.200000*%
%TD*%
%ADD11C,0.200000*%
%ADD12C,0.065000*%
%ADD13C,0.300000*%
G04 APERTURE END LIST*
D10*
X3759200Y-13660000D02*
X4359200Y-13660000D01*
X3759200Y-12207500D02*
X3759200Y-11117000D01*
X4064000Y-8695000D02*
X4064000Y-11117000D01*
X3759200Y-8695000D02*
X3759200Y-5588000D01*
X13359200Y-5588000D02*
X13359200Y-14588000D01*
X3759200Y-14588000D02*
X13359200Y-14588000D01*
X3759200Y-12207500D02*
X4359200Y-12207500D01*
X4359200Y-12207500D02*
X4359200Y-13660000D01*
X3759200Y-11117000D02*
X4064000Y-11117000D01*
X3759200Y-8695000D02*
X4064000Y-8695000D01*
X3759200Y-5588000D02*
X13359200Y-5588000D01*
X3759200Y-14588000D02*
X3759200Y-13660000D01*
D11*
D12*
X4736740Y-6871900D02*
X4801740Y-6936900D01*
X4801740Y-6871900D02*
X4736740Y-6936900D01*
X4736740Y-7591900D02*
X4801740Y-7656900D01*
X4801740Y-7591900D02*
X4736740Y-7656900D01*
D11*
X4746740Y-7609400D02*
X4746740Y-7639400D01*
X4791740Y-7609400D02*
X4791740Y-7639400D01*
X4746740Y-7639400D02*
G75*
G03*
X4791740Y-7639400I22500J0D01*
G01*
X4791740Y-7609400D02*
G75*
G03*
X4746740Y-7609400I-22500J0D01*
G01*
D13*
X4324200Y-6003000D02*
G75*
G03*
X4324200Y-6003000I-150000J0D01*
G01*
X4324200Y-14173000D02*
G75*
G03*
X4324200Y-14173000I-150000J0D01*
G01*
X12294200Y-6003000D02*
G75*
G03*
X12294200Y-6003000I-150000J0D01*
G01*
X12294200Y-14173000D02*
G75*
G03*
X12294200Y-14173000I-150000J0D01*
G01*
D11*
X4006819Y-14908476D02*
X4006819Y-14708476D01*
X4054438Y-14708476D01*
X4083009Y-14718000D01*
X4102057Y-14737048D01*
X4111581Y-14756095D01*
X4121105Y-14794190D01*
X4121105Y-14822762D01*
X4111581Y-14860857D01*
X4102057Y-14879905D01*
X4083009Y-14898952D01*
X4054438Y-14908476D01*
X4006819Y-14908476D01*
X4206819Y-14908476D02*
X4206819Y-14775143D01*
X4206819Y-14813238D02*
X4216343Y-14794190D01*
X4225867Y-14784667D01*
X4244914Y-14775143D01*
X4263962Y-14775143D01*
X4330629Y-14908476D02*
X4330629Y-14775143D01*
X4330629Y-14708476D02*
X4321105Y-14718000D01*
X4330629Y-14727524D01*
X4340152Y-14718000D01*
X4330629Y-14708476D01*
X4330629Y-14727524D01*
X4454438Y-14908476D02*
X4435390Y-14898952D01*
X4425867Y-14879905D01*
X4425867Y-14708476D01*
X4559200Y-14908476D02*
X4540152Y-14898952D01*
X4530629Y-14879905D01*
X4530629Y-14708476D01*
X4787771Y-14908476D02*
X4787771Y-14708476D01*
X4854438Y-14851333D01*
X4921105Y-14708476D01*
X4921105Y-14908476D01*
X5102057Y-14908476D02*
X5102057Y-14803714D01*
X5092533Y-14784667D01*
X5073486Y-14775143D01*
X5035390Y-14775143D01*
X5016343Y-14784667D01*
X5102057Y-14898952D02*
X5083010Y-14908476D01*
X5035390Y-14908476D01*
X5016343Y-14898952D01*
X5006819Y-14879905D01*
X5006819Y-14860857D01*
X5016343Y-14841809D01*
X5035390Y-14832286D01*
X5083010Y-14832286D01*
X5102057Y-14822762D01*
X5197295Y-14775143D02*
X5197295Y-14975143D01*
X5197295Y-14784667D02*
X5216343Y-14775143D01*
X5254438Y-14775143D01*
X5273486Y-14784667D01*
X5283010Y-14794190D01*
X5292533Y-14813238D01*
X5292533Y-14870381D01*
X5283010Y-14889428D01*
X5273486Y-14898952D01*
X5254438Y-14908476D01*
X5216343Y-14908476D01*
X5197295Y-14898952D01*
X5378248Y-14889428D02*
X5387771Y-14898952D01*
X5378248Y-14908476D01*
X5368724Y-14898952D01*
X5378248Y-14889428D01*
X5378248Y-14908476D01*
X5378248Y-14784667D02*
X5387771Y-14794190D01*
X5378248Y-14803714D01*
X5368724Y-14794190D01*
X5378248Y-14784667D01*
X5378248Y-14803714D01*
D12*
X3684200Y-15205500D02*
X3749200Y-15270500D01*
X3749200Y-15205500D02*
X3684200Y-15270500D01*
D11*
X4044914Y-15128476D02*
X4063962Y-15128476D01*
X4083009Y-15138000D01*
X4092533Y-15147524D01*
X4102057Y-15166571D01*
X4111581Y-15204667D01*
X4111581Y-15252286D01*
X4102057Y-15290381D01*
X4092533Y-15309428D01*
X4083009Y-15318952D01*
X4063962Y-15328476D01*
X4044914Y-15328476D01*
X4025867Y-15318952D01*
X4016343Y-15309428D01*
X4006819Y-15290381D01*
X3997295Y-15252286D01*
X3997295Y-15204667D01*
X4006819Y-15166571D01*
X4016343Y-15147524D01*
X4025867Y-15138000D01*
X4044914Y-15128476D01*
X4197295Y-15309428D02*
X4206819Y-15318952D01*
X4197295Y-15328476D01*
X4187771Y-15318952D01*
X4197295Y-15309428D01*
X4197295Y-15328476D01*
X4378248Y-15128476D02*
X4340152Y-15128476D01*
X4321105Y-15138000D01*
X4311581Y-15147524D01*
X4292533Y-15176095D01*
X4283010Y-15214190D01*
X4283010Y-15290381D01*
X4292533Y-15309428D01*
X4302057Y-15318952D01*
X4321105Y-15328476D01*
X4359200Y-15328476D01*
X4378248Y-15318952D01*
X4387771Y-15309428D01*
X4397295Y-15290381D01*
X4397295Y-15242762D01*
X4387771Y-15223714D01*
X4378248Y-15214190D01*
X4359200Y-15204667D01*
X4321105Y-15204667D01*
X4302057Y-15214190D01*
X4292533Y-15223714D01*
X4283010Y-15242762D01*
X4578248Y-15128476D02*
X4483010Y-15128476D01*
X4473486Y-15223714D01*
X4483010Y-15214190D01*
X4502057Y-15204667D01*
X4549676Y-15204667D01*
X4568724Y-15214190D01*
X4578248Y-15223714D01*
X4587771Y-15242762D01*
X4587771Y-15290381D01*
X4578248Y-15309428D01*
X4568724Y-15318952D01*
X4549676Y-15328476D01*
X4502057Y-15328476D01*
X4483010Y-15318952D01*
X4473486Y-15309428D01*
X4711581Y-15128476D02*
X4730629Y-15128476D01*
X4749676Y-15138000D01*
X4759200Y-15147524D01*
X4768724Y-15166571D01*
X4778248Y-15204667D01*
X4778248Y-15252286D01*
X4768724Y-15290381D01*
X4759200Y-15309428D01*
X4749676Y-15318952D01*
X4730629Y-15328476D01*
X4711581Y-15328476D01*
X4692533Y-15318952D01*
X4683010Y-15309428D01*
X4673486Y-15290381D01*
X4663962Y-15252286D01*
X4663962Y-15204667D01*
X4673486Y-15166571D01*
X4683010Y-15147524D01*
X4692533Y-15138000D01*
X4711581Y-15128476D01*
X4863962Y-15328476D02*
X4863962Y-15195143D01*
X4863962Y-15214190D02*
X4873486Y-15204667D01*
X4892533Y-15195143D01*
X4921105Y-15195143D01*
X4940152Y-15204667D01*
X4949676Y-15223714D01*
X4949676Y-15328476D01*
X4949676Y-15223714D02*
X4959200Y-15204667D01*
X4978248Y-15195143D01*
X5006819Y-15195143D01*
X5025867Y-15204667D01*
X5035390Y-15223714D01*
X5035390Y-15328476D01*
X5130629Y-15328476D02*
X5130629Y-15195143D01*
X5130629Y-15214190D02*
X5140152Y-15204667D01*
X5159200Y-15195143D01*
X5187771Y-15195143D01*
X5206819Y-15204667D01*
X5216343Y-15223714D01*
X5216343Y-15328476D01*
X5216343Y-15223714D02*
X5225867Y-15204667D01*
X5244914Y-15195143D01*
X5273486Y-15195143D01*
X5292533Y-15204667D01*
X5302057Y-15223714D01*
X5302057Y-15328476D01*
X5692533Y-15118952D02*
X5521105Y-15376095D01*
X5949676Y-15128476D02*
X5968724Y-15128476D01*
X5987771Y-15138000D01*
X5997295Y-15147524D01*
X6006819Y-15166571D01*
X6016343Y-15204667D01*
X6016343Y-15252286D01*
X6006819Y-15290381D01*
X5997295Y-15309428D01*
X5987771Y-15318952D01*
X5968724Y-15328476D01*
X5949676Y-15328476D01*
X5930628Y-15318952D01*
X5921105Y-15309428D01*
X5911581Y-15290381D01*
X5902057Y-15252286D01*
X5902057Y-15204667D01*
X5911581Y-15166571D01*
X5921105Y-15147524D01*
X5930628Y-15138000D01*
X5949676Y-15128476D01*
X6102057Y-15309428D02*
X6111581Y-15318952D01*
X6102057Y-15328476D01*
X6092533Y-15318952D01*
X6102057Y-15309428D01*
X6102057Y-15328476D01*
X6235390Y-15128476D02*
X6254438Y-15128476D01*
X6273486Y-15138000D01*
X6283009Y-15147524D01*
X6292533Y-15166571D01*
X6302057Y-15204667D01*
X6302057Y-15252286D01*
X6292533Y-15290381D01*
X6283009Y-15309428D01*
X6273486Y-15318952D01*
X6254438Y-15328476D01*
X6235390Y-15328476D01*
X6216343Y-15318952D01*
X6206819Y-15309428D01*
X6197295Y-15290381D01*
X6187771Y-15252286D01*
X6187771Y-15204667D01*
X6197295Y-15166571D01*
X6206819Y-15147524D01*
X6216343Y-15138000D01*
X6235390Y-15128476D01*
X6378248Y-15147524D02*
X6387771Y-15138000D01*
X6406819Y-15128476D01*
X6454438Y-15128476D01*
X6473486Y-15138000D01*
X6483009Y-15147524D01*
X6492533Y-15166571D01*
X6492533Y-15185619D01*
X6483009Y-15214190D01*
X6368724Y-15328476D01*
X6492533Y-15328476D01*
X6673486Y-15128476D02*
X6578248Y-15128476D01*
X6568724Y-15223714D01*
X6578248Y-15214190D01*
X6597295Y-15204667D01*
X6644914Y-15204667D01*
X6663962Y-15214190D01*
X6673486Y-15223714D01*
X6683009Y-15242762D01*
X6683009Y-15290381D01*
X6673486Y-15309428D01*
X6663962Y-15318952D01*
X6644914Y-15328476D01*
X6597295Y-15328476D01*
X6578248Y-15318952D01*
X6568724Y-15309428D01*
X6854438Y-15128476D02*
X6816343Y-15128476D01*
X6797295Y-15138000D01*
X6787771Y-15147524D01*
X6768724Y-15176095D01*
X6759200Y-15214190D01*
X6759200Y-15290381D01*
X6768724Y-15309428D01*
X6778248Y-15318952D01*
X6797295Y-15328476D01*
X6835390Y-15328476D01*
X6854438Y-15318952D01*
X6863962Y-15309428D01*
X6873486Y-15290381D01*
X6873486Y-15242762D01*
X6863962Y-15223714D01*
X6854438Y-15214190D01*
X6835390Y-15204667D01*
X6797295Y-15204667D01*
X6778248Y-15214190D01*
X6768724Y-15223714D01*
X6759200Y-15242762D01*
X6949676Y-15128476D02*
X6949676Y-15166571D01*
X7025867Y-15128476D02*
X7025867Y-15166571D01*
X7321105Y-15404667D02*
X7311581Y-15395143D01*
X7292533Y-15366571D01*
X7283009Y-15347524D01*
X7273486Y-15318952D01*
X7263962Y-15271333D01*
X7263962Y-15233238D01*
X7273486Y-15185619D01*
X7283009Y-15157048D01*
X7292533Y-15138000D01*
X7311581Y-15109428D01*
X7321105Y-15099905D01*
X7502057Y-15328476D02*
X7387771Y-15328476D01*
X7444914Y-15328476D02*
X7444914Y-15128476D01*
X7425867Y-15157048D01*
X7406819Y-15176095D01*
X7387771Y-15185619D01*
X7740152Y-15328476D02*
X7740152Y-15128476D01*
X7825867Y-15328476D02*
X7825867Y-15223714D01*
X7816343Y-15204667D01*
X7797295Y-15195143D01*
X7768724Y-15195143D01*
X7749676Y-15204667D01*
X7740152Y-15214190D01*
X7949676Y-15328476D02*
X7930628Y-15318952D01*
X7921105Y-15309428D01*
X7911581Y-15290381D01*
X7911581Y-15233238D01*
X7921105Y-15214190D01*
X7930628Y-15204667D01*
X7949676Y-15195143D01*
X7978248Y-15195143D01*
X7997295Y-15204667D01*
X8006819Y-15214190D01*
X8016343Y-15233238D01*
X8016343Y-15290381D01*
X8006819Y-15309428D01*
X7997295Y-15318952D01*
X7978248Y-15328476D01*
X7949676Y-15328476D01*
X8130628Y-15328476D02*
X8111581Y-15318952D01*
X8102057Y-15299905D01*
X8102057Y-15128476D01*
X8283009Y-15318952D02*
X8263962Y-15328476D01*
X8225867Y-15328476D01*
X8206819Y-15318952D01*
X8197295Y-15299905D01*
X8197295Y-15223714D01*
X8206819Y-15204667D01*
X8225867Y-15195143D01*
X8263962Y-15195143D01*
X8283009Y-15204667D01*
X8292533Y-15223714D01*
X8292533Y-15242762D01*
X8197295Y-15261809D01*
X8368724Y-15318952D02*
X8387771Y-15328476D01*
X8425867Y-15328476D01*
X8444914Y-15318952D01*
X8454438Y-15299905D01*
X8454438Y-15290381D01*
X8444914Y-15271333D01*
X8425867Y-15261809D01*
X8397295Y-15261809D01*
X8378248Y-15252286D01*
X8368724Y-15233238D01*
X8368724Y-15223714D01*
X8378248Y-15204667D01*
X8397295Y-15195143D01*
X8425867Y-15195143D01*
X8444914Y-15204667D01*
X8692533Y-15252286D02*
X8844914Y-15252286D01*
X8768724Y-15328476D02*
X8768724Y-15176095D01*
X9197295Y-15328476D02*
X9083010Y-15328476D01*
X9140152Y-15328476D02*
X9140152Y-15128476D01*
X9121105Y-15157048D01*
X9102057Y-15176095D01*
X9083010Y-15185619D01*
X9425867Y-15318952D02*
X9444914Y-15328476D01*
X9483010Y-15328476D01*
X9502057Y-15318952D01*
X9511581Y-15299905D01*
X9511581Y-15290381D01*
X9502057Y-15271333D01*
X9483010Y-15261809D01*
X9454438Y-15261809D01*
X9435390Y-15252286D01*
X9425867Y-15233238D01*
X9425867Y-15223714D01*
X9435390Y-15204667D01*
X9454438Y-15195143D01*
X9483010Y-15195143D01*
X9502057Y-15204667D01*
X9625867Y-15328476D02*
X9606819Y-15318952D01*
X9597295Y-15299905D01*
X9597295Y-15128476D01*
X9730629Y-15328476D02*
X9711581Y-15318952D01*
X9702057Y-15309428D01*
X9692533Y-15290381D01*
X9692533Y-15233238D01*
X9702057Y-15214190D01*
X9711581Y-15204667D01*
X9730629Y-15195143D01*
X9759200Y-15195143D01*
X9778248Y-15204667D01*
X9787771Y-15214190D01*
X9797295Y-15233238D01*
X9797295Y-15290381D01*
X9787771Y-15309428D01*
X9778248Y-15318952D01*
X9759200Y-15328476D01*
X9730629Y-15328476D01*
X9854438Y-15195143D02*
X9930629Y-15195143D01*
X9883010Y-15128476D02*
X9883010Y-15299905D01*
X9892533Y-15318952D01*
X9911581Y-15328476D01*
X9930629Y-15328476D01*
X9978248Y-15404667D02*
X9987771Y-15395143D01*
X10006819Y-15366571D01*
X10016343Y-15347524D01*
X10025867Y-15318952D01*
X10035390Y-15271333D01*
X10035390Y-15233238D01*
X10025867Y-15185619D01*
X10016343Y-15157048D01*
X10006819Y-15138000D01*
X9987771Y-15109428D01*
X9978248Y-15099905D01*
X10340152Y-15404667D02*
X10330629Y-15395143D01*
X10311581Y-15366571D01*
X10302057Y-15347524D01*
X10292533Y-15318952D01*
X10283010Y-15271333D01*
X10283010Y-15233238D01*
X10292533Y-15185619D01*
X10302057Y-15157048D01*
X10311581Y-15138000D01*
X10330629Y-15109428D01*
X10340152Y-15099905D01*
X10416343Y-15195143D02*
X10416343Y-15328476D01*
X10416343Y-15214190D02*
X10425867Y-15204667D01*
X10444914Y-15195143D01*
X10473486Y-15195143D01*
X10492533Y-15204667D01*
X10502057Y-15223714D01*
X10502057Y-15328476D01*
X10625867Y-15328476D02*
X10606819Y-15318952D01*
X10597295Y-15309428D01*
X10587771Y-15290381D01*
X10587771Y-15233238D01*
X10597295Y-15214190D01*
X10606819Y-15204667D01*
X10625867Y-15195143D01*
X10654438Y-15195143D01*
X10673486Y-15204667D01*
X10683010Y-15214190D01*
X10692533Y-15233238D01*
X10692533Y-15290381D01*
X10683010Y-15309428D01*
X10673486Y-15318952D01*
X10654438Y-15328476D01*
X10625867Y-15328476D01*
X10749676Y-15195143D02*
X10825867Y-15195143D01*
X10778248Y-15128476D02*
X10778248Y-15299905D01*
X10787771Y-15318952D01*
X10806819Y-15328476D01*
X10825867Y-15328476D01*
X11044914Y-15195143D02*
X11044914Y-15395143D01*
X11044914Y-15204667D02*
X11063962Y-15195143D01*
X11102057Y-15195143D01*
X11121105Y-15204667D01*
X11130629Y-15214190D01*
X11140152Y-15233238D01*
X11140152Y-15290381D01*
X11130629Y-15309428D01*
X11121105Y-15318952D01*
X11102057Y-15328476D01*
X11063962Y-15328476D01*
X11044914Y-15318952D01*
X11254438Y-15328476D02*
X11235390Y-15318952D01*
X11225867Y-15299905D01*
X11225867Y-15128476D01*
X11416343Y-15328476D02*
X11416343Y-15223714D01*
X11406819Y-15204667D01*
X11387771Y-15195143D01*
X11349676Y-15195143D01*
X11330628Y-15204667D01*
X11416343Y-15318952D02*
X11397295Y-15328476D01*
X11349676Y-15328476D01*
X11330628Y-15318952D01*
X11321105Y-15299905D01*
X11321105Y-15280857D01*
X11330628Y-15261809D01*
X11349676Y-15252286D01*
X11397295Y-15252286D01*
X11416343Y-15242762D01*
X11483009Y-15195143D02*
X11559200Y-15195143D01*
X11511581Y-15128476D02*
X11511581Y-15299905D01*
X11521105Y-15318952D01*
X11540152Y-15328476D01*
X11559200Y-15328476D01*
X11702057Y-15318952D02*
X11683009Y-15328476D01*
X11644914Y-15328476D01*
X11625867Y-15318952D01*
X11616343Y-15299905D01*
X11616343Y-15223714D01*
X11625867Y-15204667D01*
X11644914Y-15195143D01*
X11683009Y-15195143D01*
X11702057Y-15204667D01*
X11711581Y-15223714D01*
X11711581Y-15242762D01*
X11616343Y-15261809D01*
X11883009Y-15328476D02*
X11883009Y-15128476D01*
X11883009Y-15318952D02*
X11863962Y-15328476D01*
X11825867Y-15328476D01*
X11806819Y-15318952D01*
X11797295Y-15309428D01*
X11787771Y-15290381D01*
X11787771Y-15233238D01*
X11797295Y-15214190D01*
X11806819Y-15204667D01*
X11825867Y-15195143D01*
X11863962Y-15195143D01*
X11883009Y-15204667D01*
X11959200Y-15404667D02*
X11968724Y-15395143D01*
X11987771Y-15366571D01*
X11997295Y-15347524D01*
X12006819Y-15318952D01*
X12016343Y-15271333D01*
X12016343Y-15233238D01*
X12006819Y-15185619D01*
X11997295Y-15157048D01*
X11987771Y-15138000D01*
X11968724Y-15109428D01*
X11959200Y-15099905D01*
X3749200Y-15502000D02*
G75*
G03*
X3749200Y-15502000I-100000J0D01*
G01*
X3987771Y-15392476D02*
X4111581Y-15392476D01*
X4044914Y-15468667D01*
X4073486Y-15468667D01*
X4092533Y-15478190D01*
X4102057Y-15487714D01*
X4111581Y-15506762D01*
X4111581Y-15554381D01*
X4102057Y-15573428D01*
X4092533Y-15582952D01*
X4073486Y-15592476D01*
X4016343Y-15592476D01*
X3997295Y-15582952D01*
X3987771Y-15573428D01*
X4197295Y-15573428D02*
X4206819Y-15582952D01*
X4197295Y-15592476D01*
X4187771Y-15582952D01*
X4197295Y-15573428D01*
X4197295Y-15592476D01*
X4330629Y-15392476D02*
X4349676Y-15392476D01*
X4368724Y-15402000D01*
X4378248Y-15411524D01*
X4387771Y-15430571D01*
X4397295Y-15468667D01*
X4397295Y-15516286D01*
X4387771Y-15554381D01*
X4378248Y-15573428D01*
X4368724Y-15582952D01*
X4349676Y-15592476D01*
X4330629Y-15592476D01*
X4311581Y-15582952D01*
X4302057Y-15573428D01*
X4292533Y-15554381D01*
X4283010Y-15516286D01*
X4283010Y-15468667D01*
X4292533Y-15430571D01*
X4302057Y-15411524D01*
X4311581Y-15402000D01*
X4330629Y-15392476D01*
X4521105Y-15392476D02*
X4540152Y-15392476D01*
X4559200Y-15402000D01*
X4568724Y-15411524D01*
X4578248Y-15430571D01*
X4587771Y-15468667D01*
X4587771Y-15516286D01*
X4578248Y-15554381D01*
X4568724Y-15573428D01*
X4559200Y-15582952D01*
X4540152Y-15592476D01*
X4521105Y-15592476D01*
X4502057Y-15582952D01*
X4492533Y-15573428D01*
X4483010Y-15554381D01*
X4473486Y-15516286D01*
X4473486Y-15468667D01*
X4483010Y-15430571D01*
X4492533Y-15411524D01*
X4502057Y-15402000D01*
X4521105Y-15392476D01*
X4711581Y-15392476D02*
X4730629Y-15392476D01*
X4749676Y-15402000D01*
X4759200Y-15411524D01*
X4768724Y-15430571D01*
X4778248Y-15468667D01*
X4778248Y-15516286D01*
X4768724Y-15554381D01*
X4759200Y-15573428D01*
X4749676Y-15582952D01*
X4730629Y-15592476D01*
X4711581Y-15592476D01*
X4692533Y-15582952D01*
X4683010Y-15573428D01*
X4673486Y-15554381D01*
X4663962Y-15516286D01*
X4663962Y-15468667D01*
X4673486Y-15430571D01*
X4683010Y-15411524D01*
X4692533Y-15402000D01*
X4711581Y-15392476D01*
X4863962Y-15592476D02*
X4863962Y-15459143D01*
X4863962Y-15478190D02*
X4873486Y-15468667D01*
X4892533Y-15459143D01*
X4921105Y-15459143D01*
X4940152Y-15468667D01*
X4949676Y-15487714D01*
X4949676Y-15592476D01*
X4949676Y-15487714D02*
X4959200Y-15468667D01*
X4978248Y-15459143D01*
X5006819Y-15459143D01*
X5025867Y-15468667D01*
X5035390Y-15487714D01*
X5035390Y-15592476D01*
X5130629Y-15592476D02*
X5130629Y-15459143D01*
X5130629Y-15478190D02*
X5140152Y-15468667D01*
X5159200Y-15459143D01*
X5187771Y-15459143D01*
X5206819Y-15468667D01*
X5216343Y-15487714D01*
X5216343Y-15592476D01*
X5216343Y-15487714D02*
X5225867Y-15468667D01*
X5244914Y-15459143D01*
X5273486Y-15459143D01*
X5292533Y-15468667D01*
X5302057Y-15487714D01*
X5302057Y-15592476D01*
X5692533Y-15382952D02*
X5521105Y-15640095D01*
X5949676Y-15392476D02*
X5968724Y-15392476D01*
X5987771Y-15402000D01*
X5997295Y-15411524D01*
X6006819Y-15430571D01*
X6016343Y-15468667D01*
X6016343Y-15516286D01*
X6006819Y-15554381D01*
X5997295Y-15573428D01*
X5987771Y-15582952D01*
X5968724Y-15592476D01*
X5949676Y-15592476D01*
X5930628Y-15582952D01*
X5921105Y-15573428D01*
X5911581Y-15554381D01*
X5902057Y-15516286D01*
X5902057Y-15468667D01*
X5911581Y-15430571D01*
X5921105Y-15411524D01*
X5930628Y-15402000D01*
X5949676Y-15392476D01*
X6102057Y-15573428D02*
X6111581Y-15582952D01*
X6102057Y-15592476D01*
X6092533Y-15582952D01*
X6102057Y-15573428D01*
X6102057Y-15592476D01*
X6302057Y-15592476D02*
X6187771Y-15592476D01*
X6244914Y-15592476D02*
X6244914Y-15392476D01*
X6225867Y-15421048D01*
X6206819Y-15440095D01*
X6187771Y-15449619D01*
X6492533Y-15592476D02*
X6378248Y-15592476D01*
X6435390Y-15592476D02*
X6435390Y-15392476D01*
X6416343Y-15421048D01*
X6397295Y-15440095D01*
X6378248Y-15449619D01*
X6606819Y-15478190D02*
X6587771Y-15468667D01*
X6578248Y-15459143D01*
X6568724Y-15440095D01*
X6568724Y-15430571D01*
X6578248Y-15411524D01*
X6587771Y-15402000D01*
X6606819Y-15392476D01*
X6644914Y-15392476D01*
X6663962Y-15402000D01*
X6673486Y-15411524D01*
X6683009Y-15430571D01*
X6683009Y-15440095D01*
X6673486Y-15459143D01*
X6663962Y-15468667D01*
X6644914Y-15478190D01*
X6606819Y-15478190D01*
X6587771Y-15487714D01*
X6578248Y-15497238D01*
X6568724Y-15516286D01*
X6568724Y-15554381D01*
X6578248Y-15573428D01*
X6587771Y-15582952D01*
X6606819Y-15592476D01*
X6644914Y-15592476D01*
X6663962Y-15582952D01*
X6673486Y-15573428D01*
X6683009Y-15554381D01*
X6683009Y-15516286D01*
X6673486Y-15497238D01*
X6663962Y-15487714D01*
X6644914Y-15478190D01*
X6873486Y-15592476D02*
X6759200Y-15592476D01*
X6816343Y-15592476D02*
X6816343Y-15392476D01*
X6797295Y-15421048D01*
X6778248Y-15440095D01*
X6759200Y-15449619D01*
X6949676Y-15392476D02*
X6949676Y-15430571D01*
X7025867Y-15392476D02*
X7025867Y-15430571D01*
X7321105Y-15668667D02*
X7311581Y-15659143D01*
X7292533Y-15630571D01*
X7283009Y-15611524D01*
X7273486Y-15582952D01*
X7263962Y-15535333D01*
X7263962Y-15497238D01*
X7273486Y-15449619D01*
X7283009Y-15421048D01*
X7292533Y-15402000D01*
X7311581Y-15373428D01*
X7321105Y-15363905D01*
X7483009Y-15459143D02*
X7483009Y-15592476D01*
X7435390Y-15382952D02*
X7387771Y-15525809D01*
X7511581Y-15525809D01*
X7740152Y-15592476D02*
X7740152Y-15392476D01*
X7825867Y-15592476D02*
X7825867Y-15487714D01*
X7816343Y-15468667D01*
X7797295Y-15459143D01*
X7768724Y-15459143D01*
X7749676Y-15468667D01*
X7740152Y-15478190D01*
X7949676Y-15592476D02*
X7930628Y-15582952D01*
X7921105Y-15573428D01*
X7911581Y-15554381D01*
X7911581Y-15497238D01*
X7921105Y-15478190D01*
X7930628Y-15468667D01*
X7949676Y-15459143D01*
X7978248Y-15459143D01*
X7997295Y-15468667D01*
X8006819Y-15478190D01*
X8016343Y-15497238D01*
X8016343Y-15554381D01*
X8006819Y-15573428D01*
X7997295Y-15582952D01*
X7978248Y-15592476D01*
X7949676Y-15592476D01*
X8130628Y-15592476D02*
X8111581Y-15582952D01*
X8102057Y-15563905D01*
X8102057Y-15392476D01*
X8283009Y-15582952D02*
X8263962Y-15592476D01*
X8225867Y-15592476D01*
X8206819Y-15582952D01*
X8197295Y-15563905D01*
X8197295Y-15487714D01*
X8206819Y-15468667D01*
X8225867Y-15459143D01*
X8263962Y-15459143D01*
X8283009Y-15468667D01*
X8292533Y-15487714D01*
X8292533Y-15506762D01*
X8197295Y-15525809D01*
X8368724Y-15582952D02*
X8387771Y-15592476D01*
X8425867Y-15592476D01*
X8444914Y-15582952D01*
X8454438Y-15563905D01*
X8454438Y-15554381D01*
X8444914Y-15535333D01*
X8425867Y-15525809D01*
X8397295Y-15525809D01*
X8378248Y-15516286D01*
X8368724Y-15497238D01*
X8368724Y-15487714D01*
X8378248Y-15468667D01*
X8397295Y-15459143D01*
X8425867Y-15459143D01*
X8444914Y-15468667D01*
X8521105Y-15668667D02*
X8530629Y-15659143D01*
X8549676Y-15630571D01*
X8559200Y-15611524D01*
X8568724Y-15582952D01*
X8578248Y-15535333D01*
X8578248Y-15497238D01*
X8568724Y-15449619D01*
X8559200Y-15421048D01*
X8549676Y-15402000D01*
X8530629Y-15373428D01*
X8521105Y-15363905D01*
X8883010Y-15668667D02*
X8873486Y-15659143D01*
X8854438Y-15630571D01*
X8844914Y-15611524D01*
X8835390Y-15582952D01*
X8825867Y-15535333D01*
X8825867Y-15497238D01*
X8835390Y-15449619D01*
X8844914Y-15421048D01*
X8854438Y-15402000D01*
X8873486Y-15373428D01*
X8883010Y-15363905D01*
X8959200Y-15459143D02*
X8959200Y-15592476D01*
X8959200Y-15478190D02*
X8968724Y-15468667D01*
X8987771Y-15459143D01*
X9016343Y-15459143D01*
X9035390Y-15468667D01*
X9044914Y-15487714D01*
X9044914Y-15592476D01*
X9168724Y-15592476D02*
X9149676Y-15582952D01*
X9140152Y-15573428D01*
X9130629Y-15554381D01*
X9130629Y-15497238D01*
X9140152Y-15478190D01*
X9149676Y-15468667D01*
X9168724Y-15459143D01*
X9197295Y-15459143D01*
X9216343Y-15468667D01*
X9225867Y-15478190D01*
X9235390Y-15497238D01*
X9235390Y-15554381D01*
X9225867Y-15573428D01*
X9216343Y-15582952D01*
X9197295Y-15592476D01*
X9168724Y-15592476D01*
X9292533Y-15459143D02*
X9368724Y-15459143D01*
X9321105Y-15392476D02*
X9321105Y-15563905D01*
X9330629Y-15582952D01*
X9349676Y-15592476D01*
X9368724Y-15592476D01*
X9587771Y-15459143D02*
X9587771Y-15659143D01*
X9587771Y-15468667D02*
X9606819Y-15459143D01*
X9644914Y-15459143D01*
X9663962Y-15468667D01*
X9673486Y-15478190D01*
X9683010Y-15497238D01*
X9683010Y-15554381D01*
X9673486Y-15573428D01*
X9663962Y-15582952D01*
X9644914Y-15592476D01*
X9606819Y-15592476D01*
X9587771Y-15582952D01*
X9797295Y-15592476D02*
X9778248Y-15582952D01*
X9768724Y-15563905D01*
X9768724Y-15392476D01*
X9959200Y-15592476D02*
X9959200Y-15487714D01*
X9949676Y-15468667D01*
X9930629Y-15459143D01*
X9892533Y-15459143D01*
X9873486Y-15468667D01*
X9959200Y-15582952D02*
X9940152Y-15592476D01*
X9892533Y-15592476D01*
X9873486Y-15582952D01*
X9863962Y-15563905D01*
X9863962Y-15544857D01*
X9873486Y-15525809D01*
X9892533Y-15516286D01*
X9940152Y-15516286D01*
X9959200Y-15506762D01*
X10025867Y-15459143D02*
X10102057Y-15459143D01*
X10054438Y-15392476D02*
X10054438Y-15563905D01*
X10063962Y-15582952D01*
X10083010Y-15592476D01*
X10102057Y-15592476D01*
X10244914Y-15582952D02*
X10225867Y-15592476D01*
X10187771Y-15592476D01*
X10168724Y-15582952D01*
X10159200Y-15563905D01*
X10159200Y-15487714D01*
X10168724Y-15468667D01*
X10187771Y-15459143D01*
X10225867Y-15459143D01*
X10244914Y-15468667D01*
X10254438Y-15487714D01*
X10254438Y-15506762D01*
X10159200Y-15525809D01*
X10425867Y-15592476D02*
X10425867Y-15392476D01*
X10425867Y-15582952D02*
X10406819Y-15592476D01*
X10368724Y-15592476D01*
X10349676Y-15582952D01*
X10340152Y-15573428D01*
X10330629Y-15554381D01*
X10330629Y-15497238D01*
X10340152Y-15478190D01*
X10349676Y-15468667D01*
X10368724Y-15459143D01*
X10406819Y-15459143D01*
X10425867Y-15468667D01*
X10502057Y-15668667D02*
X10511581Y-15659143D01*
X10530629Y-15630571D01*
X10540152Y-15611524D01*
X10549676Y-15582952D01*
X10559200Y-15535333D01*
X10559200Y-15497238D01*
X10549676Y-15449619D01*
X10540152Y-15421048D01*
X10530629Y-15402000D01*
X10511581Y-15373428D01*
X10502057Y-15363905D01*
M02*
