G04 #@! TF.GenerationSoftware,KiCad,Pcbnew,(6.0.2)*
G04 #@! TF.CreationDate,2022-05-04T12:59:18-06:00*
G04 #@! TF.ProjectId,master_schematic,6d617374-6572-45f7-9363-68656d617469,rev?*
G04 #@! TF.SameCoordinates,Original*
G04 #@! TF.FileFunction,Paste,Top*
G04 #@! TF.FilePolarity,Positive*
%FSLAX46Y46*%
G04 Gerber Fmt 4.6, Leading zero omitted, Abs format (unit mm)*
G04 Created by KiCad (PCBNEW (6.0.2)) date 2022-05-04 12:59:18*
%MOMM*%
%LPD*%
G01*
G04 APERTURE LIST*
G04 Aperture macros list*
%AMRoundRect*
0 Rectangle with rounded corners*
0 $1 Rounding radius*
0 $2 $3 $4 $5 $6 $7 $8 $9 X,Y pos of 4 corners*
0 Add a 4 corners polygon primitive as box body*
4,1,4,$2,$3,$4,$5,$6,$7,$8,$9,$2,$3,0*
0 Add four circle primitives for the rounded corners*
1,1,$1+$1,$2,$3*
1,1,$1+$1,$4,$5*
1,1,$1+$1,$6,$7*
1,1,$1+$1,$8,$9*
0 Add four rect primitives between the rounded corners*
20,1,$1+$1,$2,$3,$4,$5,0*
20,1,$1+$1,$4,$5,$6,$7,0*
20,1,$1+$1,$6,$7,$8,$9,0*
20,1,$1+$1,$8,$9,$2,$3,0*%
G04 Aperture macros list end*
%ADD10C,0.100000*%
%ADD11C,0.010000*%
%ADD12R,1.755600X0.880000*%
%ADD13R,0.855600X0.600000*%
%ADD14RoundRect,0.135000X-0.135000X-0.185000X0.135000X-0.185000X0.135000X0.185000X-0.135000X0.185000X0*%
%ADD15RoundRect,0.225000X0.225000X0.250000X-0.225000X0.250000X-0.225000X-0.250000X0.225000X-0.250000X0*%
%ADD16R,0.700000X0.300000*%
%ADD17R,0.449999X0.249999*%
%ADD18RoundRect,0.225000X0.250000X-0.225000X0.250000X0.225000X-0.250000X0.225000X-0.250000X-0.225000X0*%
%ADD19RoundRect,0.200000X-0.275000X0.200000X-0.275000X-0.200000X0.275000X-0.200000X0.275000X0.200000X0*%
%ADD20RoundRect,0.200000X-0.200000X-0.275000X0.200000X-0.275000X0.200000X0.275000X-0.200000X0.275000X0*%
%ADD21RoundRect,0.218750X0.256250X-0.218750X0.256250X0.218750X-0.256250X0.218750X-0.256250X-0.218750X0*%
%ADD22RoundRect,0.225000X-0.250000X0.225000X-0.250000X-0.225000X0.250000X-0.225000X0.250000X0.225000X0*%
%ADD23R,1.498600X1.295400*%
%ADD24RoundRect,0.212500X-0.212500X-0.212500X0.212500X-0.212500X0.212500X0.212500X-0.212500X0.212500X0*%
%ADD25RoundRect,0.087500X-0.425000X-0.087500X0.425000X-0.087500X0.425000X0.087500X-0.425000X0.087500X0*%
%ADD26RoundRect,0.087500X-0.087500X-0.425000X0.087500X-0.425000X0.087500X0.425000X-0.087500X0.425000X0*%
%ADD27R,1.397000X0.558800*%
%ADD28RoundRect,0.225000X-0.225000X-0.250000X0.225000X-0.250000X0.225000X0.250000X-0.225000X0.250000X0*%
%ADD29RoundRect,0.250000X-0.475000X0.250000X-0.475000X-0.250000X0.475000X-0.250000X0.475000X0.250000X0*%
%ADD30RoundRect,0.135000X0.185000X-0.135000X0.185000X0.135000X-0.185000X0.135000X-0.185000X-0.135000X0*%
%ADD31RoundRect,0.200000X0.275000X-0.200000X0.275000X0.200000X-0.275000X0.200000X-0.275000X-0.200000X0*%
%ADD32RoundRect,0.218750X-0.256250X0.218750X-0.256250X-0.218750X0.256250X-0.218750X0.256250X0.218750X0*%
%ADD33RoundRect,0.250000X-0.262500X-0.450000X0.262500X-0.450000X0.262500X0.450000X-0.262500X0.450000X0*%
%ADD34R,0.711200X0.203200*%
%ADD35R,1.295400X1.397000*%
%ADD36R,0.880000X1.755600*%
%ADD37R,0.600000X0.855600*%
%ADD38RoundRect,0.140000X-0.170000X0.140000X-0.170000X-0.140000X0.170000X-0.140000X0.170000X0.140000X0*%
%ADD39RoundRect,0.135000X0.135000X0.185000X-0.135000X0.185000X-0.135000X-0.185000X0.135000X-0.185000X0*%
%ADD40R,1.498600X2.946400*%
%ADD41R,1.498600X0.711200*%
%ADD42RoundRect,0.140000X0.170000X-0.140000X0.170000X0.140000X-0.170000X0.140000X-0.170000X-0.140000X0*%
%ADD43R,1.219200X2.235200*%
%ADD44R,3.600000X2.200000*%
%ADD45RoundRect,0.250000X-0.375000X-0.850000X0.375000X-0.850000X0.375000X0.850000X-0.375000X0.850000X0*%
%ADD46RoundRect,0.243750X0.456250X-0.243750X0.456250X0.243750X-0.456250X0.243750X-0.456250X-0.243750X0*%
G04 APERTURE END LIST*
D10*
X101075000Y-99800000D02*
X101075000Y-99700000D01*
X101075000Y-99700000D02*
X101075963Y-99690246D01*
X101075963Y-99690246D02*
X101078808Y-99680866D01*
X101078808Y-99680866D02*
X101083428Y-99672223D01*
X101083428Y-99672223D02*
X101089646Y-99664646D01*
X101089646Y-99664646D02*
X101097223Y-99658428D01*
X101097223Y-99658428D02*
X101105866Y-99653805D01*
X101105866Y-99653805D02*
X101115246Y-99650960D01*
X101115246Y-99650960D02*
X101125000Y-99650000D01*
X101125000Y-99650000D02*
X101650000Y-99650000D01*
X101650000Y-99650000D02*
X101659756Y-99650960D01*
X101659756Y-99650960D02*
X101669137Y-99653805D01*
X101669137Y-99653805D02*
X101677780Y-99658428D01*
X101677780Y-99658428D02*
X101685357Y-99664646D01*
X101685357Y-99664646D02*
X101691575Y-99672223D01*
X101691575Y-99672223D02*
X101696195Y-99680866D01*
X101696195Y-99680866D02*
X101699040Y-99690246D01*
X101699040Y-99690246D02*
X101700000Y-99700000D01*
X101700000Y-99700000D02*
X101700000Y-99800000D01*
X101700000Y-99800000D02*
X101699040Y-99809754D01*
X101699040Y-99809754D02*
X101696195Y-99819134D01*
X101696195Y-99819134D02*
X101691575Y-99827777D01*
X101691575Y-99827777D02*
X101685357Y-99835354D01*
X101685357Y-99835354D02*
X101677780Y-99841572D01*
X101677780Y-99841572D02*
X101669137Y-99846195D01*
X101669137Y-99846195D02*
X101659756Y-99849040D01*
X101659756Y-99849040D02*
X101650000Y-99850000D01*
X101650000Y-99850000D02*
X101125000Y-99850000D01*
X101125000Y-99850000D02*
X101115246Y-99849040D01*
X101115246Y-99849040D02*
X101105866Y-99846195D01*
X101105866Y-99846195D02*
X101097223Y-99841572D01*
X101097223Y-99841572D02*
X101089646Y-99835354D01*
X101089646Y-99835354D02*
X101083428Y-99827777D01*
X101083428Y-99827777D02*
X101078808Y-99819134D01*
X101078808Y-99819134D02*
X101075963Y-99809754D01*
X101075963Y-99809754D02*
X101075000Y-99800000D01*
G36*
X101659756Y-99650960D02*
G01*
X101669137Y-99653805D01*
X101677780Y-99658428D01*
X101685357Y-99664646D01*
X101691575Y-99672223D01*
X101696195Y-99680866D01*
X101699040Y-99690246D01*
X101700000Y-99700000D01*
X101700000Y-99800000D01*
X101699040Y-99809754D01*
X101696195Y-99819134D01*
X101691575Y-99827777D01*
X101685357Y-99835354D01*
X101677780Y-99841572D01*
X101669137Y-99846195D01*
X101659756Y-99849040D01*
X101650000Y-99850000D01*
X101125000Y-99850000D01*
X101115246Y-99849040D01*
X101105866Y-99846195D01*
X101097223Y-99841572D01*
X101089646Y-99835354D01*
X101083428Y-99827777D01*
X101078808Y-99819134D01*
X101075963Y-99809754D01*
X101075000Y-99800000D01*
X101075000Y-99700000D01*
X101075963Y-99690246D01*
X101078808Y-99680866D01*
X101083428Y-99672223D01*
X101089646Y-99664646D01*
X101097223Y-99658428D01*
X101105866Y-99653805D01*
X101115246Y-99650960D01*
X101125000Y-99650000D01*
X101650000Y-99650000D01*
X101659756Y-99650960D01*
G37*
X101659756Y-99650960D02*
X101669137Y-99653805D01*
X101677780Y-99658428D01*
X101685357Y-99664646D01*
X101691575Y-99672223D01*
X101696195Y-99680866D01*
X101699040Y-99690246D01*
X101700000Y-99700000D01*
X101700000Y-99800000D01*
X101699040Y-99809754D01*
X101696195Y-99819134D01*
X101691575Y-99827777D01*
X101685357Y-99835354D01*
X101677780Y-99841572D01*
X101669137Y-99846195D01*
X101659756Y-99849040D01*
X101650000Y-99850000D01*
X101125000Y-99850000D01*
X101115246Y-99849040D01*
X101105866Y-99846195D01*
X101097223Y-99841572D01*
X101089646Y-99835354D01*
X101083428Y-99827777D01*
X101078808Y-99819134D01*
X101075963Y-99809754D01*
X101075000Y-99800000D01*
X101075000Y-99700000D01*
X101075963Y-99690246D01*
X101078808Y-99680866D01*
X101083428Y-99672223D01*
X101089646Y-99664646D01*
X101097223Y-99658428D01*
X101105866Y-99653805D01*
X101115246Y-99650960D01*
X101125000Y-99650000D01*
X101650000Y-99650000D01*
X101659756Y-99650960D01*
X101700000Y-100175750D02*
X101700000Y-100424248D01*
X101700000Y-100424248D02*
X101699025Y-100434149D01*
X101699025Y-100434149D02*
X101696137Y-100443669D01*
X101696137Y-100443669D02*
X101691448Y-100452445D01*
X101691448Y-100452445D02*
X101685136Y-100460133D01*
X101685136Y-100460133D02*
X101677445Y-100466445D01*
X101677445Y-100466445D02*
X101668672Y-100471136D01*
X101668672Y-100471136D02*
X101659152Y-100474024D01*
X101659152Y-100474024D02*
X101649251Y-100474997D01*
X101649251Y-100474997D02*
X101275749Y-100474997D01*
X101275749Y-100474997D02*
X101265848Y-100474024D01*
X101265848Y-100474024D02*
X101256328Y-100471136D01*
X101256328Y-100471136D02*
X101247555Y-100466445D01*
X101247555Y-100466445D02*
X101239864Y-100460133D01*
X101239864Y-100460133D02*
X101233552Y-100452445D01*
X101233552Y-100452445D02*
X101228863Y-100443669D01*
X101228863Y-100443669D02*
X101225975Y-100434149D01*
X101225975Y-100434149D02*
X101225000Y-100424248D01*
X101225000Y-100424248D02*
X101225000Y-100175750D01*
X101225000Y-100175750D02*
X101225975Y-100165849D01*
X101225975Y-100165849D02*
X101228863Y-100156329D01*
X101228863Y-100156329D02*
X101233552Y-100147553D01*
X101233552Y-100147553D02*
X101239864Y-100139865D01*
X101239864Y-100139865D02*
X101247555Y-100133553D01*
X101247555Y-100133553D02*
X101256328Y-100128861D01*
X101256328Y-100128861D02*
X101265848Y-100125973D01*
X101265848Y-100125973D02*
X101275749Y-100124998D01*
X101275749Y-100124998D02*
X101649251Y-100124998D01*
X101649251Y-100124998D02*
X101659152Y-100125973D01*
X101659152Y-100125973D02*
X101668672Y-100128861D01*
X101668672Y-100128861D02*
X101677445Y-100133553D01*
X101677445Y-100133553D02*
X101685136Y-100139865D01*
X101685136Y-100139865D02*
X101691448Y-100147553D01*
X101691448Y-100147553D02*
X101696137Y-100156329D01*
X101696137Y-100156329D02*
X101699025Y-100165849D01*
X101699025Y-100165849D02*
X101700000Y-100175750D01*
G36*
X101659152Y-100125973D02*
G01*
X101668672Y-100128861D01*
X101677445Y-100133553D01*
X101685136Y-100139865D01*
X101691448Y-100147553D01*
X101696137Y-100156329D01*
X101699025Y-100165849D01*
X101700000Y-100175750D01*
X101700000Y-100424248D01*
X101699025Y-100434149D01*
X101696137Y-100443669D01*
X101691448Y-100452445D01*
X101685136Y-100460133D01*
X101677445Y-100466445D01*
X101668672Y-100471136D01*
X101659152Y-100474024D01*
X101649251Y-100474997D01*
X101275749Y-100474997D01*
X101265848Y-100474024D01*
X101256328Y-100471136D01*
X101247555Y-100466445D01*
X101239864Y-100460133D01*
X101233552Y-100452445D01*
X101228863Y-100443669D01*
X101225975Y-100434149D01*
X101225000Y-100424248D01*
X101225000Y-100175750D01*
X101225975Y-100165849D01*
X101228863Y-100156329D01*
X101233552Y-100147553D01*
X101239864Y-100139865D01*
X101247555Y-100133553D01*
X101256328Y-100128861D01*
X101265848Y-100125973D01*
X101275749Y-100124998D01*
X101649251Y-100124998D01*
X101659152Y-100125973D01*
G37*
X101659152Y-100125973D02*
X101668672Y-100128861D01*
X101677445Y-100133553D01*
X101685136Y-100139865D01*
X101691448Y-100147553D01*
X101696137Y-100156329D01*
X101699025Y-100165849D01*
X101700000Y-100175750D01*
X101700000Y-100424248D01*
X101699025Y-100434149D01*
X101696137Y-100443669D01*
X101691448Y-100452445D01*
X101685136Y-100460133D01*
X101677445Y-100466445D01*
X101668672Y-100471136D01*
X101659152Y-100474024D01*
X101649251Y-100474997D01*
X101275749Y-100474997D01*
X101265848Y-100474024D01*
X101256328Y-100471136D01*
X101247555Y-100466445D01*
X101239864Y-100460133D01*
X101233552Y-100452445D01*
X101228863Y-100443669D01*
X101225975Y-100434149D01*
X101225000Y-100424248D01*
X101225000Y-100175750D01*
X101225975Y-100165849D01*
X101228863Y-100156329D01*
X101233552Y-100147553D01*
X101239864Y-100139865D01*
X101247555Y-100133553D01*
X101256328Y-100128861D01*
X101265848Y-100125973D01*
X101275749Y-100124998D01*
X101649251Y-100124998D01*
X101659152Y-100125973D01*
X101025000Y-100175750D02*
X101025000Y-100424248D01*
X101025000Y-100424248D02*
X101024025Y-100434149D01*
X101024025Y-100434149D02*
X101021137Y-100443669D01*
X101021137Y-100443669D02*
X101016448Y-100452445D01*
X101016448Y-100452445D02*
X101010136Y-100460133D01*
X101010136Y-100460133D02*
X101002445Y-100466445D01*
X101002445Y-100466445D02*
X100993672Y-100471136D01*
X100993672Y-100471136D02*
X100984152Y-100474024D01*
X100984152Y-100474024D02*
X100974251Y-100474997D01*
X100974251Y-100474997D02*
X100600749Y-100474997D01*
X100600749Y-100474997D02*
X100590848Y-100474024D01*
X100590848Y-100474024D02*
X100581328Y-100471136D01*
X100581328Y-100471136D02*
X100572555Y-100466445D01*
X100572555Y-100466445D02*
X100564864Y-100460133D01*
X100564864Y-100460133D02*
X100558552Y-100452445D01*
X100558552Y-100452445D02*
X100553863Y-100443669D01*
X100553863Y-100443669D02*
X100550975Y-100434149D01*
X100550975Y-100434149D02*
X100550000Y-100424248D01*
X100550000Y-100424248D02*
X100550000Y-100175750D01*
X100550000Y-100175750D02*
X100550975Y-100165849D01*
X100550975Y-100165849D02*
X100553863Y-100156329D01*
X100553863Y-100156329D02*
X100558552Y-100147553D01*
X100558552Y-100147553D02*
X100564864Y-100139865D01*
X100564864Y-100139865D02*
X100572555Y-100133553D01*
X100572555Y-100133553D02*
X100581328Y-100128861D01*
X100581328Y-100128861D02*
X100590848Y-100125973D01*
X100590848Y-100125973D02*
X100600749Y-100124998D01*
X100600749Y-100124998D02*
X100974251Y-100124998D01*
X100974251Y-100124998D02*
X100984152Y-100125973D01*
X100984152Y-100125973D02*
X100993672Y-100128861D01*
X100993672Y-100128861D02*
X101002445Y-100133553D01*
X101002445Y-100133553D02*
X101010136Y-100139865D01*
X101010136Y-100139865D02*
X101016448Y-100147553D01*
X101016448Y-100147553D02*
X101021137Y-100156329D01*
X101021137Y-100156329D02*
X101024025Y-100165849D01*
X101024025Y-100165849D02*
X101025000Y-100175750D01*
G36*
X100984152Y-100125973D02*
G01*
X100993672Y-100128861D01*
X101002445Y-100133553D01*
X101010136Y-100139865D01*
X101016448Y-100147553D01*
X101021137Y-100156329D01*
X101024025Y-100165849D01*
X101025000Y-100175750D01*
X101025000Y-100424248D01*
X101024025Y-100434149D01*
X101021137Y-100443669D01*
X101016448Y-100452445D01*
X101010136Y-100460133D01*
X101002445Y-100466445D01*
X100993672Y-100471136D01*
X100984152Y-100474024D01*
X100974251Y-100474997D01*
X100600749Y-100474997D01*
X100590848Y-100474024D01*
X100581328Y-100471136D01*
X100572555Y-100466445D01*
X100564864Y-100460133D01*
X100558552Y-100452445D01*
X100553863Y-100443669D01*
X100550975Y-100434149D01*
X100550000Y-100424248D01*
X100550000Y-100175750D01*
X100550975Y-100165849D01*
X100553863Y-100156329D01*
X100558552Y-100147553D01*
X100564864Y-100139865D01*
X100572555Y-100133553D01*
X100581328Y-100128861D01*
X100590848Y-100125973D01*
X100600749Y-100124998D01*
X100974251Y-100124998D01*
X100984152Y-100125973D01*
G37*
X100984152Y-100125973D02*
X100993672Y-100128861D01*
X101002445Y-100133553D01*
X101010136Y-100139865D01*
X101016448Y-100147553D01*
X101021137Y-100156329D01*
X101024025Y-100165849D01*
X101025000Y-100175750D01*
X101025000Y-100424248D01*
X101024025Y-100434149D01*
X101021137Y-100443669D01*
X101016448Y-100452445D01*
X101010136Y-100460133D01*
X101002445Y-100466445D01*
X100993672Y-100471136D01*
X100984152Y-100474024D01*
X100974251Y-100474997D01*
X100600749Y-100474997D01*
X100590848Y-100474024D01*
X100581328Y-100471136D01*
X100572555Y-100466445D01*
X100564864Y-100460133D01*
X100558552Y-100452445D01*
X100553863Y-100443669D01*
X100550975Y-100434149D01*
X100550000Y-100424248D01*
X100550000Y-100175750D01*
X100550975Y-100165849D01*
X100553863Y-100156329D01*
X100558552Y-100147553D01*
X100564864Y-100139865D01*
X100572555Y-100133553D01*
X100581328Y-100128861D01*
X100590848Y-100125973D01*
X100600749Y-100124998D01*
X100974251Y-100124998D01*
X100984152Y-100125973D01*
X101025000Y-99075752D02*
X101025000Y-99324250D01*
X101025000Y-99324250D02*
X101024025Y-99334151D01*
X101024025Y-99334151D02*
X101021137Y-99343671D01*
X101021137Y-99343671D02*
X101016448Y-99352447D01*
X101016448Y-99352447D02*
X101010136Y-99360135D01*
X101010136Y-99360135D02*
X101002445Y-99366447D01*
X101002445Y-99366447D02*
X100993672Y-99371139D01*
X100993672Y-99371139D02*
X100984152Y-99374027D01*
X100984152Y-99374027D02*
X100974251Y-99375002D01*
X100974251Y-99375002D02*
X100600749Y-99375002D01*
X100600749Y-99375002D02*
X100590848Y-99374027D01*
X100590848Y-99374027D02*
X100581328Y-99371139D01*
X100581328Y-99371139D02*
X100572555Y-99366447D01*
X100572555Y-99366447D02*
X100564864Y-99360135D01*
X100564864Y-99360135D02*
X100558552Y-99352447D01*
X100558552Y-99352447D02*
X100553863Y-99343671D01*
X100553863Y-99343671D02*
X100550975Y-99334151D01*
X100550975Y-99334151D02*
X100550000Y-99324250D01*
X100550000Y-99324250D02*
X100550000Y-99075752D01*
X100550000Y-99075752D02*
X100550975Y-99065851D01*
X100550975Y-99065851D02*
X100553863Y-99056331D01*
X100553863Y-99056331D02*
X100558552Y-99047555D01*
X100558552Y-99047555D02*
X100564864Y-99039867D01*
X100564864Y-99039867D02*
X100572555Y-99033555D01*
X100572555Y-99033555D02*
X100581328Y-99028864D01*
X100581328Y-99028864D02*
X100590848Y-99025976D01*
X100590848Y-99025976D02*
X100600749Y-99025003D01*
X100600749Y-99025003D02*
X100974251Y-99025003D01*
X100974251Y-99025003D02*
X100984152Y-99025976D01*
X100984152Y-99025976D02*
X100993672Y-99028864D01*
X100993672Y-99028864D02*
X101002445Y-99033555D01*
X101002445Y-99033555D02*
X101010136Y-99039867D01*
X101010136Y-99039867D02*
X101016448Y-99047555D01*
X101016448Y-99047555D02*
X101021137Y-99056331D01*
X101021137Y-99056331D02*
X101024025Y-99065851D01*
X101024025Y-99065851D02*
X101025000Y-99075752D01*
G36*
X100984152Y-99025976D02*
G01*
X100993672Y-99028864D01*
X101002445Y-99033555D01*
X101010136Y-99039867D01*
X101016448Y-99047555D01*
X101021137Y-99056331D01*
X101024025Y-99065851D01*
X101025000Y-99075752D01*
X101025000Y-99324250D01*
X101024025Y-99334151D01*
X101021137Y-99343671D01*
X101016448Y-99352447D01*
X101010136Y-99360135D01*
X101002445Y-99366447D01*
X100993672Y-99371139D01*
X100984152Y-99374027D01*
X100974251Y-99375002D01*
X100600749Y-99375002D01*
X100590848Y-99374027D01*
X100581328Y-99371139D01*
X100572555Y-99366447D01*
X100564864Y-99360135D01*
X100558552Y-99352447D01*
X100553863Y-99343671D01*
X100550975Y-99334151D01*
X100550000Y-99324250D01*
X100550000Y-99075752D01*
X100550975Y-99065851D01*
X100553863Y-99056331D01*
X100558552Y-99047555D01*
X100564864Y-99039867D01*
X100572555Y-99033555D01*
X100581328Y-99028864D01*
X100590848Y-99025976D01*
X100600749Y-99025003D01*
X100974251Y-99025003D01*
X100984152Y-99025976D01*
G37*
X100984152Y-99025976D02*
X100993672Y-99028864D01*
X101002445Y-99033555D01*
X101010136Y-99039867D01*
X101016448Y-99047555D01*
X101021137Y-99056331D01*
X101024025Y-99065851D01*
X101025000Y-99075752D01*
X101025000Y-99324250D01*
X101024025Y-99334151D01*
X101021137Y-99343671D01*
X101016448Y-99352447D01*
X101010136Y-99360135D01*
X101002445Y-99366447D01*
X100993672Y-99371139D01*
X100984152Y-99374027D01*
X100974251Y-99375002D01*
X100600749Y-99375002D01*
X100590848Y-99374027D01*
X100581328Y-99371139D01*
X100572555Y-99366447D01*
X100564864Y-99360135D01*
X100558552Y-99352447D01*
X100553863Y-99343671D01*
X100550975Y-99334151D01*
X100550000Y-99324250D01*
X100550000Y-99075752D01*
X100550975Y-99065851D01*
X100553863Y-99056331D01*
X100558552Y-99047555D01*
X100564864Y-99039867D01*
X100572555Y-99033555D01*
X100581328Y-99028864D01*
X100590848Y-99025976D01*
X100600749Y-99025003D01*
X100974251Y-99025003D01*
X100984152Y-99025976D01*
X101700000Y-99075752D02*
X101700000Y-99324250D01*
X101700000Y-99324250D02*
X101699025Y-99334151D01*
X101699025Y-99334151D02*
X101696137Y-99343671D01*
X101696137Y-99343671D02*
X101691448Y-99352447D01*
X101691448Y-99352447D02*
X101685136Y-99360135D01*
X101685136Y-99360135D02*
X101677445Y-99366447D01*
X101677445Y-99366447D02*
X101668672Y-99371139D01*
X101668672Y-99371139D02*
X101659152Y-99374027D01*
X101659152Y-99374027D02*
X101649251Y-99375002D01*
X101649251Y-99375002D02*
X101275749Y-99375002D01*
X101275749Y-99375002D02*
X101265848Y-99374027D01*
X101265848Y-99374027D02*
X101256328Y-99371139D01*
X101256328Y-99371139D02*
X101247555Y-99366447D01*
X101247555Y-99366447D02*
X101239864Y-99360135D01*
X101239864Y-99360135D02*
X101233552Y-99352447D01*
X101233552Y-99352447D02*
X101228863Y-99343671D01*
X101228863Y-99343671D02*
X101225975Y-99334151D01*
X101225975Y-99334151D02*
X101225000Y-99324250D01*
X101225000Y-99324250D02*
X101225000Y-99075752D01*
X101225000Y-99075752D02*
X101225975Y-99065851D01*
X101225975Y-99065851D02*
X101228863Y-99056331D01*
X101228863Y-99056331D02*
X101233552Y-99047555D01*
X101233552Y-99047555D02*
X101239864Y-99039867D01*
X101239864Y-99039867D02*
X101247555Y-99033555D01*
X101247555Y-99033555D02*
X101256328Y-99028864D01*
X101256328Y-99028864D02*
X101265848Y-99025976D01*
X101265848Y-99025976D02*
X101275749Y-99025003D01*
X101275749Y-99025003D02*
X101649251Y-99025003D01*
X101649251Y-99025003D02*
X101659152Y-99025976D01*
X101659152Y-99025976D02*
X101668672Y-99028864D01*
X101668672Y-99028864D02*
X101677445Y-99033555D01*
X101677445Y-99033555D02*
X101685136Y-99039867D01*
X101685136Y-99039867D02*
X101691448Y-99047555D01*
X101691448Y-99047555D02*
X101696137Y-99056331D01*
X101696137Y-99056331D02*
X101699025Y-99065851D01*
X101699025Y-99065851D02*
X101700000Y-99075752D01*
G36*
X101659152Y-99025976D02*
G01*
X101668672Y-99028864D01*
X101677445Y-99033555D01*
X101685136Y-99039867D01*
X101691448Y-99047555D01*
X101696137Y-99056331D01*
X101699025Y-99065851D01*
X101700000Y-99075752D01*
X101700000Y-99324250D01*
X101699025Y-99334151D01*
X101696137Y-99343671D01*
X101691448Y-99352447D01*
X101685136Y-99360135D01*
X101677445Y-99366447D01*
X101668672Y-99371139D01*
X101659152Y-99374027D01*
X101649251Y-99375002D01*
X101275749Y-99375002D01*
X101265848Y-99374027D01*
X101256328Y-99371139D01*
X101247555Y-99366447D01*
X101239864Y-99360135D01*
X101233552Y-99352447D01*
X101228863Y-99343671D01*
X101225975Y-99334151D01*
X101225000Y-99324250D01*
X101225000Y-99075752D01*
X101225975Y-99065851D01*
X101228863Y-99056331D01*
X101233552Y-99047555D01*
X101239864Y-99039867D01*
X101247555Y-99033555D01*
X101256328Y-99028864D01*
X101265848Y-99025976D01*
X101275749Y-99025003D01*
X101649251Y-99025003D01*
X101659152Y-99025976D01*
G37*
X101659152Y-99025976D02*
X101668672Y-99028864D01*
X101677445Y-99033555D01*
X101685136Y-99039867D01*
X101691448Y-99047555D01*
X101696137Y-99056331D01*
X101699025Y-99065851D01*
X101700000Y-99075752D01*
X101700000Y-99324250D01*
X101699025Y-99334151D01*
X101696137Y-99343671D01*
X101691448Y-99352447D01*
X101685136Y-99360135D01*
X101677445Y-99366447D01*
X101668672Y-99371139D01*
X101659152Y-99374027D01*
X101649251Y-99375002D01*
X101275749Y-99375002D01*
X101265848Y-99374027D01*
X101256328Y-99371139D01*
X101247555Y-99366447D01*
X101239864Y-99360135D01*
X101233552Y-99352447D01*
X101228863Y-99343671D01*
X101225975Y-99334151D01*
X101225000Y-99324250D01*
X101225000Y-99075752D01*
X101225975Y-99065851D01*
X101228863Y-99056331D01*
X101233552Y-99047555D01*
X101239864Y-99039867D01*
X101247555Y-99033555D01*
X101256328Y-99028864D01*
X101265848Y-99025976D01*
X101275749Y-99025003D01*
X101649251Y-99025003D01*
X101659152Y-99025976D01*
X100874998Y-99700000D02*
X100874998Y-99800000D01*
X100874998Y-99800000D02*
X100874038Y-99809754D01*
X100874038Y-99809754D02*
X100871193Y-99819134D01*
X100871193Y-99819134D02*
X100866573Y-99827777D01*
X100866573Y-99827777D02*
X100860355Y-99835354D01*
X100860355Y-99835354D02*
X100852778Y-99841572D01*
X100852778Y-99841572D02*
X100844134Y-99846195D01*
X100844134Y-99846195D02*
X100834754Y-99849040D01*
X100834754Y-99849040D02*
X100824998Y-99850000D01*
X100824998Y-99850000D02*
X100299998Y-99850000D01*
X100299998Y-99850000D02*
X100290244Y-99849040D01*
X100290244Y-99849040D02*
X100280864Y-99846195D01*
X100280864Y-99846195D02*
X100272220Y-99841572D01*
X100272220Y-99841572D02*
X100264644Y-99835354D01*
X100264644Y-99835354D02*
X100258426Y-99827777D01*
X100258426Y-99827777D02*
X100253805Y-99819134D01*
X100253805Y-99819134D02*
X100250961Y-99809754D01*
X100250961Y-99809754D02*
X100249998Y-99800000D01*
X100249998Y-99800000D02*
X100249998Y-99700000D01*
X100249998Y-99700000D02*
X100250961Y-99690246D01*
X100250961Y-99690246D02*
X100253805Y-99680866D01*
X100253805Y-99680866D02*
X100258426Y-99672223D01*
X100258426Y-99672223D02*
X100264644Y-99664646D01*
X100264644Y-99664646D02*
X100272220Y-99658428D01*
X100272220Y-99658428D02*
X100280864Y-99653805D01*
X100280864Y-99653805D02*
X100290244Y-99650960D01*
X100290244Y-99650960D02*
X100299998Y-99650000D01*
X100299998Y-99650000D02*
X100824998Y-99650000D01*
X100824998Y-99650000D02*
X100834754Y-99650960D01*
X100834754Y-99650960D02*
X100844134Y-99653805D01*
X100844134Y-99653805D02*
X100852778Y-99658428D01*
X100852778Y-99658428D02*
X100860355Y-99664646D01*
X100860355Y-99664646D02*
X100866573Y-99672223D01*
X100866573Y-99672223D02*
X100871193Y-99680866D01*
X100871193Y-99680866D02*
X100874038Y-99690246D01*
X100874038Y-99690246D02*
X100874998Y-99700000D01*
G36*
X100834754Y-99650960D02*
G01*
X100844134Y-99653805D01*
X100852778Y-99658428D01*
X100860355Y-99664646D01*
X100866573Y-99672223D01*
X100871193Y-99680866D01*
X100874038Y-99690246D01*
X100874998Y-99700000D01*
X100874998Y-99800000D01*
X100874038Y-99809754D01*
X100871193Y-99819134D01*
X100866573Y-99827777D01*
X100860355Y-99835354D01*
X100852778Y-99841572D01*
X100844134Y-99846195D01*
X100834754Y-99849040D01*
X100824998Y-99850000D01*
X100299998Y-99850000D01*
X100290244Y-99849040D01*
X100280864Y-99846195D01*
X100272220Y-99841572D01*
X100264644Y-99835354D01*
X100258426Y-99827777D01*
X100253805Y-99819134D01*
X100250961Y-99809754D01*
X100249998Y-99800000D01*
X100249998Y-99700000D01*
X100250961Y-99690246D01*
X100253805Y-99680866D01*
X100258426Y-99672223D01*
X100264644Y-99664646D01*
X100272220Y-99658428D01*
X100280864Y-99653805D01*
X100290244Y-99650960D01*
X100299998Y-99650000D01*
X100824998Y-99650000D01*
X100834754Y-99650960D01*
G37*
X100834754Y-99650960D02*
X100844134Y-99653805D01*
X100852778Y-99658428D01*
X100860355Y-99664646D01*
X100866573Y-99672223D01*
X100871193Y-99680866D01*
X100874038Y-99690246D01*
X100874998Y-99700000D01*
X100874998Y-99800000D01*
X100874038Y-99809754D01*
X100871193Y-99819134D01*
X100866573Y-99827777D01*
X100860355Y-99835354D01*
X100852778Y-99841572D01*
X100844134Y-99846195D01*
X100834754Y-99849040D01*
X100824998Y-99850000D01*
X100299998Y-99850000D01*
X100290244Y-99849040D01*
X100280864Y-99846195D01*
X100272220Y-99841572D01*
X100264644Y-99835354D01*
X100258426Y-99827777D01*
X100253805Y-99819134D01*
X100250961Y-99809754D01*
X100249998Y-99800000D01*
X100249998Y-99700000D01*
X100250961Y-99690246D01*
X100253805Y-99680866D01*
X100258426Y-99672223D01*
X100264644Y-99664646D01*
X100272220Y-99658428D01*
X100280864Y-99653805D01*
X100290244Y-99650960D01*
X100299998Y-99650000D01*
X100824998Y-99650000D01*
X100834754Y-99650960D01*
D11*
X62716000Y-66664000D02*
X63341000Y-66664000D01*
X63341000Y-66664000D02*
X63341000Y-66576000D01*
X63341000Y-66576000D02*
X63229000Y-66464000D01*
X63229000Y-66464000D02*
X62716000Y-66464000D01*
X62716000Y-66464000D02*
X62716000Y-66664000D01*
G36*
X63341000Y-66576000D02*
G01*
X63341000Y-66664000D01*
X62716000Y-66664000D01*
X62716000Y-66464000D01*
X63229000Y-66464000D01*
X63341000Y-66576000D01*
G37*
X63341000Y-66576000D02*
X63341000Y-66664000D01*
X62716000Y-66664000D01*
X62716000Y-66464000D01*
X63229000Y-66464000D01*
X63341000Y-66576000D01*
X64416000Y-65764000D02*
X64416000Y-66739000D01*
X64416000Y-66739000D02*
X64416000Y-66744000D01*
X64416000Y-66744000D02*
X64415000Y-66749000D01*
X64415000Y-66749000D02*
X64415000Y-66755000D01*
X64415000Y-66755000D02*
X64414000Y-66760000D01*
X64414000Y-66760000D02*
X64413000Y-66765000D01*
X64413000Y-66765000D02*
X64411000Y-66770000D01*
X64411000Y-66770000D02*
X64409000Y-66775000D01*
X64409000Y-66775000D02*
X64407000Y-66780000D01*
X64407000Y-66780000D02*
X64405000Y-66784000D01*
X64405000Y-66784000D02*
X64403000Y-66789000D01*
X64403000Y-66789000D02*
X64400000Y-66793000D01*
X64400000Y-66793000D02*
X64397000Y-66798000D01*
X64397000Y-66798000D02*
X64394000Y-66802000D01*
X64394000Y-66802000D02*
X64390000Y-66806000D01*
X64390000Y-66806000D02*
X64387000Y-66810000D01*
X64387000Y-66810000D02*
X64383000Y-66813000D01*
X64383000Y-66813000D02*
X64379000Y-66817000D01*
X64379000Y-66817000D02*
X64375000Y-66820000D01*
X64375000Y-66820000D02*
X64370000Y-66823000D01*
X64370000Y-66823000D02*
X64366000Y-66826000D01*
X64366000Y-66826000D02*
X64361000Y-66828000D01*
X64361000Y-66828000D02*
X64357000Y-66830000D01*
X64357000Y-66830000D02*
X64352000Y-66832000D01*
X64352000Y-66832000D02*
X64347000Y-66834000D01*
X64347000Y-66834000D02*
X64342000Y-66836000D01*
X64342000Y-66836000D02*
X64337000Y-66837000D01*
X64337000Y-66837000D02*
X64332000Y-66838000D01*
X64332000Y-66838000D02*
X64326000Y-66838000D01*
X64326000Y-66838000D02*
X64321000Y-66839000D01*
X64321000Y-66839000D02*
X64316000Y-66839000D01*
X64316000Y-66839000D02*
X64311000Y-66839000D01*
X64311000Y-66839000D02*
X64306000Y-66838000D01*
X64306000Y-66838000D02*
X64300000Y-66838000D01*
X64300000Y-66838000D02*
X64295000Y-66837000D01*
X64295000Y-66837000D02*
X64290000Y-66836000D01*
X64290000Y-66836000D02*
X64285000Y-66834000D01*
X64285000Y-66834000D02*
X64280000Y-66832000D01*
X64280000Y-66832000D02*
X64275000Y-66830000D01*
X64275000Y-66830000D02*
X64271000Y-66828000D01*
X64271000Y-66828000D02*
X64266000Y-66826000D01*
X64266000Y-66826000D02*
X64262000Y-66823000D01*
X64262000Y-66823000D02*
X64257000Y-66820000D01*
X64257000Y-66820000D02*
X64253000Y-66817000D01*
X64253000Y-66817000D02*
X64249000Y-66813000D01*
X64249000Y-66813000D02*
X64245000Y-66810000D01*
X64245000Y-66810000D02*
X64242000Y-66806000D01*
X64242000Y-66806000D02*
X64238000Y-66802000D01*
X64238000Y-66802000D02*
X64235000Y-66798000D01*
X64235000Y-66798000D02*
X64232000Y-66793000D01*
X64232000Y-66793000D02*
X64229000Y-66789000D01*
X64229000Y-66789000D02*
X64227000Y-66784000D01*
X64227000Y-66784000D02*
X64225000Y-66780000D01*
X64225000Y-66780000D02*
X64223000Y-66775000D01*
X64223000Y-66775000D02*
X64221000Y-66770000D01*
X64221000Y-66770000D02*
X64219000Y-66765000D01*
X64219000Y-66765000D02*
X64218000Y-66760000D01*
X64218000Y-66760000D02*
X64217000Y-66755000D01*
X64217000Y-66755000D02*
X64217000Y-66749000D01*
X64217000Y-66749000D02*
X64216000Y-66744000D01*
X64216000Y-66744000D02*
X64216000Y-66739000D01*
X64216000Y-66739000D02*
X64216000Y-65764000D01*
X64216000Y-65764000D02*
X64416000Y-65764000D01*
X64416000Y-65764000D02*
X64416000Y-65764000D01*
G36*
X64416000Y-66744000D02*
G01*
X64415000Y-66749000D01*
X64415000Y-66755000D01*
X64413000Y-66765000D01*
X64407000Y-66780000D01*
X64405000Y-66784000D01*
X64403000Y-66789000D01*
X64400000Y-66793000D01*
X64397000Y-66798000D01*
X64394000Y-66802000D01*
X64390000Y-66806000D01*
X64387000Y-66810000D01*
X64383000Y-66813000D01*
X64379000Y-66817000D01*
X64375000Y-66820000D01*
X64370000Y-66823000D01*
X64366000Y-66826000D01*
X64361000Y-66828000D01*
X64357000Y-66830000D01*
X64342000Y-66836000D01*
X64332000Y-66838000D01*
X64326000Y-66838000D01*
X64321000Y-66839000D01*
X64311000Y-66839000D01*
X64306000Y-66838000D01*
X64300000Y-66838000D01*
X64290000Y-66836000D01*
X64275000Y-66830000D01*
X64271000Y-66828000D01*
X64266000Y-66826000D01*
X64262000Y-66823000D01*
X64257000Y-66820000D01*
X64253000Y-66817000D01*
X64249000Y-66813000D01*
X64245000Y-66810000D01*
X64242000Y-66806000D01*
X64238000Y-66802000D01*
X64235000Y-66798000D01*
X64232000Y-66793000D01*
X64229000Y-66789000D01*
X64227000Y-66784000D01*
X64225000Y-66780000D01*
X64219000Y-66765000D01*
X64217000Y-66755000D01*
X64217000Y-66749000D01*
X64216000Y-66744000D01*
X64216000Y-65764000D01*
X64416000Y-65764000D01*
X64416000Y-66744000D01*
G37*
X64416000Y-66744000D02*
X64415000Y-66749000D01*
X64415000Y-66755000D01*
X64413000Y-66765000D01*
X64407000Y-66780000D01*
X64405000Y-66784000D01*
X64403000Y-66789000D01*
X64400000Y-66793000D01*
X64397000Y-66798000D01*
X64394000Y-66802000D01*
X64390000Y-66806000D01*
X64387000Y-66810000D01*
X64383000Y-66813000D01*
X64379000Y-66817000D01*
X64375000Y-66820000D01*
X64370000Y-66823000D01*
X64366000Y-66826000D01*
X64361000Y-66828000D01*
X64357000Y-66830000D01*
X64342000Y-66836000D01*
X64332000Y-66838000D01*
X64326000Y-66838000D01*
X64321000Y-66839000D01*
X64311000Y-66839000D01*
X64306000Y-66838000D01*
X64300000Y-66838000D01*
X64290000Y-66836000D01*
X64275000Y-66830000D01*
X64271000Y-66828000D01*
X64266000Y-66826000D01*
X64262000Y-66823000D01*
X64257000Y-66820000D01*
X64253000Y-66817000D01*
X64249000Y-66813000D01*
X64245000Y-66810000D01*
X64242000Y-66806000D01*
X64238000Y-66802000D01*
X64235000Y-66798000D01*
X64232000Y-66793000D01*
X64229000Y-66789000D01*
X64227000Y-66784000D01*
X64225000Y-66780000D01*
X64219000Y-66765000D01*
X64217000Y-66755000D01*
X64217000Y-66749000D01*
X64216000Y-66744000D01*
X64216000Y-65764000D01*
X64416000Y-65764000D01*
X64416000Y-66744000D01*
X66316000Y-68664000D02*
X65828000Y-68664000D01*
X65828000Y-68664000D02*
X65666000Y-68502000D01*
X65666000Y-68502000D02*
X65666000Y-68314000D01*
X65666000Y-68314000D02*
X64841000Y-68314000D01*
X64841000Y-68314000D02*
X64836000Y-68314000D01*
X64836000Y-68314000D02*
X64831000Y-68313000D01*
X64831000Y-68313000D02*
X64825000Y-68313000D01*
X64825000Y-68313000D02*
X64820000Y-68312000D01*
X64820000Y-68312000D02*
X64815000Y-68311000D01*
X64815000Y-68311000D02*
X64810000Y-68309000D01*
X64810000Y-68309000D02*
X64805000Y-68307000D01*
X64805000Y-68307000D02*
X64800000Y-68305000D01*
X64800000Y-68305000D02*
X64796000Y-68303000D01*
X64796000Y-68303000D02*
X64791000Y-68301000D01*
X64791000Y-68301000D02*
X64787000Y-68298000D01*
X64787000Y-68298000D02*
X64782000Y-68295000D01*
X64782000Y-68295000D02*
X64778000Y-68292000D01*
X64778000Y-68292000D02*
X64774000Y-68288000D01*
X64774000Y-68288000D02*
X64770000Y-68285000D01*
X64770000Y-68285000D02*
X64767000Y-68281000D01*
X64767000Y-68281000D02*
X64763000Y-68277000D01*
X64763000Y-68277000D02*
X64760000Y-68273000D01*
X64760000Y-68273000D02*
X64757000Y-68268000D01*
X64757000Y-68268000D02*
X64754000Y-68264000D01*
X64754000Y-68264000D02*
X64752000Y-68259000D01*
X64752000Y-68259000D02*
X64750000Y-68255000D01*
X64750000Y-68255000D02*
X64748000Y-68250000D01*
X64748000Y-68250000D02*
X64746000Y-68245000D01*
X64746000Y-68245000D02*
X64744000Y-68240000D01*
X64744000Y-68240000D02*
X64743000Y-68235000D01*
X64743000Y-68235000D02*
X64742000Y-68230000D01*
X64742000Y-68230000D02*
X64742000Y-68224000D01*
X64742000Y-68224000D02*
X64741000Y-68219000D01*
X64741000Y-68219000D02*
X64741000Y-68214000D01*
X64741000Y-68214000D02*
X64741000Y-68164000D01*
X64741000Y-68164000D02*
X64741000Y-68159000D01*
X64741000Y-68159000D02*
X64742000Y-68154000D01*
X64742000Y-68154000D02*
X64742000Y-68148000D01*
X64742000Y-68148000D02*
X64743000Y-68143000D01*
X64743000Y-68143000D02*
X64744000Y-68138000D01*
X64744000Y-68138000D02*
X64746000Y-68133000D01*
X64746000Y-68133000D02*
X64748000Y-68128000D01*
X64748000Y-68128000D02*
X64750000Y-68123000D01*
X64750000Y-68123000D02*
X64752000Y-68119000D01*
X64752000Y-68119000D02*
X64754000Y-68114000D01*
X64754000Y-68114000D02*
X64757000Y-68110000D01*
X64757000Y-68110000D02*
X64760000Y-68105000D01*
X64760000Y-68105000D02*
X64763000Y-68101000D01*
X64763000Y-68101000D02*
X64767000Y-68097000D01*
X64767000Y-68097000D02*
X64770000Y-68093000D01*
X64770000Y-68093000D02*
X64774000Y-68090000D01*
X64774000Y-68090000D02*
X64778000Y-68086000D01*
X64778000Y-68086000D02*
X64782000Y-68083000D01*
X64782000Y-68083000D02*
X64787000Y-68080000D01*
X64787000Y-68080000D02*
X64791000Y-68077000D01*
X64791000Y-68077000D02*
X64796000Y-68075000D01*
X64796000Y-68075000D02*
X64800000Y-68073000D01*
X64800000Y-68073000D02*
X64805000Y-68071000D01*
X64805000Y-68071000D02*
X64810000Y-68069000D01*
X64810000Y-68069000D02*
X64815000Y-68067000D01*
X64815000Y-68067000D02*
X64820000Y-68066000D01*
X64820000Y-68066000D02*
X64825000Y-68065000D01*
X64825000Y-68065000D02*
X64831000Y-68065000D01*
X64831000Y-68065000D02*
X64836000Y-68064000D01*
X64836000Y-68064000D02*
X64841000Y-68064000D01*
X64841000Y-68064000D02*
X66316000Y-68064000D01*
X66316000Y-68064000D02*
X66316000Y-68664000D01*
X66316000Y-68664000D02*
X66316000Y-68664000D01*
G36*
X66316000Y-68664000D02*
G01*
X65828000Y-68664000D01*
X65666000Y-68502000D01*
X65666000Y-68314000D01*
X64836000Y-68314000D01*
X64831000Y-68313000D01*
X64825000Y-68313000D01*
X64815000Y-68311000D01*
X64800000Y-68305000D01*
X64796000Y-68303000D01*
X64791000Y-68301000D01*
X64787000Y-68298000D01*
X64782000Y-68295000D01*
X64778000Y-68292000D01*
X64774000Y-68288000D01*
X64770000Y-68285000D01*
X64767000Y-68281000D01*
X64763000Y-68277000D01*
X64760000Y-68273000D01*
X64757000Y-68268000D01*
X64754000Y-68264000D01*
X64752000Y-68259000D01*
X64750000Y-68255000D01*
X64744000Y-68240000D01*
X64742000Y-68230000D01*
X64742000Y-68224000D01*
X64741000Y-68219000D01*
X64741000Y-68159000D01*
X64742000Y-68154000D01*
X64742000Y-68148000D01*
X64744000Y-68138000D01*
X64750000Y-68123000D01*
X64752000Y-68119000D01*
X64754000Y-68114000D01*
X64757000Y-68110000D01*
X64760000Y-68105000D01*
X64763000Y-68101000D01*
X64767000Y-68097000D01*
X64770000Y-68093000D01*
X64774000Y-68090000D01*
X64778000Y-68086000D01*
X64782000Y-68083000D01*
X64787000Y-68080000D01*
X64791000Y-68077000D01*
X64796000Y-68075000D01*
X64800000Y-68073000D01*
X64815000Y-68067000D01*
X64825000Y-68065000D01*
X64831000Y-68065000D01*
X64836000Y-68064000D01*
X66316000Y-68064000D01*
X66316000Y-68664000D01*
G37*
X66316000Y-68664000D02*
X65828000Y-68664000D01*
X65666000Y-68502000D01*
X65666000Y-68314000D01*
X64836000Y-68314000D01*
X64831000Y-68313000D01*
X64825000Y-68313000D01*
X64815000Y-68311000D01*
X64800000Y-68305000D01*
X64796000Y-68303000D01*
X64791000Y-68301000D01*
X64787000Y-68298000D01*
X64782000Y-68295000D01*
X64778000Y-68292000D01*
X64774000Y-68288000D01*
X64770000Y-68285000D01*
X64767000Y-68281000D01*
X64763000Y-68277000D01*
X64760000Y-68273000D01*
X64757000Y-68268000D01*
X64754000Y-68264000D01*
X64752000Y-68259000D01*
X64750000Y-68255000D01*
X64744000Y-68240000D01*
X64742000Y-68230000D01*
X64742000Y-68224000D01*
X64741000Y-68219000D01*
X64741000Y-68159000D01*
X64742000Y-68154000D01*
X64742000Y-68148000D01*
X64744000Y-68138000D01*
X64750000Y-68123000D01*
X64752000Y-68119000D01*
X64754000Y-68114000D01*
X64757000Y-68110000D01*
X64760000Y-68105000D01*
X64763000Y-68101000D01*
X64767000Y-68097000D01*
X64770000Y-68093000D01*
X64774000Y-68090000D01*
X64778000Y-68086000D01*
X64782000Y-68083000D01*
X64787000Y-68080000D01*
X64791000Y-68077000D01*
X64796000Y-68075000D01*
X64800000Y-68073000D01*
X64815000Y-68067000D01*
X64825000Y-68065000D01*
X64831000Y-68065000D01*
X64836000Y-68064000D01*
X66316000Y-68064000D01*
X66316000Y-68664000D01*
X63616000Y-69364000D02*
X63616000Y-68739000D01*
X63616000Y-68739000D02*
X63528000Y-68739000D01*
X63528000Y-68739000D02*
X63416000Y-68851000D01*
X63416000Y-68851000D02*
X63416000Y-69364000D01*
X63416000Y-69364000D02*
X63616000Y-69364000D01*
G36*
X63616000Y-69364000D02*
G01*
X63416000Y-69364000D01*
X63416000Y-68851000D01*
X63528000Y-68739000D01*
X63616000Y-68739000D01*
X63616000Y-69364000D01*
G37*
X63616000Y-69364000D02*
X63416000Y-69364000D01*
X63416000Y-68851000D01*
X63528000Y-68739000D01*
X63616000Y-68739000D01*
X63616000Y-69364000D01*
X65016000Y-69364000D02*
X65016000Y-68789000D01*
X65016000Y-68789000D02*
X65016000Y-68784000D01*
X65016000Y-68784000D02*
X65017000Y-68779000D01*
X65017000Y-68779000D02*
X65017000Y-68773000D01*
X65017000Y-68773000D02*
X65018000Y-68768000D01*
X65018000Y-68768000D02*
X65019000Y-68763000D01*
X65019000Y-68763000D02*
X65021000Y-68758000D01*
X65021000Y-68758000D02*
X65023000Y-68753000D01*
X65023000Y-68753000D02*
X65025000Y-68748000D01*
X65025000Y-68748000D02*
X65027000Y-68744000D01*
X65027000Y-68744000D02*
X65029000Y-68739000D01*
X65029000Y-68739000D02*
X65032000Y-68735000D01*
X65032000Y-68735000D02*
X65035000Y-68730000D01*
X65035000Y-68730000D02*
X65038000Y-68726000D01*
X65038000Y-68726000D02*
X65042000Y-68722000D01*
X65042000Y-68722000D02*
X65045000Y-68718000D01*
X65045000Y-68718000D02*
X65049000Y-68715000D01*
X65049000Y-68715000D02*
X65053000Y-68711000D01*
X65053000Y-68711000D02*
X65057000Y-68708000D01*
X65057000Y-68708000D02*
X65062000Y-68705000D01*
X65062000Y-68705000D02*
X65066000Y-68702000D01*
X65066000Y-68702000D02*
X65071000Y-68700000D01*
X65071000Y-68700000D02*
X65075000Y-68698000D01*
X65075000Y-68698000D02*
X65080000Y-68696000D01*
X65080000Y-68696000D02*
X65085000Y-68694000D01*
X65085000Y-68694000D02*
X65090000Y-68692000D01*
X65090000Y-68692000D02*
X65095000Y-68691000D01*
X65095000Y-68691000D02*
X65100000Y-68690000D01*
X65100000Y-68690000D02*
X65106000Y-68690000D01*
X65106000Y-68690000D02*
X65111000Y-68689000D01*
X65111000Y-68689000D02*
X65116000Y-68689000D01*
X65116000Y-68689000D02*
X65121000Y-68689000D01*
X65121000Y-68689000D02*
X65126000Y-68690000D01*
X65126000Y-68690000D02*
X65132000Y-68690000D01*
X65132000Y-68690000D02*
X65137000Y-68691000D01*
X65137000Y-68691000D02*
X65142000Y-68692000D01*
X65142000Y-68692000D02*
X65147000Y-68694000D01*
X65147000Y-68694000D02*
X65152000Y-68696000D01*
X65152000Y-68696000D02*
X65157000Y-68698000D01*
X65157000Y-68698000D02*
X65161000Y-68700000D01*
X65161000Y-68700000D02*
X65166000Y-68702000D01*
X65166000Y-68702000D02*
X65170000Y-68705000D01*
X65170000Y-68705000D02*
X65175000Y-68708000D01*
X65175000Y-68708000D02*
X65179000Y-68711000D01*
X65179000Y-68711000D02*
X65183000Y-68715000D01*
X65183000Y-68715000D02*
X65187000Y-68718000D01*
X65187000Y-68718000D02*
X65190000Y-68722000D01*
X65190000Y-68722000D02*
X65194000Y-68726000D01*
X65194000Y-68726000D02*
X65197000Y-68730000D01*
X65197000Y-68730000D02*
X65200000Y-68735000D01*
X65200000Y-68735000D02*
X65203000Y-68739000D01*
X65203000Y-68739000D02*
X65205000Y-68744000D01*
X65205000Y-68744000D02*
X65207000Y-68748000D01*
X65207000Y-68748000D02*
X65209000Y-68753000D01*
X65209000Y-68753000D02*
X65211000Y-68758000D01*
X65211000Y-68758000D02*
X65213000Y-68763000D01*
X65213000Y-68763000D02*
X65214000Y-68768000D01*
X65214000Y-68768000D02*
X65215000Y-68773000D01*
X65215000Y-68773000D02*
X65215000Y-68779000D01*
X65215000Y-68779000D02*
X65216000Y-68784000D01*
X65216000Y-68784000D02*
X65216000Y-68789000D01*
X65216000Y-68789000D02*
X65216000Y-69364000D01*
X65216000Y-69364000D02*
X65016000Y-69364000D01*
X65016000Y-69364000D02*
X65016000Y-69364000D01*
G36*
X65126000Y-68690000D02*
G01*
X65132000Y-68690000D01*
X65142000Y-68692000D01*
X65157000Y-68698000D01*
X65161000Y-68700000D01*
X65166000Y-68702000D01*
X65170000Y-68705000D01*
X65175000Y-68708000D01*
X65179000Y-68711000D01*
X65183000Y-68715000D01*
X65187000Y-68718000D01*
X65190000Y-68722000D01*
X65194000Y-68726000D01*
X65197000Y-68730000D01*
X65200000Y-68735000D01*
X65203000Y-68739000D01*
X65205000Y-68744000D01*
X65207000Y-68748000D01*
X65213000Y-68763000D01*
X65215000Y-68773000D01*
X65215000Y-68779000D01*
X65216000Y-68784000D01*
X65216000Y-69364000D01*
X65016000Y-69364000D01*
X65016000Y-68784000D01*
X65017000Y-68779000D01*
X65017000Y-68773000D01*
X65019000Y-68763000D01*
X65025000Y-68748000D01*
X65027000Y-68744000D01*
X65029000Y-68739000D01*
X65032000Y-68735000D01*
X65035000Y-68730000D01*
X65038000Y-68726000D01*
X65042000Y-68722000D01*
X65045000Y-68718000D01*
X65049000Y-68715000D01*
X65053000Y-68711000D01*
X65057000Y-68708000D01*
X65062000Y-68705000D01*
X65066000Y-68702000D01*
X65071000Y-68700000D01*
X65075000Y-68698000D01*
X65090000Y-68692000D01*
X65100000Y-68690000D01*
X65106000Y-68690000D01*
X65111000Y-68689000D01*
X65121000Y-68689000D01*
X65126000Y-68690000D01*
G37*
X65126000Y-68690000D02*
X65132000Y-68690000D01*
X65142000Y-68692000D01*
X65157000Y-68698000D01*
X65161000Y-68700000D01*
X65166000Y-68702000D01*
X65170000Y-68705000D01*
X65175000Y-68708000D01*
X65179000Y-68711000D01*
X65183000Y-68715000D01*
X65187000Y-68718000D01*
X65190000Y-68722000D01*
X65194000Y-68726000D01*
X65197000Y-68730000D01*
X65200000Y-68735000D01*
X65203000Y-68739000D01*
X65205000Y-68744000D01*
X65207000Y-68748000D01*
X65213000Y-68763000D01*
X65215000Y-68773000D01*
X65215000Y-68779000D01*
X65216000Y-68784000D01*
X65216000Y-69364000D01*
X65016000Y-69364000D01*
X65016000Y-68784000D01*
X65017000Y-68779000D01*
X65017000Y-68773000D01*
X65019000Y-68763000D01*
X65025000Y-68748000D01*
X65027000Y-68744000D01*
X65029000Y-68739000D01*
X65032000Y-68735000D01*
X65035000Y-68730000D01*
X65038000Y-68726000D01*
X65042000Y-68722000D01*
X65045000Y-68718000D01*
X65049000Y-68715000D01*
X65053000Y-68711000D01*
X65057000Y-68708000D01*
X65062000Y-68705000D01*
X65066000Y-68702000D01*
X65071000Y-68700000D01*
X65075000Y-68698000D01*
X65090000Y-68692000D01*
X65100000Y-68690000D01*
X65106000Y-68690000D01*
X65111000Y-68689000D01*
X65121000Y-68689000D01*
X65126000Y-68690000D01*
X62716000Y-67264000D02*
X63291000Y-67264000D01*
X63291000Y-67264000D02*
X63296000Y-67264000D01*
X63296000Y-67264000D02*
X63301000Y-67265000D01*
X63301000Y-67265000D02*
X63307000Y-67265000D01*
X63307000Y-67265000D02*
X63312000Y-67266000D01*
X63312000Y-67266000D02*
X63317000Y-67267000D01*
X63317000Y-67267000D02*
X63322000Y-67269000D01*
X63322000Y-67269000D02*
X63327000Y-67271000D01*
X63327000Y-67271000D02*
X63332000Y-67273000D01*
X63332000Y-67273000D02*
X63336000Y-67275000D01*
X63336000Y-67275000D02*
X63341000Y-67277000D01*
X63341000Y-67277000D02*
X63345000Y-67280000D01*
X63345000Y-67280000D02*
X63350000Y-67283000D01*
X63350000Y-67283000D02*
X63354000Y-67286000D01*
X63354000Y-67286000D02*
X63358000Y-67290000D01*
X63358000Y-67290000D02*
X63362000Y-67293000D01*
X63362000Y-67293000D02*
X63365000Y-67297000D01*
X63365000Y-67297000D02*
X63369000Y-67301000D01*
X63369000Y-67301000D02*
X63372000Y-67305000D01*
X63372000Y-67305000D02*
X63375000Y-67310000D01*
X63375000Y-67310000D02*
X63378000Y-67314000D01*
X63378000Y-67314000D02*
X63380000Y-67319000D01*
X63380000Y-67319000D02*
X63382000Y-67323000D01*
X63382000Y-67323000D02*
X63384000Y-67328000D01*
X63384000Y-67328000D02*
X63386000Y-67333000D01*
X63386000Y-67333000D02*
X63388000Y-67338000D01*
X63388000Y-67338000D02*
X63389000Y-67343000D01*
X63389000Y-67343000D02*
X63390000Y-67348000D01*
X63390000Y-67348000D02*
X63390000Y-67354000D01*
X63390000Y-67354000D02*
X63391000Y-67359000D01*
X63391000Y-67359000D02*
X63391000Y-67364000D01*
X63391000Y-67364000D02*
X63391000Y-67369000D01*
X63391000Y-67369000D02*
X63390000Y-67374000D01*
X63390000Y-67374000D02*
X63390000Y-67380000D01*
X63390000Y-67380000D02*
X63389000Y-67385000D01*
X63389000Y-67385000D02*
X63388000Y-67390000D01*
X63388000Y-67390000D02*
X63386000Y-67395000D01*
X63386000Y-67395000D02*
X63384000Y-67400000D01*
X63384000Y-67400000D02*
X63382000Y-67405000D01*
X63382000Y-67405000D02*
X63380000Y-67409000D01*
X63380000Y-67409000D02*
X63378000Y-67414000D01*
X63378000Y-67414000D02*
X63375000Y-67418000D01*
X63375000Y-67418000D02*
X63372000Y-67423000D01*
X63372000Y-67423000D02*
X63369000Y-67427000D01*
X63369000Y-67427000D02*
X63365000Y-67431000D01*
X63365000Y-67431000D02*
X63362000Y-67435000D01*
X63362000Y-67435000D02*
X63358000Y-67438000D01*
X63358000Y-67438000D02*
X63354000Y-67442000D01*
X63354000Y-67442000D02*
X63350000Y-67445000D01*
X63350000Y-67445000D02*
X63345000Y-67448000D01*
X63345000Y-67448000D02*
X63341000Y-67451000D01*
X63341000Y-67451000D02*
X63336000Y-67453000D01*
X63336000Y-67453000D02*
X63332000Y-67455000D01*
X63332000Y-67455000D02*
X63327000Y-67457000D01*
X63327000Y-67457000D02*
X63322000Y-67459000D01*
X63322000Y-67459000D02*
X63317000Y-67461000D01*
X63317000Y-67461000D02*
X63312000Y-67462000D01*
X63312000Y-67462000D02*
X63307000Y-67463000D01*
X63307000Y-67463000D02*
X63301000Y-67463000D01*
X63301000Y-67463000D02*
X63296000Y-67464000D01*
X63296000Y-67464000D02*
X63291000Y-67464000D01*
X63291000Y-67464000D02*
X62716000Y-67464000D01*
X62716000Y-67464000D02*
X62716000Y-67264000D01*
X62716000Y-67264000D02*
X62716000Y-67264000D01*
G36*
X63301000Y-67265000D02*
G01*
X63307000Y-67265000D01*
X63317000Y-67267000D01*
X63332000Y-67273000D01*
X63336000Y-67275000D01*
X63341000Y-67277000D01*
X63345000Y-67280000D01*
X63350000Y-67283000D01*
X63354000Y-67286000D01*
X63358000Y-67290000D01*
X63362000Y-67293000D01*
X63365000Y-67297000D01*
X63369000Y-67301000D01*
X63372000Y-67305000D01*
X63375000Y-67310000D01*
X63378000Y-67314000D01*
X63380000Y-67319000D01*
X63382000Y-67323000D01*
X63388000Y-67338000D01*
X63390000Y-67348000D01*
X63390000Y-67354000D01*
X63391000Y-67359000D01*
X63391000Y-67369000D01*
X63390000Y-67374000D01*
X63390000Y-67380000D01*
X63388000Y-67390000D01*
X63382000Y-67405000D01*
X63380000Y-67409000D01*
X63378000Y-67414000D01*
X63375000Y-67418000D01*
X63372000Y-67423000D01*
X63369000Y-67427000D01*
X63365000Y-67431000D01*
X63362000Y-67435000D01*
X63358000Y-67438000D01*
X63354000Y-67442000D01*
X63350000Y-67445000D01*
X63345000Y-67448000D01*
X63341000Y-67451000D01*
X63336000Y-67453000D01*
X63332000Y-67455000D01*
X63317000Y-67461000D01*
X63307000Y-67463000D01*
X63301000Y-67463000D01*
X63296000Y-67464000D01*
X62716000Y-67464000D01*
X62716000Y-67264000D01*
X63296000Y-67264000D01*
X63301000Y-67265000D01*
G37*
X63301000Y-67265000D02*
X63307000Y-67265000D01*
X63317000Y-67267000D01*
X63332000Y-67273000D01*
X63336000Y-67275000D01*
X63341000Y-67277000D01*
X63345000Y-67280000D01*
X63350000Y-67283000D01*
X63354000Y-67286000D01*
X63358000Y-67290000D01*
X63362000Y-67293000D01*
X63365000Y-67297000D01*
X63369000Y-67301000D01*
X63372000Y-67305000D01*
X63375000Y-67310000D01*
X63378000Y-67314000D01*
X63380000Y-67319000D01*
X63382000Y-67323000D01*
X63388000Y-67338000D01*
X63390000Y-67348000D01*
X63390000Y-67354000D01*
X63391000Y-67359000D01*
X63391000Y-67369000D01*
X63390000Y-67374000D01*
X63390000Y-67380000D01*
X63388000Y-67390000D01*
X63382000Y-67405000D01*
X63380000Y-67409000D01*
X63378000Y-67414000D01*
X63375000Y-67418000D01*
X63372000Y-67423000D01*
X63369000Y-67427000D01*
X63365000Y-67431000D01*
X63362000Y-67435000D01*
X63358000Y-67438000D01*
X63354000Y-67442000D01*
X63350000Y-67445000D01*
X63345000Y-67448000D01*
X63341000Y-67451000D01*
X63336000Y-67453000D01*
X63332000Y-67455000D01*
X63317000Y-67461000D01*
X63307000Y-67463000D01*
X63301000Y-67463000D01*
X63296000Y-67464000D01*
X62716000Y-67464000D01*
X62716000Y-67264000D01*
X63296000Y-67264000D01*
X63301000Y-67265000D01*
X62716000Y-66864000D02*
X63291000Y-66864000D01*
X63291000Y-66864000D02*
X63296000Y-66864000D01*
X63296000Y-66864000D02*
X63301000Y-66865000D01*
X63301000Y-66865000D02*
X63307000Y-66865000D01*
X63307000Y-66865000D02*
X63312000Y-66866000D01*
X63312000Y-66866000D02*
X63317000Y-66867000D01*
X63317000Y-66867000D02*
X63322000Y-66869000D01*
X63322000Y-66869000D02*
X63327000Y-66871000D01*
X63327000Y-66871000D02*
X63332000Y-66873000D01*
X63332000Y-66873000D02*
X63336000Y-66875000D01*
X63336000Y-66875000D02*
X63341000Y-66877000D01*
X63341000Y-66877000D02*
X63345000Y-66880000D01*
X63345000Y-66880000D02*
X63350000Y-66883000D01*
X63350000Y-66883000D02*
X63354000Y-66886000D01*
X63354000Y-66886000D02*
X63358000Y-66890000D01*
X63358000Y-66890000D02*
X63362000Y-66893000D01*
X63362000Y-66893000D02*
X63365000Y-66897000D01*
X63365000Y-66897000D02*
X63369000Y-66901000D01*
X63369000Y-66901000D02*
X63372000Y-66905000D01*
X63372000Y-66905000D02*
X63375000Y-66910000D01*
X63375000Y-66910000D02*
X63378000Y-66914000D01*
X63378000Y-66914000D02*
X63380000Y-66919000D01*
X63380000Y-66919000D02*
X63382000Y-66923000D01*
X63382000Y-66923000D02*
X63384000Y-66928000D01*
X63384000Y-66928000D02*
X63386000Y-66933000D01*
X63386000Y-66933000D02*
X63388000Y-66938000D01*
X63388000Y-66938000D02*
X63389000Y-66943000D01*
X63389000Y-66943000D02*
X63390000Y-66948000D01*
X63390000Y-66948000D02*
X63390000Y-66954000D01*
X63390000Y-66954000D02*
X63391000Y-66959000D01*
X63391000Y-66959000D02*
X63391000Y-66964000D01*
X63391000Y-66964000D02*
X63391000Y-66969000D01*
X63391000Y-66969000D02*
X63390000Y-66974000D01*
X63390000Y-66974000D02*
X63390000Y-66980000D01*
X63390000Y-66980000D02*
X63389000Y-66985000D01*
X63389000Y-66985000D02*
X63388000Y-66990000D01*
X63388000Y-66990000D02*
X63386000Y-66995000D01*
X63386000Y-66995000D02*
X63384000Y-67000000D01*
X63384000Y-67000000D02*
X63382000Y-67005000D01*
X63382000Y-67005000D02*
X63380000Y-67009000D01*
X63380000Y-67009000D02*
X63378000Y-67014000D01*
X63378000Y-67014000D02*
X63375000Y-67018000D01*
X63375000Y-67018000D02*
X63372000Y-67023000D01*
X63372000Y-67023000D02*
X63369000Y-67027000D01*
X63369000Y-67027000D02*
X63365000Y-67031000D01*
X63365000Y-67031000D02*
X63362000Y-67035000D01*
X63362000Y-67035000D02*
X63358000Y-67038000D01*
X63358000Y-67038000D02*
X63354000Y-67042000D01*
X63354000Y-67042000D02*
X63350000Y-67045000D01*
X63350000Y-67045000D02*
X63345000Y-67048000D01*
X63345000Y-67048000D02*
X63341000Y-67051000D01*
X63341000Y-67051000D02*
X63336000Y-67053000D01*
X63336000Y-67053000D02*
X63332000Y-67055000D01*
X63332000Y-67055000D02*
X63327000Y-67057000D01*
X63327000Y-67057000D02*
X63322000Y-67059000D01*
X63322000Y-67059000D02*
X63317000Y-67061000D01*
X63317000Y-67061000D02*
X63312000Y-67062000D01*
X63312000Y-67062000D02*
X63307000Y-67063000D01*
X63307000Y-67063000D02*
X63301000Y-67063000D01*
X63301000Y-67063000D02*
X63296000Y-67064000D01*
X63296000Y-67064000D02*
X63291000Y-67064000D01*
X63291000Y-67064000D02*
X62716000Y-67064000D01*
X62716000Y-67064000D02*
X62716000Y-66864000D01*
X62716000Y-66864000D02*
X62716000Y-66864000D01*
G36*
X63301000Y-66865000D02*
G01*
X63307000Y-66865000D01*
X63317000Y-66867000D01*
X63332000Y-66873000D01*
X63336000Y-66875000D01*
X63341000Y-66877000D01*
X63345000Y-66880000D01*
X63350000Y-66883000D01*
X63354000Y-66886000D01*
X63358000Y-66890000D01*
X63362000Y-66893000D01*
X63365000Y-66897000D01*
X63369000Y-66901000D01*
X63372000Y-66905000D01*
X63375000Y-66910000D01*
X63378000Y-66914000D01*
X63380000Y-66919000D01*
X63382000Y-66923000D01*
X63388000Y-66938000D01*
X63390000Y-66948000D01*
X63390000Y-66954000D01*
X63391000Y-66959000D01*
X63391000Y-66969000D01*
X63390000Y-66974000D01*
X63390000Y-66980000D01*
X63388000Y-66990000D01*
X63382000Y-67005000D01*
X63380000Y-67009000D01*
X63378000Y-67014000D01*
X63375000Y-67018000D01*
X63372000Y-67023000D01*
X63369000Y-67027000D01*
X63365000Y-67031000D01*
X63362000Y-67035000D01*
X63358000Y-67038000D01*
X63354000Y-67042000D01*
X63350000Y-67045000D01*
X63345000Y-67048000D01*
X63341000Y-67051000D01*
X63336000Y-67053000D01*
X63332000Y-67055000D01*
X63317000Y-67061000D01*
X63307000Y-67063000D01*
X63301000Y-67063000D01*
X63296000Y-67064000D01*
X62716000Y-67064000D01*
X62716000Y-66864000D01*
X63296000Y-66864000D01*
X63301000Y-66865000D01*
G37*
X63301000Y-66865000D02*
X63307000Y-66865000D01*
X63317000Y-66867000D01*
X63332000Y-66873000D01*
X63336000Y-66875000D01*
X63341000Y-66877000D01*
X63345000Y-66880000D01*
X63350000Y-66883000D01*
X63354000Y-66886000D01*
X63358000Y-66890000D01*
X63362000Y-66893000D01*
X63365000Y-66897000D01*
X63369000Y-66901000D01*
X63372000Y-66905000D01*
X63375000Y-66910000D01*
X63378000Y-66914000D01*
X63380000Y-66919000D01*
X63382000Y-66923000D01*
X63388000Y-66938000D01*
X63390000Y-66948000D01*
X63390000Y-66954000D01*
X63391000Y-66959000D01*
X63391000Y-66969000D01*
X63390000Y-66974000D01*
X63390000Y-66980000D01*
X63388000Y-66990000D01*
X63382000Y-67005000D01*
X63380000Y-67009000D01*
X63378000Y-67014000D01*
X63375000Y-67018000D01*
X63372000Y-67023000D01*
X63369000Y-67027000D01*
X63365000Y-67031000D01*
X63362000Y-67035000D01*
X63358000Y-67038000D01*
X63354000Y-67042000D01*
X63350000Y-67045000D01*
X63345000Y-67048000D01*
X63341000Y-67051000D01*
X63336000Y-67053000D01*
X63332000Y-67055000D01*
X63317000Y-67061000D01*
X63307000Y-67063000D01*
X63301000Y-67063000D01*
X63296000Y-67064000D01*
X62716000Y-67064000D01*
X62716000Y-66864000D01*
X63296000Y-66864000D01*
X63301000Y-66865000D01*
X64616000Y-69364000D02*
X64616000Y-68789000D01*
X64616000Y-68789000D02*
X64616000Y-68784000D01*
X64616000Y-68784000D02*
X64617000Y-68779000D01*
X64617000Y-68779000D02*
X64617000Y-68773000D01*
X64617000Y-68773000D02*
X64618000Y-68768000D01*
X64618000Y-68768000D02*
X64619000Y-68763000D01*
X64619000Y-68763000D02*
X64621000Y-68758000D01*
X64621000Y-68758000D02*
X64623000Y-68753000D01*
X64623000Y-68753000D02*
X64625000Y-68748000D01*
X64625000Y-68748000D02*
X64627000Y-68744000D01*
X64627000Y-68744000D02*
X64629000Y-68739000D01*
X64629000Y-68739000D02*
X64632000Y-68735000D01*
X64632000Y-68735000D02*
X64635000Y-68730000D01*
X64635000Y-68730000D02*
X64638000Y-68726000D01*
X64638000Y-68726000D02*
X64642000Y-68722000D01*
X64642000Y-68722000D02*
X64645000Y-68718000D01*
X64645000Y-68718000D02*
X64649000Y-68715000D01*
X64649000Y-68715000D02*
X64653000Y-68711000D01*
X64653000Y-68711000D02*
X64657000Y-68708000D01*
X64657000Y-68708000D02*
X64662000Y-68705000D01*
X64662000Y-68705000D02*
X64666000Y-68702000D01*
X64666000Y-68702000D02*
X64671000Y-68700000D01*
X64671000Y-68700000D02*
X64675000Y-68698000D01*
X64675000Y-68698000D02*
X64680000Y-68696000D01*
X64680000Y-68696000D02*
X64685000Y-68694000D01*
X64685000Y-68694000D02*
X64690000Y-68692000D01*
X64690000Y-68692000D02*
X64695000Y-68691000D01*
X64695000Y-68691000D02*
X64700000Y-68690000D01*
X64700000Y-68690000D02*
X64706000Y-68690000D01*
X64706000Y-68690000D02*
X64711000Y-68689000D01*
X64711000Y-68689000D02*
X64716000Y-68689000D01*
X64716000Y-68689000D02*
X64721000Y-68689000D01*
X64721000Y-68689000D02*
X64726000Y-68690000D01*
X64726000Y-68690000D02*
X64732000Y-68690000D01*
X64732000Y-68690000D02*
X64737000Y-68691000D01*
X64737000Y-68691000D02*
X64742000Y-68692000D01*
X64742000Y-68692000D02*
X64747000Y-68694000D01*
X64747000Y-68694000D02*
X64752000Y-68696000D01*
X64752000Y-68696000D02*
X64757000Y-68698000D01*
X64757000Y-68698000D02*
X64761000Y-68700000D01*
X64761000Y-68700000D02*
X64766000Y-68702000D01*
X64766000Y-68702000D02*
X64770000Y-68705000D01*
X64770000Y-68705000D02*
X64775000Y-68708000D01*
X64775000Y-68708000D02*
X64779000Y-68711000D01*
X64779000Y-68711000D02*
X64783000Y-68715000D01*
X64783000Y-68715000D02*
X64787000Y-68718000D01*
X64787000Y-68718000D02*
X64790000Y-68722000D01*
X64790000Y-68722000D02*
X64794000Y-68726000D01*
X64794000Y-68726000D02*
X64797000Y-68730000D01*
X64797000Y-68730000D02*
X64800000Y-68735000D01*
X64800000Y-68735000D02*
X64803000Y-68739000D01*
X64803000Y-68739000D02*
X64805000Y-68744000D01*
X64805000Y-68744000D02*
X64807000Y-68748000D01*
X64807000Y-68748000D02*
X64809000Y-68753000D01*
X64809000Y-68753000D02*
X64811000Y-68758000D01*
X64811000Y-68758000D02*
X64813000Y-68763000D01*
X64813000Y-68763000D02*
X64814000Y-68768000D01*
X64814000Y-68768000D02*
X64815000Y-68773000D01*
X64815000Y-68773000D02*
X64815000Y-68779000D01*
X64815000Y-68779000D02*
X64816000Y-68784000D01*
X64816000Y-68784000D02*
X64816000Y-68789000D01*
X64816000Y-68789000D02*
X64816000Y-69364000D01*
X64816000Y-69364000D02*
X64616000Y-69364000D01*
X64616000Y-69364000D02*
X64616000Y-69364000D01*
G36*
X64726000Y-68690000D02*
G01*
X64732000Y-68690000D01*
X64742000Y-68692000D01*
X64757000Y-68698000D01*
X64761000Y-68700000D01*
X64766000Y-68702000D01*
X64770000Y-68705000D01*
X64775000Y-68708000D01*
X64779000Y-68711000D01*
X64783000Y-68715000D01*
X64787000Y-68718000D01*
X64790000Y-68722000D01*
X64794000Y-68726000D01*
X64797000Y-68730000D01*
X64800000Y-68735000D01*
X64803000Y-68739000D01*
X64805000Y-68744000D01*
X64807000Y-68748000D01*
X64813000Y-68763000D01*
X64815000Y-68773000D01*
X64815000Y-68779000D01*
X64816000Y-68784000D01*
X64816000Y-69364000D01*
X64616000Y-69364000D01*
X64616000Y-68784000D01*
X64617000Y-68779000D01*
X64617000Y-68773000D01*
X64619000Y-68763000D01*
X64625000Y-68748000D01*
X64627000Y-68744000D01*
X64629000Y-68739000D01*
X64632000Y-68735000D01*
X64635000Y-68730000D01*
X64638000Y-68726000D01*
X64642000Y-68722000D01*
X64645000Y-68718000D01*
X64649000Y-68715000D01*
X64653000Y-68711000D01*
X64657000Y-68708000D01*
X64662000Y-68705000D01*
X64666000Y-68702000D01*
X64671000Y-68700000D01*
X64675000Y-68698000D01*
X64690000Y-68692000D01*
X64700000Y-68690000D01*
X64706000Y-68690000D01*
X64711000Y-68689000D01*
X64721000Y-68689000D01*
X64726000Y-68690000D01*
G37*
X64726000Y-68690000D02*
X64732000Y-68690000D01*
X64742000Y-68692000D01*
X64757000Y-68698000D01*
X64761000Y-68700000D01*
X64766000Y-68702000D01*
X64770000Y-68705000D01*
X64775000Y-68708000D01*
X64779000Y-68711000D01*
X64783000Y-68715000D01*
X64787000Y-68718000D01*
X64790000Y-68722000D01*
X64794000Y-68726000D01*
X64797000Y-68730000D01*
X64800000Y-68735000D01*
X64803000Y-68739000D01*
X64805000Y-68744000D01*
X64807000Y-68748000D01*
X64813000Y-68763000D01*
X64815000Y-68773000D01*
X64815000Y-68779000D01*
X64816000Y-68784000D01*
X64816000Y-69364000D01*
X64616000Y-69364000D01*
X64616000Y-68784000D01*
X64617000Y-68779000D01*
X64617000Y-68773000D01*
X64619000Y-68763000D01*
X64625000Y-68748000D01*
X64627000Y-68744000D01*
X64629000Y-68739000D01*
X64632000Y-68735000D01*
X64635000Y-68730000D01*
X64638000Y-68726000D01*
X64642000Y-68722000D01*
X64645000Y-68718000D01*
X64649000Y-68715000D01*
X64653000Y-68711000D01*
X64657000Y-68708000D01*
X64662000Y-68705000D01*
X64666000Y-68702000D01*
X64671000Y-68700000D01*
X64675000Y-68698000D01*
X64690000Y-68692000D01*
X64700000Y-68690000D01*
X64706000Y-68690000D01*
X64711000Y-68689000D01*
X64721000Y-68689000D01*
X64726000Y-68690000D01*
X63816000Y-69364000D02*
X63816000Y-68789000D01*
X63816000Y-68789000D02*
X63816000Y-68784000D01*
X63816000Y-68784000D02*
X63817000Y-68779000D01*
X63817000Y-68779000D02*
X63817000Y-68773000D01*
X63817000Y-68773000D02*
X63818000Y-68768000D01*
X63818000Y-68768000D02*
X63819000Y-68763000D01*
X63819000Y-68763000D02*
X63821000Y-68758000D01*
X63821000Y-68758000D02*
X63823000Y-68753000D01*
X63823000Y-68753000D02*
X63825000Y-68748000D01*
X63825000Y-68748000D02*
X63827000Y-68744000D01*
X63827000Y-68744000D02*
X63829000Y-68739000D01*
X63829000Y-68739000D02*
X63832000Y-68735000D01*
X63832000Y-68735000D02*
X63835000Y-68730000D01*
X63835000Y-68730000D02*
X63838000Y-68726000D01*
X63838000Y-68726000D02*
X63842000Y-68722000D01*
X63842000Y-68722000D02*
X63845000Y-68718000D01*
X63845000Y-68718000D02*
X63849000Y-68715000D01*
X63849000Y-68715000D02*
X63853000Y-68711000D01*
X63853000Y-68711000D02*
X63857000Y-68708000D01*
X63857000Y-68708000D02*
X63862000Y-68705000D01*
X63862000Y-68705000D02*
X63866000Y-68702000D01*
X63866000Y-68702000D02*
X63871000Y-68700000D01*
X63871000Y-68700000D02*
X63875000Y-68698000D01*
X63875000Y-68698000D02*
X63880000Y-68696000D01*
X63880000Y-68696000D02*
X63885000Y-68694000D01*
X63885000Y-68694000D02*
X63890000Y-68692000D01*
X63890000Y-68692000D02*
X63895000Y-68691000D01*
X63895000Y-68691000D02*
X63900000Y-68690000D01*
X63900000Y-68690000D02*
X63906000Y-68690000D01*
X63906000Y-68690000D02*
X63911000Y-68689000D01*
X63911000Y-68689000D02*
X63916000Y-68689000D01*
X63916000Y-68689000D02*
X63921000Y-68689000D01*
X63921000Y-68689000D02*
X63926000Y-68690000D01*
X63926000Y-68690000D02*
X63932000Y-68690000D01*
X63932000Y-68690000D02*
X63937000Y-68691000D01*
X63937000Y-68691000D02*
X63942000Y-68692000D01*
X63942000Y-68692000D02*
X63947000Y-68694000D01*
X63947000Y-68694000D02*
X63952000Y-68696000D01*
X63952000Y-68696000D02*
X63957000Y-68698000D01*
X63957000Y-68698000D02*
X63961000Y-68700000D01*
X63961000Y-68700000D02*
X63966000Y-68702000D01*
X63966000Y-68702000D02*
X63970000Y-68705000D01*
X63970000Y-68705000D02*
X63975000Y-68708000D01*
X63975000Y-68708000D02*
X63979000Y-68711000D01*
X63979000Y-68711000D02*
X63983000Y-68715000D01*
X63983000Y-68715000D02*
X63987000Y-68718000D01*
X63987000Y-68718000D02*
X63990000Y-68722000D01*
X63990000Y-68722000D02*
X63994000Y-68726000D01*
X63994000Y-68726000D02*
X63997000Y-68730000D01*
X63997000Y-68730000D02*
X64000000Y-68735000D01*
X64000000Y-68735000D02*
X64003000Y-68739000D01*
X64003000Y-68739000D02*
X64005000Y-68744000D01*
X64005000Y-68744000D02*
X64007000Y-68748000D01*
X64007000Y-68748000D02*
X64009000Y-68753000D01*
X64009000Y-68753000D02*
X64011000Y-68758000D01*
X64011000Y-68758000D02*
X64013000Y-68763000D01*
X64013000Y-68763000D02*
X64014000Y-68768000D01*
X64014000Y-68768000D02*
X64015000Y-68773000D01*
X64015000Y-68773000D02*
X64015000Y-68779000D01*
X64015000Y-68779000D02*
X64016000Y-68784000D01*
X64016000Y-68784000D02*
X64016000Y-68789000D01*
X64016000Y-68789000D02*
X64016000Y-69364000D01*
X64016000Y-69364000D02*
X63816000Y-69364000D01*
X63816000Y-69364000D02*
X63816000Y-69364000D01*
G36*
X63926000Y-68690000D02*
G01*
X63932000Y-68690000D01*
X63942000Y-68692000D01*
X63957000Y-68698000D01*
X63961000Y-68700000D01*
X63966000Y-68702000D01*
X63970000Y-68705000D01*
X63975000Y-68708000D01*
X63979000Y-68711000D01*
X63983000Y-68715000D01*
X63987000Y-68718000D01*
X63990000Y-68722000D01*
X63994000Y-68726000D01*
X63997000Y-68730000D01*
X64000000Y-68735000D01*
X64003000Y-68739000D01*
X64005000Y-68744000D01*
X64007000Y-68748000D01*
X64013000Y-68763000D01*
X64015000Y-68773000D01*
X64015000Y-68779000D01*
X64016000Y-68784000D01*
X64016000Y-69364000D01*
X63816000Y-69364000D01*
X63816000Y-68784000D01*
X63817000Y-68779000D01*
X63817000Y-68773000D01*
X63819000Y-68763000D01*
X63825000Y-68748000D01*
X63827000Y-68744000D01*
X63829000Y-68739000D01*
X63832000Y-68735000D01*
X63835000Y-68730000D01*
X63838000Y-68726000D01*
X63842000Y-68722000D01*
X63845000Y-68718000D01*
X63849000Y-68715000D01*
X63853000Y-68711000D01*
X63857000Y-68708000D01*
X63862000Y-68705000D01*
X63866000Y-68702000D01*
X63871000Y-68700000D01*
X63875000Y-68698000D01*
X63890000Y-68692000D01*
X63900000Y-68690000D01*
X63906000Y-68690000D01*
X63911000Y-68689000D01*
X63921000Y-68689000D01*
X63926000Y-68690000D01*
G37*
X63926000Y-68690000D02*
X63932000Y-68690000D01*
X63942000Y-68692000D01*
X63957000Y-68698000D01*
X63961000Y-68700000D01*
X63966000Y-68702000D01*
X63970000Y-68705000D01*
X63975000Y-68708000D01*
X63979000Y-68711000D01*
X63983000Y-68715000D01*
X63987000Y-68718000D01*
X63990000Y-68722000D01*
X63994000Y-68726000D01*
X63997000Y-68730000D01*
X64000000Y-68735000D01*
X64003000Y-68739000D01*
X64005000Y-68744000D01*
X64007000Y-68748000D01*
X64013000Y-68763000D01*
X64015000Y-68773000D01*
X64015000Y-68779000D01*
X64016000Y-68784000D01*
X64016000Y-69364000D01*
X63816000Y-69364000D01*
X63816000Y-68784000D01*
X63817000Y-68779000D01*
X63817000Y-68773000D01*
X63819000Y-68763000D01*
X63825000Y-68748000D01*
X63827000Y-68744000D01*
X63829000Y-68739000D01*
X63832000Y-68735000D01*
X63835000Y-68730000D01*
X63838000Y-68726000D01*
X63842000Y-68722000D01*
X63845000Y-68718000D01*
X63849000Y-68715000D01*
X63853000Y-68711000D01*
X63857000Y-68708000D01*
X63862000Y-68705000D01*
X63866000Y-68702000D01*
X63871000Y-68700000D01*
X63875000Y-68698000D01*
X63890000Y-68692000D01*
X63900000Y-68690000D01*
X63906000Y-68690000D01*
X63911000Y-68689000D01*
X63921000Y-68689000D01*
X63926000Y-68690000D01*
X62716000Y-68064000D02*
X63291000Y-68064000D01*
X63291000Y-68064000D02*
X63296000Y-68064000D01*
X63296000Y-68064000D02*
X63301000Y-68065000D01*
X63301000Y-68065000D02*
X63307000Y-68065000D01*
X63307000Y-68065000D02*
X63312000Y-68066000D01*
X63312000Y-68066000D02*
X63317000Y-68067000D01*
X63317000Y-68067000D02*
X63322000Y-68069000D01*
X63322000Y-68069000D02*
X63327000Y-68071000D01*
X63327000Y-68071000D02*
X63332000Y-68073000D01*
X63332000Y-68073000D02*
X63336000Y-68075000D01*
X63336000Y-68075000D02*
X63341000Y-68077000D01*
X63341000Y-68077000D02*
X63345000Y-68080000D01*
X63345000Y-68080000D02*
X63350000Y-68083000D01*
X63350000Y-68083000D02*
X63354000Y-68086000D01*
X63354000Y-68086000D02*
X63358000Y-68090000D01*
X63358000Y-68090000D02*
X63362000Y-68093000D01*
X63362000Y-68093000D02*
X63365000Y-68097000D01*
X63365000Y-68097000D02*
X63369000Y-68101000D01*
X63369000Y-68101000D02*
X63372000Y-68105000D01*
X63372000Y-68105000D02*
X63375000Y-68110000D01*
X63375000Y-68110000D02*
X63378000Y-68114000D01*
X63378000Y-68114000D02*
X63380000Y-68119000D01*
X63380000Y-68119000D02*
X63382000Y-68123000D01*
X63382000Y-68123000D02*
X63384000Y-68128000D01*
X63384000Y-68128000D02*
X63386000Y-68133000D01*
X63386000Y-68133000D02*
X63388000Y-68138000D01*
X63388000Y-68138000D02*
X63389000Y-68143000D01*
X63389000Y-68143000D02*
X63390000Y-68148000D01*
X63390000Y-68148000D02*
X63390000Y-68154000D01*
X63390000Y-68154000D02*
X63391000Y-68159000D01*
X63391000Y-68159000D02*
X63391000Y-68164000D01*
X63391000Y-68164000D02*
X63391000Y-68169000D01*
X63391000Y-68169000D02*
X63390000Y-68174000D01*
X63390000Y-68174000D02*
X63390000Y-68180000D01*
X63390000Y-68180000D02*
X63389000Y-68185000D01*
X63389000Y-68185000D02*
X63388000Y-68190000D01*
X63388000Y-68190000D02*
X63386000Y-68195000D01*
X63386000Y-68195000D02*
X63384000Y-68200000D01*
X63384000Y-68200000D02*
X63382000Y-68205000D01*
X63382000Y-68205000D02*
X63380000Y-68209000D01*
X63380000Y-68209000D02*
X63378000Y-68214000D01*
X63378000Y-68214000D02*
X63375000Y-68218000D01*
X63375000Y-68218000D02*
X63372000Y-68223000D01*
X63372000Y-68223000D02*
X63369000Y-68227000D01*
X63369000Y-68227000D02*
X63365000Y-68231000D01*
X63365000Y-68231000D02*
X63362000Y-68235000D01*
X63362000Y-68235000D02*
X63358000Y-68238000D01*
X63358000Y-68238000D02*
X63354000Y-68242000D01*
X63354000Y-68242000D02*
X63350000Y-68245000D01*
X63350000Y-68245000D02*
X63345000Y-68248000D01*
X63345000Y-68248000D02*
X63341000Y-68251000D01*
X63341000Y-68251000D02*
X63336000Y-68253000D01*
X63336000Y-68253000D02*
X63332000Y-68255000D01*
X63332000Y-68255000D02*
X63327000Y-68257000D01*
X63327000Y-68257000D02*
X63322000Y-68259000D01*
X63322000Y-68259000D02*
X63317000Y-68261000D01*
X63317000Y-68261000D02*
X63312000Y-68262000D01*
X63312000Y-68262000D02*
X63307000Y-68263000D01*
X63307000Y-68263000D02*
X63301000Y-68263000D01*
X63301000Y-68263000D02*
X63296000Y-68264000D01*
X63296000Y-68264000D02*
X63291000Y-68264000D01*
X63291000Y-68264000D02*
X62716000Y-68264000D01*
X62716000Y-68264000D02*
X62716000Y-68064000D01*
X62716000Y-68064000D02*
X62716000Y-68064000D01*
G36*
X63301000Y-68065000D02*
G01*
X63307000Y-68065000D01*
X63317000Y-68067000D01*
X63332000Y-68073000D01*
X63336000Y-68075000D01*
X63341000Y-68077000D01*
X63345000Y-68080000D01*
X63350000Y-68083000D01*
X63354000Y-68086000D01*
X63358000Y-68090000D01*
X63362000Y-68093000D01*
X63365000Y-68097000D01*
X63369000Y-68101000D01*
X63372000Y-68105000D01*
X63375000Y-68110000D01*
X63378000Y-68114000D01*
X63380000Y-68119000D01*
X63382000Y-68123000D01*
X63388000Y-68138000D01*
X63390000Y-68148000D01*
X63390000Y-68154000D01*
X63391000Y-68159000D01*
X63391000Y-68169000D01*
X63390000Y-68174000D01*
X63390000Y-68180000D01*
X63388000Y-68190000D01*
X63382000Y-68205000D01*
X63380000Y-68209000D01*
X63378000Y-68214000D01*
X63375000Y-68218000D01*
X63372000Y-68223000D01*
X63369000Y-68227000D01*
X63365000Y-68231000D01*
X63362000Y-68235000D01*
X63358000Y-68238000D01*
X63354000Y-68242000D01*
X63350000Y-68245000D01*
X63345000Y-68248000D01*
X63341000Y-68251000D01*
X63336000Y-68253000D01*
X63332000Y-68255000D01*
X63317000Y-68261000D01*
X63307000Y-68263000D01*
X63301000Y-68263000D01*
X63296000Y-68264000D01*
X62716000Y-68264000D01*
X62716000Y-68064000D01*
X63296000Y-68064000D01*
X63301000Y-68065000D01*
G37*
X63301000Y-68065000D02*
X63307000Y-68065000D01*
X63317000Y-68067000D01*
X63332000Y-68073000D01*
X63336000Y-68075000D01*
X63341000Y-68077000D01*
X63345000Y-68080000D01*
X63350000Y-68083000D01*
X63354000Y-68086000D01*
X63358000Y-68090000D01*
X63362000Y-68093000D01*
X63365000Y-68097000D01*
X63369000Y-68101000D01*
X63372000Y-68105000D01*
X63375000Y-68110000D01*
X63378000Y-68114000D01*
X63380000Y-68119000D01*
X63382000Y-68123000D01*
X63388000Y-68138000D01*
X63390000Y-68148000D01*
X63390000Y-68154000D01*
X63391000Y-68159000D01*
X63391000Y-68169000D01*
X63390000Y-68174000D01*
X63390000Y-68180000D01*
X63388000Y-68190000D01*
X63382000Y-68205000D01*
X63380000Y-68209000D01*
X63378000Y-68214000D01*
X63375000Y-68218000D01*
X63372000Y-68223000D01*
X63369000Y-68227000D01*
X63365000Y-68231000D01*
X63362000Y-68235000D01*
X63358000Y-68238000D01*
X63354000Y-68242000D01*
X63350000Y-68245000D01*
X63345000Y-68248000D01*
X63341000Y-68251000D01*
X63336000Y-68253000D01*
X63332000Y-68255000D01*
X63317000Y-68261000D01*
X63307000Y-68263000D01*
X63301000Y-68263000D01*
X63296000Y-68264000D01*
X62716000Y-68264000D01*
X62716000Y-68064000D01*
X63296000Y-68064000D01*
X63301000Y-68065000D01*
X64216000Y-69364000D02*
X64216000Y-68139000D01*
X64216000Y-68139000D02*
X64216000Y-68134000D01*
X64216000Y-68134000D02*
X64217000Y-68129000D01*
X64217000Y-68129000D02*
X64217000Y-68123000D01*
X64217000Y-68123000D02*
X64218000Y-68118000D01*
X64218000Y-68118000D02*
X64219000Y-68113000D01*
X64219000Y-68113000D02*
X64221000Y-68108000D01*
X64221000Y-68108000D02*
X64223000Y-68103000D01*
X64223000Y-68103000D02*
X64225000Y-68098000D01*
X64225000Y-68098000D02*
X64227000Y-68094000D01*
X64227000Y-68094000D02*
X64229000Y-68089000D01*
X64229000Y-68089000D02*
X64232000Y-68085000D01*
X64232000Y-68085000D02*
X64235000Y-68080000D01*
X64235000Y-68080000D02*
X64238000Y-68076000D01*
X64238000Y-68076000D02*
X64242000Y-68072000D01*
X64242000Y-68072000D02*
X64245000Y-68068000D01*
X64245000Y-68068000D02*
X64249000Y-68065000D01*
X64249000Y-68065000D02*
X64253000Y-68061000D01*
X64253000Y-68061000D02*
X64257000Y-68058000D01*
X64257000Y-68058000D02*
X64262000Y-68055000D01*
X64262000Y-68055000D02*
X64266000Y-68052000D01*
X64266000Y-68052000D02*
X64271000Y-68050000D01*
X64271000Y-68050000D02*
X64275000Y-68048000D01*
X64275000Y-68048000D02*
X64280000Y-68046000D01*
X64280000Y-68046000D02*
X64285000Y-68044000D01*
X64285000Y-68044000D02*
X64290000Y-68042000D01*
X64290000Y-68042000D02*
X64295000Y-68041000D01*
X64295000Y-68041000D02*
X64300000Y-68040000D01*
X64300000Y-68040000D02*
X64306000Y-68040000D01*
X64306000Y-68040000D02*
X64311000Y-68039000D01*
X64311000Y-68039000D02*
X64316000Y-68039000D01*
X64316000Y-68039000D02*
X64321000Y-68039000D01*
X64321000Y-68039000D02*
X64326000Y-68040000D01*
X64326000Y-68040000D02*
X64332000Y-68040000D01*
X64332000Y-68040000D02*
X64337000Y-68041000D01*
X64337000Y-68041000D02*
X64342000Y-68042000D01*
X64342000Y-68042000D02*
X64347000Y-68044000D01*
X64347000Y-68044000D02*
X64352000Y-68046000D01*
X64352000Y-68046000D02*
X64357000Y-68048000D01*
X64357000Y-68048000D02*
X64361000Y-68050000D01*
X64361000Y-68050000D02*
X64366000Y-68052000D01*
X64366000Y-68052000D02*
X64370000Y-68055000D01*
X64370000Y-68055000D02*
X64375000Y-68058000D01*
X64375000Y-68058000D02*
X64379000Y-68061000D01*
X64379000Y-68061000D02*
X64383000Y-68065000D01*
X64383000Y-68065000D02*
X64387000Y-68068000D01*
X64387000Y-68068000D02*
X64390000Y-68072000D01*
X64390000Y-68072000D02*
X64394000Y-68076000D01*
X64394000Y-68076000D02*
X64397000Y-68080000D01*
X64397000Y-68080000D02*
X64400000Y-68085000D01*
X64400000Y-68085000D02*
X64403000Y-68089000D01*
X64403000Y-68089000D02*
X64405000Y-68094000D01*
X64405000Y-68094000D02*
X64407000Y-68098000D01*
X64407000Y-68098000D02*
X64409000Y-68103000D01*
X64409000Y-68103000D02*
X64411000Y-68108000D01*
X64411000Y-68108000D02*
X64413000Y-68113000D01*
X64413000Y-68113000D02*
X64414000Y-68118000D01*
X64414000Y-68118000D02*
X64415000Y-68123000D01*
X64415000Y-68123000D02*
X64415000Y-68129000D01*
X64415000Y-68129000D02*
X64416000Y-68134000D01*
X64416000Y-68134000D02*
X64416000Y-68139000D01*
X64416000Y-68139000D02*
X64416000Y-69364000D01*
X64416000Y-69364000D02*
X64216000Y-69364000D01*
X64216000Y-69364000D02*
X64216000Y-69364000D01*
G36*
X64326000Y-68040000D02*
G01*
X64332000Y-68040000D01*
X64342000Y-68042000D01*
X64357000Y-68048000D01*
X64361000Y-68050000D01*
X64366000Y-68052000D01*
X64370000Y-68055000D01*
X64375000Y-68058000D01*
X64379000Y-68061000D01*
X64383000Y-68065000D01*
X64387000Y-68068000D01*
X64390000Y-68072000D01*
X64394000Y-68076000D01*
X64397000Y-68080000D01*
X64400000Y-68085000D01*
X64403000Y-68089000D01*
X64405000Y-68094000D01*
X64407000Y-68098000D01*
X64413000Y-68113000D01*
X64415000Y-68123000D01*
X64415000Y-68129000D01*
X64416000Y-68134000D01*
X64416000Y-69364000D01*
X64216000Y-69364000D01*
X64216000Y-68134000D01*
X64217000Y-68129000D01*
X64217000Y-68123000D01*
X64219000Y-68113000D01*
X64225000Y-68098000D01*
X64227000Y-68094000D01*
X64229000Y-68089000D01*
X64232000Y-68085000D01*
X64235000Y-68080000D01*
X64238000Y-68076000D01*
X64242000Y-68072000D01*
X64245000Y-68068000D01*
X64249000Y-68065000D01*
X64253000Y-68061000D01*
X64257000Y-68058000D01*
X64262000Y-68055000D01*
X64266000Y-68052000D01*
X64271000Y-68050000D01*
X64275000Y-68048000D01*
X64290000Y-68042000D01*
X64300000Y-68040000D01*
X64306000Y-68040000D01*
X64311000Y-68039000D01*
X64321000Y-68039000D01*
X64326000Y-68040000D01*
G37*
X64326000Y-68040000D02*
X64332000Y-68040000D01*
X64342000Y-68042000D01*
X64357000Y-68048000D01*
X64361000Y-68050000D01*
X64366000Y-68052000D01*
X64370000Y-68055000D01*
X64375000Y-68058000D01*
X64379000Y-68061000D01*
X64383000Y-68065000D01*
X64387000Y-68068000D01*
X64390000Y-68072000D01*
X64394000Y-68076000D01*
X64397000Y-68080000D01*
X64400000Y-68085000D01*
X64403000Y-68089000D01*
X64405000Y-68094000D01*
X64407000Y-68098000D01*
X64413000Y-68113000D01*
X64415000Y-68123000D01*
X64415000Y-68129000D01*
X64416000Y-68134000D01*
X64416000Y-69364000D01*
X64216000Y-69364000D01*
X64216000Y-68134000D01*
X64217000Y-68129000D01*
X64217000Y-68123000D01*
X64219000Y-68113000D01*
X64225000Y-68098000D01*
X64227000Y-68094000D01*
X64229000Y-68089000D01*
X64232000Y-68085000D01*
X64235000Y-68080000D01*
X64238000Y-68076000D01*
X64242000Y-68072000D01*
X64245000Y-68068000D01*
X64249000Y-68065000D01*
X64253000Y-68061000D01*
X64257000Y-68058000D01*
X64262000Y-68055000D01*
X64266000Y-68052000D01*
X64271000Y-68050000D01*
X64275000Y-68048000D01*
X64290000Y-68042000D01*
X64300000Y-68040000D01*
X64306000Y-68040000D01*
X64311000Y-68039000D01*
X64321000Y-68039000D01*
X64326000Y-68040000D01*
X66316000Y-67864000D02*
X64841000Y-67864000D01*
X64841000Y-67864000D02*
X64836000Y-67864000D01*
X64836000Y-67864000D02*
X64831000Y-67863000D01*
X64831000Y-67863000D02*
X64825000Y-67863000D01*
X64825000Y-67863000D02*
X64820000Y-67862000D01*
X64820000Y-67862000D02*
X64815000Y-67861000D01*
X64815000Y-67861000D02*
X64810000Y-67859000D01*
X64810000Y-67859000D02*
X64805000Y-67857000D01*
X64805000Y-67857000D02*
X64800000Y-67855000D01*
X64800000Y-67855000D02*
X64796000Y-67853000D01*
X64796000Y-67853000D02*
X64791000Y-67851000D01*
X64791000Y-67851000D02*
X64787000Y-67848000D01*
X64787000Y-67848000D02*
X64782000Y-67845000D01*
X64782000Y-67845000D02*
X64778000Y-67842000D01*
X64778000Y-67842000D02*
X64774000Y-67838000D01*
X64774000Y-67838000D02*
X64770000Y-67835000D01*
X64770000Y-67835000D02*
X64767000Y-67831000D01*
X64767000Y-67831000D02*
X64763000Y-67827000D01*
X64763000Y-67827000D02*
X64760000Y-67823000D01*
X64760000Y-67823000D02*
X64757000Y-67818000D01*
X64757000Y-67818000D02*
X64754000Y-67814000D01*
X64754000Y-67814000D02*
X64752000Y-67809000D01*
X64752000Y-67809000D02*
X64750000Y-67805000D01*
X64750000Y-67805000D02*
X64748000Y-67800000D01*
X64748000Y-67800000D02*
X64746000Y-67795000D01*
X64746000Y-67795000D02*
X64744000Y-67790000D01*
X64744000Y-67790000D02*
X64743000Y-67785000D01*
X64743000Y-67785000D02*
X64742000Y-67780000D01*
X64742000Y-67780000D02*
X64742000Y-67774000D01*
X64742000Y-67774000D02*
X64741000Y-67769000D01*
X64741000Y-67769000D02*
X64741000Y-67764000D01*
X64741000Y-67764000D02*
X64741000Y-67714000D01*
X64741000Y-67714000D02*
X64741000Y-67709000D01*
X64741000Y-67709000D02*
X64742000Y-67704000D01*
X64742000Y-67704000D02*
X64742000Y-67698000D01*
X64742000Y-67698000D02*
X64743000Y-67693000D01*
X64743000Y-67693000D02*
X64744000Y-67688000D01*
X64744000Y-67688000D02*
X64746000Y-67683000D01*
X64746000Y-67683000D02*
X64748000Y-67678000D01*
X64748000Y-67678000D02*
X64750000Y-67673000D01*
X64750000Y-67673000D02*
X64752000Y-67669000D01*
X64752000Y-67669000D02*
X64754000Y-67664000D01*
X64754000Y-67664000D02*
X64757000Y-67660000D01*
X64757000Y-67660000D02*
X64760000Y-67655000D01*
X64760000Y-67655000D02*
X64763000Y-67651000D01*
X64763000Y-67651000D02*
X64767000Y-67647000D01*
X64767000Y-67647000D02*
X64770000Y-67643000D01*
X64770000Y-67643000D02*
X64774000Y-67640000D01*
X64774000Y-67640000D02*
X64778000Y-67636000D01*
X64778000Y-67636000D02*
X64782000Y-67633000D01*
X64782000Y-67633000D02*
X64787000Y-67630000D01*
X64787000Y-67630000D02*
X64791000Y-67627000D01*
X64791000Y-67627000D02*
X64796000Y-67625000D01*
X64796000Y-67625000D02*
X64800000Y-67623000D01*
X64800000Y-67623000D02*
X64805000Y-67621000D01*
X64805000Y-67621000D02*
X64810000Y-67619000D01*
X64810000Y-67619000D02*
X64815000Y-67617000D01*
X64815000Y-67617000D02*
X64820000Y-67616000D01*
X64820000Y-67616000D02*
X64825000Y-67615000D01*
X64825000Y-67615000D02*
X64831000Y-67615000D01*
X64831000Y-67615000D02*
X64836000Y-67614000D01*
X64836000Y-67614000D02*
X64841000Y-67614000D01*
X64841000Y-67614000D02*
X65666000Y-67614000D01*
X65666000Y-67614000D02*
X65666000Y-67364000D01*
X65666000Y-67364000D02*
X65666000Y-67359000D01*
X65666000Y-67359000D02*
X65667000Y-67354000D01*
X65667000Y-67354000D02*
X65667000Y-67348000D01*
X65667000Y-67348000D02*
X65668000Y-67343000D01*
X65668000Y-67343000D02*
X65669000Y-67338000D01*
X65669000Y-67338000D02*
X65671000Y-67333000D01*
X65671000Y-67333000D02*
X65673000Y-67328000D01*
X65673000Y-67328000D02*
X65675000Y-67323000D01*
X65675000Y-67323000D02*
X65677000Y-67319000D01*
X65677000Y-67319000D02*
X65679000Y-67314000D01*
X65679000Y-67314000D02*
X65682000Y-67310000D01*
X65682000Y-67310000D02*
X65685000Y-67305000D01*
X65685000Y-67305000D02*
X65688000Y-67301000D01*
X65688000Y-67301000D02*
X65692000Y-67297000D01*
X65692000Y-67297000D02*
X65695000Y-67293000D01*
X65695000Y-67293000D02*
X65699000Y-67290000D01*
X65699000Y-67290000D02*
X65703000Y-67286000D01*
X65703000Y-67286000D02*
X65707000Y-67283000D01*
X65707000Y-67283000D02*
X65712000Y-67280000D01*
X65712000Y-67280000D02*
X65716000Y-67277000D01*
X65716000Y-67277000D02*
X65721000Y-67275000D01*
X65721000Y-67275000D02*
X65725000Y-67273000D01*
X65725000Y-67273000D02*
X65730000Y-67271000D01*
X65730000Y-67271000D02*
X65735000Y-67269000D01*
X65735000Y-67269000D02*
X65740000Y-67267000D01*
X65740000Y-67267000D02*
X65745000Y-67266000D01*
X65745000Y-67266000D02*
X65750000Y-67265000D01*
X65750000Y-67265000D02*
X65756000Y-67265000D01*
X65756000Y-67265000D02*
X65761000Y-67264000D01*
X65761000Y-67264000D02*
X65766000Y-67264000D01*
X65766000Y-67264000D02*
X66316000Y-67264000D01*
X66316000Y-67264000D02*
X66316000Y-67864000D01*
X66316000Y-67864000D02*
X66316000Y-67864000D01*
G36*
X66316000Y-67864000D02*
G01*
X64836000Y-67864000D01*
X64831000Y-67863000D01*
X64825000Y-67863000D01*
X64815000Y-67861000D01*
X64800000Y-67855000D01*
X64796000Y-67853000D01*
X64791000Y-67851000D01*
X64787000Y-67848000D01*
X64782000Y-67845000D01*
X64778000Y-67842000D01*
X64774000Y-67838000D01*
X64770000Y-67835000D01*
X64767000Y-67831000D01*
X64763000Y-67827000D01*
X64760000Y-67823000D01*
X64757000Y-67818000D01*
X64754000Y-67814000D01*
X64752000Y-67809000D01*
X64750000Y-67805000D01*
X64744000Y-67790000D01*
X64742000Y-67780000D01*
X64742000Y-67774000D01*
X64741000Y-67769000D01*
X64741000Y-67709000D01*
X64742000Y-67704000D01*
X64742000Y-67698000D01*
X64744000Y-67688000D01*
X64750000Y-67673000D01*
X64752000Y-67669000D01*
X64754000Y-67664000D01*
X64757000Y-67660000D01*
X64760000Y-67655000D01*
X64763000Y-67651000D01*
X64767000Y-67647000D01*
X64770000Y-67643000D01*
X64774000Y-67640000D01*
X64778000Y-67636000D01*
X64782000Y-67633000D01*
X64787000Y-67630000D01*
X64791000Y-67627000D01*
X64796000Y-67625000D01*
X64800000Y-67623000D01*
X64815000Y-67617000D01*
X64825000Y-67615000D01*
X64831000Y-67615000D01*
X64836000Y-67614000D01*
X65666000Y-67614000D01*
X65666000Y-67359000D01*
X65667000Y-67354000D01*
X65667000Y-67348000D01*
X65669000Y-67338000D01*
X65675000Y-67323000D01*
X65677000Y-67319000D01*
X65679000Y-67314000D01*
X65682000Y-67310000D01*
X65685000Y-67305000D01*
X65688000Y-67301000D01*
X65692000Y-67297000D01*
X65695000Y-67293000D01*
X65699000Y-67290000D01*
X65703000Y-67286000D01*
X65707000Y-67283000D01*
X65712000Y-67280000D01*
X65716000Y-67277000D01*
X65721000Y-67275000D01*
X65725000Y-67273000D01*
X65740000Y-67267000D01*
X65750000Y-67265000D01*
X65756000Y-67265000D01*
X65761000Y-67264000D01*
X66316000Y-67264000D01*
X66316000Y-67864000D01*
G37*
X66316000Y-67864000D02*
X64836000Y-67864000D01*
X64831000Y-67863000D01*
X64825000Y-67863000D01*
X64815000Y-67861000D01*
X64800000Y-67855000D01*
X64796000Y-67853000D01*
X64791000Y-67851000D01*
X64787000Y-67848000D01*
X64782000Y-67845000D01*
X64778000Y-67842000D01*
X64774000Y-67838000D01*
X64770000Y-67835000D01*
X64767000Y-67831000D01*
X64763000Y-67827000D01*
X64760000Y-67823000D01*
X64757000Y-67818000D01*
X64754000Y-67814000D01*
X64752000Y-67809000D01*
X64750000Y-67805000D01*
X64744000Y-67790000D01*
X64742000Y-67780000D01*
X64742000Y-67774000D01*
X64741000Y-67769000D01*
X64741000Y-67709000D01*
X64742000Y-67704000D01*
X64742000Y-67698000D01*
X64744000Y-67688000D01*
X64750000Y-67673000D01*
X64752000Y-67669000D01*
X64754000Y-67664000D01*
X64757000Y-67660000D01*
X64760000Y-67655000D01*
X64763000Y-67651000D01*
X64767000Y-67647000D01*
X64770000Y-67643000D01*
X64774000Y-67640000D01*
X64778000Y-67636000D01*
X64782000Y-67633000D01*
X64787000Y-67630000D01*
X64791000Y-67627000D01*
X64796000Y-67625000D01*
X64800000Y-67623000D01*
X64815000Y-67617000D01*
X64825000Y-67615000D01*
X64831000Y-67615000D01*
X64836000Y-67614000D01*
X65666000Y-67614000D01*
X65666000Y-67359000D01*
X65667000Y-67354000D01*
X65667000Y-67348000D01*
X65669000Y-67338000D01*
X65675000Y-67323000D01*
X65677000Y-67319000D01*
X65679000Y-67314000D01*
X65682000Y-67310000D01*
X65685000Y-67305000D01*
X65688000Y-67301000D01*
X65692000Y-67297000D01*
X65695000Y-67293000D01*
X65699000Y-67290000D01*
X65703000Y-67286000D01*
X65707000Y-67283000D01*
X65712000Y-67280000D01*
X65716000Y-67277000D01*
X65721000Y-67275000D01*
X65725000Y-67273000D01*
X65740000Y-67267000D01*
X65750000Y-67265000D01*
X65756000Y-67265000D01*
X65761000Y-67264000D01*
X66316000Y-67264000D01*
X66316000Y-67864000D01*
X64016000Y-65764000D02*
X64016000Y-66739000D01*
X64016000Y-66739000D02*
X64016000Y-66744000D01*
X64016000Y-66744000D02*
X64015000Y-66749000D01*
X64015000Y-66749000D02*
X64015000Y-66755000D01*
X64015000Y-66755000D02*
X64014000Y-66760000D01*
X64014000Y-66760000D02*
X64013000Y-66765000D01*
X64013000Y-66765000D02*
X64011000Y-66770000D01*
X64011000Y-66770000D02*
X64009000Y-66775000D01*
X64009000Y-66775000D02*
X64007000Y-66780000D01*
X64007000Y-66780000D02*
X64005000Y-66784000D01*
X64005000Y-66784000D02*
X64003000Y-66789000D01*
X64003000Y-66789000D02*
X64000000Y-66793000D01*
X64000000Y-66793000D02*
X63997000Y-66798000D01*
X63997000Y-66798000D02*
X63994000Y-66802000D01*
X63994000Y-66802000D02*
X63990000Y-66806000D01*
X63990000Y-66806000D02*
X63987000Y-66810000D01*
X63987000Y-66810000D02*
X63983000Y-66813000D01*
X63983000Y-66813000D02*
X63979000Y-66817000D01*
X63979000Y-66817000D02*
X63975000Y-66820000D01*
X63975000Y-66820000D02*
X63970000Y-66823000D01*
X63970000Y-66823000D02*
X63966000Y-66826000D01*
X63966000Y-66826000D02*
X63961000Y-66828000D01*
X63961000Y-66828000D02*
X63957000Y-66830000D01*
X63957000Y-66830000D02*
X63952000Y-66832000D01*
X63952000Y-66832000D02*
X63947000Y-66834000D01*
X63947000Y-66834000D02*
X63942000Y-66836000D01*
X63942000Y-66836000D02*
X63937000Y-66837000D01*
X63937000Y-66837000D02*
X63932000Y-66838000D01*
X63932000Y-66838000D02*
X63926000Y-66838000D01*
X63926000Y-66838000D02*
X63921000Y-66839000D01*
X63921000Y-66839000D02*
X63916000Y-66839000D01*
X63916000Y-66839000D02*
X63866000Y-66839000D01*
X63866000Y-66839000D02*
X63861000Y-66839000D01*
X63861000Y-66839000D02*
X63856000Y-66838000D01*
X63856000Y-66838000D02*
X63850000Y-66838000D01*
X63850000Y-66838000D02*
X63845000Y-66837000D01*
X63845000Y-66837000D02*
X63840000Y-66836000D01*
X63840000Y-66836000D02*
X63835000Y-66834000D01*
X63835000Y-66834000D02*
X63830000Y-66832000D01*
X63830000Y-66832000D02*
X63825000Y-66830000D01*
X63825000Y-66830000D02*
X63821000Y-66828000D01*
X63821000Y-66828000D02*
X63816000Y-66826000D01*
X63816000Y-66826000D02*
X63812000Y-66823000D01*
X63812000Y-66823000D02*
X63807000Y-66820000D01*
X63807000Y-66820000D02*
X63803000Y-66817000D01*
X63803000Y-66817000D02*
X63799000Y-66813000D01*
X63799000Y-66813000D02*
X63795000Y-66810000D01*
X63795000Y-66810000D02*
X63792000Y-66806000D01*
X63792000Y-66806000D02*
X63788000Y-66802000D01*
X63788000Y-66802000D02*
X63785000Y-66798000D01*
X63785000Y-66798000D02*
X63782000Y-66793000D01*
X63782000Y-66793000D02*
X63779000Y-66789000D01*
X63779000Y-66789000D02*
X63777000Y-66784000D01*
X63777000Y-66784000D02*
X63775000Y-66780000D01*
X63775000Y-66780000D02*
X63773000Y-66775000D01*
X63773000Y-66775000D02*
X63771000Y-66770000D01*
X63771000Y-66770000D02*
X63769000Y-66765000D01*
X63769000Y-66765000D02*
X63768000Y-66760000D01*
X63768000Y-66760000D02*
X63767000Y-66755000D01*
X63767000Y-66755000D02*
X63767000Y-66749000D01*
X63767000Y-66749000D02*
X63766000Y-66744000D01*
X63766000Y-66744000D02*
X63766000Y-66739000D01*
X63766000Y-66739000D02*
X63766000Y-66364000D01*
X63766000Y-66364000D02*
X63528000Y-66364000D01*
X63528000Y-66364000D02*
X63416000Y-66252000D01*
X63416000Y-66252000D02*
X63416000Y-65764000D01*
X63416000Y-65764000D02*
X64016000Y-65764000D01*
X64016000Y-65764000D02*
X64016000Y-65764000D01*
G36*
X64016000Y-66744000D02*
G01*
X64015000Y-66749000D01*
X64015000Y-66755000D01*
X64013000Y-66765000D01*
X64007000Y-66780000D01*
X64005000Y-66784000D01*
X64003000Y-66789000D01*
X64000000Y-66793000D01*
X63997000Y-66798000D01*
X63994000Y-66802000D01*
X63990000Y-66806000D01*
X63987000Y-66810000D01*
X63983000Y-66813000D01*
X63979000Y-66817000D01*
X63975000Y-66820000D01*
X63970000Y-66823000D01*
X63966000Y-66826000D01*
X63961000Y-66828000D01*
X63957000Y-66830000D01*
X63942000Y-66836000D01*
X63932000Y-66838000D01*
X63926000Y-66838000D01*
X63921000Y-66839000D01*
X63861000Y-66839000D01*
X63856000Y-66838000D01*
X63850000Y-66838000D01*
X63840000Y-66836000D01*
X63825000Y-66830000D01*
X63821000Y-66828000D01*
X63816000Y-66826000D01*
X63812000Y-66823000D01*
X63807000Y-66820000D01*
X63803000Y-66817000D01*
X63799000Y-66813000D01*
X63795000Y-66810000D01*
X63792000Y-66806000D01*
X63788000Y-66802000D01*
X63785000Y-66798000D01*
X63782000Y-66793000D01*
X63779000Y-66789000D01*
X63777000Y-66784000D01*
X63775000Y-66780000D01*
X63769000Y-66765000D01*
X63767000Y-66755000D01*
X63767000Y-66749000D01*
X63766000Y-66744000D01*
X63766000Y-66364000D01*
X63528000Y-66364000D01*
X63416000Y-66252000D01*
X63416000Y-65764000D01*
X64016000Y-65764000D01*
X64016000Y-66744000D01*
G37*
X64016000Y-66744000D02*
X64015000Y-66749000D01*
X64015000Y-66755000D01*
X64013000Y-66765000D01*
X64007000Y-66780000D01*
X64005000Y-66784000D01*
X64003000Y-66789000D01*
X64000000Y-66793000D01*
X63997000Y-66798000D01*
X63994000Y-66802000D01*
X63990000Y-66806000D01*
X63987000Y-66810000D01*
X63983000Y-66813000D01*
X63979000Y-66817000D01*
X63975000Y-66820000D01*
X63970000Y-66823000D01*
X63966000Y-66826000D01*
X63961000Y-66828000D01*
X63957000Y-66830000D01*
X63942000Y-66836000D01*
X63932000Y-66838000D01*
X63926000Y-66838000D01*
X63921000Y-66839000D01*
X63861000Y-66839000D01*
X63856000Y-66838000D01*
X63850000Y-66838000D01*
X63840000Y-66836000D01*
X63825000Y-66830000D01*
X63821000Y-66828000D01*
X63816000Y-66826000D01*
X63812000Y-66823000D01*
X63807000Y-66820000D01*
X63803000Y-66817000D01*
X63799000Y-66813000D01*
X63795000Y-66810000D01*
X63792000Y-66806000D01*
X63788000Y-66802000D01*
X63785000Y-66798000D01*
X63782000Y-66793000D01*
X63779000Y-66789000D01*
X63777000Y-66784000D01*
X63775000Y-66780000D01*
X63769000Y-66765000D01*
X63767000Y-66755000D01*
X63767000Y-66749000D01*
X63766000Y-66744000D01*
X63766000Y-66364000D01*
X63528000Y-66364000D01*
X63416000Y-66252000D01*
X63416000Y-65764000D01*
X64016000Y-65764000D01*
X64016000Y-66744000D01*
X65216000Y-65764000D02*
X65216000Y-66739000D01*
X65216000Y-66739000D02*
X65216000Y-66744000D01*
X65216000Y-66744000D02*
X65215000Y-66749000D01*
X65215000Y-66749000D02*
X65215000Y-66755000D01*
X65215000Y-66755000D02*
X65214000Y-66760000D01*
X65214000Y-66760000D02*
X65213000Y-66765000D01*
X65213000Y-66765000D02*
X65211000Y-66770000D01*
X65211000Y-66770000D02*
X65209000Y-66775000D01*
X65209000Y-66775000D02*
X65207000Y-66780000D01*
X65207000Y-66780000D02*
X65205000Y-66784000D01*
X65205000Y-66784000D02*
X65203000Y-66789000D01*
X65203000Y-66789000D02*
X65200000Y-66793000D01*
X65200000Y-66793000D02*
X65197000Y-66798000D01*
X65197000Y-66798000D02*
X65194000Y-66802000D01*
X65194000Y-66802000D02*
X65190000Y-66806000D01*
X65190000Y-66806000D02*
X65187000Y-66810000D01*
X65187000Y-66810000D02*
X65183000Y-66813000D01*
X65183000Y-66813000D02*
X65179000Y-66817000D01*
X65179000Y-66817000D02*
X65175000Y-66820000D01*
X65175000Y-66820000D02*
X65170000Y-66823000D01*
X65170000Y-66823000D02*
X65166000Y-66826000D01*
X65166000Y-66826000D02*
X65161000Y-66828000D01*
X65161000Y-66828000D02*
X65157000Y-66830000D01*
X65157000Y-66830000D02*
X65152000Y-66832000D01*
X65152000Y-66832000D02*
X65147000Y-66834000D01*
X65147000Y-66834000D02*
X65142000Y-66836000D01*
X65142000Y-66836000D02*
X65137000Y-66837000D01*
X65137000Y-66837000D02*
X65132000Y-66838000D01*
X65132000Y-66838000D02*
X65126000Y-66838000D01*
X65126000Y-66838000D02*
X65121000Y-66839000D01*
X65121000Y-66839000D02*
X65116000Y-66839000D01*
X65116000Y-66839000D02*
X64716000Y-66839000D01*
X64716000Y-66839000D02*
X64711000Y-66839000D01*
X64711000Y-66839000D02*
X64706000Y-66838000D01*
X64706000Y-66838000D02*
X64700000Y-66838000D01*
X64700000Y-66838000D02*
X64695000Y-66837000D01*
X64695000Y-66837000D02*
X64690000Y-66836000D01*
X64690000Y-66836000D02*
X64685000Y-66834000D01*
X64685000Y-66834000D02*
X64680000Y-66832000D01*
X64680000Y-66832000D02*
X64675000Y-66830000D01*
X64675000Y-66830000D02*
X64671000Y-66828000D01*
X64671000Y-66828000D02*
X64666000Y-66826000D01*
X64666000Y-66826000D02*
X64662000Y-66823000D01*
X64662000Y-66823000D02*
X64657000Y-66820000D01*
X64657000Y-66820000D02*
X64653000Y-66817000D01*
X64653000Y-66817000D02*
X64649000Y-66813000D01*
X64649000Y-66813000D02*
X64645000Y-66810000D01*
X64645000Y-66810000D02*
X64642000Y-66806000D01*
X64642000Y-66806000D02*
X64638000Y-66802000D01*
X64638000Y-66802000D02*
X64635000Y-66798000D01*
X64635000Y-66798000D02*
X64632000Y-66793000D01*
X64632000Y-66793000D02*
X64629000Y-66789000D01*
X64629000Y-66789000D02*
X64627000Y-66784000D01*
X64627000Y-66784000D02*
X64625000Y-66780000D01*
X64625000Y-66780000D02*
X64623000Y-66775000D01*
X64623000Y-66775000D02*
X64621000Y-66770000D01*
X64621000Y-66770000D02*
X64619000Y-66765000D01*
X64619000Y-66765000D02*
X64618000Y-66760000D01*
X64618000Y-66760000D02*
X64617000Y-66755000D01*
X64617000Y-66755000D02*
X64617000Y-66749000D01*
X64617000Y-66749000D02*
X64616000Y-66744000D01*
X64616000Y-66744000D02*
X64616000Y-66739000D01*
X64616000Y-66739000D02*
X64616000Y-65764000D01*
X64616000Y-65764000D02*
X65216000Y-65764000D01*
X65216000Y-65764000D02*
X65216000Y-65764000D01*
G36*
X65216000Y-66744000D02*
G01*
X65215000Y-66749000D01*
X65215000Y-66755000D01*
X65213000Y-66765000D01*
X65207000Y-66780000D01*
X65205000Y-66784000D01*
X65203000Y-66789000D01*
X65200000Y-66793000D01*
X65197000Y-66798000D01*
X65194000Y-66802000D01*
X65190000Y-66806000D01*
X65187000Y-66810000D01*
X65183000Y-66813000D01*
X65179000Y-66817000D01*
X65175000Y-66820000D01*
X65170000Y-66823000D01*
X65166000Y-66826000D01*
X65161000Y-66828000D01*
X65157000Y-66830000D01*
X65142000Y-66836000D01*
X65132000Y-66838000D01*
X65126000Y-66838000D01*
X65121000Y-66839000D01*
X64711000Y-66839000D01*
X64706000Y-66838000D01*
X64700000Y-66838000D01*
X64690000Y-66836000D01*
X64675000Y-66830000D01*
X64671000Y-66828000D01*
X64666000Y-66826000D01*
X64662000Y-66823000D01*
X64657000Y-66820000D01*
X64653000Y-66817000D01*
X64649000Y-66813000D01*
X64645000Y-66810000D01*
X64642000Y-66806000D01*
X64638000Y-66802000D01*
X64635000Y-66798000D01*
X64632000Y-66793000D01*
X64629000Y-66789000D01*
X64627000Y-66784000D01*
X64625000Y-66780000D01*
X64619000Y-66765000D01*
X64617000Y-66755000D01*
X64617000Y-66749000D01*
X64616000Y-66744000D01*
X64616000Y-65764000D01*
X65216000Y-65764000D01*
X65216000Y-66744000D01*
G37*
X65216000Y-66744000D02*
X65215000Y-66749000D01*
X65215000Y-66755000D01*
X65213000Y-66765000D01*
X65207000Y-66780000D01*
X65205000Y-66784000D01*
X65203000Y-66789000D01*
X65200000Y-66793000D01*
X65197000Y-66798000D01*
X65194000Y-66802000D01*
X65190000Y-66806000D01*
X65187000Y-66810000D01*
X65183000Y-66813000D01*
X65179000Y-66817000D01*
X65175000Y-66820000D01*
X65170000Y-66823000D01*
X65166000Y-66826000D01*
X65161000Y-66828000D01*
X65157000Y-66830000D01*
X65142000Y-66836000D01*
X65132000Y-66838000D01*
X65126000Y-66838000D01*
X65121000Y-66839000D01*
X64711000Y-66839000D01*
X64706000Y-66838000D01*
X64700000Y-66838000D01*
X64690000Y-66836000D01*
X64675000Y-66830000D01*
X64671000Y-66828000D01*
X64666000Y-66826000D01*
X64662000Y-66823000D01*
X64657000Y-66820000D01*
X64653000Y-66817000D01*
X64649000Y-66813000D01*
X64645000Y-66810000D01*
X64642000Y-66806000D01*
X64638000Y-66802000D01*
X64635000Y-66798000D01*
X64632000Y-66793000D01*
X64629000Y-66789000D01*
X64627000Y-66784000D01*
X64625000Y-66780000D01*
X64619000Y-66765000D01*
X64617000Y-66755000D01*
X64617000Y-66749000D01*
X64616000Y-66744000D01*
X64616000Y-65764000D01*
X65216000Y-65764000D01*
X65216000Y-66744000D01*
X66316000Y-66664000D02*
X65516000Y-66664000D01*
X65516000Y-66664000D02*
X65511000Y-66664000D01*
X65511000Y-66664000D02*
X65506000Y-66663000D01*
X65506000Y-66663000D02*
X65500000Y-66663000D01*
X65500000Y-66663000D02*
X65495000Y-66662000D01*
X65495000Y-66662000D02*
X65490000Y-66661000D01*
X65490000Y-66661000D02*
X65485000Y-66659000D01*
X65485000Y-66659000D02*
X65480000Y-66657000D01*
X65480000Y-66657000D02*
X65475000Y-66655000D01*
X65475000Y-66655000D02*
X65471000Y-66653000D01*
X65471000Y-66653000D02*
X65466000Y-66651000D01*
X65466000Y-66651000D02*
X65462000Y-66648000D01*
X65462000Y-66648000D02*
X65457000Y-66645000D01*
X65457000Y-66645000D02*
X65453000Y-66642000D01*
X65453000Y-66642000D02*
X65449000Y-66638000D01*
X65449000Y-66638000D02*
X65445000Y-66635000D01*
X65445000Y-66635000D02*
X65442000Y-66631000D01*
X65442000Y-66631000D02*
X65438000Y-66627000D01*
X65438000Y-66627000D02*
X65435000Y-66623000D01*
X65435000Y-66623000D02*
X65432000Y-66618000D01*
X65432000Y-66618000D02*
X65429000Y-66614000D01*
X65429000Y-66614000D02*
X65427000Y-66609000D01*
X65427000Y-66609000D02*
X65425000Y-66605000D01*
X65425000Y-66605000D02*
X65423000Y-66600000D01*
X65423000Y-66600000D02*
X65421000Y-66595000D01*
X65421000Y-66595000D02*
X65419000Y-66590000D01*
X65419000Y-66590000D02*
X65418000Y-66585000D01*
X65418000Y-66585000D02*
X65417000Y-66580000D01*
X65417000Y-66580000D02*
X65417000Y-66574000D01*
X65417000Y-66574000D02*
X65416000Y-66569000D01*
X65416000Y-66569000D02*
X65416000Y-66564000D01*
X65416000Y-66564000D02*
X65416000Y-65764000D01*
X65416000Y-65764000D02*
X65616000Y-65764000D01*
X65616000Y-65764000D02*
X65616000Y-66214000D01*
X65616000Y-66214000D02*
X65866000Y-66464000D01*
X65866000Y-66464000D02*
X66316000Y-66464000D01*
X66316000Y-66464000D02*
X66316000Y-66664000D01*
X66316000Y-66664000D02*
X66316000Y-66664000D01*
G36*
X65616000Y-66214000D02*
G01*
X65866000Y-66464000D01*
X66316000Y-66464000D01*
X66316000Y-66664000D01*
X65511000Y-66664000D01*
X65506000Y-66663000D01*
X65500000Y-66663000D01*
X65490000Y-66661000D01*
X65475000Y-66655000D01*
X65471000Y-66653000D01*
X65466000Y-66651000D01*
X65462000Y-66648000D01*
X65457000Y-66645000D01*
X65453000Y-66642000D01*
X65449000Y-66638000D01*
X65445000Y-66635000D01*
X65442000Y-66631000D01*
X65438000Y-66627000D01*
X65435000Y-66623000D01*
X65432000Y-66618000D01*
X65429000Y-66614000D01*
X65427000Y-66609000D01*
X65425000Y-66605000D01*
X65419000Y-66590000D01*
X65417000Y-66580000D01*
X65417000Y-66574000D01*
X65416000Y-66569000D01*
X65416000Y-65764000D01*
X65616000Y-65764000D01*
X65616000Y-66214000D01*
G37*
X65616000Y-66214000D02*
X65866000Y-66464000D01*
X66316000Y-66464000D01*
X66316000Y-66664000D01*
X65511000Y-66664000D01*
X65506000Y-66663000D01*
X65500000Y-66663000D01*
X65490000Y-66661000D01*
X65475000Y-66655000D01*
X65471000Y-66653000D01*
X65466000Y-66651000D01*
X65462000Y-66648000D01*
X65457000Y-66645000D01*
X65453000Y-66642000D01*
X65449000Y-66638000D01*
X65445000Y-66635000D01*
X65442000Y-66631000D01*
X65438000Y-66627000D01*
X65435000Y-66623000D01*
X65432000Y-66618000D01*
X65429000Y-66614000D01*
X65427000Y-66609000D01*
X65425000Y-66605000D01*
X65419000Y-66590000D01*
X65417000Y-66580000D01*
X65417000Y-66574000D01*
X65416000Y-66569000D01*
X65416000Y-65764000D01*
X65616000Y-65764000D01*
X65616000Y-66214000D01*
X62716000Y-68464000D02*
X63341000Y-68464000D01*
X63341000Y-68464000D02*
X63341000Y-68552000D01*
X63341000Y-68552000D02*
X63229000Y-68664000D01*
X63229000Y-68664000D02*
X62716000Y-68664000D01*
X62716000Y-68664000D02*
X62716000Y-68464000D01*
G36*
X63341000Y-68552000D02*
G01*
X63229000Y-68664000D01*
X62716000Y-68664000D01*
X62716000Y-68464000D01*
X63341000Y-68464000D01*
X63341000Y-68552000D01*
G37*
X63341000Y-68552000D02*
X63229000Y-68664000D01*
X62716000Y-68664000D01*
X62716000Y-68464000D01*
X63341000Y-68464000D01*
X63341000Y-68552000D01*
X62716000Y-67664000D02*
X63291000Y-67664000D01*
X63291000Y-67664000D02*
X63296000Y-67664000D01*
X63296000Y-67664000D02*
X63301000Y-67665000D01*
X63301000Y-67665000D02*
X63307000Y-67665000D01*
X63307000Y-67665000D02*
X63312000Y-67666000D01*
X63312000Y-67666000D02*
X63317000Y-67667000D01*
X63317000Y-67667000D02*
X63322000Y-67669000D01*
X63322000Y-67669000D02*
X63327000Y-67671000D01*
X63327000Y-67671000D02*
X63332000Y-67673000D01*
X63332000Y-67673000D02*
X63336000Y-67675000D01*
X63336000Y-67675000D02*
X63341000Y-67677000D01*
X63341000Y-67677000D02*
X63345000Y-67680000D01*
X63345000Y-67680000D02*
X63350000Y-67683000D01*
X63350000Y-67683000D02*
X63354000Y-67686000D01*
X63354000Y-67686000D02*
X63358000Y-67690000D01*
X63358000Y-67690000D02*
X63362000Y-67693000D01*
X63362000Y-67693000D02*
X63365000Y-67697000D01*
X63365000Y-67697000D02*
X63369000Y-67701000D01*
X63369000Y-67701000D02*
X63372000Y-67705000D01*
X63372000Y-67705000D02*
X63375000Y-67710000D01*
X63375000Y-67710000D02*
X63378000Y-67714000D01*
X63378000Y-67714000D02*
X63380000Y-67719000D01*
X63380000Y-67719000D02*
X63382000Y-67723000D01*
X63382000Y-67723000D02*
X63384000Y-67728000D01*
X63384000Y-67728000D02*
X63386000Y-67733000D01*
X63386000Y-67733000D02*
X63388000Y-67738000D01*
X63388000Y-67738000D02*
X63389000Y-67743000D01*
X63389000Y-67743000D02*
X63390000Y-67748000D01*
X63390000Y-67748000D02*
X63390000Y-67754000D01*
X63390000Y-67754000D02*
X63391000Y-67759000D01*
X63391000Y-67759000D02*
X63391000Y-67764000D01*
X63391000Y-67764000D02*
X63391000Y-67769000D01*
X63391000Y-67769000D02*
X63390000Y-67774000D01*
X63390000Y-67774000D02*
X63390000Y-67780000D01*
X63390000Y-67780000D02*
X63389000Y-67785000D01*
X63389000Y-67785000D02*
X63388000Y-67790000D01*
X63388000Y-67790000D02*
X63386000Y-67795000D01*
X63386000Y-67795000D02*
X63384000Y-67800000D01*
X63384000Y-67800000D02*
X63382000Y-67805000D01*
X63382000Y-67805000D02*
X63380000Y-67809000D01*
X63380000Y-67809000D02*
X63378000Y-67814000D01*
X63378000Y-67814000D02*
X63375000Y-67818000D01*
X63375000Y-67818000D02*
X63372000Y-67823000D01*
X63372000Y-67823000D02*
X63369000Y-67827000D01*
X63369000Y-67827000D02*
X63365000Y-67831000D01*
X63365000Y-67831000D02*
X63362000Y-67835000D01*
X63362000Y-67835000D02*
X63358000Y-67838000D01*
X63358000Y-67838000D02*
X63354000Y-67842000D01*
X63354000Y-67842000D02*
X63350000Y-67845000D01*
X63350000Y-67845000D02*
X63345000Y-67848000D01*
X63345000Y-67848000D02*
X63341000Y-67851000D01*
X63341000Y-67851000D02*
X63336000Y-67853000D01*
X63336000Y-67853000D02*
X63332000Y-67855000D01*
X63332000Y-67855000D02*
X63327000Y-67857000D01*
X63327000Y-67857000D02*
X63322000Y-67859000D01*
X63322000Y-67859000D02*
X63317000Y-67861000D01*
X63317000Y-67861000D02*
X63312000Y-67862000D01*
X63312000Y-67862000D02*
X63307000Y-67863000D01*
X63307000Y-67863000D02*
X63301000Y-67863000D01*
X63301000Y-67863000D02*
X63296000Y-67864000D01*
X63296000Y-67864000D02*
X63291000Y-67864000D01*
X63291000Y-67864000D02*
X62716000Y-67864000D01*
X62716000Y-67864000D02*
X62716000Y-67664000D01*
X62716000Y-67664000D02*
X62716000Y-67664000D01*
G36*
X63301000Y-67665000D02*
G01*
X63307000Y-67665000D01*
X63317000Y-67667000D01*
X63332000Y-67673000D01*
X63336000Y-67675000D01*
X63341000Y-67677000D01*
X63345000Y-67680000D01*
X63350000Y-67683000D01*
X63354000Y-67686000D01*
X63358000Y-67690000D01*
X63362000Y-67693000D01*
X63365000Y-67697000D01*
X63369000Y-67701000D01*
X63372000Y-67705000D01*
X63375000Y-67710000D01*
X63378000Y-67714000D01*
X63380000Y-67719000D01*
X63382000Y-67723000D01*
X63388000Y-67738000D01*
X63390000Y-67748000D01*
X63390000Y-67754000D01*
X63391000Y-67759000D01*
X63391000Y-67769000D01*
X63390000Y-67774000D01*
X63390000Y-67780000D01*
X63388000Y-67790000D01*
X63382000Y-67805000D01*
X63380000Y-67809000D01*
X63378000Y-67814000D01*
X63375000Y-67818000D01*
X63372000Y-67823000D01*
X63369000Y-67827000D01*
X63365000Y-67831000D01*
X63362000Y-67835000D01*
X63358000Y-67838000D01*
X63354000Y-67842000D01*
X63350000Y-67845000D01*
X63345000Y-67848000D01*
X63341000Y-67851000D01*
X63336000Y-67853000D01*
X63332000Y-67855000D01*
X63317000Y-67861000D01*
X63307000Y-67863000D01*
X63301000Y-67863000D01*
X63296000Y-67864000D01*
X62716000Y-67864000D01*
X62716000Y-67664000D01*
X63296000Y-67664000D01*
X63301000Y-67665000D01*
G37*
X63301000Y-67665000D02*
X63307000Y-67665000D01*
X63317000Y-67667000D01*
X63332000Y-67673000D01*
X63336000Y-67675000D01*
X63341000Y-67677000D01*
X63345000Y-67680000D01*
X63350000Y-67683000D01*
X63354000Y-67686000D01*
X63358000Y-67690000D01*
X63362000Y-67693000D01*
X63365000Y-67697000D01*
X63369000Y-67701000D01*
X63372000Y-67705000D01*
X63375000Y-67710000D01*
X63378000Y-67714000D01*
X63380000Y-67719000D01*
X63382000Y-67723000D01*
X63388000Y-67738000D01*
X63390000Y-67748000D01*
X63390000Y-67754000D01*
X63391000Y-67759000D01*
X63391000Y-67769000D01*
X63390000Y-67774000D01*
X63390000Y-67780000D01*
X63388000Y-67790000D01*
X63382000Y-67805000D01*
X63380000Y-67809000D01*
X63378000Y-67814000D01*
X63375000Y-67818000D01*
X63372000Y-67823000D01*
X63369000Y-67827000D01*
X63365000Y-67831000D01*
X63362000Y-67835000D01*
X63358000Y-67838000D01*
X63354000Y-67842000D01*
X63350000Y-67845000D01*
X63345000Y-67848000D01*
X63341000Y-67851000D01*
X63336000Y-67853000D01*
X63332000Y-67855000D01*
X63317000Y-67861000D01*
X63307000Y-67863000D01*
X63301000Y-67863000D01*
X63296000Y-67864000D01*
X62716000Y-67864000D01*
X62716000Y-67664000D01*
X63296000Y-67664000D01*
X63301000Y-67665000D01*
X65416000Y-69364000D02*
X65416000Y-68739000D01*
X65416000Y-68739000D02*
X65504000Y-68739000D01*
X65504000Y-68739000D02*
X65616000Y-68851000D01*
X65616000Y-68851000D02*
X65616000Y-69364000D01*
X65616000Y-69364000D02*
X65416000Y-69364000D01*
G36*
X65616000Y-68851000D02*
G01*
X65616000Y-69364000D01*
X65416000Y-69364000D01*
X65416000Y-68739000D01*
X65504000Y-68739000D01*
X65616000Y-68851000D01*
G37*
X65616000Y-68851000D02*
X65616000Y-69364000D01*
X65416000Y-69364000D01*
X65416000Y-68739000D01*
X65504000Y-68739000D01*
X65616000Y-68851000D01*
X66316000Y-67064000D02*
X65741000Y-67064000D01*
X65741000Y-67064000D02*
X65736000Y-67064000D01*
X65736000Y-67064000D02*
X65731000Y-67063000D01*
X65731000Y-67063000D02*
X65725000Y-67063000D01*
X65725000Y-67063000D02*
X65720000Y-67062000D01*
X65720000Y-67062000D02*
X65715000Y-67061000D01*
X65715000Y-67061000D02*
X65710000Y-67059000D01*
X65710000Y-67059000D02*
X65705000Y-67057000D01*
X65705000Y-67057000D02*
X65700000Y-67055000D01*
X65700000Y-67055000D02*
X65696000Y-67053000D01*
X65696000Y-67053000D02*
X65691000Y-67051000D01*
X65691000Y-67051000D02*
X65687000Y-67048000D01*
X65687000Y-67048000D02*
X65682000Y-67045000D01*
X65682000Y-67045000D02*
X65678000Y-67042000D01*
X65678000Y-67042000D02*
X65674000Y-67038000D01*
X65674000Y-67038000D02*
X65670000Y-67035000D01*
X65670000Y-67035000D02*
X65667000Y-67031000D01*
X65667000Y-67031000D02*
X65663000Y-67027000D01*
X65663000Y-67027000D02*
X65660000Y-67023000D01*
X65660000Y-67023000D02*
X65657000Y-67018000D01*
X65657000Y-67018000D02*
X65654000Y-67014000D01*
X65654000Y-67014000D02*
X65652000Y-67009000D01*
X65652000Y-67009000D02*
X65650000Y-67005000D01*
X65650000Y-67005000D02*
X65648000Y-67000000D01*
X65648000Y-67000000D02*
X65646000Y-66995000D01*
X65646000Y-66995000D02*
X65644000Y-66990000D01*
X65644000Y-66990000D02*
X65643000Y-66985000D01*
X65643000Y-66985000D02*
X65642000Y-66980000D01*
X65642000Y-66980000D02*
X65642000Y-66974000D01*
X65642000Y-66974000D02*
X65641000Y-66969000D01*
X65641000Y-66969000D02*
X65641000Y-66964000D01*
X65641000Y-66964000D02*
X65641000Y-66959000D01*
X65641000Y-66959000D02*
X65642000Y-66954000D01*
X65642000Y-66954000D02*
X65642000Y-66948000D01*
X65642000Y-66948000D02*
X65643000Y-66943000D01*
X65643000Y-66943000D02*
X65644000Y-66938000D01*
X65644000Y-66938000D02*
X65646000Y-66933000D01*
X65646000Y-66933000D02*
X65648000Y-66928000D01*
X65648000Y-66928000D02*
X65650000Y-66923000D01*
X65650000Y-66923000D02*
X65652000Y-66919000D01*
X65652000Y-66919000D02*
X65654000Y-66914000D01*
X65654000Y-66914000D02*
X65657000Y-66910000D01*
X65657000Y-66910000D02*
X65660000Y-66905000D01*
X65660000Y-66905000D02*
X65663000Y-66901000D01*
X65663000Y-66901000D02*
X65667000Y-66897000D01*
X65667000Y-66897000D02*
X65670000Y-66893000D01*
X65670000Y-66893000D02*
X65674000Y-66890000D01*
X65674000Y-66890000D02*
X65678000Y-66886000D01*
X65678000Y-66886000D02*
X65682000Y-66883000D01*
X65682000Y-66883000D02*
X65687000Y-66880000D01*
X65687000Y-66880000D02*
X65691000Y-66877000D01*
X65691000Y-66877000D02*
X65696000Y-66875000D01*
X65696000Y-66875000D02*
X65700000Y-66873000D01*
X65700000Y-66873000D02*
X65705000Y-66871000D01*
X65705000Y-66871000D02*
X65710000Y-66869000D01*
X65710000Y-66869000D02*
X65715000Y-66867000D01*
X65715000Y-66867000D02*
X65720000Y-66866000D01*
X65720000Y-66866000D02*
X65725000Y-66865000D01*
X65725000Y-66865000D02*
X65731000Y-66865000D01*
X65731000Y-66865000D02*
X65736000Y-66864000D01*
X65736000Y-66864000D02*
X65741000Y-66864000D01*
X65741000Y-66864000D02*
X66316000Y-66864000D01*
X66316000Y-66864000D02*
X66316000Y-67064000D01*
X66316000Y-67064000D02*
X66316000Y-67064000D01*
G36*
X66316000Y-67064000D02*
G01*
X65736000Y-67064000D01*
X65731000Y-67063000D01*
X65725000Y-67063000D01*
X65715000Y-67061000D01*
X65700000Y-67055000D01*
X65696000Y-67053000D01*
X65691000Y-67051000D01*
X65687000Y-67048000D01*
X65682000Y-67045000D01*
X65678000Y-67042000D01*
X65674000Y-67038000D01*
X65670000Y-67035000D01*
X65667000Y-67031000D01*
X65663000Y-67027000D01*
X65660000Y-67023000D01*
X65657000Y-67018000D01*
X65654000Y-67014000D01*
X65652000Y-67009000D01*
X65650000Y-67005000D01*
X65644000Y-66990000D01*
X65642000Y-66980000D01*
X65642000Y-66974000D01*
X65641000Y-66969000D01*
X65641000Y-66959000D01*
X65642000Y-66954000D01*
X65642000Y-66948000D01*
X65644000Y-66938000D01*
X65650000Y-66923000D01*
X65652000Y-66919000D01*
X65654000Y-66914000D01*
X65657000Y-66910000D01*
X65660000Y-66905000D01*
X65663000Y-66901000D01*
X65667000Y-66897000D01*
X65670000Y-66893000D01*
X65674000Y-66890000D01*
X65678000Y-66886000D01*
X65682000Y-66883000D01*
X65687000Y-66880000D01*
X65691000Y-66877000D01*
X65696000Y-66875000D01*
X65700000Y-66873000D01*
X65715000Y-66867000D01*
X65725000Y-66865000D01*
X65731000Y-66865000D01*
X65736000Y-66864000D01*
X66316000Y-66864000D01*
X66316000Y-67064000D01*
G37*
X66316000Y-67064000D02*
X65736000Y-67064000D01*
X65731000Y-67063000D01*
X65725000Y-67063000D01*
X65715000Y-67061000D01*
X65700000Y-67055000D01*
X65696000Y-67053000D01*
X65691000Y-67051000D01*
X65687000Y-67048000D01*
X65682000Y-67045000D01*
X65678000Y-67042000D01*
X65674000Y-67038000D01*
X65670000Y-67035000D01*
X65667000Y-67031000D01*
X65663000Y-67027000D01*
X65660000Y-67023000D01*
X65657000Y-67018000D01*
X65654000Y-67014000D01*
X65652000Y-67009000D01*
X65650000Y-67005000D01*
X65644000Y-66990000D01*
X65642000Y-66980000D01*
X65642000Y-66974000D01*
X65641000Y-66969000D01*
X65641000Y-66959000D01*
X65642000Y-66954000D01*
X65642000Y-66948000D01*
X65644000Y-66938000D01*
X65650000Y-66923000D01*
X65652000Y-66919000D01*
X65654000Y-66914000D01*
X65657000Y-66910000D01*
X65660000Y-66905000D01*
X65663000Y-66901000D01*
X65667000Y-66897000D01*
X65670000Y-66893000D01*
X65674000Y-66890000D01*
X65678000Y-66886000D01*
X65682000Y-66883000D01*
X65687000Y-66880000D01*
X65691000Y-66877000D01*
X65696000Y-66875000D01*
X65700000Y-66873000D01*
X65715000Y-66867000D01*
X65725000Y-66865000D01*
X65731000Y-66865000D01*
X65736000Y-66864000D01*
X66316000Y-66864000D01*
X66316000Y-67064000D01*
D10*
X100564998Y-82990000D02*
X100564998Y-83090000D01*
X100564998Y-83090000D02*
X100564038Y-83099754D01*
X100564038Y-83099754D02*
X100561193Y-83109134D01*
X100561193Y-83109134D02*
X100556573Y-83117777D01*
X100556573Y-83117777D02*
X100550355Y-83125354D01*
X100550355Y-83125354D02*
X100542778Y-83131572D01*
X100542778Y-83131572D02*
X100534134Y-83136195D01*
X100534134Y-83136195D02*
X100524754Y-83139040D01*
X100524754Y-83139040D02*
X100514998Y-83140000D01*
X100514998Y-83140000D02*
X99989998Y-83140000D01*
X99989998Y-83140000D02*
X99980244Y-83139040D01*
X99980244Y-83139040D02*
X99970864Y-83136195D01*
X99970864Y-83136195D02*
X99962220Y-83131572D01*
X99962220Y-83131572D02*
X99954644Y-83125354D01*
X99954644Y-83125354D02*
X99948426Y-83117777D01*
X99948426Y-83117777D02*
X99943805Y-83109134D01*
X99943805Y-83109134D02*
X99940961Y-83099754D01*
X99940961Y-83099754D02*
X99939998Y-83090000D01*
X99939998Y-83090000D02*
X99939998Y-82990000D01*
X99939998Y-82990000D02*
X99940961Y-82980246D01*
X99940961Y-82980246D02*
X99943805Y-82970866D01*
X99943805Y-82970866D02*
X99948426Y-82962223D01*
X99948426Y-82962223D02*
X99954644Y-82954646D01*
X99954644Y-82954646D02*
X99962220Y-82948428D01*
X99962220Y-82948428D02*
X99970864Y-82943805D01*
X99970864Y-82943805D02*
X99980244Y-82940960D01*
X99980244Y-82940960D02*
X99989998Y-82940000D01*
X99989998Y-82940000D02*
X100514998Y-82940000D01*
X100514998Y-82940000D02*
X100524754Y-82940960D01*
X100524754Y-82940960D02*
X100534134Y-82943805D01*
X100534134Y-82943805D02*
X100542778Y-82948428D01*
X100542778Y-82948428D02*
X100550355Y-82954646D01*
X100550355Y-82954646D02*
X100556573Y-82962223D01*
X100556573Y-82962223D02*
X100561193Y-82970866D01*
X100561193Y-82970866D02*
X100564038Y-82980246D01*
X100564038Y-82980246D02*
X100564998Y-82990000D01*
G36*
X100524754Y-82940960D02*
G01*
X100534134Y-82943805D01*
X100542778Y-82948428D01*
X100550355Y-82954646D01*
X100556573Y-82962223D01*
X100561193Y-82970866D01*
X100564038Y-82980246D01*
X100564998Y-82990000D01*
X100564998Y-83090000D01*
X100564038Y-83099754D01*
X100561193Y-83109134D01*
X100556573Y-83117777D01*
X100550355Y-83125354D01*
X100542778Y-83131572D01*
X100534134Y-83136195D01*
X100524754Y-83139040D01*
X100514998Y-83140000D01*
X99989998Y-83140000D01*
X99980244Y-83139040D01*
X99970864Y-83136195D01*
X99962220Y-83131572D01*
X99954644Y-83125354D01*
X99948426Y-83117777D01*
X99943805Y-83109134D01*
X99940961Y-83099754D01*
X99939998Y-83090000D01*
X99939998Y-82990000D01*
X99940961Y-82980246D01*
X99943805Y-82970866D01*
X99948426Y-82962223D01*
X99954644Y-82954646D01*
X99962220Y-82948428D01*
X99970864Y-82943805D01*
X99980244Y-82940960D01*
X99989998Y-82940000D01*
X100514998Y-82940000D01*
X100524754Y-82940960D01*
G37*
X100524754Y-82940960D02*
X100534134Y-82943805D01*
X100542778Y-82948428D01*
X100550355Y-82954646D01*
X100556573Y-82962223D01*
X100561193Y-82970866D01*
X100564038Y-82980246D01*
X100564998Y-82990000D01*
X100564998Y-83090000D01*
X100564038Y-83099754D01*
X100561193Y-83109134D01*
X100556573Y-83117777D01*
X100550355Y-83125354D01*
X100542778Y-83131572D01*
X100534134Y-83136195D01*
X100524754Y-83139040D01*
X100514998Y-83140000D01*
X99989998Y-83140000D01*
X99980244Y-83139040D01*
X99970864Y-83136195D01*
X99962220Y-83131572D01*
X99954644Y-83125354D01*
X99948426Y-83117777D01*
X99943805Y-83109134D01*
X99940961Y-83099754D01*
X99939998Y-83090000D01*
X99939998Y-82990000D01*
X99940961Y-82980246D01*
X99943805Y-82970866D01*
X99948426Y-82962223D01*
X99954644Y-82954646D01*
X99962220Y-82948428D01*
X99970864Y-82943805D01*
X99980244Y-82940960D01*
X99989998Y-82940000D01*
X100514998Y-82940000D01*
X100524754Y-82940960D01*
X101390000Y-83465750D02*
X101390000Y-83714248D01*
X101390000Y-83714248D02*
X101389025Y-83724149D01*
X101389025Y-83724149D02*
X101386137Y-83733669D01*
X101386137Y-83733669D02*
X101381448Y-83742445D01*
X101381448Y-83742445D02*
X101375136Y-83750133D01*
X101375136Y-83750133D02*
X101367445Y-83756445D01*
X101367445Y-83756445D02*
X101358672Y-83761136D01*
X101358672Y-83761136D02*
X101349152Y-83764024D01*
X101349152Y-83764024D02*
X101339251Y-83764997D01*
X101339251Y-83764997D02*
X100965749Y-83764997D01*
X100965749Y-83764997D02*
X100955848Y-83764024D01*
X100955848Y-83764024D02*
X100946328Y-83761136D01*
X100946328Y-83761136D02*
X100937555Y-83756445D01*
X100937555Y-83756445D02*
X100929864Y-83750133D01*
X100929864Y-83750133D02*
X100923552Y-83742445D01*
X100923552Y-83742445D02*
X100918863Y-83733669D01*
X100918863Y-83733669D02*
X100915975Y-83724149D01*
X100915975Y-83724149D02*
X100915000Y-83714248D01*
X100915000Y-83714248D02*
X100915000Y-83465750D01*
X100915000Y-83465750D02*
X100915975Y-83455849D01*
X100915975Y-83455849D02*
X100918863Y-83446329D01*
X100918863Y-83446329D02*
X100923552Y-83437553D01*
X100923552Y-83437553D02*
X100929864Y-83429865D01*
X100929864Y-83429865D02*
X100937555Y-83423553D01*
X100937555Y-83423553D02*
X100946328Y-83418861D01*
X100946328Y-83418861D02*
X100955848Y-83415973D01*
X100955848Y-83415973D02*
X100965749Y-83414998D01*
X100965749Y-83414998D02*
X101339251Y-83414998D01*
X101339251Y-83414998D02*
X101349152Y-83415973D01*
X101349152Y-83415973D02*
X101358672Y-83418861D01*
X101358672Y-83418861D02*
X101367445Y-83423553D01*
X101367445Y-83423553D02*
X101375136Y-83429865D01*
X101375136Y-83429865D02*
X101381448Y-83437553D01*
X101381448Y-83437553D02*
X101386137Y-83446329D01*
X101386137Y-83446329D02*
X101389025Y-83455849D01*
X101389025Y-83455849D02*
X101390000Y-83465750D01*
G36*
X101349152Y-83415973D02*
G01*
X101358672Y-83418861D01*
X101367445Y-83423553D01*
X101375136Y-83429865D01*
X101381448Y-83437553D01*
X101386137Y-83446329D01*
X101389025Y-83455849D01*
X101390000Y-83465750D01*
X101390000Y-83714248D01*
X101389025Y-83724149D01*
X101386137Y-83733669D01*
X101381448Y-83742445D01*
X101375136Y-83750133D01*
X101367445Y-83756445D01*
X101358672Y-83761136D01*
X101349152Y-83764024D01*
X101339251Y-83764997D01*
X100965749Y-83764997D01*
X100955848Y-83764024D01*
X100946328Y-83761136D01*
X100937555Y-83756445D01*
X100929864Y-83750133D01*
X100923552Y-83742445D01*
X100918863Y-83733669D01*
X100915975Y-83724149D01*
X100915000Y-83714248D01*
X100915000Y-83465750D01*
X100915975Y-83455849D01*
X100918863Y-83446329D01*
X100923552Y-83437553D01*
X100929864Y-83429865D01*
X100937555Y-83423553D01*
X100946328Y-83418861D01*
X100955848Y-83415973D01*
X100965749Y-83414998D01*
X101339251Y-83414998D01*
X101349152Y-83415973D01*
G37*
X101349152Y-83415973D02*
X101358672Y-83418861D01*
X101367445Y-83423553D01*
X101375136Y-83429865D01*
X101381448Y-83437553D01*
X101386137Y-83446329D01*
X101389025Y-83455849D01*
X101390000Y-83465750D01*
X101390000Y-83714248D01*
X101389025Y-83724149D01*
X101386137Y-83733669D01*
X101381448Y-83742445D01*
X101375136Y-83750133D01*
X101367445Y-83756445D01*
X101358672Y-83761136D01*
X101349152Y-83764024D01*
X101339251Y-83764997D01*
X100965749Y-83764997D01*
X100955848Y-83764024D01*
X100946328Y-83761136D01*
X100937555Y-83756445D01*
X100929864Y-83750133D01*
X100923552Y-83742445D01*
X100918863Y-83733669D01*
X100915975Y-83724149D01*
X100915000Y-83714248D01*
X100915000Y-83465750D01*
X100915975Y-83455849D01*
X100918863Y-83446329D01*
X100923552Y-83437553D01*
X100929864Y-83429865D01*
X100937555Y-83423553D01*
X100946328Y-83418861D01*
X100955848Y-83415973D01*
X100965749Y-83414998D01*
X101339251Y-83414998D01*
X101349152Y-83415973D01*
X101390000Y-82365752D02*
X101390000Y-82614250D01*
X101390000Y-82614250D02*
X101389025Y-82624151D01*
X101389025Y-82624151D02*
X101386137Y-82633671D01*
X101386137Y-82633671D02*
X101381448Y-82642447D01*
X101381448Y-82642447D02*
X101375136Y-82650135D01*
X101375136Y-82650135D02*
X101367445Y-82656447D01*
X101367445Y-82656447D02*
X101358672Y-82661139D01*
X101358672Y-82661139D02*
X101349152Y-82664027D01*
X101349152Y-82664027D02*
X101339251Y-82665002D01*
X101339251Y-82665002D02*
X100965749Y-82665002D01*
X100965749Y-82665002D02*
X100955848Y-82664027D01*
X100955848Y-82664027D02*
X100946328Y-82661139D01*
X100946328Y-82661139D02*
X100937555Y-82656447D01*
X100937555Y-82656447D02*
X100929864Y-82650135D01*
X100929864Y-82650135D02*
X100923552Y-82642447D01*
X100923552Y-82642447D02*
X100918863Y-82633671D01*
X100918863Y-82633671D02*
X100915975Y-82624151D01*
X100915975Y-82624151D02*
X100915000Y-82614250D01*
X100915000Y-82614250D02*
X100915000Y-82365752D01*
X100915000Y-82365752D02*
X100915975Y-82355851D01*
X100915975Y-82355851D02*
X100918863Y-82346331D01*
X100918863Y-82346331D02*
X100923552Y-82337555D01*
X100923552Y-82337555D02*
X100929864Y-82329867D01*
X100929864Y-82329867D02*
X100937555Y-82323555D01*
X100937555Y-82323555D02*
X100946328Y-82318864D01*
X100946328Y-82318864D02*
X100955848Y-82315976D01*
X100955848Y-82315976D02*
X100965749Y-82315003D01*
X100965749Y-82315003D02*
X101339251Y-82315003D01*
X101339251Y-82315003D02*
X101349152Y-82315976D01*
X101349152Y-82315976D02*
X101358672Y-82318864D01*
X101358672Y-82318864D02*
X101367445Y-82323555D01*
X101367445Y-82323555D02*
X101375136Y-82329867D01*
X101375136Y-82329867D02*
X101381448Y-82337555D01*
X101381448Y-82337555D02*
X101386137Y-82346331D01*
X101386137Y-82346331D02*
X101389025Y-82355851D01*
X101389025Y-82355851D02*
X101390000Y-82365752D01*
G36*
X101349152Y-82315976D02*
G01*
X101358672Y-82318864D01*
X101367445Y-82323555D01*
X101375136Y-82329867D01*
X101381448Y-82337555D01*
X101386137Y-82346331D01*
X101389025Y-82355851D01*
X101390000Y-82365752D01*
X101390000Y-82614250D01*
X101389025Y-82624151D01*
X101386137Y-82633671D01*
X101381448Y-82642447D01*
X101375136Y-82650135D01*
X101367445Y-82656447D01*
X101358672Y-82661139D01*
X101349152Y-82664027D01*
X101339251Y-82665002D01*
X100965749Y-82665002D01*
X100955848Y-82664027D01*
X100946328Y-82661139D01*
X100937555Y-82656447D01*
X100929864Y-82650135D01*
X100923552Y-82642447D01*
X100918863Y-82633671D01*
X100915975Y-82624151D01*
X100915000Y-82614250D01*
X100915000Y-82365752D01*
X100915975Y-82355851D01*
X100918863Y-82346331D01*
X100923552Y-82337555D01*
X100929864Y-82329867D01*
X100937555Y-82323555D01*
X100946328Y-82318864D01*
X100955848Y-82315976D01*
X100965749Y-82315003D01*
X101339251Y-82315003D01*
X101349152Y-82315976D01*
G37*
X101349152Y-82315976D02*
X101358672Y-82318864D01*
X101367445Y-82323555D01*
X101375136Y-82329867D01*
X101381448Y-82337555D01*
X101386137Y-82346331D01*
X101389025Y-82355851D01*
X101390000Y-82365752D01*
X101390000Y-82614250D01*
X101389025Y-82624151D01*
X101386137Y-82633671D01*
X101381448Y-82642447D01*
X101375136Y-82650135D01*
X101367445Y-82656447D01*
X101358672Y-82661139D01*
X101349152Y-82664027D01*
X101339251Y-82665002D01*
X100965749Y-82665002D01*
X100955848Y-82664027D01*
X100946328Y-82661139D01*
X100937555Y-82656447D01*
X100929864Y-82650135D01*
X100923552Y-82642447D01*
X100918863Y-82633671D01*
X100915975Y-82624151D01*
X100915000Y-82614250D01*
X100915000Y-82365752D01*
X100915975Y-82355851D01*
X100918863Y-82346331D01*
X100923552Y-82337555D01*
X100929864Y-82329867D01*
X100937555Y-82323555D01*
X100946328Y-82318864D01*
X100955848Y-82315976D01*
X100965749Y-82315003D01*
X101339251Y-82315003D01*
X101349152Y-82315976D01*
X100715000Y-82365752D02*
X100715000Y-82614250D01*
X100715000Y-82614250D02*
X100714025Y-82624151D01*
X100714025Y-82624151D02*
X100711137Y-82633671D01*
X100711137Y-82633671D02*
X100706448Y-82642447D01*
X100706448Y-82642447D02*
X100700136Y-82650135D01*
X100700136Y-82650135D02*
X100692445Y-82656447D01*
X100692445Y-82656447D02*
X100683672Y-82661139D01*
X100683672Y-82661139D02*
X100674152Y-82664027D01*
X100674152Y-82664027D02*
X100664251Y-82665002D01*
X100664251Y-82665002D02*
X100290749Y-82665002D01*
X100290749Y-82665002D02*
X100280848Y-82664027D01*
X100280848Y-82664027D02*
X100271328Y-82661139D01*
X100271328Y-82661139D02*
X100262555Y-82656447D01*
X100262555Y-82656447D02*
X100254864Y-82650135D01*
X100254864Y-82650135D02*
X100248552Y-82642447D01*
X100248552Y-82642447D02*
X100243863Y-82633671D01*
X100243863Y-82633671D02*
X100240975Y-82624151D01*
X100240975Y-82624151D02*
X100240000Y-82614250D01*
X100240000Y-82614250D02*
X100240000Y-82365752D01*
X100240000Y-82365752D02*
X100240975Y-82355851D01*
X100240975Y-82355851D02*
X100243863Y-82346331D01*
X100243863Y-82346331D02*
X100248552Y-82337555D01*
X100248552Y-82337555D02*
X100254864Y-82329867D01*
X100254864Y-82329867D02*
X100262555Y-82323555D01*
X100262555Y-82323555D02*
X100271328Y-82318864D01*
X100271328Y-82318864D02*
X100280848Y-82315976D01*
X100280848Y-82315976D02*
X100290749Y-82315003D01*
X100290749Y-82315003D02*
X100664251Y-82315003D01*
X100664251Y-82315003D02*
X100674152Y-82315976D01*
X100674152Y-82315976D02*
X100683672Y-82318864D01*
X100683672Y-82318864D02*
X100692445Y-82323555D01*
X100692445Y-82323555D02*
X100700136Y-82329867D01*
X100700136Y-82329867D02*
X100706448Y-82337555D01*
X100706448Y-82337555D02*
X100711137Y-82346331D01*
X100711137Y-82346331D02*
X100714025Y-82355851D01*
X100714025Y-82355851D02*
X100715000Y-82365752D01*
G36*
X100674152Y-82315976D02*
G01*
X100683672Y-82318864D01*
X100692445Y-82323555D01*
X100700136Y-82329867D01*
X100706448Y-82337555D01*
X100711137Y-82346331D01*
X100714025Y-82355851D01*
X100715000Y-82365752D01*
X100715000Y-82614250D01*
X100714025Y-82624151D01*
X100711137Y-82633671D01*
X100706448Y-82642447D01*
X100700136Y-82650135D01*
X100692445Y-82656447D01*
X100683672Y-82661139D01*
X100674152Y-82664027D01*
X100664251Y-82665002D01*
X100290749Y-82665002D01*
X100280848Y-82664027D01*
X100271328Y-82661139D01*
X100262555Y-82656447D01*
X100254864Y-82650135D01*
X100248552Y-82642447D01*
X100243863Y-82633671D01*
X100240975Y-82624151D01*
X100240000Y-82614250D01*
X100240000Y-82365752D01*
X100240975Y-82355851D01*
X100243863Y-82346331D01*
X100248552Y-82337555D01*
X100254864Y-82329867D01*
X100262555Y-82323555D01*
X100271328Y-82318864D01*
X100280848Y-82315976D01*
X100290749Y-82315003D01*
X100664251Y-82315003D01*
X100674152Y-82315976D01*
G37*
X100674152Y-82315976D02*
X100683672Y-82318864D01*
X100692445Y-82323555D01*
X100700136Y-82329867D01*
X100706448Y-82337555D01*
X100711137Y-82346331D01*
X100714025Y-82355851D01*
X100715000Y-82365752D01*
X100715000Y-82614250D01*
X100714025Y-82624151D01*
X100711137Y-82633671D01*
X100706448Y-82642447D01*
X100700136Y-82650135D01*
X100692445Y-82656447D01*
X100683672Y-82661139D01*
X100674152Y-82664027D01*
X100664251Y-82665002D01*
X100290749Y-82665002D01*
X100280848Y-82664027D01*
X100271328Y-82661139D01*
X100262555Y-82656447D01*
X100254864Y-82650135D01*
X100248552Y-82642447D01*
X100243863Y-82633671D01*
X100240975Y-82624151D01*
X100240000Y-82614250D01*
X100240000Y-82365752D01*
X100240975Y-82355851D01*
X100243863Y-82346331D01*
X100248552Y-82337555D01*
X100254864Y-82329867D01*
X100262555Y-82323555D01*
X100271328Y-82318864D01*
X100280848Y-82315976D01*
X100290749Y-82315003D01*
X100664251Y-82315003D01*
X100674152Y-82315976D01*
X100765000Y-83090000D02*
X100765000Y-82990000D01*
X100765000Y-82990000D02*
X100765963Y-82980246D01*
X100765963Y-82980246D02*
X100768808Y-82970866D01*
X100768808Y-82970866D02*
X100773428Y-82962223D01*
X100773428Y-82962223D02*
X100779646Y-82954646D01*
X100779646Y-82954646D02*
X100787223Y-82948428D01*
X100787223Y-82948428D02*
X100795866Y-82943805D01*
X100795866Y-82943805D02*
X100805246Y-82940960D01*
X100805246Y-82940960D02*
X100815000Y-82940000D01*
X100815000Y-82940000D02*
X101340000Y-82940000D01*
X101340000Y-82940000D02*
X101349756Y-82940960D01*
X101349756Y-82940960D02*
X101359137Y-82943805D01*
X101359137Y-82943805D02*
X101367780Y-82948428D01*
X101367780Y-82948428D02*
X101375357Y-82954646D01*
X101375357Y-82954646D02*
X101381575Y-82962223D01*
X101381575Y-82962223D02*
X101386195Y-82970866D01*
X101386195Y-82970866D02*
X101389040Y-82980246D01*
X101389040Y-82980246D02*
X101390000Y-82990000D01*
X101390000Y-82990000D02*
X101390000Y-83090000D01*
X101390000Y-83090000D02*
X101389040Y-83099754D01*
X101389040Y-83099754D02*
X101386195Y-83109134D01*
X101386195Y-83109134D02*
X101381575Y-83117777D01*
X101381575Y-83117777D02*
X101375357Y-83125354D01*
X101375357Y-83125354D02*
X101367780Y-83131572D01*
X101367780Y-83131572D02*
X101359137Y-83136195D01*
X101359137Y-83136195D02*
X101349756Y-83139040D01*
X101349756Y-83139040D02*
X101340000Y-83140000D01*
X101340000Y-83140000D02*
X100815000Y-83140000D01*
X100815000Y-83140000D02*
X100805246Y-83139040D01*
X100805246Y-83139040D02*
X100795866Y-83136195D01*
X100795866Y-83136195D02*
X100787223Y-83131572D01*
X100787223Y-83131572D02*
X100779646Y-83125354D01*
X100779646Y-83125354D02*
X100773428Y-83117777D01*
X100773428Y-83117777D02*
X100768808Y-83109134D01*
X100768808Y-83109134D02*
X100765963Y-83099754D01*
X100765963Y-83099754D02*
X100765000Y-83090000D01*
G36*
X101349756Y-82940960D02*
G01*
X101359137Y-82943805D01*
X101367780Y-82948428D01*
X101375357Y-82954646D01*
X101381575Y-82962223D01*
X101386195Y-82970866D01*
X101389040Y-82980246D01*
X101390000Y-82990000D01*
X101390000Y-83090000D01*
X101389040Y-83099754D01*
X101386195Y-83109134D01*
X101381575Y-83117777D01*
X101375357Y-83125354D01*
X101367780Y-83131572D01*
X101359137Y-83136195D01*
X101349756Y-83139040D01*
X101340000Y-83140000D01*
X100815000Y-83140000D01*
X100805246Y-83139040D01*
X100795866Y-83136195D01*
X100787223Y-83131572D01*
X100779646Y-83125354D01*
X100773428Y-83117777D01*
X100768808Y-83109134D01*
X100765963Y-83099754D01*
X100765000Y-83090000D01*
X100765000Y-82990000D01*
X100765963Y-82980246D01*
X100768808Y-82970866D01*
X100773428Y-82962223D01*
X100779646Y-82954646D01*
X100787223Y-82948428D01*
X100795866Y-82943805D01*
X100805246Y-82940960D01*
X100815000Y-82940000D01*
X101340000Y-82940000D01*
X101349756Y-82940960D01*
G37*
X101349756Y-82940960D02*
X101359137Y-82943805D01*
X101367780Y-82948428D01*
X101375357Y-82954646D01*
X101381575Y-82962223D01*
X101386195Y-82970866D01*
X101389040Y-82980246D01*
X101390000Y-82990000D01*
X101390000Y-83090000D01*
X101389040Y-83099754D01*
X101386195Y-83109134D01*
X101381575Y-83117777D01*
X101375357Y-83125354D01*
X101367780Y-83131572D01*
X101359137Y-83136195D01*
X101349756Y-83139040D01*
X101340000Y-83140000D01*
X100815000Y-83140000D01*
X100805246Y-83139040D01*
X100795866Y-83136195D01*
X100787223Y-83131572D01*
X100779646Y-83125354D01*
X100773428Y-83117777D01*
X100768808Y-83109134D01*
X100765963Y-83099754D01*
X100765000Y-83090000D01*
X100765000Y-82990000D01*
X100765963Y-82980246D01*
X100768808Y-82970866D01*
X100773428Y-82962223D01*
X100779646Y-82954646D01*
X100787223Y-82948428D01*
X100795866Y-82943805D01*
X100805246Y-82940960D01*
X100815000Y-82940000D01*
X101340000Y-82940000D01*
X101349756Y-82940960D01*
X100715000Y-83465750D02*
X100715000Y-83714248D01*
X100715000Y-83714248D02*
X100714025Y-83724149D01*
X100714025Y-83724149D02*
X100711137Y-83733669D01*
X100711137Y-83733669D02*
X100706448Y-83742445D01*
X100706448Y-83742445D02*
X100700136Y-83750133D01*
X100700136Y-83750133D02*
X100692445Y-83756445D01*
X100692445Y-83756445D02*
X100683672Y-83761136D01*
X100683672Y-83761136D02*
X100674152Y-83764024D01*
X100674152Y-83764024D02*
X100664251Y-83764997D01*
X100664251Y-83764997D02*
X100290749Y-83764997D01*
X100290749Y-83764997D02*
X100280848Y-83764024D01*
X100280848Y-83764024D02*
X100271328Y-83761136D01*
X100271328Y-83761136D02*
X100262555Y-83756445D01*
X100262555Y-83756445D02*
X100254864Y-83750133D01*
X100254864Y-83750133D02*
X100248552Y-83742445D01*
X100248552Y-83742445D02*
X100243863Y-83733669D01*
X100243863Y-83733669D02*
X100240975Y-83724149D01*
X100240975Y-83724149D02*
X100240000Y-83714248D01*
X100240000Y-83714248D02*
X100240000Y-83465750D01*
X100240000Y-83465750D02*
X100240975Y-83455849D01*
X100240975Y-83455849D02*
X100243863Y-83446329D01*
X100243863Y-83446329D02*
X100248552Y-83437553D01*
X100248552Y-83437553D02*
X100254864Y-83429865D01*
X100254864Y-83429865D02*
X100262555Y-83423553D01*
X100262555Y-83423553D02*
X100271328Y-83418861D01*
X100271328Y-83418861D02*
X100280848Y-83415973D01*
X100280848Y-83415973D02*
X100290749Y-83414998D01*
X100290749Y-83414998D02*
X100664251Y-83414998D01*
X100664251Y-83414998D02*
X100674152Y-83415973D01*
X100674152Y-83415973D02*
X100683672Y-83418861D01*
X100683672Y-83418861D02*
X100692445Y-83423553D01*
X100692445Y-83423553D02*
X100700136Y-83429865D01*
X100700136Y-83429865D02*
X100706448Y-83437553D01*
X100706448Y-83437553D02*
X100711137Y-83446329D01*
X100711137Y-83446329D02*
X100714025Y-83455849D01*
X100714025Y-83455849D02*
X100715000Y-83465750D01*
G36*
X100674152Y-83415973D02*
G01*
X100683672Y-83418861D01*
X100692445Y-83423553D01*
X100700136Y-83429865D01*
X100706448Y-83437553D01*
X100711137Y-83446329D01*
X100714025Y-83455849D01*
X100715000Y-83465750D01*
X100715000Y-83714248D01*
X100714025Y-83724149D01*
X100711137Y-83733669D01*
X100706448Y-83742445D01*
X100700136Y-83750133D01*
X100692445Y-83756445D01*
X100683672Y-83761136D01*
X100674152Y-83764024D01*
X100664251Y-83764997D01*
X100290749Y-83764997D01*
X100280848Y-83764024D01*
X100271328Y-83761136D01*
X100262555Y-83756445D01*
X100254864Y-83750133D01*
X100248552Y-83742445D01*
X100243863Y-83733669D01*
X100240975Y-83724149D01*
X100240000Y-83714248D01*
X100240000Y-83465750D01*
X100240975Y-83455849D01*
X100243863Y-83446329D01*
X100248552Y-83437553D01*
X100254864Y-83429865D01*
X100262555Y-83423553D01*
X100271328Y-83418861D01*
X100280848Y-83415973D01*
X100290749Y-83414998D01*
X100664251Y-83414998D01*
X100674152Y-83415973D01*
G37*
X100674152Y-83415973D02*
X100683672Y-83418861D01*
X100692445Y-83423553D01*
X100700136Y-83429865D01*
X100706448Y-83437553D01*
X100711137Y-83446329D01*
X100714025Y-83455849D01*
X100715000Y-83465750D01*
X100715000Y-83714248D01*
X100714025Y-83724149D01*
X100711137Y-83733669D01*
X100706448Y-83742445D01*
X100700136Y-83750133D01*
X100692445Y-83756445D01*
X100683672Y-83761136D01*
X100674152Y-83764024D01*
X100664251Y-83764997D01*
X100290749Y-83764997D01*
X100280848Y-83764024D01*
X100271328Y-83761136D01*
X100262555Y-83756445D01*
X100254864Y-83750133D01*
X100248552Y-83742445D01*
X100243863Y-83733669D01*
X100240975Y-83724149D01*
X100240000Y-83714248D01*
X100240000Y-83465750D01*
X100240975Y-83455849D01*
X100243863Y-83446329D01*
X100248552Y-83437553D01*
X100254864Y-83429865D01*
X100262555Y-83423553D01*
X100271328Y-83418861D01*
X100280848Y-83415973D01*
X100290749Y-83414998D01*
X100664251Y-83414998D01*
X100674152Y-83415973D01*
D12*
X88802800Y-104500000D03*
D13*
X86897200Y-104500000D03*
D14*
X65786000Y-70612000D03*
X66806000Y-70612000D03*
D15*
X59100000Y-139675000D03*
X57550000Y-139675000D03*
D16*
X48352400Y-69894000D03*
X48352400Y-70394000D03*
X48352400Y-70894000D03*
X48352400Y-71394000D03*
X48352400Y-71894000D03*
X48352400Y-72394000D03*
X48352400Y-72894000D03*
X48352400Y-73394000D03*
X48352400Y-73894000D03*
X48352400Y-74394000D03*
X48352400Y-74894000D03*
X48352400Y-75394000D03*
X46652400Y-75144000D03*
X46652400Y-74644000D03*
X46652400Y-74144000D03*
X46652400Y-73644000D03*
X46652400Y-73144000D03*
X46652400Y-72644000D03*
X46652400Y-72144000D03*
X46652400Y-71644000D03*
X46652400Y-71144000D03*
X46652400Y-70644000D03*
X46652400Y-70144000D03*
X46652400Y-69644000D03*
D17*
X99525001Y-98999999D03*
X99525001Y-99500000D03*
X99525001Y-100000000D03*
X99525001Y-100500001D03*
D18*
X97000000Y-100525000D03*
X97000000Y-98975000D03*
D19*
X99000000Y-77425000D03*
X99000000Y-79075000D03*
D20*
X106300000Y-136675000D03*
X107950000Y-136675000D03*
D21*
X69090000Y-141367500D03*
X69090000Y-139792500D03*
D22*
X68630800Y-69189600D03*
X68630800Y-70739600D03*
D23*
X98947100Y-104500000D03*
X94552900Y-104500000D03*
D24*
X114825000Y-126475000D03*
X113775000Y-127525000D03*
X114825000Y-127525000D03*
X113775000Y-126475000D03*
D25*
X112437500Y-126025000D03*
X112437500Y-126675000D03*
X112437500Y-127325000D03*
X112437500Y-127975000D03*
D26*
X113325000Y-128862500D03*
X113975000Y-128862500D03*
X114625000Y-128862500D03*
X115275000Y-128862500D03*
D25*
X116162500Y-127975000D03*
X116162500Y-127325000D03*
X116162500Y-126675000D03*
X116162500Y-126025000D03*
D26*
X115275000Y-125137500D03*
X114625000Y-125137500D03*
X113975000Y-125137500D03*
X113325000Y-125137500D03*
D27*
X65925700Y-114935000D03*
X65925700Y-116205000D03*
X65925700Y-117475000D03*
X65925700Y-118745000D03*
X71234300Y-118745000D03*
X71234300Y-117475000D03*
X71234300Y-116205000D03*
X71234300Y-114935000D03*
D28*
X64262000Y-62534800D03*
X65812000Y-62534800D03*
D29*
X102500000Y-82075000D03*
X102500000Y-83975000D03*
D19*
X80550000Y-121900000D03*
X80550000Y-123550000D03*
D18*
X62230000Y-64529000D03*
X62230000Y-62979000D03*
D30*
X58267600Y-72747600D03*
X58267600Y-71727600D03*
D29*
X106475000Y-98725000D03*
X106475000Y-100625000D03*
D23*
X98447100Y-87750000D03*
X94052900Y-87750000D03*
D15*
X70325000Y-82475000D03*
X68775000Y-82475000D03*
D18*
X52857400Y-130315000D03*
X52857400Y-128765000D03*
D31*
X97750000Y-95575000D03*
X97750000Y-93925000D03*
D20*
X106300000Y-139800000D03*
X107950000Y-139800000D03*
X57595000Y-137160000D03*
X59245000Y-137160000D03*
D32*
X58267600Y-74599700D03*
X58267600Y-76174700D03*
D21*
X76710000Y-141387500D03*
X76710000Y-139812500D03*
D31*
X97250000Y-79075000D03*
X97250000Y-77425000D03*
X117881400Y-133717800D03*
X117881400Y-132067800D03*
D19*
X55880000Y-128715000D03*
X55880000Y-130365000D03*
D20*
X106300000Y-141350000D03*
X107950000Y-141350000D03*
X106300000Y-135100000D03*
X107950000Y-135100000D03*
D33*
X68632700Y-80111600D03*
X70457700Y-80111600D03*
D31*
X121031000Y-133692400D03*
X121031000Y-132042400D03*
D18*
X68326000Y-67323000D03*
X68326000Y-65773000D03*
D34*
X68427600Y-76593799D03*
X68427600Y-76993801D03*
X68427600Y-77393800D03*
X68427600Y-77793799D03*
X68427600Y-78193801D03*
X70815200Y-78193801D03*
X70815200Y-77793799D03*
X70815200Y-77393800D03*
X70815200Y-76993801D03*
X70815200Y-76593799D03*
D35*
X69621400Y-77393800D03*
D19*
X83820000Y-118555000D03*
X83820000Y-120205000D03*
D36*
X113200000Y-100747200D03*
D37*
X113200000Y-102652800D03*
D28*
X88900000Y-116840000D03*
X90450000Y-116840000D03*
D20*
X65113400Y-73253600D03*
X66763400Y-73253600D03*
D19*
X103475000Y-124850000D03*
X103475000Y-126500000D03*
D29*
X104675000Y-98725000D03*
X104675000Y-100625000D03*
D38*
X67890000Y-61770000D03*
X67890000Y-62730000D03*
D39*
X66143600Y-71882000D03*
X65123600Y-71882000D03*
D18*
X70104000Y-67323000D03*
X70104000Y-65773000D03*
D29*
X104275000Y-82075000D03*
X104275000Y-83975000D03*
D30*
X56337200Y-72747600D03*
X56337200Y-71727600D03*
D28*
X64262000Y-64058800D03*
X65812000Y-64058800D03*
D19*
X97525000Y-124775000D03*
X97525000Y-126425000D03*
D40*
X120865900Y-97129600D03*
D41*
X120865900Y-94792800D03*
X122974100Y-94792800D03*
D40*
X122974100Y-97129600D03*
D31*
X119456200Y-133717800D03*
X119456200Y-132067800D03*
D18*
X58420000Y-117615000D03*
X58420000Y-116065000D03*
D40*
X118325900Y-69189600D03*
D41*
X118325900Y-66852800D03*
X120434100Y-66852800D03*
D40*
X120434100Y-69189600D03*
D21*
X66550000Y-141367500D03*
X66550000Y-139792500D03*
D22*
X53340000Y-116065000D03*
X53340000Y-117615000D03*
D18*
X96250000Y-83815000D03*
X96250000Y-82265000D03*
D15*
X63906400Y-70916800D03*
X62356400Y-70916800D03*
X86505000Y-126600000D03*
X84955000Y-126600000D03*
D21*
X71630000Y-141397500D03*
X71630000Y-139822500D03*
D42*
X110925000Y-128005000D03*
X110925000Y-127045000D03*
D43*
X117188600Y-107173800D03*
X119500000Y-107173800D03*
X121811400Y-107173800D03*
D44*
X119500000Y-100976000D03*
D29*
X102900000Y-98725000D03*
X102900000Y-100625000D03*
X106075000Y-82100000D03*
X106075000Y-84000000D03*
D20*
X106300000Y-138225000D03*
X107950000Y-138225000D03*
D32*
X56337200Y-74574200D03*
X56337200Y-76149200D03*
D15*
X70421800Y-74879200D03*
X68871800Y-74879200D03*
D17*
X99215001Y-82289999D03*
X99215001Y-82790000D03*
X99215001Y-83290000D03*
X99215001Y-83790001D03*
D19*
X113200000Y-105250000D03*
X113200000Y-106900000D03*
D45*
X70045000Y-62738000D03*
X72195000Y-62738000D03*
D21*
X74160000Y-141407500D03*
X74160000Y-139832500D03*
D19*
X83820000Y-113475000D03*
X83820000Y-115125000D03*
D46*
X53340000Y-122857500D03*
X53340000Y-120982500D03*
D18*
X72136000Y-66561000D03*
X72136000Y-65011000D03*
D19*
X99500000Y-93925000D03*
X99500000Y-95575000D03*
M02*
