M48
; DRILL file {KiCad (6.0.2)} date Wed May  4 13:00:53 2022
; FORMAT={-:-/ absolute / metric / decimal}
; #@! TF.CreationDate,2022-05-04T13:00:53-06:00
; #@! TF.GenerationSoftware,Kicad,Pcbnew,(6.0.2)
; #@! TF.FileFunction,Plated,1,2,PTH
FMAT,2
METRIC
; #@! TA.AperFunction,Plated,PTH,ViaDrill
T1C0.200
; #@! TA.AperFunction,Plated,PTH,ViaDrill
T2C0.300
; #@! TA.AperFunction,Plated,PTH,ViaDrill
T3C0.400
; #@! TA.AperFunction,Plated,PTH,ComponentDrill
T4C0.500
; #@! TA.AperFunction,Plated,PTH,ViaDrill
T5C0.600
; #@! TA.AperFunction,Plated,PTH,ViaDrill
T6C0.781
; #@! TA.AperFunction,Plated,PTH,ViaDrill
T7C0.800
; #@! TA.AperFunction,Plated,PTH,ComponentDrill
T8C0.813
; #@! TA.AperFunction,Plated,PTH,ViaDrill
T9C1.000
; #@! TA.AperFunction,Plated,PTH,ComponentDrill
T10C1.000
; #@! TA.AperFunction,Plated,PTH,ViaDrill
T11C1.500
; #@! TA.AperFunction,Plated,PTH,ViaDrill
T12C2.033
%
G90
G05
T1
X63.15Y-79.375
X64.125Y-79.375
X65.55Y-82.475
X65.557Y-81.407
X65.575Y-78.7
X66.96Y-61.76
X72.075Y-77.039
X72.125Y-78.1
X73.307Y-70.932
X75.075Y-74.525
X78.625Y-123.55
T2
X45.97Y-69.43
X45.98Y-75.16
X47.498Y-71.171
X47.498Y-73.66
X49.098Y-73.889
X49.352Y-71.044
X59.182Y-66.954
X59.969Y-67.005
X62.027Y-66.243
X73.28Y-66.56
X116.002Y-125.12
X118.186Y-127.305
T3
X50.902Y-124.562
X54.458Y-66.954
X54.458Y-71.933
X55.042Y-131.978
X56.34Y-70.69
X56.604Y-134.619
X58.27Y-70.64
X59.66Y-135.49
X61.06Y-63.05
X61.38Y-69.98
X63.12Y-71.88
X65.54Y-111.76
X65.938Y-120.548
X65.938Y-123.342
X66.954Y-65.024
X67.005Y-71.882
X67.35Y-114.95
X67.84Y-73.24
X68.351Y-65.049
X69.6Y-114.96
X70.104Y-65.024
X71.65Y-119.99
X80.4Y-134.8
X87.49Y-125.6
X90.46Y-118.13
X94.0Y-82.25
X94.75Y-98.5
X94.875Y-126.525
X101.6Y-129.54
X101.925Y-126.675
X103.403Y-119.38
X109.22Y-121.92
X109.385Y-126.835
X110.095Y-124.31
X111.76Y-119.38
X111.825Y-129.675
X111.955Y-132.275
X114.3Y-114.3
X114.3Y-132.08
X115.083Y-114.921
X116.328Y-122.432
X116.84Y-63.5
X117.05Y-137.55
X117.881Y-130.581
X119.38Y-91.44
X119.38Y-119.38
X119.38Y-121.92
X119.38Y-124.46
X121.92Y-91.44
X122.174Y-64.11
X125.07Y-69.19
T5
X64.922Y-65.126
X67.54Y-70.612
X68.81Y-62.72
T6
X83.82Y-111.76
X122.85Y-87.04
X126.69Y-87.04
T7
X69.62Y-70.74
T8
X64.008Y-130.302
X64.008Y-137.922
X66.548Y-130.302
X66.548Y-137.922
X69.088Y-130.302
X69.088Y-137.922
X71.628Y-130.302
X71.628Y-137.922
X74.168Y-130.302
X74.168Y-137.922
X76.708Y-130.302
X76.708Y-137.922
X79.248Y-130.302
X79.248Y-137.922
X81.788Y-130.302
X81.788Y-137.922
X84.328Y-130.302
X84.328Y-137.922
X86.868Y-130.302
X86.868Y-137.922
X89.408Y-130.302
X89.408Y-137.922
X91.948Y-130.302
X91.948Y-137.922
X94.488Y-130.302
X94.488Y-137.922
X97.028Y-130.302
X97.028Y-137.922
T9
X58.471Y-64.618
T10
X48.088Y-124.237
X48.088Y-126.777
X48.088Y-129.317
X48.088Y-131.857
X48.088Y-134.397
X128.362Y-76.825
X128.362Y-79.365
X128.362Y-81.905
X128.362Y-84.445
X128.362Y-86.985
X128.362Y-89.525
X128.362Y-92.065
X128.362Y-94.605
X128.362Y-97.145
X128.362Y-99.685
X128.362Y-102.225
X128.362Y-104.765
X128.362Y-107.305
X128.362Y-109.845
X128.362Y-112.385
X128.362Y-114.925
X128.362Y-117.465
X128.362Y-120.005
X128.362Y-122.545
X128.362Y-125.085
X130.902Y-76.825
X130.902Y-79.365
X130.902Y-81.905
X130.902Y-84.445
X130.902Y-86.985
X130.902Y-89.525
X130.902Y-92.065
X130.902Y-94.605
X130.902Y-97.145
X130.902Y-99.685
X130.902Y-102.225
X130.902Y-104.765
X130.902Y-107.305
X130.902Y-109.845
X130.902Y-112.385
X130.902Y-114.925
X130.902Y-117.465
X130.902Y-120.005
X130.902Y-122.545
X130.902Y-125.085
T11
X70.025Y-89.475
T12
X83.82Y-76.2
X83.82Y-93.98
T4
X40.792Y-68.154G85X40.192Y-68.154
G05
X40.792Y-77.134G85X40.192Y-77.134
G05
X46.742Y-68.514G85X46.142Y-68.514
G05
X46.742Y-76.774G85X46.142Y-76.774
G05
T0
M30
