G04 #@! TF.GenerationSoftware,KiCad,Pcbnew,(6.0.2)*
G04 #@! TF.CreationDate,2022-05-04T12:59:18-06:00*
G04 #@! TF.ProjectId,master_schematic,6d617374-6572-45f7-9363-68656d617469,rev?*
G04 #@! TF.SameCoordinates,Original*
G04 #@! TF.FileFunction,Legend,Bot*
G04 #@! TF.FilePolarity,Positive*
%FSLAX46Y46*%
G04 Gerber Fmt 4.6, Leading zero omitted, Abs format (unit mm)*
G04 Created by KiCad (PCBNEW (6.0.2)) date 2022-05-04 12:59:18*
%MOMM*%
%LPD*%
G01*
G04 APERTURE LIST*
%ADD10C,0.150000*%
%ADD11C,0.120000*%
%ADD12C,0.650000*%
%ADD13O,0.650000X0.950000*%
%ADD14O,1.400000X0.800000*%
%ADD15C,3.000000*%
%ADD16R,1.700000X1.700000*%
%ADD17O,1.700000X1.700000*%
%ADD18R,1.320800X1.320800*%
%ADD19C,1.320800*%
%ADD20R,2.919999X1.270000*%
%ADD21R,1.650000X3.430001*%
G04 APERTURE END LIST*
D10*
X74452380Y-94666666D02*
X75166666Y-94666666D01*
X75309523Y-94619047D01*
X75404761Y-94523809D01*
X75452380Y-94380952D01*
X75452380Y-94285714D01*
X74547619Y-95095238D02*
X74500000Y-95142857D01*
X74452380Y-95238095D01*
X74452380Y-95476190D01*
X74500000Y-95571428D01*
X74547619Y-95619047D01*
X74642857Y-95666666D01*
X74738095Y-95666666D01*
X74880952Y-95619047D01*
X75452380Y-95047619D01*
X75452380Y-95666666D01*
X60415715Y-91380952D02*
X61082381Y-91380952D01*
X60034762Y-91142857D02*
X60749048Y-90904761D01*
X60749048Y-91523809D01*
X60082381Y-91809523D02*
X60082381Y-92428571D01*
X60463334Y-92095238D01*
X60463334Y-92238095D01*
X60510953Y-92333333D01*
X60558572Y-92380952D01*
X60653810Y-92428571D01*
X60891905Y-92428571D01*
X60987143Y-92380952D01*
X61034762Y-92333333D01*
X61082381Y-92238095D01*
X61082381Y-91952380D01*
X61034762Y-91857142D01*
X60987143Y-91809523D01*
X60082381Y-93285714D02*
X60082381Y-93095238D01*
X60130001Y-93000000D01*
X60177620Y-92952380D01*
X60320477Y-92857142D01*
X60510953Y-92809523D01*
X60891905Y-92809523D01*
X60987143Y-92857142D01*
X61034762Y-92904761D01*
X61082381Y-93000000D01*
X61082381Y-93190476D01*
X61034762Y-93285714D01*
X60987143Y-93333333D01*
X60891905Y-93380952D01*
X60653810Y-93380952D01*
X60558572Y-93333333D01*
X60510953Y-93285714D01*
X60463334Y-93190476D01*
X60463334Y-93000000D01*
X60510953Y-92904761D01*
X60558572Y-92857142D01*
X60653810Y-92809523D01*
X60082381Y-94285714D02*
X60082381Y-93809523D01*
X60558572Y-93761904D01*
X60510953Y-93809523D01*
X60463334Y-93904761D01*
X60463334Y-94142857D01*
X60510953Y-94238095D01*
X60558572Y-94285714D01*
X60653810Y-94333333D01*
X60891905Y-94333333D01*
X60987143Y-94285714D01*
X61034762Y-94238095D01*
X61082381Y-94142857D01*
X61082381Y-93904761D01*
X61034762Y-93809523D01*
X60987143Y-93761904D01*
X60082381Y-94952380D02*
X60082381Y-95047619D01*
X60130001Y-95142857D01*
X60177620Y-95190476D01*
X60272858Y-95238095D01*
X60463334Y-95285714D01*
X60701429Y-95285714D01*
X60891905Y-95238095D01*
X60987143Y-95190476D01*
X61034762Y-95142857D01*
X61082381Y-95047619D01*
X61082381Y-94952380D01*
X61034762Y-94857142D01*
X60987143Y-94809523D01*
X60891905Y-94761904D01*
X60701429Y-94714285D01*
X60463334Y-94714285D01*
X60272858Y-94761904D01*
X60177620Y-94809523D01*
X60130001Y-94857142D01*
X60082381Y-94952380D01*
X60082381Y-95904761D02*
X60082381Y-96000000D01*
X60130001Y-96095238D01*
X60177620Y-96142857D01*
X60272858Y-96190476D01*
X60463334Y-96238095D01*
X60701429Y-96238095D01*
X60891905Y-96190476D01*
X60987143Y-96142857D01*
X61034762Y-96095238D01*
X61082381Y-96000000D01*
X61082381Y-95904761D01*
X61034762Y-95809523D01*
X60987143Y-95761904D01*
X60891905Y-95714285D01*
X60701429Y-95666666D01*
X60463334Y-95666666D01*
X60272858Y-95714285D01*
X60177620Y-95761904D01*
X60130001Y-95809523D01*
X60082381Y-95904761D01*
X60177620Y-96619047D02*
X60130001Y-96666666D01*
X60082381Y-96761904D01*
X60082381Y-97000000D01*
X60130001Y-97095238D01*
X60177620Y-97142857D01*
X60272858Y-97190476D01*
X60368096Y-97190476D01*
X60510953Y-97142857D01*
X61082381Y-96571428D01*
X61082381Y-97190476D01*
X61082381Y-98142857D02*
X61082381Y-97571428D01*
X61082381Y-97857142D02*
X60082381Y-97857142D01*
X60225239Y-97761904D01*
X60320477Y-97666666D01*
X60368096Y-97571428D01*
X60177620Y-98523809D02*
X60130001Y-98571428D01*
X60082381Y-98666666D01*
X60082381Y-98904761D01*
X60130001Y-99000000D01*
X60177620Y-99047619D01*
X60272858Y-99095238D01*
X60368096Y-99095238D01*
X60510953Y-99047619D01*
X61082381Y-98476190D01*
X61082381Y-99095238D01*
D11*
X46978000Y-123856800D02*
X46648000Y-123856800D01*
X46648000Y-130586800D02*
X43988000Y-130586800D01*
X46648000Y-128046800D02*
X43988000Y-128046800D01*
X46648000Y-122906800D02*
X46648000Y-135726800D01*
X46978000Y-124616800D02*
X46648000Y-124616800D01*
X47045071Y-128936800D02*
X46648000Y-128936800D01*
X43988000Y-122906800D02*
X46648000Y-122906800D01*
X47045071Y-129696800D02*
X46648000Y-129696800D01*
X47045071Y-134776800D02*
X46648000Y-134776800D01*
X47045071Y-126396800D02*
X46648000Y-126396800D01*
X47045071Y-134016800D02*
X46648000Y-134016800D01*
X43988000Y-135726800D02*
X43988000Y-122906800D01*
X47045071Y-127156800D02*
X46648000Y-127156800D01*
X47045071Y-131476800D02*
X46648000Y-131476800D01*
X49358000Y-124236800D02*
X49358000Y-122966800D01*
X46648000Y-135726800D02*
X43988000Y-135726800D01*
X49358000Y-122966800D02*
X48088000Y-122966800D01*
X47045071Y-132236800D02*
X46648000Y-132236800D01*
X46648000Y-133126800D02*
X43988000Y-133126800D01*
X46648000Y-125506800D02*
X43988000Y-125506800D01*
X69245000Y-103348987D02*
X70515000Y-103348987D01*
X69249999Y-92544960D02*
X69249999Y-88175015D01*
X70515000Y-103348987D02*
X69880000Y-102078987D01*
X79950000Y-101824987D02*
X76495052Y-101824987D01*
X69880000Y-102078987D02*
X69245000Y-103348987D01*
X76495052Y-88175015D02*
X79950000Y-88175015D01*
X69249999Y-95544960D02*
X69249999Y-94455040D01*
X69249999Y-101824987D02*
X69249999Y-97455040D01*
X69249999Y-88175015D02*
X74204972Y-88175015D01*
X79950000Y-88175015D02*
X79950000Y-101824987D01*
X74204972Y-101824987D02*
X69249999Y-101824987D01*
%LPC*%
D12*
X47692400Y-69044000D03*
D13*
X47692400Y-76244000D03*
D14*
X40492400Y-68154000D03*
X46442400Y-76774000D03*
X40492400Y-77134000D03*
X46442400Y-68514000D03*
D15*
X121442000Y-141730000D03*
D16*
X128362000Y-76825000D03*
D17*
X130902000Y-76825000D03*
X128362000Y-79365000D03*
X130902000Y-79365000D03*
X128362000Y-81905000D03*
X130902000Y-81905000D03*
X128362000Y-84445000D03*
X130902000Y-84445000D03*
X128362000Y-86985000D03*
X130902000Y-86985000D03*
X128362000Y-89525000D03*
X130902000Y-89525000D03*
X128362000Y-92065000D03*
X130902000Y-92065000D03*
X128362000Y-94605000D03*
X130902000Y-94605000D03*
X128362000Y-97145000D03*
X130902000Y-97145000D03*
X128362000Y-99685000D03*
X130902000Y-99685000D03*
X128362000Y-102225000D03*
X130902000Y-102225000D03*
X128362000Y-104765000D03*
X130902000Y-104765000D03*
X128362000Y-107305000D03*
X130902000Y-107305000D03*
X128362000Y-109845000D03*
X130902000Y-109845000D03*
X128362000Y-112385000D03*
X130902000Y-112385000D03*
X128362000Y-114925000D03*
X130902000Y-114925000D03*
X128362000Y-117465000D03*
X130902000Y-117465000D03*
X128362000Y-120005000D03*
X130902000Y-120005000D03*
X128362000Y-122545000D03*
X130902000Y-122545000D03*
X128362000Y-125085000D03*
X130902000Y-125085000D03*
D18*
X64008000Y-137922000D03*
D19*
X66548000Y-137922000D03*
X69088000Y-137922000D03*
X71628000Y-137922000D03*
X74168000Y-137922000D03*
X76708000Y-137922000D03*
X79248000Y-137922000D03*
X81788000Y-137922000D03*
X84328000Y-137922000D03*
X86868000Y-137922000D03*
X89408000Y-137922000D03*
X91948000Y-137922000D03*
X94488000Y-137922000D03*
X97028000Y-137922000D03*
X97028000Y-130302000D03*
X94488000Y-130302000D03*
X91948000Y-130302000D03*
X89408000Y-130302000D03*
X86868000Y-130302000D03*
X84328000Y-130302000D03*
X81788000Y-130302000D03*
X79248000Y-130302000D03*
X76708000Y-130302000D03*
X74168000Y-130302000D03*
X71628000Y-130302000D03*
X69088000Y-130302000D03*
X66548000Y-130302000D03*
X64008000Y-130302000D03*
D15*
X41742000Y-60030000D03*
X41742000Y-141730000D03*
X121442000Y-60030000D03*
D16*
X48088000Y-124236800D03*
D17*
X48088000Y-126776800D03*
X48088000Y-129316800D03*
X48088000Y-131856800D03*
X48088000Y-134396800D03*
D20*
X69880000Y-96500000D03*
X69880000Y-93500000D03*
D21*
X75350012Y-100385006D03*
X75350012Y-89614994D03*
M02*
