G04 #@! TF.GenerationSoftware,KiCad,Pcbnew,(6.0.2)*
G04 #@! TF.CreationDate,2022-05-04T12:59:18-06:00*
G04 #@! TF.ProjectId,master_schematic,6d617374-6572-45f7-9363-68656d617469,rev?*
G04 #@! TF.SameCoordinates,Original*
G04 #@! TF.FileFunction,Soldermask,Top*
G04 #@! TF.FilePolarity,Negative*
%FSLAX46Y46*%
G04 Gerber Fmt 4.6, Leading zero omitted, Abs format (unit mm)*
G04 Created by KiCad (PCBNEW (6.0.2)) date 2022-05-04 12:59:18*
%MOMM*%
%LPD*%
G01*
G04 APERTURE LIST*
G04 Aperture macros list*
%AMRoundRect*
0 Rectangle with rounded corners*
0 $1 Rounding radius*
0 $2 $3 $4 $5 $6 $7 $8 $9 X,Y pos of 4 corners*
0 Add a 4 corners polygon primitive as box body*
4,1,4,$2,$3,$4,$5,$6,$7,$8,$9,$2,$3,0*
0 Add four circle primitives for the rounded corners*
1,1,$1+$1,$2,$3*
1,1,$1+$1,$4,$5*
1,1,$1+$1,$6,$7*
1,1,$1+$1,$8,$9*
0 Add four rect primitives between the rounded corners*
20,1,$1+$1,$2,$3,$4,$5,0*
20,1,$1+$1,$4,$5,$6,$7,0*
20,1,$1+$1,$6,$7,$8,$9,0*
20,1,$1+$1,$8,$9,$2,$3,0*%
G04 Aperture macros list end*
%ADD10C,0.010000*%
%ADD11R,1.755600X0.880000*%
%ADD12R,0.855600X0.600000*%
%ADD13RoundRect,0.135000X-0.135000X-0.185000X0.135000X-0.185000X0.135000X0.185000X-0.135000X0.185000X0*%
%ADD14RoundRect,0.225000X0.225000X0.250000X-0.225000X0.250000X-0.225000X-0.250000X0.225000X-0.250000X0*%
%ADD15C,0.650000*%
%ADD16O,0.650000X0.950000*%
%ADD17R,0.700000X0.300000*%
%ADD18O,1.400000X0.800000*%
%ADD19R,1.150000X0.349999*%
%ADD20R,1.450000X0.200000*%
%ADD21R,0.449999X0.249999*%
%ADD22RoundRect,0.225000X0.250000X-0.225000X0.250000X0.225000X-0.250000X0.225000X-0.250000X-0.225000X0*%
%ADD23RoundRect,0.200000X-0.275000X0.200000X-0.275000X-0.200000X0.275000X-0.200000X0.275000X0.200000X0*%
%ADD24RoundRect,0.200000X-0.200000X-0.275000X0.200000X-0.275000X0.200000X0.275000X-0.200000X0.275000X0*%
%ADD25RoundRect,0.218750X0.256250X-0.218750X0.256250X0.218750X-0.256250X0.218750X-0.256250X-0.218750X0*%
%ADD26RoundRect,0.225000X-0.250000X0.225000X-0.250000X-0.225000X0.250000X-0.225000X0.250000X0.225000X0*%
%ADD27R,1.498600X1.295400*%
%ADD28RoundRect,0.087500X-0.425000X-0.087500X0.425000X-0.087500X0.425000X0.087500X-0.425000X0.087500X0*%
%ADD29RoundRect,0.087500X-0.087500X-0.425000X0.087500X-0.425000X0.087500X0.425000X-0.087500X0.425000X0*%
%ADD30R,2.100000X2.100000*%
%ADD31R,1.397000X0.558800*%
%ADD32RoundRect,0.225000X-0.225000X-0.250000X0.225000X-0.250000X0.225000X0.250000X-0.225000X0.250000X0*%
%ADD33RoundRect,0.250000X-0.475000X0.250000X-0.475000X-0.250000X0.475000X-0.250000X0.475000X0.250000X0*%
%ADD34RoundRect,0.135000X0.185000X-0.135000X0.185000X0.135000X-0.185000X0.135000X-0.185000X-0.135000X0*%
%ADD35C,3.000000*%
%ADD36RoundRect,0.200000X0.275000X-0.200000X0.275000X0.200000X-0.275000X0.200000X-0.275000X-0.200000X0*%
%ADD37RoundRect,0.218750X-0.256250X0.218750X-0.256250X-0.218750X0.256250X-0.218750X0.256250X0.218750X0*%
%ADD38RoundRect,0.250000X-0.262500X-0.450000X0.262500X-0.450000X0.262500X0.450000X-0.262500X0.450000X0*%
%ADD39R,1.700000X1.700000*%
%ADD40O,1.700000X1.700000*%
%ADD41R,0.711200X0.203200*%
%ADD42R,1.295400X1.397000*%
%ADD43R,1.320800X1.320800*%
%ADD44C,1.320800*%
%ADD45R,0.880000X1.755600*%
%ADD46R,0.600000X0.855600*%
%ADD47RoundRect,0.140000X-0.170000X0.140000X-0.170000X-0.140000X0.170000X-0.140000X0.170000X0.140000X0*%
%ADD48RoundRect,0.135000X0.135000X0.185000X-0.135000X0.185000X-0.135000X-0.185000X0.135000X-0.185000X0*%
%ADD49R,1.498600X2.946400*%
%ADD50R,1.498600X0.711200*%
%ADD51R,1.500000X1.000000*%
%ADD52RoundRect,0.140000X0.170000X-0.140000X0.170000X0.140000X-0.170000X0.140000X-0.170000X-0.140000X0*%
%ADD53R,1.219200X2.235200*%
%ADD54R,3.600000X2.200000*%
%ADD55RoundRect,0.250000X-0.375000X-0.850000X0.375000X-0.850000X0.375000X0.850000X-0.375000X0.850000X0*%
%ADD56RoundRect,0.243750X0.456250X-0.243750X0.456250X0.243750X-0.456250X0.243750X-0.456250X-0.243750X0*%
G04 APERTURE END LIST*
D10*
X62666000Y-67214000D02*
X63291000Y-67214000D01*
X63291000Y-67214000D02*
X63299000Y-67214000D01*
X63299000Y-67214000D02*
X63307000Y-67215000D01*
X63307000Y-67215000D02*
X63314000Y-67216000D01*
X63314000Y-67216000D02*
X63322000Y-67217000D01*
X63322000Y-67217000D02*
X63330000Y-67219000D01*
X63330000Y-67219000D02*
X63337000Y-67221000D01*
X63337000Y-67221000D02*
X63345000Y-67224000D01*
X63345000Y-67224000D02*
X63352000Y-67227000D01*
X63352000Y-67227000D02*
X63359000Y-67230000D01*
X63359000Y-67230000D02*
X63366000Y-67234000D01*
X63366000Y-67234000D02*
X63373000Y-67238000D01*
X63373000Y-67238000D02*
X63379000Y-67243000D01*
X63379000Y-67243000D02*
X63385000Y-67247000D01*
X63385000Y-67247000D02*
X63391000Y-67253000D01*
X63391000Y-67253000D02*
X63397000Y-67258000D01*
X63397000Y-67258000D02*
X63402000Y-67264000D01*
X63402000Y-67264000D02*
X63408000Y-67270000D01*
X63408000Y-67270000D02*
X63412000Y-67276000D01*
X63412000Y-67276000D02*
X63417000Y-67282000D01*
X63417000Y-67282000D02*
X63421000Y-67289000D01*
X63421000Y-67289000D02*
X63425000Y-67296000D01*
X63425000Y-67296000D02*
X63428000Y-67303000D01*
X63428000Y-67303000D02*
X63431000Y-67310000D01*
X63431000Y-67310000D02*
X63434000Y-67318000D01*
X63434000Y-67318000D02*
X63436000Y-67325000D01*
X63436000Y-67325000D02*
X63438000Y-67333000D01*
X63438000Y-67333000D02*
X63439000Y-67341000D01*
X63439000Y-67341000D02*
X63440000Y-67348000D01*
X63440000Y-67348000D02*
X63441000Y-67356000D01*
X63441000Y-67356000D02*
X63441000Y-67364000D01*
X63441000Y-67364000D02*
X63441000Y-67372000D01*
X63441000Y-67372000D02*
X63440000Y-67380000D01*
X63440000Y-67380000D02*
X63439000Y-67387000D01*
X63439000Y-67387000D02*
X63438000Y-67395000D01*
X63438000Y-67395000D02*
X63436000Y-67403000D01*
X63436000Y-67403000D02*
X63434000Y-67410000D01*
X63434000Y-67410000D02*
X63431000Y-67418000D01*
X63431000Y-67418000D02*
X63428000Y-67425000D01*
X63428000Y-67425000D02*
X63425000Y-67432000D01*
X63425000Y-67432000D02*
X63421000Y-67439000D01*
X63421000Y-67439000D02*
X63417000Y-67446000D01*
X63417000Y-67446000D02*
X63412000Y-67452000D01*
X63412000Y-67452000D02*
X63408000Y-67458000D01*
X63408000Y-67458000D02*
X63402000Y-67464000D01*
X63402000Y-67464000D02*
X63397000Y-67470000D01*
X63397000Y-67470000D02*
X63391000Y-67475000D01*
X63391000Y-67475000D02*
X63385000Y-67481000D01*
X63385000Y-67481000D02*
X63379000Y-67485000D01*
X63379000Y-67485000D02*
X63373000Y-67490000D01*
X63373000Y-67490000D02*
X63366000Y-67494000D01*
X63366000Y-67494000D02*
X63359000Y-67498000D01*
X63359000Y-67498000D02*
X63352000Y-67501000D01*
X63352000Y-67501000D02*
X63345000Y-67504000D01*
X63345000Y-67504000D02*
X63337000Y-67507000D01*
X63337000Y-67507000D02*
X63330000Y-67509000D01*
X63330000Y-67509000D02*
X63322000Y-67511000D01*
X63322000Y-67511000D02*
X63314000Y-67512000D01*
X63314000Y-67512000D02*
X63307000Y-67513000D01*
X63307000Y-67513000D02*
X63299000Y-67514000D01*
X63299000Y-67514000D02*
X63291000Y-67514000D01*
X63291000Y-67514000D02*
X62666000Y-67514000D01*
X62666000Y-67514000D02*
X62666000Y-67214000D01*
X62666000Y-67214000D02*
X62666000Y-67214000D01*
G36*
X63307000Y-67215000D02*
G01*
X63314000Y-67216000D01*
X63322000Y-67217000D01*
X63330000Y-67219000D01*
X63337000Y-67221000D01*
X63345000Y-67224000D01*
X63359000Y-67230000D01*
X63373000Y-67238000D01*
X63379000Y-67243000D01*
X63385000Y-67247000D01*
X63391000Y-67253000D01*
X63397000Y-67258000D01*
X63402000Y-67264000D01*
X63408000Y-67270000D01*
X63412000Y-67276000D01*
X63417000Y-67282000D01*
X63425000Y-67296000D01*
X63431000Y-67310000D01*
X63434000Y-67318000D01*
X63436000Y-67325000D01*
X63438000Y-67333000D01*
X63439000Y-67341000D01*
X63440000Y-67348000D01*
X63441000Y-67356000D01*
X63441000Y-67372000D01*
X63440000Y-67380000D01*
X63439000Y-67387000D01*
X63438000Y-67395000D01*
X63436000Y-67403000D01*
X63434000Y-67410000D01*
X63431000Y-67418000D01*
X63425000Y-67432000D01*
X63417000Y-67446000D01*
X63412000Y-67452000D01*
X63408000Y-67458000D01*
X63402000Y-67464000D01*
X63397000Y-67470000D01*
X63391000Y-67475000D01*
X63385000Y-67481000D01*
X63379000Y-67485000D01*
X63373000Y-67490000D01*
X63359000Y-67498000D01*
X63345000Y-67504000D01*
X63337000Y-67507000D01*
X63330000Y-67509000D01*
X63322000Y-67511000D01*
X63314000Y-67512000D01*
X63307000Y-67513000D01*
X63299000Y-67514000D01*
X62666000Y-67514000D01*
X62666000Y-67214000D01*
X63299000Y-67214000D01*
X63307000Y-67215000D01*
G37*
X63307000Y-67215000D02*
X63314000Y-67216000D01*
X63322000Y-67217000D01*
X63330000Y-67219000D01*
X63337000Y-67221000D01*
X63345000Y-67224000D01*
X63359000Y-67230000D01*
X63373000Y-67238000D01*
X63379000Y-67243000D01*
X63385000Y-67247000D01*
X63391000Y-67253000D01*
X63397000Y-67258000D01*
X63402000Y-67264000D01*
X63408000Y-67270000D01*
X63412000Y-67276000D01*
X63417000Y-67282000D01*
X63425000Y-67296000D01*
X63431000Y-67310000D01*
X63434000Y-67318000D01*
X63436000Y-67325000D01*
X63438000Y-67333000D01*
X63439000Y-67341000D01*
X63440000Y-67348000D01*
X63441000Y-67356000D01*
X63441000Y-67372000D01*
X63440000Y-67380000D01*
X63439000Y-67387000D01*
X63438000Y-67395000D01*
X63436000Y-67403000D01*
X63434000Y-67410000D01*
X63431000Y-67418000D01*
X63425000Y-67432000D01*
X63417000Y-67446000D01*
X63412000Y-67452000D01*
X63408000Y-67458000D01*
X63402000Y-67464000D01*
X63397000Y-67470000D01*
X63391000Y-67475000D01*
X63385000Y-67481000D01*
X63379000Y-67485000D01*
X63373000Y-67490000D01*
X63359000Y-67498000D01*
X63345000Y-67504000D01*
X63337000Y-67507000D01*
X63330000Y-67509000D01*
X63322000Y-67511000D01*
X63314000Y-67512000D01*
X63307000Y-67513000D01*
X63299000Y-67514000D01*
X62666000Y-67514000D01*
X62666000Y-67214000D01*
X63299000Y-67214000D01*
X63307000Y-67215000D01*
X65366000Y-69414000D02*
X65366000Y-68689000D01*
X65366000Y-68689000D02*
X65529000Y-68689000D01*
X65529000Y-68689000D02*
X65666000Y-68826000D01*
X65666000Y-68826000D02*
X65666000Y-69414000D01*
X65666000Y-69414000D02*
X65366000Y-69414000D01*
G36*
X65666000Y-68826000D02*
G01*
X65666000Y-69414000D01*
X65366000Y-69414000D01*
X65366000Y-68689000D01*
X65529000Y-68689000D01*
X65666000Y-68826000D01*
G37*
X65666000Y-68826000D02*
X65666000Y-69414000D01*
X65366000Y-69414000D01*
X65366000Y-68689000D01*
X65529000Y-68689000D01*
X65666000Y-68826000D01*
X64566000Y-69414000D02*
X64566000Y-68789000D01*
X64566000Y-68789000D02*
X64566000Y-68781000D01*
X64566000Y-68781000D02*
X64567000Y-68773000D01*
X64567000Y-68773000D02*
X64568000Y-68766000D01*
X64568000Y-68766000D02*
X64569000Y-68758000D01*
X64569000Y-68758000D02*
X64571000Y-68750000D01*
X64571000Y-68750000D02*
X64573000Y-68743000D01*
X64573000Y-68743000D02*
X64576000Y-68735000D01*
X64576000Y-68735000D02*
X64579000Y-68728000D01*
X64579000Y-68728000D02*
X64582000Y-68721000D01*
X64582000Y-68721000D02*
X64586000Y-68714000D01*
X64586000Y-68714000D02*
X64590000Y-68707000D01*
X64590000Y-68707000D02*
X64595000Y-68701000D01*
X64595000Y-68701000D02*
X64599000Y-68695000D01*
X64599000Y-68695000D02*
X64605000Y-68689000D01*
X64605000Y-68689000D02*
X64610000Y-68683000D01*
X64610000Y-68683000D02*
X64616000Y-68678000D01*
X64616000Y-68678000D02*
X64622000Y-68672000D01*
X64622000Y-68672000D02*
X64628000Y-68668000D01*
X64628000Y-68668000D02*
X64634000Y-68663000D01*
X64634000Y-68663000D02*
X64641000Y-68659000D01*
X64641000Y-68659000D02*
X64648000Y-68655000D01*
X64648000Y-68655000D02*
X64655000Y-68652000D01*
X64655000Y-68652000D02*
X64662000Y-68649000D01*
X64662000Y-68649000D02*
X64670000Y-68646000D01*
X64670000Y-68646000D02*
X64677000Y-68644000D01*
X64677000Y-68644000D02*
X64685000Y-68642000D01*
X64685000Y-68642000D02*
X64693000Y-68641000D01*
X64693000Y-68641000D02*
X64700000Y-68640000D01*
X64700000Y-68640000D02*
X64708000Y-68639000D01*
X64708000Y-68639000D02*
X64716000Y-68639000D01*
X64716000Y-68639000D02*
X64724000Y-68639000D01*
X64724000Y-68639000D02*
X64732000Y-68640000D01*
X64732000Y-68640000D02*
X64739000Y-68641000D01*
X64739000Y-68641000D02*
X64747000Y-68642000D01*
X64747000Y-68642000D02*
X64755000Y-68644000D01*
X64755000Y-68644000D02*
X64762000Y-68646000D01*
X64762000Y-68646000D02*
X64770000Y-68649000D01*
X64770000Y-68649000D02*
X64777000Y-68652000D01*
X64777000Y-68652000D02*
X64784000Y-68655000D01*
X64784000Y-68655000D02*
X64791000Y-68659000D01*
X64791000Y-68659000D02*
X64798000Y-68663000D01*
X64798000Y-68663000D02*
X64804000Y-68668000D01*
X64804000Y-68668000D02*
X64810000Y-68672000D01*
X64810000Y-68672000D02*
X64816000Y-68678000D01*
X64816000Y-68678000D02*
X64822000Y-68683000D01*
X64822000Y-68683000D02*
X64827000Y-68689000D01*
X64827000Y-68689000D02*
X64833000Y-68695000D01*
X64833000Y-68695000D02*
X64837000Y-68701000D01*
X64837000Y-68701000D02*
X64842000Y-68707000D01*
X64842000Y-68707000D02*
X64846000Y-68714000D01*
X64846000Y-68714000D02*
X64850000Y-68721000D01*
X64850000Y-68721000D02*
X64853000Y-68728000D01*
X64853000Y-68728000D02*
X64856000Y-68735000D01*
X64856000Y-68735000D02*
X64859000Y-68743000D01*
X64859000Y-68743000D02*
X64861000Y-68750000D01*
X64861000Y-68750000D02*
X64863000Y-68758000D01*
X64863000Y-68758000D02*
X64864000Y-68766000D01*
X64864000Y-68766000D02*
X64865000Y-68773000D01*
X64865000Y-68773000D02*
X64866000Y-68781000D01*
X64866000Y-68781000D02*
X64866000Y-68789000D01*
X64866000Y-68789000D02*
X64866000Y-69414000D01*
X64866000Y-69414000D02*
X64566000Y-69414000D01*
X64566000Y-69414000D02*
X64566000Y-69414000D01*
G36*
X64732000Y-68640000D02*
G01*
X64739000Y-68641000D01*
X64747000Y-68642000D01*
X64755000Y-68644000D01*
X64762000Y-68646000D01*
X64770000Y-68649000D01*
X64784000Y-68655000D01*
X64798000Y-68663000D01*
X64804000Y-68668000D01*
X64810000Y-68672000D01*
X64816000Y-68678000D01*
X64822000Y-68683000D01*
X64827000Y-68689000D01*
X64833000Y-68695000D01*
X64837000Y-68701000D01*
X64842000Y-68707000D01*
X64850000Y-68721000D01*
X64856000Y-68735000D01*
X64859000Y-68743000D01*
X64861000Y-68750000D01*
X64863000Y-68758000D01*
X64864000Y-68766000D01*
X64865000Y-68773000D01*
X64866000Y-68781000D01*
X64866000Y-69414000D01*
X64566000Y-69414000D01*
X64566000Y-68781000D01*
X64567000Y-68773000D01*
X64568000Y-68766000D01*
X64569000Y-68758000D01*
X64571000Y-68750000D01*
X64573000Y-68743000D01*
X64576000Y-68735000D01*
X64582000Y-68721000D01*
X64590000Y-68707000D01*
X64595000Y-68701000D01*
X64599000Y-68695000D01*
X64605000Y-68689000D01*
X64610000Y-68683000D01*
X64616000Y-68678000D01*
X64622000Y-68672000D01*
X64628000Y-68668000D01*
X64634000Y-68663000D01*
X64648000Y-68655000D01*
X64662000Y-68649000D01*
X64670000Y-68646000D01*
X64677000Y-68644000D01*
X64685000Y-68642000D01*
X64693000Y-68641000D01*
X64700000Y-68640000D01*
X64708000Y-68639000D01*
X64724000Y-68639000D01*
X64732000Y-68640000D01*
G37*
X64732000Y-68640000D02*
X64739000Y-68641000D01*
X64747000Y-68642000D01*
X64755000Y-68644000D01*
X64762000Y-68646000D01*
X64770000Y-68649000D01*
X64784000Y-68655000D01*
X64798000Y-68663000D01*
X64804000Y-68668000D01*
X64810000Y-68672000D01*
X64816000Y-68678000D01*
X64822000Y-68683000D01*
X64827000Y-68689000D01*
X64833000Y-68695000D01*
X64837000Y-68701000D01*
X64842000Y-68707000D01*
X64850000Y-68721000D01*
X64856000Y-68735000D01*
X64859000Y-68743000D01*
X64861000Y-68750000D01*
X64863000Y-68758000D01*
X64864000Y-68766000D01*
X64865000Y-68773000D01*
X64866000Y-68781000D01*
X64866000Y-69414000D01*
X64566000Y-69414000D01*
X64566000Y-68781000D01*
X64567000Y-68773000D01*
X64568000Y-68766000D01*
X64569000Y-68758000D01*
X64571000Y-68750000D01*
X64573000Y-68743000D01*
X64576000Y-68735000D01*
X64582000Y-68721000D01*
X64590000Y-68707000D01*
X64595000Y-68701000D01*
X64599000Y-68695000D01*
X64605000Y-68689000D01*
X64610000Y-68683000D01*
X64616000Y-68678000D01*
X64622000Y-68672000D01*
X64628000Y-68668000D01*
X64634000Y-68663000D01*
X64648000Y-68655000D01*
X64662000Y-68649000D01*
X64670000Y-68646000D01*
X64677000Y-68644000D01*
X64685000Y-68642000D01*
X64693000Y-68641000D01*
X64700000Y-68640000D01*
X64708000Y-68639000D01*
X64724000Y-68639000D01*
X64732000Y-68640000D01*
X64166000Y-69414000D02*
X64166000Y-68139000D01*
X64166000Y-68139000D02*
X64166000Y-68131000D01*
X64166000Y-68131000D02*
X64167000Y-68123000D01*
X64167000Y-68123000D02*
X64168000Y-68116000D01*
X64168000Y-68116000D02*
X64169000Y-68108000D01*
X64169000Y-68108000D02*
X64171000Y-68100000D01*
X64171000Y-68100000D02*
X64173000Y-68093000D01*
X64173000Y-68093000D02*
X64176000Y-68085000D01*
X64176000Y-68085000D02*
X64179000Y-68078000D01*
X64179000Y-68078000D02*
X64182000Y-68071000D01*
X64182000Y-68071000D02*
X64186000Y-68064000D01*
X64186000Y-68064000D02*
X64190000Y-68057000D01*
X64190000Y-68057000D02*
X64195000Y-68051000D01*
X64195000Y-68051000D02*
X64199000Y-68045000D01*
X64199000Y-68045000D02*
X64205000Y-68039000D01*
X64205000Y-68039000D02*
X64210000Y-68033000D01*
X64210000Y-68033000D02*
X64216000Y-68028000D01*
X64216000Y-68028000D02*
X64222000Y-68022000D01*
X64222000Y-68022000D02*
X64228000Y-68018000D01*
X64228000Y-68018000D02*
X64234000Y-68013000D01*
X64234000Y-68013000D02*
X64241000Y-68009000D01*
X64241000Y-68009000D02*
X64248000Y-68005000D01*
X64248000Y-68005000D02*
X64255000Y-68002000D01*
X64255000Y-68002000D02*
X64262000Y-67999000D01*
X64262000Y-67999000D02*
X64270000Y-67996000D01*
X64270000Y-67996000D02*
X64277000Y-67994000D01*
X64277000Y-67994000D02*
X64285000Y-67992000D01*
X64285000Y-67992000D02*
X64293000Y-67991000D01*
X64293000Y-67991000D02*
X64300000Y-67990000D01*
X64300000Y-67990000D02*
X64308000Y-67989000D01*
X64308000Y-67989000D02*
X64316000Y-67989000D01*
X64316000Y-67989000D02*
X64324000Y-67989000D01*
X64324000Y-67989000D02*
X64332000Y-67990000D01*
X64332000Y-67990000D02*
X64339000Y-67991000D01*
X64339000Y-67991000D02*
X64347000Y-67992000D01*
X64347000Y-67992000D02*
X64355000Y-67994000D01*
X64355000Y-67994000D02*
X64362000Y-67996000D01*
X64362000Y-67996000D02*
X64370000Y-67999000D01*
X64370000Y-67999000D02*
X64377000Y-68002000D01*
X64377000Y-68002000D02*
X64384000Y-68005000D01*
X64384000Y-68005000D02*
X64391000Y-68009000D01*
X64391000Y-68009000D02*
X64398000Y-68013000D01*
X64398000Y-68013000D02*
X64404000Y-68018000D01*
X64404000Y-68018000D02*
X64410000Y-68022000D01*
X64410000Y-68022000D02*
X64416000Y-68028000D01*
X64416000Y-68028000D02*
X64422000Y-68033000D01*
X64422000Y-68033000D02*
X64427000Y-68039000D01*
X64427000Y-68039000D02*
X64433000Y-68045000D01*
X64433000Y-68045000D02*
X64437000Y-68051000D01*
X64437000Y-68051000D02*
X64442000Y-68057000D01*
X64442000Y-68057000D02*
X64446000Y-68064000D01*
X64446000Y-68064000D02*
X64450000Y-68071000D01*
X64450000Y-68071000D02*
X64453000Y-68078000D01*
X64453000Y-68078000D02*
X64456000Y-68085000D01*
X64456000Y-68085000D02*
X64459000Y-68093000D01*
X64459000Y-68093000D02*
X64461000Y-68100000D01*
X64461000Y-68100000D02*
X64463000Y-68108000D01*
X64463000Y-68108000D02*
X64464000Y-68116000D01*
X64464000Y-68116000D02*
X64465000Y-68123000D01*
X64465000Y-68123000D02*
X64466000Y-68131000D01*
X64466000Y-68131000D02*
X64466000Y-68139000D01*
X64466000Y-68139000D02*
X64466000Y-69414000D01*
X64466000Y-69414000D02*
X64166000Y-69414000D01*
X64166000Y-69414000D02*
X64166000Y-69414000D01*
G36*
X64332000Y-67990000D02*
G01*
X64339000Y-67991000D01*
X64347000Y-67992000D01*
X64355000Y-67994000D01*
X64362000Y-67996000D01*
X64370000Y-67999000D01*
X64384000Y-68005000D01*
X64398000Y-68013000D01*
X64404000Y-68018000D01*
X64410000Y-68022000D01*
X64416000Y-68028000D01*
X64422000Y-68033000D01*
X64427000Y-68039000D01*
X64433000Y-68045000D01*
X64437000Y-68051000D01*
X64442000Y-68057000D01*
X64450000Y-68071000D01*
X64456000Y-68085000D01*
X64459000Y-68093000D01*
X64461000Y-68100000D01*
X64463000Y-68108000D01*
X64464000Y-68116000D01*
X64465000Y-68123000D01*
X64466000Y-68131000D01*
X64466000Y-69414000D01*
X64166000Y-69414000D01*
X64166000Y-68131000D01*
X64167000Y-68123000D01*
X64168000Y-68116000D01*
X64169000Y-68108000D01*
X64171000Y-68100000D01*
X64173000Y-68093000D01*
X64176000Y-68085000D01*
X64182000Y-68071000D01*
X64190000Y-68057000D01*
X64195000Y-68051000D01*
X64199000Y-68045000D01*
X64205000Y-68039000D01*
X64210000Y-68033000D01*
X64216000Y-68028000D01*
X64222000Y-68022000D01*
X64228000Y-68018000D01*
X64234000Y-68013000D01*
X64248000Y-68005000D01*
X64262000Y-67999000D01*
X64270000Y-67996000D01*
X64277000Y-67994000D01*
X64285000Y-67992000D01*
X64293000Y-67991000D01*
X64300000Y-67990000D01*
X64308000Y-67989000D01*
X64324000Y-67989000D01*
X64332000Y-67990000D01*
G37*
X64332000Y-67990000D02*
X64339000Y-67991000D01*
X64347000Y-67992000D01*
X64355000Y-67994000D01*
X64362000Y-67996000D01*
X64370000Y-67999000D01*
X64384000Y-68005000D01*
X64398000Y-68013000D01*
X64404000Y-68018000D01*
X64410000Y-68022000D01*
X64416000Y-68028000D01*
X64422000Y-68033000D01*
X64427000Y-68039000D01*
X64433000Y-68045000D01*
X64437000Y-68051000D01*
X64442000Y-68057000D01*
X64450000Y-68071000D01*
X64456000Y-68085000D01*
X64459000Y-68093000D01*
X64461000Y-68100000D01*
X64463000Y-68108000D01*
X64464000Y-68116000D01*
X64465000Y-68123000D01*
X64466000Y-68131000D01*
X64466000Y-69414000D01*
X64166000Y-69414000D01*
X64166000Y-68131000D01*
X64167000Y-68123000D01*
X64168000Y-68116000D01*
X64169000Y-68108000D01*
X64171000Y-68100000D01*
X64173000Y-68093000D01*
X64176000Y-68085000D01*
X64182000Y-68071000D01*
X64190000Y-68057000D01*
X64195000Y-68051000D01*
X64199000Y-68045000D01*
X64205000Y-68039000D01*
X64210000Y-68033000D01*
X64216000Y-68028000D01*
X64222000Y-68022000D01*
X64228000Y-68018000D01*
X64234000Y-68013000D01*
X64248000Y-68005000D01*
X64262000Y-67999000D01*
X64270000Y-67996000D01*
X64277000Y-67994000D01*
X64285000Y-67992000D01*
X64293000Y-67991000D01*
X64300000Y-67990000D01*
X64308000Y-67989000D01*
X64324000Y-67989000D01*
X64332000Y-67990000D01*
X62666000Y-67614000D02*
X63291000Y-67614000D01*
X63291000Y-67614000D02*
X63299000Y-67614000D01*
X63299000Y-67614000D02*
X63307000Y-67615000D01*
X63307000Y-67615000D02*
X63314000Y-67616000D01*
X63314000Y-67616000D02*
X63322000Y-67617000D01*
X63322000Y-67617000D02*
X63330000Y-67619000D01*
X63330000Y-67619000D02*
X63337000Y-67621000D01*
X63337000Y-67621000D02*
X63345000Y-67624000D01*
X63345000Y-67624000D02*
X63352000Y-67627000D01*
X63352000Y-67627000D02*
X63359000Y-67630000D01*
X63359000Y-67630000D02*
X63366000Y-67634000D01*
X63366000Y-67634000D02*
X63373000Y-67638000D01*
X63373000Y-67638000D02*
X63379000Y-67643000D01*
X63379000Y-67643000D02*
X63385000Y-67647000D01*
X63385000Y-67647000D02*
X63391000Y-67653000D01*
X63391000Y-67653000D02*
X63397000Y-67658000D01*
X63397000Y-67658000D02*
X63402000Y-67664000D01*
X63402000Y-67664000D02*
X63408000Y-67670000D01*
X63408000Y-67670000D02*
X63412000Y-67676000D01*
X63412000Y-67676000D02*
X63417000Y-67682000D01*
X63417000Y-67682000D02*
X63421000Y-67689000D01*
X63421000Y-67689000D02*
X63425000Y-67696000D01*
X63425000Y-67696000D02*
X63428000Y-67703000D01*
X63428000Y-67703000D02*
X63431000Y-67710000D01*
X63431000Y-67710000D02*
X63434000Y-67718000D01*
X63434000Y-67718000D02*
X63436000Y-67725000D01*
X63436000Y-67725000D02*
X63438000Y-67733000D01*
X63438000Y-67733000D02*
X63439000Y-67741000D01*
X63439000Y-67741000D02*
X63440000Y-67748000D01*
X63440000Y-67748000D02*
X63441000Y-67756000D01*
X63441000Y-67756000D02*
X63441000Y-67764000D01*
X63441000Y-67764000D02*
X63441000Y-67772000D01*
X63441000Y-67772000D02*
X63440000Y-67780000D01*
X63440000Y-67780000D02*
X63439000Y-67787000D01*
X63439000Y-67787000D02*
X63438000Y-67795000D01*
X63438000Y-67795000D02*
X63436000Y-67803000D01*
X63436000Y-67803000D02*
X63434000Y-67810000D01*
X63434000Y-67810000D02*
X63431000Y-67818000D01*
X63431000Y-67818000D02*
X63428000Y-67825000D01*
X63428000Y-67825000D02*
X63425000Y-67832000D01*
X63425000Y-67832000D02*
X63421000Y-67839000D01*
X63421000Y-67839000D02*
X63417000Y-67846000D01*
X63417000Y-67846000D02*
X63412000Y-67852000D01*
X63412000Y-67852000D02*
X63408000Y-67858000D01*
X63408000Y-67858000D02*
X63402000Y-67864000D01*
X63402000Y-67864000D02*
X63397000Y-67870000D01*
X63397000Y-67870000D02*
X63391000Y-67875000D01*
X63391000Y-67875000D02*
X63385000Y-67881000D01*
X63385000Y-67881000D02*
X63379000Y-67885000D01*
X63379000Y-67885000D02*
X63373000Y-67890000D01*
X63373000Y-67890000D02*
X63366000Y-67894000D01*
X63366000Y-67894000D02*
X63359000Y-67898000D01*
X63359000Y-67898000D02*
X63352000Y-67901000D01*
X63352000Y-67901000D02*
X63345000Y-67904000D01*
X63345000Y-67904000D02*
X63337000Y-67907000D01*
X63337000Y-67907000D02*
X63330000Y-67909000D01*
X63330000Y-67909000D02*
X63322000Y-67911000D01*
X63322000Y-67911000D02*
X63314000Y-67912000D01*
X63314000Y-67912000D02*
X63307000Y-67913000D01*
X63307000Y-67913000D02*
X63299000Y-67914000D01*
X63299000Y-67914000D02*
X63291000Y-67914000D01*
X63291000Y-67914000D02*
X62666000Y-67914000D01*
X62666000Y-67914000D02*
X62666000Y-67614000D01*
X62666000Y-67614000D02*
X62666000Y-67614000D01*
G36*
X63307000Y-67615000D02*
G01*
X63314000Y-67616000D01*
X63322000Y-67617000D01*
X63330000Y-67619000D01*
X63337000Y-67621000D01*
X63345000Y-67624000D01*
X63359000Y-67630000D01*
X63373000Y-67638000D01*
X63379000Y-67643000D01*
X63385000Y-67647000D01*
X63391000Y-67653000D01*
X63397000Y-67658000D01*
X63402000Y-67664000D01*
X63408000Y-67670000D01*
X63412000Y-67676000D01*
X63417000Y-67682000D01*
X63425000Y-67696000D01*
X63431000Y-67710000D01*
X63434000Y-67718000D01*
X63436000Y-67725000D01*
X63438000Y-67733000D01*
X63439000Y-67741000D01*
X63440000Y-67748000D01*
X63441000Y-67756000D01*
X63441000Y-67772000D01*
X63440000Y-67780000D01*
X63439000Y-67787000D01*
X63438000Y-67795000D01*
X63436000Y-67803000D01*
X63434000Y-67810000D01*
X63431000Y-67818000D01*
X63425000Y-67832000D01*
X63417000Y-67846000D01*
X63412000Y-67852000D01*
X63408000Y-67858000D01*
X63402000Y-67864000D01*
X63397000Y-67870000D01*
X63391000Y-67875000D01*
X63385000Y-67881000D01*
X63379000Y-67885000D01*
X63373000Y-67890000D01*
X63359000Y-67898000D01*
X63345000Y-67904000D01*
X63337000Y-67907000D01*
X63330000Y-67909000D01*
X63322000Y-67911000D01*
X63314000Y-67912000D01*
X63307000Y-67913000D01*
X63299000Y-67914000D01*
X62666000Y-67914000D01*
X62666000Y-67614000D01*
X63299000Y-67614000D01*
X63307000Y-67615000D01*
G37*
X63307000Y-67615000D02*
X63314000Y-67616000D01*
X63322000Y-67617000D01*
X63330000Y-67619000D01*
X63337000Y-67621000D01*
X63345000Y-67624000D01*
X63359000Y-67630000D01*
X63373000Y-67638000D01*
X63379000Y-67643000D01*
X63385000Y-67647000D01*
X63391000Y-67653000D01*
X63397000Y-67658000D01*
X63402000Y-67664000D01*
X63408000Y-67670000D01*
X63412000Y-67676000D01*
X63417000Y-67682000D01*
X63425000Y-67696000D01*
X63431000Y-67710000D01*
X63434000Y-67718000D01*
X63436000Y-67725000D01*
X63438000Y-67733000D01*
X63439000Y-67741000D01*
X63440000Y-67748000D01*
X63441000Y-67756000D01*
X63441000Y-67772000D01*
X63440000Y-67780000D01*
X63439000Y-67787000D01*
X63438000Y-67795000D01*
X63436000Y-67803000D01*
X63434000Y-67810000D01*
X63431000Y-67818000D01*
X63425000Y-67832000D01*
X63417000Y-67846000D01*
X63412000Y-67852000D01*
X63408000Y-67858000D01*
X63402000Y-67864000D01*
X63397000Y-67870000D01*
X63391000Y-67875000D01*
X63385000Y-67881000D01*
X63379000Y-67885000D01*
X63373000Y-67890000D01*
X63359000Y-67898000D01*
X63345000Y-67904000D01*
X63337000Y-67907000D01*
X63330000Y-67909000D01*
X63322000Y-67911000D01*
X63314000Y-67912000D01*
X63307000Y-67913000D01*
X63299000Y-67914000D01*
X62666000Y-67914000D01*
X62666000Y-67614000D01*
X63299000Y-67614000D01*
X63307000Y-67615000D01*
X64466000Y-65714000D02*
X64466000Y-66739000D01*
X64466000Y-66739000D02*
X64466000Y-66747000D01*
X64466000Y-66747000D02*
X64465000Y-66755000D01*
X64465000Y-66755000D02*
X64464000Y-66762000D01*
X64464000Y-66762000D02*
X64463000Y-66770000D01*
X64463000Y-66770000D02*
X64461000Y-66778000D01*
X64461000Y-66778000D02*
X64459000Y-66785000D01*
X64459000Y-66785000D02*
X64456000Y-66793000D01*
X64456000Y-66793000D02*
X64453000Y-66800000D01*
X64453000Y-66800000D02*
X64450000Y-66807000D01*
X64450000Y-66807000D02*
X64446000Y-66814000D01*
X64446000Y-66814000D02*
X64442000Y-66821000D01*
X64442000Y-66821000D02*
X64437000Y-66827000D01*
X64437000Y-66827000D02*
X64433000Y-66833000D01*
X64433000Y-66833000D02*
X64427000Y-66839000D01*
X64427000Y-66839000D02*
X64422000Y-66845000D01*
X64422000Y-66845000D02*
X64416000Y-66850000D01*
X64416000Y-66850000D02*
X64410000Y-66856000D01*
X64410000Y-66856000D02*
X64404000Y-66860000D01*
X64404000Y-66860000D02*
X64398000Y-66865000D01*
X64398000Y-66865000D02*
X64391000Y-66869000D01*
X64391000Y-66869000D02*
X64384000Y-66873000D01*
X64384000Y-66873000D02*
X64377000Y-66876000D01*
X64377000Y-66876000D02*
X64370000Y-66879000D01*
X64370000Y-66879000D02*
X64362000Y-66882000D01*
X64362000Y-66882000D02*
X64355000Y-66884000D01*
X64355000Y-66884000D02*
X64347000Y-66886000D01*
X64347000Y-66886000D02*
X64339000Y-66887000D01*
X64339000Y-66887000D02*
X64332000Y-66888000D01*
X64332000Y-66888000D02*
X64324000Y-66889000D01*
X64324000Y-66889000D02*
X64316000Y-66889000D01*
X64316000Y-66889000D02*
X64308000Y-66889000D01*
X64308000Y-66889000D02*
X64300000Y-66888000D01*
X64300000Y-66888000D02*
X64293000Y-66887000D01*
X64293000Y-66887000D02*
X64285000Y-66886000D01*
X64285000Y-66886000D02*
X64277000Y-66884000D01*
X64277000Y-66884000D02*
X64270000Y-66882000D01*
X64270000Y-66882000D02*
X64262000Y-66879000D01*
X64262000Y-66879000D02*
X64255000Y-66876000D01*
X64255000Y-66876000D02*
X64248000Y-66873000D01*
X64248000Y-66873000D02*
X64241000Y-66869000D01*
X64241000Y-66869000D02*
X64234000Y-66865000D01*
X64234000Y-66865000D02*
X64228000Y-66860000D01*
X64228000Y-66860000D02*
X64222000Y-66856000D01*
X64222000Y-66856000D02*
X64216000Y-66850000D01*
X64216000Y-66850000D02*
X64210000Y-66845000D01*
X64210000Y-66845000D02*
X64205000Y-66839000D01*
X64205000Y-66839000D02*
X64199000Y-66833000D01*
X64199000Y-66833000D02*
X64195000Y-66827000D01*
X64195000Y-66827000D02*
X64190000Y-66821000D01*
X64190000Y-66821000D02*
X64186000Y-66814000D01*
X64186000Y-66814000D02*
X64182000Y-66807000D01*
X64182000Y-66807000D02*
X64179000Y-66800000D01*
X64179000Y-66800000D02*
X64176000Y-66793000D01*
X64176000Y-66793000D02*
X64173000Y-66785000D01*
X64173000Y-66785000D02*
X64171000Y-66778000D01*
X64171000Y-66778000D02*
X64169000Y-66770000D01*
X64169000Y-66770000D02*
X64168000Y-66762000D01*
X64168000Y-66762000D02*
X64167000Y-66755000D01*
X64167000Y-66755000D02*
X64166000Y-66747000D01*
X64166000Y-66747000D02*
X64166000Y-66739000D01*
X64166000Y-66739000D02*
X64166000Y-65714000D01*
X64166000Y-65714000D02*
X64466000Y-65714000D01*
X64466000Y-65714000D02*
X64466000Y-65714000D01*
G36*
X64466000Y-66747000D02*
G01*
X64465000Y-66755000D01*
X64464000Y-66762000D01*
X64463000Y-66770000D01*
X64461000Y-66778000D01*
X64459000Y-66785000D01*
X64456000Y-66793000D01*
X64450000Y-66807000D01*
X64442000Y-66821000D01*
X64437000Y-66827000D01*
X64433000Y-66833000D01*
X64427000Y-66839000D01*
X64422000Y-66845000D01*
X64416000Y-66850000D01*
X64410000Y-66856000D01*
X64404000Y-66860000D01*
X64398000Y-66865000D01*
X64384000Y-66873000D01*
X64370000Y-66879000D01*
X64362000Y-66882000D01*
X64355000Y-66884000D01*
X64347000Y-66886000D01*
X64339000Y-66887000D01*
X64332000Y-66888000D01*
X64324000Y-66889000D01*
X64308000Y-66889000D01*
X64300000Y-66888000D01*
X64293000Y-66887000D01*
X64285000Y-66886000D01*
X64277000Y-66884000D01*
X64270000Y-66882000D01*
X64262000Y-66879000D01*
X64248000Y-66873000D01*
X64234000Y-66865000D01*
X64228000Y-66860000D01*
X64222000Y-66856000D01*
X64216000Y-66850000D01*
X64210000Y-66845000D01*
X64205000Y-66839000D01*
X64199000Y-66833000D01*
X64195000Y-66827000D01*
X64190000Y-66821000D01*
X64182000Y-66807000D01*
X64176000Y-66793000D01*
X64173000Y-66785000D01*
X64171000Y-66778000D01*
X64169000Y-66770000D01*
X64168000Y-66762000D01*
X64167000Y-66755000D01*
X64166000Y-66747000D01*
X64166000Y-65714000D01*
X64466000Y-65714000D01*
X64466000Y-66747000D01*
G37*
X64466000Y-66747000D02*
X64465000Y-66755000D01*
X64464000Y-66762000D01*
X64463000Y-66770000D01*
X64461000Y-66778000D01*
X64459000Y-66785000D01*
X64456000Y-66793000D01*
X64450000Y-66807000D01*
X64442000Y-66821000D01*
X64437000Y-66827000D01*
X64433000Y-66833000D01*
X64427000Y-66839000D01*
X64422000Y-66845000D01*
X64416000Y-66850000D01*
X64410000Y-66856000D01*
X64404000Y-66860000D01*
X64398000Y-66865000D01*
X64384000Y-66873000D01*
X64370000Y-66879000D01*
X64362000Y-66882000D01*
X64355000Y-66884000D01*
X64347000Y-66886000D01*
X64339000Y-66887000D01*
X64332000Y-66888000D01*
X64324000Y-66889000D01*
X64308000Y-66889000D01*
X64300000Y-66888000D01*
X64293000Y-66887000D01*
X64285000Y-66886000D01*
X64277000Y-66884000D01*
X64270000Y-66882000D01*
X64262000Y-66879000D01*
X64248000Y-66873000D01*
X64234000Y-66865000D01*
X64228000Y-66860000D01*
X64222000Y-66856000D01*
X64216000Y-66850000D01*
X64210000Y-66845000D01*
X64205000Y-66839000D01*
X64199000Y-66833000D01*
X64195000Y-66827000D01*
X64190000Y-66821000D01*
X64182000Y-66807000D01*
X64176000Y-66793000D01*
X64173000Y-66785000D01*
X64171000Y-66778000D01*
X64169000Y-66770000D01*
X64168000Y-66762000D01*
X64167000Y-66755000D01*
X64166000Y-66747000D01*
X64166000Y-65714000D01*
X64466000Y-65714000D01*
X64466000Y-66747000D01*
X66366000Y-68714000D02*
X65803000Y-68714000D01*
X65803000Y-68714000D02*
X65616000Y-68527000D01*
X65616000Y-68527000D02*
X65616000Y-68364000D01*
X65616000Y-68364000D02*
X64841000Y-68364000D01*
X64841000Y-68364000D02*
X64833000Y-68364000D01*
X64833000Y-68364000D02*
X64825000Y-68363000D01*
X64825000Y-68363000D02*
X64818000Y-68362000D01*
X64818000Y-68362000D02*
X64810000Y-68361000D01*
X64810000Y-68361000D02*
X64802000Y-68359000D01*
X64802000Y-68359000D02*
X64795000Y-68357000D01*
X64795000Y-68357000D02*
X64787000Y-68354000D01*
X64787000Y-68354000D02*
X64780000Y-68351000D01*
X64780000Y-68351000D02*
X64773000Y-68348000D01*
X64773000Y-68348000D02*
X64766000Y-68344000D01*
X64766000Y-68344000D02*
X64759000Y-68340000D01*
X64759000Y-68340000D02*
X64753000Y-68335000D01*
X64753000Y-68335000D02*
X64747000Y-68331000D01*
X64747000Y-68331000D02*
X64741000Y-68325000D01*
X64741000Y-68325000D02*
X64735000Y-68320000D01*
X64735000Y-68320000D02*
X64730000Y-68314000D01*
X64730000Y-68314000D02*
X64724000Y-68308000D01*
X64724000Y-68308000D02*
X64720000Y-68302000D01*
X64720000Y-68302000D02*
X64715000Y-68296000D01*
X64715000Y-68296000D02*
X64711000Y-68289000D01*
X64711000Y-68289000D02*
X64707000Y-68282000D01*
X64707000Y-68282000D02*
X64704000Y-68275000D01*
X64704000Y-68275000D02*
X64701000Y-68268000D01*
X64701000Y-68268000D02*
X64698000Y-68260000D01*
X64698000Y-68260000D02*
X64696000Y-68253000D01*
X64696000Y-68253000D02*
X64694000Y-68245000D01*
X64694000Y-68245000D02*
X64693000Y-68237000D01*
X64693000Y-68237000D02*
X64692000Y-68230000D01*
X64692000Y-68230000D02*
X64691000Y-68222000D01*
X64691000Y-68222000D02*
X64691000Y-68214000D01*
X64691000Y-68214000D02*
X64691000Y-68164000D01*
X64691000Y-68164000D02*
X64691000Y-68156000D01*
X64691000Y-68156000D02*
X64692000Y-68148000D01*
X64692000Y-68148000D02*
X64693000Y-68141000D01*
X64693000Y-68141000D02*
X64694000Y-68133000D01*
X64694000Y-68133000D02*
X64696000Y-68125000D01*
X64696000Y-68125000D02*
X64698000Y-68118000D01*
X64698000Y-68118000D02*
X64701000Y-68110000D01*
X64701000Y-68110000D02*
X64704000Y-68103000D01*
X64704000Y-68103000D02*
X64707000Y-68096000D01*
X64707000Y-68096000D02*
X64711000Y-68089000D01*
X64711000Y-68089000D02*
X64715000Y-68082000D01*
X64715000Y-68082000D02*
X64720000Y-68076000D01*
X64720000Y-68076000D02*
X64724000Y-68070000D01*
X64724000Y-68070000D02*
X64730000Y-68064000D01*
X64730000Y-68064000D02*
X64735000Y-68058000D01*
X64735000Y-68058000D02*
X64741000Y-68053000D01*
X64741000Y-68053000D02*
X64747000Y-68047000D01*
X64747000Y-68047000D02*
X64753000Y-68043000D01*
X64753000Y-68043000D02*
X64759000Y-68038000D01*
X64759000Y-68038000D02*
X64766000Y-68034000D01*
X64766000Y-68034000D02*
X64773000Y-68030000D01*
X64773000Y-68030000D02*
X64780000Y-68027000D01*
X64780000Y-68027000D02*
X64787000Y-68024000D01*
X64787000Y-68024000D02*
X64795000Y-68021000D01*
X64795000Y-68021000D02*
X64802000Y-68019000D01*
X64802000Y-68019000D02*
X64810000Y-68017000D01*
X64810000Y-68017000D02*
X64818000Y-68016000D01*
X64818000Y-68016000D02*
X64825000Y-68015000D01*
X64825000Y-68015000D02*
X64833000Y-68014000D01*
X64833000Y-68014000D02*
X64841000Y-68014000D01*
X64841000Y-68014000D02*
X66366000Y-68014000D01*
X66366000Y-68014000D02*
X66366000Y-68714000D01*
X66366000Y-68714000D02*
X66366000Y-68714000D01*
G36*
X66366000Y-68714000D02*
G01*
X65803000Y-68714000D01*
X65616000Y-68527000D01*
X65616000Y-68364000D01*
X64833000Y-68364000D01*
X64825000Y-68363000D01*
X64818000Y-68362000D01*
X64810000Y-68361000D01*
X64802000Y-68359000D01*
X64795000Y-68357000D01*
X64787000Y-68354000D01*
X64773000Y-68348000D01*
X64759000Y-68340000D01*
X64753000Y-68335000D01*
X64747000Y-68331000D01*
X64741000Y-68325000D01*
X64735000Y-68320000D01*
X64730000Y-68314000D01*
X64724000Y-68308000D01*
X64720000Y-68302000D01*
X64715000Y-68296000D01*
X64707000Y-68282000D01*
X64701000Y-68268000D01*
X64698000Y-68260000D01*
X64696000Y-68253000D01*
X64694000Y-68245000D01*
X64693000Y-68237000D01*
X64692000Y-68230000D01*
X64691000Y-68222000D01*
X64691000Y-68156000D01*
X64692000Y-68148000D01*
X64693000Y-68141000D01*
X64694000Y-68133000D01*
X64696000Y-68125000D01*
X64698000Y-68118000D01*
X64701000Y-68110000D01*
X64707000Y-68096000D01*
X64715000Y-68082000D01*
X64720000Y-68076000D01*
X64724000Y-68070000D01*
X64730000Y-68064000D01*
X64735000Y-68058000D01*
X64741000Y-68053000D01*
X64747000Y-68047000D01*
X64753000Y-68043000D01*
X64759000Y-68038000D01*
X64773000Y-68030000D01*
X64787000Y-68024000D01*
X64795000Y-68021000D01*
X64802000Y-68019000D01*
X64810000Y-68017000D01*
X64818000Y-68016000D01*
X64825000Y-68015000D01*
X64833000Y-68014000D01*
X66366000Y-68014000D01*
X66366000Y-68714000D01*
G37*
X66366000Y-68714000D02*
X65803000Y-68714000D01*
X65616000Y-68527000D01*
X65616000Y-68364000D01*
X64833000Y-68364000D01*
X64825000Y-68363000D01*
X64818000Y-68362000D01*
X64810000Y-68361000D01*
X64802000Y-68359000D01*
X64795000Y-68357000D01*
X64787000Y-68354000D01*
X64773000Y-68348000D01*
X64759000Y-68340000D01*
X64753000Y-68335000D01*
X64747000Y-68331000D01*
X64741000Y-68325000D01*
X64735000Y-68320000D01*
X64730000Y-68314000D01*
X64724000Y-68308000D01*
X64720000Y-68302000D01*
X64715000Y-68296000D01*
X64707000Y-68282000D01*
X64701000Y-68268000D01*
X64698000Y-68260000D01*
X64696000Y-68253000D01*
X64694000Y-68245000D01*
X64693000Y-68237000D01*
X64692000Y-68230000D01*
X64691000Y-68222000D01*
X64691000Y-68156000D01*
X64692000Y-68148000D01*
X64693000Y-68141000D01*
X64694000Y-68133000D01*
X64696000Y-68125000D01*
X64698000Y-68118000D01*
X64701000Y-68110000D01*
X64707000Y-68096000D01*
X64715000Y-68082000D01*
X64720000Y-68076000D01*
X64724000Y-68070000D01*
X64730000Y-68064000D01*
X64735000Y-68058000D01*
X64741000Y-68053000D01*
X64747000Y-68047000D01*
X64753000Y-68043000D01*
X64759000Y-68038000D01*
X64773000Y-68030000D01*
X64787000Y-68024000D01*
X64795000Y-68021000D01*
X64802000Y-68019000D01*
X64810000Y-68017000D01*
X64818000Y-68016000D01*
X64825000Y-68015000D01*
X64833000Y-68014000D01*
X66366000Y-68014000D01*
X66366000Y-68714000D01*
X65266000Y-65714000D02*
X65266000Y-66739000D01*
X65266000Y-66739000D02*
X65266000Y-66747000D01*
X65266000Y-66747000D02*
X65265000Y-66755000D01*
X65265000Y-66755000D02*
X65264000Y-66762000D01*
X65264000Y-66762000D02*
X65263000Y-66770000D01*
X65263000Y-66770000D02*
X65261000Y-66778000D01*
X65261000Y-66778000D02*
X65259000Y-66785000D01*
X65259000Y-66785000D02*
X65256000Y-66793000D01*
X65256000Y-66793000D02*
X65253000Y-66800000D01*
X65253000Y-66800000D02*
X65250000Y-66807000D01*
X65250000Y-66807000D02*
X65246000Y-66814000D01*
X65246000Y-66814000D02*
X65242000Y-66821000D01*
X65242000Y-66821000D02*
X65237000Y-66827000D01*
X65237000Y-66827000D02*
X65233000Y-66833000D01*
X65233000Y-66833000D02*
X65227000Y-66839000D01*
X65227000Y-66839000D02*
X65222000Y-66845000D01*
X65222000Y-66845000D02*
X65216000Y-66850000D01*
X65216000Y-66850000D02*
X65210000Y-66856000D01*
X65210000Y-66856000D02*
X65204000Y-66860000D01*
X65204000Y-66860000D02*
X65198000Y-66865000D01*
X65198000Y-66865000D02*
X65191000Y-66869000D01*
X65191000Y-66869000D02*
X65184000Y-66873000D01*
X65184000Y-66873000D02*
X65177000Y-66876000D01*
X65177000Y-66876000D02*
X65170000Y-66879000D01*
X65170000Y-66879000D02*
X65162000Y-66882000D01*
X65162000Y-66882000D02*
X65155000Y-66884000D01*
X65155000Y-66884000D02*
X65147000Y-66886000D01*
X65147000Y-66886000D02*
X65139000Y-66887000D01*
X65139000Y-66887000D02*
X65132000Y-66888000D01*
X65132000Y-66888000D02*
X65124000Y-66889000D01*
X65124000Y-66889000D02*
X65116000Y-66889000D01*
X65116000Y-66889000D02*
X64716000Y-66889000D01*
X64716000Y-66889000D02*
X64708000Y-66889000D01*
X64708000Y-66889000D02*
X64700000Y-66888000D01*
X64700000Y-66888000D02*
X64693000Y-66887000D01*
X64693000Y-66887000D02*
X64685000Y-66886000D01*
X64685000Y-66886000D02*
X64677000Y-66884000D01*
X64677000Y-66884000D02*
X64670000Y-66882000D01*
X64670000Y-66882000D02*
X64662000Y-66879000D01*
X64662000Y-66879000D02*
X64655000Y-66876000D01*
X64655000Y-66876000D02*
X64648000Y-66873000D01*
X64648000Y-66873000D02*
X64641000Y-66869000D01*
X64641000Y-66869000D02*
X64634000Y-66865000D01*
X64634000Y-66865000D02*
X64628000Y-66860000D01*
X64628000Y-66860000D02*
X64622000Y-66856000D01*
X64622000Y-66856000D02*
X64616000Y-66850000D01*
X64616000Y-66850000D02*
X64610000Y-66845000D01*
X64610000Y-66845000D02*
X64605000Y-66839000D01*
X64605000Y-66839000D02*
X64599000Y-66833000D01*
X64599000Y-66833000D02*
X64595000Y-66827000D01*
X64595000Y-66827000D02*
X64590000Y-66821000D01*
X64590000Y-66821000D02*
X64586000Y-66814000D01*
X64586000Y-66814000D02*
X64582000Y-66807000D01*
X64582000Y-66807000D02*
X64579000Y-66800000D01*
X64579000Y-66800000D02*
X64576000Y-66793000D01*
X64576000Y-66793000D02*
X64573000Y-66785000D01*
X64573000Y-66785000D02*
X64571000Y-66778000D01*
X64571000Y-66778000D02*
X64569000Y-66770000D01*
X64569000Y-66770000D02*
X64568000Y-66762000D01*
X64568000Y-66762000D02*
X64567000Y-66755000D01*
X64567000Y-66755000D02*
X64566000Y-66747000D01*
X64566000Y-66747000D02*
X64566000Y-66739000D01*
X64566000Y-66739000D02*
X64566000Y-65714000D01*
X64566000Y-65714000D02*
X65266000Y-65714000D01*
X65266000Y-65714000D02*
X65266000Y-65714000D01*
G36*
X65266000Y-66747000D02*
G01*
X65265000Y-66755000D01*
X65264000Y-66762000D01*
X65263000Y-66770000D01*
X65261000Y-66778000D01*
X65259000Y-66785000D01*
X65256000Y-66793000D01*
X65250000Y-66807000D01*
X65242000Y-66821000D01*
X65237000Y-66827000D01*
X65233000Y-66833000D01*
X65227000Y-66839000D01*
X65222000Y-66845000D01*
X65216000Y-66850000D01*
X65210000Y-66856000D01*
X65204000Y-66860000D01*
X65198000Y-66865000D01*
X65184000Y-66873000D01*
X65170000Y-66879000D01*
X65162000Y-66882000D01*
X65155000Y-66884000D01*
X65147000Y-66886000D01*
X65139000Y-66887000D01*
X65132000Y-66888000D01*
X65124000Y-66889000D01*
X64708000Y-66889000D01*
X64700000Y-66888000D01*
X64693000Y-66887000D01*
X64685000Y-66886000D01*
X64677000Y-66884000D01*
X64670000Y-66882000D01*
X64662000Y-66879000D01*
X64648000Y-66873000D01*
X64634000Y-66865000D01*
X64628000Y-66860000D01*
X64622000Y-66856000D01*
X64616000Y-66850000D01*
X64610000Y-66845000D01*
X64605000Y-66839000D01*
X64599000Y-66833000D01*
X64595000Y-66827000D01*
X64590000Y-66821000D01*
X64582000Y-66807000D01*
X64576000Y-66793000D01*
X64573000Y-66785000D01*
X64571000Y-66778000D01*
X64569000Y-66770000D01*
X64568000Y-66762000D01*
X64567000Y-66755000D01*
X64566000Y-66747000D01*
X64566000Y-65714000D01*
X65266000Y-65714000D01*
X65266000Y-66747000D01*
G37*
X65266000Y-66747000D02*
X65265000Y-66755000D01*
X65264000Y-66762000D01*
X65263000Y-66770000D01*
X65261000Y-66778000D01*
X65259000Y-66785000D01*
X65256000Y-66793000D01*
X65250000Y-66807000D01*
X65242000Y-66821000D01*
X65237000Y-66827000D01*
X65233000Y-66833000D01*
X65227000Y-66839000D01*
X65222000Y-66845000D01*
X65216000Y-66850000D01*
X65210000Y-66856000D01*
X65204000Y-66860000D01*
X65198000Y-66865000D01*
X65184000Y-66873000D01*
X65170000Y-66879000D01*
X65162000Y-66882000D01*
X65155000Y-66884000D01*
X65147000Y-66886000D01*
X65139000Y-66887000D01*
X65132000Y-66888000D01*
X65124000Y-66889000D01*
X64708000Y-66889000D01*
X64700000Y-66888000D01*
X64693000Y-66887000D01*
X64685000Y-66886000D01*
X64677000Y-66884000D01*
X64670000Y-66882000D01*
X64662000Y-66879000D01*
X64648000Y-66873000D01*
X64634000Y-66865000D01*
X64628000Y-66860000D01*
X64622000Y-66856000D01*
X64616000Y-66850000D01*
X64610000Y-66845000D01*
X64605000Y-66839000D01*
X64599000Y-66833000D01*
X64595000Y-66827000D01*
X64590000Y-66821000D01*
X64582000Y-66807000D01*
X64576000Y-66793000D01*
X64573000Y-66785000D01*
X64571000Y-66778000D01*
X64569000Y-66770000D01*
X64568000Y-66762000D01*
X64567000Y-66755000D01*
X64566000Y-66747000D01*
X64566000Y-65714000D01*
X65266000Y-65714000D01*
X65266000Y-66747000D01*
X66366000Y-66714000D02*
X65516000Y-66714000D01*
X65516000Y-66714000D02*
X65508000Y-66714000D01*
X65508000Y-66714000D02*
X65500000Y-66713000D01*
X65500000Y-66713000D02*
X65493000Y-66712000D01*
X65493000Y-66712000D02*
X65485000Y-66711000D01*
X65485000Y-66711000D02*
X65477000Y-66709000D01*
X65477000Y-66709000D02*
X65470000Y-66707000D01*
X65470000Y-66707000D02*
X65462000Y-66704000D01*
X65462000Y-66704000D02*
X65455000Y-66701000D01*
X65455000Y-66701000D02*
X65448000Y-66698000D01*
X65448000Y-66698000D02*
X65441000Y-66694000D01*
X65441000Y-66694000D02*
X65434000Y-66690000D01*
X65434000Y-66690000D02*
X65428000Y-66685000D01*
X65428000Y-66685000D02*
X65422000Y-66681000D01*
X65422000Y-66681000D02*
X65416000Y-66675000D01*
X65416000Y-66675000D02*
X65410000Y-66670000D01*
X65410000Y-66670000D02*
X65405000Y-66664000D01*
X65405000Y-66664000D02*
X65399000Y-66658000D01*
X65399000Y-66658000D02*
X65395000Y-66652000D01*
X65395000Y-66652000D02*
X65390000Y-66646000D01*
X65390000Y-66646000D02*
X65386000Y-66639000D01*
X65386000Y-66639000D02*
X65382000Y-66632000D01*
X65382000Y-66632000D02*
X65379000Y-66625000D01*
X65379000Y-66625000D02*
X65376000Y-66618000D01*
X65376000Y-66618000D02*
X65373000Y-66610000D01*
X65373000Y-66610000D02*
X65371000Y-66603000D01*
X65371000Y-66603000D02*
X65369000Y-66595000D01*
X65369000Y-66595000D02*
X65368000Y-66587000D01*
X65368000Y-66587000D02*
X65367000Y-66580000D01*
X65367000Y-66580000D02*
X65366000Y-66572000D01*
X65366000Y-66572000D02*
X65366000Y-66564000D01*
X65366000Y-66564000D02*
X65366000Y-65714000D01*
X65366000Y-65714000D02*
X65666000Y-65714000D01*
X65666000Y-65714000D02*
X65666000Y-66189000D01*
X65666000Y-66189000D02*
X65891000Y-66414000D01*
X65891000Y-66414000D02*
X66366000Y-66414000D01*
X66366000Y-66414000D02*
X66366000Y-66714000D01*
X66366000Y-66714000D02*
X66366000Y-66714000D01*
G36*
X65666000Y-66189000D02*
G01*
X65891000Y-66414000D01*
X66366000Y-66414000D01*
X66366000Y-66714000D01*
X65508000Y-66714000D01*
X65500000Y-66713000D01*
X65493000Y-66712000D01*
X65485000Y-66711000D01*
X65477000Y-66709000D01*
X65470000Y-66707000D01*
X65462000Y-66704000D01*
X65448000Y-66698000D01*
X65434000Y-66690000D01*
X65428000Y-66685000D01*
X65422000Y-66681000D01*
X65416000Y-66675000D01*
X65410000Y-66670000D01*
X65405000Y-66664000D01*
X65399000Y-66658000D01*
X65395000Y-66652000D01*
X65390000Y-66646000D01*
X65382000Y-66632000D01*
X65376000Y-66618000D01*
X65373000Y-66610000D01*
X65371000Y-66603000D01*
X65369000Y-66595000D01*
X65368000Y-66587000D01*
X65367000Y-66580000D01*
X65366000Y-66572000D01*
X65366000Y-65714000D01*
X65666000Y-65714000D01*
X65666000Y-66189000D01*
G37*
X65666000Y-66189000D02*
X65891000Y-66414000D01*
X66366000Y-66414000D01*
X66366000Y-66714000D01*
X65508000Y-66714000D01*
X65500000Y-66713000D01*
X65493000Y-66712000D01*
X65485000Y-66711000D01*
X65477000Y-66709000D01*
X65470000Y-66707000D01*
X65462000Y-66704000D01*
X65448000Y-66698000D01*
X65434000Y-66690000D01*
X65428000Y-66685000D01*
X65422000Y-66681000D01*
X65416000Y-66675000D01*
X65410000Y-66670000D01*
X65405000Y-66664000D01*
X65399000Y-66658000D01*
X65395000Y-66652000D01*
X65390000Y-66646000D01*
X65382000Y-66632000D01*
X65376000Y-66618000D01*
X65373000Y-66610000D01*
X65371000Y-66603000D01*
X65369000Y-66595000D01*
X65368000Y-66587000D01*
X65367000Y-66580000D01*
X65366000Y-66572000D01*
X65366000Y-65714000D01*
X65666000Y-65714000D01*
X65666000Y-66189000D01*
X64966000Y-69414000D02*
X64966000Y-68789000D01*
X64966000Y-68789000D02*
X64966000Y-68781000D01*
X64966000Y-68781000D02*
X64967000Y-68773000D01*
X64967000Y-68773000D02*
X64968000Y-68766000D01*
X64968000Y-68766000D02*
X64969000Y-68758000D01*
X64969000Y-68758000D02*
X64971000Y-68750000D01*
X64971000Y-68750000D02*
X64973000Y-68743000D01*
X64973000Y-68743000D02*
X64976000Y-68735000D01*
X64976000Y-68735000D02*
X64979000Y-68728000D01*
X64979000Y-68728000D02*
X64982000Y-68721000D01*
X64982000Y-68721000D02*
X64986000Y-68714000D01*
X64986000Y-68714000D02*
X64990000Y-68707000D01*
X64990000Y-68707000D02*
X64995000Y-68701000D01*
X64995000Y-68701000D02*
X64999000Y-68695000D01*
X64999000Y-68695000D02*
X65005000Y-68689000D01*
X65005000Y-68689000D02*
X65010000Y-68683000D01*
X65010000Y-68683000D02*
X65016000Y-68678000D01*
X65016000Y-68678000D02*
X65022000Y-68672000D01*
X65022000Y-68672000D02*
X65028000Y-68668000D01*
X65028000Y-68668000D02*
X65034000Y-68663000D01*
X65034000Y-68663000D02*
X65041000Y-68659000D01*
X65041000Y-68659000D02*
X65048000Y-68655000D01*
X65048000Y-68655000D02*
X65055000Y-68652000D01*
X65055000Y-68652000D02*
X65062000Y-68649000D01*
X65062000Y-68649000D02*
X65070000Y-68646000D01*
X65070000Y-68646000D02*
X65077000Y-68644000D01*
X65077000Y-68644000D02*
X65085000Y-68642000D01*
X65085000Y-68642000D02*
X65093000Y-68641000D01*
X65093000Y-68641000D02*
X65100000Y-68640000D01*
X65100000Y-68640000D02*
X65108000Y-68639000D01*
X65108000Y-68639000D02*
X65116000Y-68639000D01*
X65116000Y-68639000D02*
X65124000Y-68639000D01*
X65124000Y-68639000D02*
X65132000Y-68640000D01*
X65132000Y-68640000D02*
X65139000Y-68641000D01*
X65139000Y-68641000D02*
X65147000Y-68642000D01*
X65147000Y-68642000D02*
X65155000Y-68644000D01*
X65155000Y-68644000D02*
X65162000Y-68646000D01*
X65162000Y-68646000D02*
X65170000Y-68649000D01*
X65170000Y-68649000D02*
X65177000Y-68652000D01*
X65177000Y-68652000D02*
X65184000Y-68655000D01*
X65184000Y-68655000D02*
X65191000Y-68659000D01*
X65191000Y-68659000D02*
X65198000Y-68663000D01*
X65198000Y-68663000D02*
X65204000Y-68668000D01*
X65204000Y-68668000D02*
X65210000Y-68672000D01*
X65210000Y-68672000D02*
X65216000Y-68678000D01*
X65216000Y-68678000D02*
X65222000Y-68683000D01*
X65222000Y-68683000D02*
X65227000Y-68689000D01*
X65227000Y-68689000D02*
X65233000Y-68695000D01*
X65233000Y-68695000D02*
X65237000Y-68701000D01*
X65237000Y-68701000D02*
X65242000Y-68707000D01*
X65242000Y-68707000D02*
X65246000Y-68714000D01*
X65246000Y-68714000D02*
X65250000Y-68721000D01*
X65250000Y-68721000D02*
X65253000Y-68728000D01*
X65253000Y-68728000D02*
X65256000Y-68735000D01*
X65256000Y-68735000D02*
X65259000Y-68743000D01*
X65259000Y-68743000D02*
X65261000Y-68750000D01*
X65261000Y-68750000D02*
X65263000Y-68758000D01*
X65263000Y-68758000D02*
X65264000Y-68766000D01*
X65264000Y-68766000D02*
X65265000Y-68773000D01*
X65265000Y-68773000D02*
X65266000Y-68781000D01*
X65266000Y-68781000D02*
X65266000Y-68789000D01*
X65266000Y-68789000D02*
X65266000Y-69414000D01*
X65266000Y-69414000D02*
X64966000Y-69414000D01*
X64966000Y-69414000D02*
X64966000Y-69414000D01*
G36*
X65132000Y-68640000D02*
G01*
X65139000Y-68641000D01*
X65147000Y-68642000D01*
X65155000Y-68644000D01*
X65162000Y-68646000D01*
X65170000Y-68649000D01*
X65184000Y-68655000D01*
X65198000Y-68663000D01*
X65204000Y-68668000D01*
X65210000Y-68672000D01*
X65216000Y-68678000D01*
X65222000Y-68683000D01*
X65227000Y-68689000D01*
X65233000Y-68695000D01*
X65237000Y-68701000D01*
X65242000Y-68707000D01*
X65250000Y-68721000D01*
X65256000Y-68735000D01*
X65259000Y-68743000D01*
X65261000Y-68750000D01*
X65263000Y-68758000D01*
X65264000Y-68766000D01*
X65265000Y-68773000D01*
X65266000Y-68781000D01*
X65266000Y-69414000D01*
X64966000Y-69414000D01*
X64966000Y-68781000D01*
X64967000Y-68773000D01*
X64968000Y-68766000D01*
X64969000Y-68758000D01*
X64971000Y-68750000D01*
X64973000Y-68743000D01*
X64976000Y-68735000D01*
X64982000Y-68721000D01*
X64990000Y-68707000D01*
X64995000Y-68701000D01*
X64999000Y-68695000D01*
X65005000Y-68689000D01*
X65010000Y-68683000D01*
X65016000Y-68678000D01*
X65022000Y-68672000D01*
X65028000Y-68668000D01*
X65034000Y-68663000D01*
X65048000Y-68655000D01*
X65062000Y-68649000D01*
X65070000Y-68646000D01*
X65077000Y-68644000D01*
X65085000Y-68642000D01*
X65093000Y-68641000D01*
X65100000Y-68640000D01*
X65108000Y-68639000D01*
X65124000Y-68639000D01*
X65132000Y-68640000D01*
G37*
X65132000Y-68640000D02*
X65139000Y-68641000D01*
X65147000Y-68642000D01*
X65155000Y-68644000D01*
X65162000Y-68646000D01*
X65170000Y-68649000D01*
X65184000Y-68655000D01*
X65198000Y-68663000D01*
X65204000Y-68668000D01*
X65210000Y-68672000D01*
X65216000Y-68678000D01*
X65222000Y-68683000D01*
X65227000Y-68689000D01*
X65233000Y-68695000D01*
X65237000Y-68701000D01*
X65242000Y-68707000D01*
X65250000Y-68721000D01*
X65256000Y-68735000D01*
X65259000Y-68743000D01*
X65261000Y-68750000D01*
X65263000Y-68758000D01*
X65264000Y-68766000D01*
X65265000Y-68773000D01*
X65266000Y-68781000D01*
X65266000Y-69414000D01*
X64966000Y-69414000D01*
X64966000Y-68781000D01*
X64967000Y-68773000D01*
X64968000Y-68766000D01*
X64969000Y-68758000D01*
X64971000Y-68750000D01*
X64973000Y-68743000D01*
X64976000Y-68735000D01*
X64982000Y-68721000D01*
X64990000Y-68707000D01*
X64995000Y-68701000D01*
X64999000Y-68695000D01*
X65005000Y-68689000D01*
X65010000Y-68683000D01*
X65016000Y-68678000D01*
X65022000Y-68672000D01*
X65028000Y-68668000D01*
X65034000Y-68663000D01*
X65048000Y-68655000D01*
X65062000Y-68649000D01*
X65070000Y-68646000D01*
X65077000Y-68644000D01*
X65085000Y-68642000D01*
X65093000Y-68641000D01*
X65100000Y-68640000D01*
X65108000Y-68639000D01*
X65124000Y-68639000D01*
X65132000Y-68640000D01*
X64066000Y-65714000D02*
X64066000Y-66739000D01*
X64066000Y-66739000D02*
X64066000Y-66747000D01*
X64066000Y-66747000D02*
X64065000Y-66755000D01*
X64065000Y-66755000D02*
X64064000Y-66762000D01*
X64064000Y-66762000D02*
X64063000Y-66770000D01*
X64063000Y-66770000D02*
X64061000Y-66778000D01*
X64061000Y-66778000D02*
X64059000Y-66785000D01*
X64059000Y-66785000D02*
X64056000Y-66793000D01*
X64056000Y-66793000D02*
X64053000Y-66800000D01*
X64053000Y-66800000D02*
X64050000Y-66807000D01*
X64050000Y-66807000D02*
X64046000Y-66814000D01*
X64046000Y-66814000D02*
X64042000Y-66821000D01*
X64042000Y-66821000D02*
X64037000Y-66827000D01*
X64037000Y-66827000D02*
X64033000Y-66833000D01*
X64033000Y-66833000D02*
X64027000Y-66839000D01*
X64027000Y-66839000D02*
X64022000Y-66845000D01*
X64022000Y-66845000D02*
X64016000Y-66850000D01*
X64016000Y-66850000D02*
X64010000Y-66856000D01*
X64010000Y-66856000D02*
X64004000Y-66860000D01*
X64004000Y-66860000D02*
X63998000Y-66865000D01*
X63998000Y-66865000D02*
X63991000Y-66869000D01*
X63991000Y-66869000D02*
X63984000Y-66873000D01*
X63984000Y-66873000D02*
X63977000Y-66876000D01*
X63977000Y-66876000D02*
X63970000Y-66879000D01*
X63970000Y-66879000D02*
X63962000Y-66882000D01*
X63962000Y-66882000D02*
X63955000Y-66884000D01*
X63955000Y-66884000D02*
X63947000Y-66886000D01*
X63947000Y-66886000D02*
X63939000Y-66887000D01*
X63939000Y-66887000D02*
X63932000Y-66888000D01*
X63932000Y-66888000D02*
X63924000Y-66889000D01*
X63924000Y-66889000D02*
X63916000Y-66889000D01*
X63916000Y-66889000D02*
X63866000Y-66889000D01*
X63866000Y-66889000D02*
X63858000Y-66889000D01*
X63858000Y-66889000D02*
X63850000Y-66888000D01*
X63850000Y-66888000D02*
X63843000Y-66887000D01*
X63843000Y-66887000D02*
X63835000Y-66886000D01*
X63835000Y-66886000D02*
X63827000Y-66884000D01*
X63827000Y-66884000D02*
X63820000Y-66882000D01*
X63820000Y-66882000D02*
X63812000Y-66879000D01*
X63812000Y-66879000D02*
X63805000Y-66876000D01*
X63805000Y-66876000D02*
X63798000Y-66873000D01*
X63798000Y-66873000D02*
X63791000Y-66869000D01*
X63791000Y-66869000D02*
X63784000Y-66865000D01*
X63784000Y-66865000D02*
X63778000Y-66860000D01*
X63778000Y-66860000D02*
X63772000Y-66856000D01*
X63772000Y-66856000D02*
X63766000Y-66850000D01*
X63766000Y-66850000D02*
X63760000Y-66845000D01*
X63760000Y-66845000D02*
X63755000Y-66839000D01*
X63755000Y-66839000D02*
X63749000Y-66833000D01*
X63749000Y-66833000D02*
X63745000Y-66827000D01*
X63745000Y-66827000D02*
X63740000Y-66821000D01*
X63740000Y-66821000D02*
X63736000Y-66814000D01*
X63736000Y-66814000D02*
X63732000Y-66807000D01*
X63732000Y-66807000D02*
X63729000Y-66800000D01*
X63729000Y-66800000D02*
X63726000Y-66793000D01*
X63726000Y-66793000D02*
X63723000Y-66785000D01*
X63723000Y-66785000D02*
X63721000Y-66778000D01*
X63721000Y-66778000D02*
X63719000Y-66770000D01*
X63719000Y-66770000D02*
X63718000Y-66762000D01*
X63718000Y-66762000D02*
X63717000Y-66755000D01*
X63717000Y-66755000D02*
X63716000Y-66747000D01*
X63716000Y-66747000D02*
X63716000Y-66739000D01*
X63716000Y-66739000D02*
X63716000Y-66414000D01*
X63716000Y-66414000D02*
X63503000Y-66414000D01*
X63503000Y-66414000D02*
X63366000Y-66277000D01*
X63366000Y-66277000D02*
X63366000Y-65714000D01*
X63366000Y-65714000D02*
X64066000Y-65714000D01*
X64066000Y-65714000D02*
X64066000Y-65714000D01*
G36*
X64066000Y-66747000D02*
G01*
X64065000Y-66755000D01*
X64064000Y-66762000D01*
X64063000Y-66770000D01*
X64061000Y-66778000D01*
X64059000Y-66785000D01*
X64056000Y-66793000D01*
X64050000Y-66807000D01*
X64042000Y-66821000D01*
X64037000Y-66827000D01*
X64033000Y-66833000D01*
X64027000Y-66839000D01*
X64022000Y-66845000D01*
X64016000Y-66850000D01*
X64010000Y-66856000D01*
X64004000Y-66860000D01*
X63998000Y-66865000D01*
X63984000Y-66873000D01*
X63970000Y-66879000D01*
X63962000Y-66882000D01*
X63955000Y-66884000D01*
X63947000Y-66886000D01*
X63939000Y-66887000D01*
X63932000Y-66888000D01*
X63924000Y-66889000D01*
X63858000Y-66889000D01*
X63850000Y-66888000D01*
X63843000Y-66887000D01*
X63835000Y-66886000D01*
X63827000Y-66884000D01*
X63820000Y-66882000D01*
X63812000Y-66879000D01*
X63798000Y-66873000D01*
X63784000Y-66865000D01*
X63778000Y-66860000D01*
X63772000Y-66856000D01*
X63766000Y-66850000D01*
X63760000Y-66845000D01*
X63755000Y-66839000D01*
X63749000Y-66833000D01*
X63745000Y-66827000D01*
X63740000Y-66821000D01*
X63732000Y-66807000D01*
X63726000Y-66793000D01*
X63723000Y-66785000D01*
X63721000Y-66778000D01*
X63719000Y-66770000D01*
X63718000Y-66762000D01*
X63717000Y-66755000D01*
X63716000Y-66747000D01*
X63716000Y-66414000D01*
X63503000Y-66414000D01*
X63366000Y-66277000D01*
X63366000Y-65714000D01*
X64066000Y-65714000D01*
X64066000Y-66747000D01*
G37*
X64066000Y-66747000D02*
X64065000Y-66755000D01*
X64064000Y-66762000D01*
X64063000Y-66770000D01*
X64061000Y-66778000D01*
X64059000Y-66785000D01*
X64056000Y-66793000D01*
X64050000Y-66807000D01*
X64042000Y-66821000D01*
X64037000Y-66827000D01*
X64033000Y-66833000D01*
X64027000Y-66839000D01*
X64022000Y-66845000D01*
X64016000Y-66850000D01*
X64010000Y-66856000D01*
X64004000Y-66860000D01*
X63998000Y-66865000D01*
X63984000Y-66873000D01*
X63970000Y-66879000D01*
X63962000Y-66882000D01*
X63955000Y-66884000D01*
X63947000Y-66886000D01*
X63939000Y-66887000D01*
X63932000Y-66888000D01*
X63924000Y-66889000D01*
X63858000Y-66889000D01*
X63850000Y-66888000D01*
X63843000Y-66887000D01*
X63835000Y-66886000D01*
X63827000Y-66884000D01*
X63820000Y-66882000D01*
X63812000Y-66879000D01*
X63798000Y-66873000D01*
X63784000Y-66865000D01*
X63778000Y-66860000D01*
X63772000Y-66856000D01*
X63766000Y-66850000D01*
X63760000Y-66845000D01*
X63755000Y-66839000D01*
X63749000Y-66833000D01*
X63745000Y-66827000D01*
X63740000Y-66821000D01*
X63732000Y-66807000D01*
X63726000Y-66793000D01*
X63723000Y-66785000D01*
X63721000Y-66778000D01*
X63719000Y-66770000D01*
X63718000Y-66762000D01*
X63717000Y-66755000D01*
X63716000Y-66747000D01*
X63716000Y-66414000D01*
X63503000Y-66414000D01*
X63366000Y-66277000D01*
X63366000Y-65714000D01*
X64066000Y-65714000D01*
X64066000Y-66747000D01*
X66366000Y-67114000D02*
X65741000Y-67114000D01*
X65741000Y-67114000D02*
X65733000Y-67114000D01*
X65733000Y-67114000D02*
X65725000Y-67113000D01*
X65725000Y-67113000D02*
X65718000Y-67112000D01*
X65718000Y-67112000D02*
X65710000Y-67111000D01*
X65710000Y-67111000D02*
X65702000Y-67109000D01*
X65702000Y-67109000D02*
X65695000Y-67107000D01*
X65695000Y-67107000D02*
X65687000Y-67104000D01*
X65687000Y-67104000D02*
X65680000Y-67101000D01*
X65680000Y-67101000D02*
X65673000Y-67098000D01*
X65673000Y-67098000D02*
X65666000Y-67094000D01*
X65666000Y-67094000D02*
X65659000Y-67090000D01*
X65659000Y-67090000D02*
X65653000Y-67085000D01*
X65653000Y-67085000D02*
X65647000Y-67081000D01*
X65647000Y-67081000D02*
X65641000Y-67075000D01*
X65641000Y-67075000D02*
X65635000Y-67070000D01*
X65635000Y-67070000D02*
X65630000Y-67064000D01*
X65630000Y-67064000D02*
X65624000Y-67058000D01*
X65624000Y-67058000D02*
X65620000Y-67052000D01*
X65620000Y-67052000D02*
X65615000Y-67046000D01*
X65615000Y-67046000D02*
X65611000Y-67039000D01*
X65611000Y-67039000D02*
X65607000Y-67032000D01*
X65607000Y-67032000D02*
X65604000Y-67025000D01*
X65604000Y-67025000D02*
X65601000Y-67018000D01*
X65601000Y-67018000D02*
X65598000Y-67010000D01*
X65598000Y-67010000D02*
X65596000Y-67003000D01*
X65596000Y-67003000D02*
X65594000Y-66995000D01*
X65594000Y-66995000D02*
X65593000Y-66987000D01*
X65593000Y-66987000D02*
X65592000Y-66980000D01*
X65592000Y-66980000D02*
X65591000Y-66972000D01*
X65591000Y-66972000D02*
X65591000Y-66964000D01*
X65591000Y-66964000D02*
X65591000Y-66956000D01*
X65591000Y-66956000D02*
X65592000Y-66948000D01*
X65592000Y-66948000D02*
X65593000Y-66941000D01*
X65593000Y-66941000D02*
X65594000Y-66933000D01*
X65594000Y-66933000D02*
X65596000Y-66925000D01*
X65596000Y-66925000D02*
X65598000Y-66918000D01*
X65598000Y-66918000D02*
X65601000Y-66910000D01*
X65601000Y-66910000D02*
X65604000Y-66903000D01*
X65604000Y-66903000D02*
X65607000Y-66896000D01*
X65607000Y-66896000D02*
X65611000Y-66889000D01*
X65611000Y-66889000D02*
X65615000Y-66882000D01*
X65615000Y-66882000D02*
X65620000Y-66876000D01*
X65620000Y-66876000D02*
X65624000Y-66870000D01*
X65624000Y-66870000D02*
X65630000Y-66864000D01*
X65630000Y-66864000D02*
X65635000Y-66858000D01*
X65635000Y-66858000D02*
X65641000Y-66853000D01*
X65641000Y-66853000D02*
X65647000Y-66847000D01*
X65647000Y-66847000D02*
X65653000Y-66843000D01*
X65653000Y-66843000D02*
X65659000Y-66838000D01*
X65659000Y-66838000D02*
X65666000Y-66834000D01*
X65666000Y-66834000D02*
X65673000Y-66830000D01*
X65673000Y-66830000D02*
X65680000Y-66827000D01*
X65680000Y-66827000D02*
X65687000Y-66824000D01*
X65687000Y-66824000D02*
X65695000Y-66821000D01*
X65695000Y-66821000D02*
X65702000Y-66819000D01*
X65702000Y-66819000D02*
X65710000Y-66817000D01*
X65710000Y-66817000D02*
X65718000Y-66816000D01*
X65718000Y-66816000D02*
X65725000Y-66815000D01*
X65725000Y-66815000D02*
X65733000Y-66814000D01*
X65733000Y-66814000D02*
X65741000Y-66814000D01*
X65741000Y-66814000D02*
X66366000Y-66814000D01*
X66366000Y-66814000D02*
X66366000Y-67114000D01*
X66366000Y-67114000D02*
X66366000Y-67114000D01*
G36*
X66366000Y-67114000D02*
G01*
X65733000Y-67114000D01*
X65725000Y-67113000D01*
X65718000Y-67112000D01*
X65710000Y-67111000D01*
X65702000Y-67109000D01*
X65695000Y-67107000D01*
X65687000Y-67104000D01*
X65673000Y-67098000D01*
X65659000Y-67090000D01*
X65653000Y-67085000D01*
X65647000Y-67081000D01*
X65641000Y-67075000D01*
X65635000Y-67070000D01*
X65630000Y-67064000D01*
X65624000Y-67058000D01*
X65620000Y-67052000D01*
X65615000Y-67046000D01*
X65607000Y-67032000D01*
X65601000Y-67018000D01*
X65598000Y-67010000D01*
X65596000Y-67003000D01*
X65594000Y-66995000D01*
X65593000Y-66987000D01*
X65592000Y-66980000D01*
X65591000Y-66972000D01*
X65591000Y-66956000D01*
X65592000Y-66948000D01*
X65593000Y-66941000D01*
X65594000Y-66933000D01*
X65596000Y-66925000D01*
X65598000Y-66918000D01*
X65601000Y-66910000D01*
X65607000Y-66896000D01*
X65615000Y-66882000D01*
X65620000Y-66876000D01*
X65624000Y-66870000D01*
X65630000Y-66864000D01*
X65635000Y-66858000D01*
X65641000Y-66853000D01*
X65647000Y-66847000D01*
X65653000Y-66843000D01*
X65659000Y-66838000D01*
X65673000Y-66830000D01*
X65687000Y-66824000D01*
X65695000Y-66821000D01*
X65702000Y-66819000D01*
X65710000Y-66817000D01*
X65718000Y-66816000D01*
X65725000Y-66815000D01*
X65733000Y-66814000D01*
X66366000Y-66814000D01*
X66366000Y-67114000D01*
G37*
X66366000Y-67114000D02*
X65733000Y-67114000D01*
X65725000Y-67113000D01*
X65718000Y-67112000D01*
X65710000Y-67111000D01*
X65702000Y-67109000D01*
X65695000Y-67107000D01*
X65687000Y-67104000D01*
X65673000Y-67098000D01*
X65659000Y-67090000D01*
X65653000Y-67085000D01*
X65647000Y-67081000D01*
X65641000Y-67075000D01*
X65635000Y-67070000D01*
X65630000Y-67064000D01*
X65624000Y-67058000D01*
X65620000Y-67052000D01*
X65615000Y-67046000D01*
X65607000Y-67032000D01*
X65601000Y-67018000D01*
X65598000Y-67010000D01*
X65596000Y-67003000D01*
X65594000Y-66995000D01*
X65593000Y-66987000D01*
X65592000Y-66980000D01*
X65591000Y-66972000D01*
X65591000Y-66956000D01*
X65592000Y-66948000D01*
X65593000Y-66941000D01*
X65594000Y-66933000D01*
X65596000Y-66925000D01*
X65598000Y-66918000D01*
X65601000Y-66910000D01*
X65607000Y-66896000D01*
X65615000Y-66882000D01*
X65620000Y-66876000D01*
X65624000Y-66870000D01*
X65630000Y-66864000D01*
X65635000Y-66858000D01*
X65641000Y-66853000D01*
X65647000Y-66847000D01*
X65653000Y-66843000D01*
X65659000Y-66838000D01*
X65673000Y-66830000D01*
X65687000Y-66824000D01*
X65695000Y-66821000D01*
X65702000Y-66819000D01*
X65710000Y-66817000D01*
X65718000Y-66816000D01*
X65725000Y-66815000D01*
X65733000Y-66814000D01*
X66366000Y-66814000D01*
X66366000Y-67114000D01*
X63666000Y-69414000D02*
X63666000Y-68689000D01*
X63666000Y-68689000D02*
X63503000Y-68689000D01*
X63503000Y-68689000D02*
X63366000Y-68826000D01*
X63366000Y-68826000D02*
X63366000Y-69414000D01*
X63366000Y-69414000D02*
X63666000Y-69414000D01*
G36*
X63666000Y-69414000D02*
G01*
X63366000Y-69414000D01*
X63366000Y-68826000D01*
X63503000Y-68689000D01*
X63666000Y-68689000D01*
X63666000Y-69414000D01*
G37*
X63666000Y-69414000D02*
X63366000Y-69414000D01*
X63366000Y-68826000D01*
X63503000Y-68689000D01*
X63666000Y-68689000D01*
X63666000Y-69414000D01*
X63766000Y-69414000D02*
X63766000Y-68789000D01*
X63766000Y-68789000D02*
X63766000Y-68781000D01*
X63766000Y-68781000D02*
X63767000Y-68773000D01*
X63767000Y-68773000D02*
X63768000Y-68766000D01*
X63768000Y-68766000D02*
X63769000Y-68758000D01*
X63769000Y-68758000D02*
X63771000Y-68750000D01*
X63771000Y-68750000D02*
X63773000Y-68743000D01*
X63773000Y-68743000D02*
X63776000Y-68735000D01*
X63776000Y-68735000D02*
X63779000Y-68728000D01*
X63779000Y-68728000D02*
X63782000Y-68721000D01*
X63782000Y-68721000D02*
X63786000Y-68714000D01*
X63786000Y-68714000D02*
X63790000Y-68707000D01*
X63790000Y-68707000D02*
X63795000Y-68701000D01*
X63795000Y-68701000D02*
X63799000Y-68695000D01*
X63799000Y-68695000D02*
X63805000Y-68689000D01*
X63805000Y-68689000D02*
X63810000Y-68683000D01*
X63810000Y-68683000D02*
X63816000Y-68678000D01*
X63816000Y-68678000D02*
X63822000Y-68672000D01*
X63822000Y-68672000D02*
X63828000Y-68668000D01*
X63828000Y-68668000D02*
X63834000Y-68663000D01*
X63834000Y-68663000D02*
X63841000Y-68659000D01*
X63841000Y-68659000D02*
X63848000Y-68655000D01*
X63848000Y-68655000D02*
X63855000Y-68652000D01*
X63855000Y-68652000D02*
X63862000Y-68649000D01*
X63862000Y-68649000D02*
X63870000Y-68646000D01*
X63870000Y-68646000D02*
X63877000Y-68644000D01*
X63877000Y-68644000D02*
X63885000Y-68642000D01*
X63885000Y-68642000D02*
X63893000Y-68641000D01*
X63893000Y-68641000D02*
X63900000Y-68640000D01*
X63900000Y-68640000D02*
X63908000Y-68639000D01*
X63908000Y-68639000D02*
X63916000Y-68639000D01*
X63916000Y-68639000D02*
X63924000Y-68639000D01*
X63924000Y-68639000D02*
X63932000Y-68640000D01*
X63932000Y-68640000D02*
X63939000Y-68641000D01*
X63939000Y-68641000D02*
X63947000Y-68642000D01*
X63947000Y-68642000D02*
X63955000Y-68644000D01*
X63955000Y-68644000D02*
X63962000Y-68646000D01*
X63962000Y-68646000D02*
X63970000Y-68649000D01*
X63970000Y-68649000D02*
X63977000Y-68652000D01*
X63977000Y-68652000D02*
X63984000Y-68655000D01*
X63984000Y-68655000D02*
X63991000Y-68659000D01*
X63991000Y-68659000D02*
X63998000Y-68663000D01*
X63998000Y-68663000D02*
X64004000Y-68668000D01*
X64004000Y-68668000D02*
X64010000Y-68672000D01*
X64010000Y-68672000D02*
X64016000Y-68678000D01*
X64016000Y-68678000D02*
X64022000Y-68683000D01*
X64022000Y-68683000D02*
X64027000Y-68689000D01*
X64027000Y-68689000D02*
X64033000Y-68695000D01*
X64033000Y-68695000D02*
X64037000Y-68701000D01*
X64037000Y-68701000D02*
X64042000Y-68707000D01*
X64042000Y-68707000D02*
X64046000Y-68714000D01*
X64046000Y-68714000D02*
X64050000Y-68721000D01*
X64050000Y-68721000D02*
X64053000Y-68728000D01*
X64053000Y-68728000D02*
X64056000Y-68735000D01*
X64056000Y-68735000D02*
X64059000Y-68743000D01*
X64059000Y-68743000D02*
X64061000Y-68750000D01*
X64061000Y-68750000D02*
X64063000Y-68758000D01*
X64063000Y-68758000D02*
X64064000Y-68766000D01*
X64064000Y-68766000D02*
X64065000Y-68773000D01*
X64065000Y-68773000D02*
X64066000Y-68781000D01*
X64066000Y-68781000D02*
X64066000Y-68789000D01*
X64066000Y-68789000D02*
X64066000Y-69414000D01*
X64066000Y-69414000D02*
X63766000Y-69414000D01*
X63766000Y-69414000D02*
X63766000Y-69414000D01*
G36*
X63932000Y-68640000D02*
G01*
X63939000Y-68641000D01*
X63947000Y-68642000D01*
X63955000Y-68644000D01*
X63962000Y-68646000D01*
X63970000Y-68649000D01*
X63984000Y-68655000D01*
X63998000Y-68663000D01*
X64004000Y-68668000D01*
X64010000Y-68672000D01*
X64016000Y-68678000D01*
X64022000Y-68683000D01*
X64027000Y-68689000D01*
X64033000Y-68695000D01*
X64037000Y-68701000D01*
X64042000Y-68707000D01*
X64050000Y-68721000D01*
X64056000Y-68735000D01*
X64059000Y-68743000D01*
X64061000Y-68750000D01*
X64063000Y-68758000D01*
X64064000Y-68766000D01*
X64065000Y-68773000D01*
X64066000Y-68781000D01*
X64066000Y-69414000D01*
X63766000Y-69414000D01*
X63766000Y-68781000D01*
X63767000Y-68773000D01*
X63768000Y-68766000D01*
X63769000Y-68758000D01*
X63771000Y-68750000D01*
X63773000Y-68743000D01*
X63776000Y-68735000D01*
X63782000Y-68721000D01*
X63790000Y-68707000D01*
X63795000Y-68701000D01*
X63799000Y-68695000D01*
X63805000Y-68689000D01*
X63810000Y-68683000D01*
X63816000Y-68678000D01*
X63822000Y-68672000D01*
X63828000Y-68668000D01*
X63834000Y-68663000D01*
X63848000Y-68655000D01*
X63862000Y-68649000D01*
X63870000Y-68646000D01*
X63877000Y-68644000D01*
X63885000Y-68642000D01*
X63893000Y-68641000D01*
X63900000Y-68640000D01*
X63908000Y-68639000D01*
X63924000Y-68639000D01*
X63932000Y-68640000D01*
G37*
X63932000Y-68640000D02*
X63939000Y-68641000D01*
X63947000Y-68642000D01*
X63955000Y-68644000D01*
X63962000Y-68646000D01*
X63970000Y-68649000D01*
X63984000Y-68655000D01*
X63998000Y-68663000D01*
X64004000Y-68668000D01*
X64010000Y-68672000D01*
X64016000Y-68678000D01*
X64022000Y-68683000D01*
X64027000Y-68689000D01*
X64033000Y-68695000D01*
X64037000Y-68701000D01*
X64042000Y-68707000D01*
X64050000Y-68721000D01*
X64056000Y-68735000D01*
X64059000Y-68743000D01*
X64061000Y-68750000D01*
X64063000Y-68758000D01*
X64064000Y-68766000D01*
X64065000Y-68773000D01*
X64066000Y-68781000D01*
X64066000Y-69414000D01*
X63766000Y-69414000D01*
X63766000Y-68781000D01*
X63767000Y-68773000D01*
X63768000Y-68766000D01*
X63769000Y-68758000D01*
X63771000Y-68750000D01*
X63773000Y-68743000D01*
X63776000Y-68735000D01*
X63782000Y-68721000D01*
X63790000Y-68707000D01*
X63795000Y-68701000D01*
X63799000Y-68695000D01*
X63805000Y-68689000D01*
X63810000Y-68683000D01*
X63816000Y-68678000D01*
X63822000Y-68672000D01*
X63828000Y-68668000D01*
X63834000Y-68663000D01*
X63848000Y-68655000D01*
X63862000Y-68649000D01*
X63870000Y-68646000D01*
X63877000Y-68644000D01*
X63885000Y-68642000D01*
X63893000Y-68641000D01*
X63900000Y-68640000D01*
X63908000Y-68639000D01*
X63924000Y-68639000D01*
X63932000Y-68640000D01*
X62666000Y-68414000D02*
X63391000Y-68414000D01*
X63391000Y-68414000D02*
X63391000Y-68577000D01*
X63391000Y-68577000D02*
X63254000Y-68714000D01*
X63254000Y-68714000D02*
X62666000Y-68714000D01*
X62666000Y-68714000D02*
X62666000Y-68414000D01*
G36*
X63391000Y-68577000D02*
G01*
X63254000Y-68714000D01*
X62666000Y-68714000D01*
X62666000Y-68414000D01*
X63391000Y-68414000D01*
X63391000Y-68577000D01*
G37*
X63391000Y-68577000D02*
X63254000Y-68714000D01*
X62666000Y-68714000D01*
X62666000Y-68414000D01*
X63391000Y-68414000D01*
X63391000Y-68577000D01*
X66366000Y-67914000D02*
X64841000Y-67914000D01*
X64841000Y-67914000D02*
X64833000Y-67914000D01*
X64833000Y-67914000D02*
X64825000Y-67913000D01*
X64825000Y-67913000D02*
X64818000Y-67912000D01*
X64818000Y-67912000D02*
X64810000Y-67911000D01*
X64810000Y-67911000D02*
X64802000Y-67909000D01*
X64802000Y-67909000D02*
X64795000Y-67907000D01*
X64795000Y-67907000D02*
X64787000Y-67904000D01*
X64787000Y-67904000D02*
X64780000Y-67901000D01*
X64780000Y-67901000D02*
X64773000Y-67898000D01*
X64773000Y-67898000D02*
X64766000Y-67894000D01*
X64766000Y-67894000D02*
X64759000Y-67890000D01*
X64759000Y-67890000D02*
X64753000Y-67885000D01*
X64753000Y-67885000D02*
X64747000Y-67881000D01*
X64747000Y-67881000D02*
X64741000Y-67875000D01*
X64741000Y-67875000D02*
X64735000Y-67870000D01*
X64735000Y-67870000D02*
X64730000Y-67864000D01*
X64730000Y-67864000D02*
X64724000Y-67858000D01*
X64724000Y-67858000D02*
X64720000Y-67852000D01*
X64720000Y-67852000D02*
X64715000Y-67846000D01*
X64715000Y-67846000D02*
X64711000Y-67839000D01*
X64711000Y-67839000D02*
X64707000Y-67832000D01*
X64707000Y-67832000D02*
X64704000Y-67825000D01*
X64704000Y-67825000D02*
X64701000Y-67818000D01*
X64701000Y-67818000D02*
X64698000Y-67810000D01*
X64698000Y-67810000D02*
X64696000Y-67803000D01*
X64696000Y-67803000D02*
X64694000Y-67795000D01*
X64694000Y-67795000D02*
X64693000Y-67787000D01*
X64693000Y-67787000D02*
X64692000Y-67780000D01*
X64692000Y-67780000D02*
X64691000Y-67772000D01*
X64691000Y-67772000D02*
X64691000Y-67764000D01*
X64691000Y-67764000D02*
X64691000Y-67714000D01*
X64691000Y-67714000D02*
X64691000Y-67706000D01*
X64691000Y-67706000D02*
X64692000Y-67698000D01*
X64692000Y-67698000D02*
X64693000Y-67691000D01*
X64693000Y-67691000D02*
X64694000Y-67683000D01*
X64694000Y-67683000D02*
X64696000Y-67675000D01*
X64696000Y-67675000D02*
X64698000Y-67668000D01*
X64698000Y-67668000D02*
X64701000Y-67660000D01*
X64701000Y-67660000D02*
X64704000Y-67653000D01*
X64704000Y-67653000D02*
X64707000Y-67646000D01*
X64707000Y-67646000D02*
X64711000Y-67639000D01*
X64711000Y-67639000D02*
X64715000Y-67632000D01*
X64715000Y-67632000D02*
X64720000Y-67626000D01*
X64720000Y-67626000D02*
X64724000Y-67620000D01*
X64724000Y-67620000D02*
X64730000Y-67614000D01*
X64730000Y-67614000D02*
X64735000Y-67608000D01*
X64735000Y-67608000D02*
X64741000Y-67603000D01*
X64741000Y-67603000D02*
X64747000Y-67597000D01*
X64747000Y-67597000D02*
X64753000Y-67593000D01*
X64753000Y-67593000D02*
X64759000Y-67588000D01*
X64759000Y-67588000D02*
X64766000Y-67584000D01*
X64766000Y-67584000D02*
X64773000Y-67580000D01*
X64773000Y-67580000D02*
X64780000Y-67577000D01*
X64780000Y-67577000D02*
X64787000Y-67574000D01*
X64787000Y-67574000D02*
X64795000Y-67571000D01*
X64795000Y-67571000D02*
X64802000Y-67569000D01*
X64802000Y-67569000D02*
X64810000Y-67567000D01*
X64810000Y-67567000D02*
X64818000Y-67566000D01*
X64818000Y-67566000D02*
X64825000Y-67565000D01*
X64825000Y-67565000D02*
X64833000Y-67564000D01*
X64833000Y-67564000D02*
X64841000Y-67564000D01*
X64841000Y-67564000D02*
X65616000Y-67564000D01*
X65616000Y-67564000D02*
X65616000Y-67364000D01*
X65616000Y-67364000D02*
X65616000Y-67356000D01*
X65616000Y-67356000D02*
X65617000Y-67348000D01*
X65617000Y-67348000D02*
X65618000Y-67341000D01*
X65618000Y-67341000D02*
X65619000Y-67333000D01*
X65619000Y-67333000D02*
X65621000Y-67325000D01*
X65621000Y-67325000D02*
X65623000Y-67318000D01*
X65623000Y-67318000D02*
X65626000Y-67310000D01*
X65626000Y-67310000D02*
X65629000Y-67303000D01*
X65629000Y-67303000D02*
X65632000Y-67296000D01*
X65632000Y-67296000D02*
X65636000Y-67289000D01*
X65636000Y-67289000D02*
X65640000Y-67282000D01*
X65640000Y-67282000D02*
X65645000Y-67276000D01*
X65645000Y-67276000D02*
X65649000Y-67270000D01*
X65649000Y-67270000D02*
X65655000Y-67264000D01*
X65655000Y-67264000D02*
X65660000Y-67258000D01*
X65660000Y-67258000D02*
X65666000Y-67253000D01*
X65666000Y-67253000D02*
X65672000Y-67247000D01*
X65672000Y-67247000D02*
X65678000Y-67243000D01*
X65678000Y-67243000D02*
X65684000Y-67238000D01*
X65684000Y-67238000D02*
X65691000Y-67234000D01*
X65691000Y-67234000D02*
X65698000Y-67230000D01*
X65698000Y-67230000D02*
X65705000Y-67227000D01*
X65705000Y-67227000D02*
X65712000Y-67224000D01*
X65712000Y-67224000D02*
X65720000Y-67221000D01*
X65720000Y-67221000D02*
X65727000Y-67219000D01*
X65727000Y-67219000D02*
X65735000Y-67217000D01*
X65735000Y-67217000D02*
X65743000Y-67216000D01*
X65743000Y-67216000D02*
X65750000Y-67215000D01*
X65750000Y-67215000D02*
X65758000Y-67214000D01*
X65758000Y-67214000D02*
X65766000Y-67214000D01*
X65766000Y-67214000D02*
X66366000Y-67214000D01*
X66366000Y-67214000D02*
X66366000Y-67914000D01*
X66366000Y-67914000D02*
X66366000Y-67914000D01*
G36*
X66366000Y-67914000D02*
G01*
X64833000Y-67914000D01*
X64825000Y-67913000D01*
X64818000Y-67912000D01*
X64810000Y-67911000D01*
X64802000Y-67909000D01*
X64795000Y-67907000D01*
X64787000Y-67904000D01*
X64773000Y-67898000D01*
X64759000Y-67890000D01*
X64753000Y-67885000D01*
X64747000Y-67881000D01*
X64741000Y-67875000D01*
X64735000Y-67870000D01*
X64730000Y-67864000D01*
X64724000Y-67858000D01*
X64720000Y-67852000D01*
X64715000Y-67846000D01*
X64707000Y-67832000D01*
X64701000Y-67818000D01*
X64698000Y-67810000D01*
X64696000Y-67803000D01*
X64694000Y-67795000D01*
X64693000Y-67787000D01*
X64692000Y-67780000D01*
X64691000Y-67772000D01*
X64691000Y-67706000D01*
X64692000Y-67698000D01*
X64693000Y-67691000D01*
X64694000Y-67683000D01*
X64696000Y-67675000D01*
X64698000Y-67668000D01*
X64701000Y-67660000D01*
X64707000Y-67646000D01*
X64715000Y-67632000D01*
X64720000Y-67626000D01*
X64724000Y-67620000D01*
X64730000Y-67614000D01*
X64735000Y-67608000D01*
X64741000Y-67603000D01*
X64747000Y-67597000D01*
X64753000Y-67593000D01*
X64759000Y-67588000D01*
X64773000Y-67580000D01*
X64787000Y-67574000D01*
X64795000Y-67571000D01*
X64802000Y-67569000D01*
X64810000Y-67567000D01*
X64818000Y-67566000D01*
X64825000Y-67565000D01*
X64833000Y-67564000D01*
X65616000Y-67564000D01*
X65616000Y-67356000D01*
X65617000Y-67348000D01*
X65618000Y-67341000D01*
X65619000Y-67333000D01*
X65621000Y-67325000D01*
X65623000Y-67318000D01*
X65626000Y-67310000D01*
X65632000Y-67296000D01*
X65640000Y-67282000D01*
X65645000Y-67276000D01*
X65649000Y-67270000D01*
X65655000Y-67264000D01*
X65660000Y-67258000D01*
X65666000Y-67253000D01*
X65672000Y-67247000D01*
X65678000Y-67243000D01*
X65684000Y-67238000D01*
X65698000Y-67230000D01*
X65712000Y-67224000D01*
X65720000Y-67221000D01*
X65727000Y-67219000D01*
X65735000Y-67217000D01*
X65743000Y-67216000D01*
X65750000Y-67215000D01*
X65758000Y-67214000D01*
X66366000Y-67214000D01*
X66366000Y-67914000D01*
G37*
X66366000Y-67914000D02*
X64833000Y-67914000D01*
X64825000Y-67913000D01*
X64818000Y-67912000D01*
X64810000Y-67911000D01*
X64802000Y-67909000D01*
X64795000Y-67907000D01*
X64787000Y-67904000D01*
X64773000Y-67898000D01*
X64759000Y-67890000D01*
X64753000Y-67885000D01*
X64747000Y-67881000D01*
X64741000Y-67875000D01*
X64735000Y-67870000D01*
X64730000Y-67864000D01*
X64724000Y-67858000D01*
X64720000Y-67852000D01*
X64715000Y-67846000D01*
X64707000Y-67832000D01*
X64701000Y-67818000D01*
X64698000Y-67810000D01*
X64696000Y-67803000D01*
X64694000Y-67795000D01*
X64693000Y-67787000D01*
X64692000Y-67780000D01*
X64691000Y-67772000D01*
X64691000Y-67706000D01*
X64692000Y-67698000D01*
X64693000Y-67691000D01*
X64694000Y-67683000D01*
X64696000Y-67675000D01*
X64698000Y-67668000D01*
X64701000Y-67660000D01*
X64707000Y-67646000D01*
X64715000Y-67632000D01*
X64720000Y-67626000D01*
X64724000Y-67620000D01*
X64730000Y-67614000D01*
X64735000Y-67608000D01*
X64741000Y-67603000D01*
X64747000Y-67597000D01*
X64753000Y-67593000D01*
X64759000Y-67588000D01*
X64773000Y-67580000D01*
X64787000Y-67574000D01*
X64795000Y-67571000D01*
X64802000Y-67569000D01*
X64810000Y-67567000D01*
X64818000Y-67566000D01*
X64825000Y-67565000D01*
X64833000Y-67564000D01*
X65616000Y-67564000D01*
X65616000Y-67356000D01*
X65617000Y-67348000D01*
X65618000Y-67341000D01*
X65619000Y-67333000D01*
X65621000Y-67325000D01*
X65623000Y-67318000D01*
X65626000Y-67310000D01*
X65632000Y-67296000D01*
X65640000Y-67282000D01*
X65645000Y-67276000D01*
X65649000Y-67270000D01*
X65655000Y-67264000D01*
X65660000Y-67258000D01*
X65666000Y-67253000D01*
X65672000Y-67247000D01*
X65678000Y-67243000D01*
X65684000Y-67238000D01*
X65698000Y-67230000D01*
X65712000Y-67224000D01*
X65720000Y-67221000D01*
X65727000Y-67219000D01*
X65735000Y-67217000D01*
X65743000Y-67216000D01*
X65750000Y-67215000D01*
X65758000Y-67214000D01*
X66366000Y-67214000D01*
X66366000Y-67914000D01*
X62666000Y-66714000D02*
X63391000Y-66714000D01*
X63391000Y-66714000D02*
X63391000Y-66551000D01*
X63391000Y-66551000D02*
X63254000Y-66414000D01*
X63254000Y-66414000D02*
X62666000Y-66414000D01*
X62666000Y-66414000D02*
X62666000Y-66714000D01*
G36*
X63391000Y-66551000D02*
G01*
X63391000Y-66714000D01*
X62666000Y-66714000D01*
X62666000Y-66414000D01*
X63254000Y-66414000D01*
X63391000Y-66551000D01*
G37*
X63391000Y-66551000D02*
X63391000Y-66714000D01*
X62666000Y-66714000D01*
X62666000Y-66414000D01*
X63254000Y-66414000D01*
X63391000Y-66551000D01*
X62666000Y-66814000D02*
X63291000Y-66814000D01*
X63291000Y-66814000D02*
X63299000Y-66814000D01*
X63299000Y-66814000D02*
X63307000Y-66815000D01*
X63307000Y-66815000D02*
X63314000Y-66816000D01*
X63314000Y-66816000D02*
X63322000Y-66817000D01*
X63322000Y-66817000D02*
X63330000Y-66819000D01*
X63330000Y-66819000D02*
X63337000Y-66821000D01*
X63337000Y-66821000D02*
X63345000Y-66824000D01*
X63345000Y-66824000D02*
X63352000Y-66827000D01*
X63352000Y-66827000D02*
X63359000Y-66830000D01*
X63359000Y-66830000D02*
X63366000Y-66834000D01*
X63366000Y-66834000D02*
X63373000Y-66838000D01*
X63373000Y-66838000D02*
X63379000Y-66843000D01*
X63379000Y-66843000D02*
X63385000Y-66847000D01*
X63385000Y-66847000D02*
X63391000Y-66853000D01*
X63391000Y-66853000D02*
X63397000Y-66858000D01*
X63397000Y-66858000D02*
X63402000Y-66864000D01*
X63402000Y-66864000D02*
X63408000Y-66870000D01*
X63408000Y-66870000D02*
X63412000Y-66876000D01*
X63412000Y-66876000D02*
X63417000Y-66882000D01*
X63417000Y-66882000D02*
X63421000Y-66889000D01*
X63421000Y-66889000D02*
X63425000Y-66896000D01*
X63425000Y-66896000D02*
X63428000Y-66903000D01*
X63428000Y-66903000D02*
X63431000Y-66910000D01*
X63431000Y-66910000D02*
X63434000Y-66918000D01*
X63434000Y-66918000D02*
X63436000Y-66925000D01*
X63436000Y-66925000D02*
X63438000Y-66933000D01*
X63438000Y-66933000D02*
X63439000Y-66941000D01*
X63439000Y-66941000D02*
X63440000Y-66948000D01*
X63440000Y-66948000D02*
X63441000Y-66956000D01*
X63441000Y-66956000D02*
X63441000Y-66964000D01*
X63441000Y-66964000D02*
X63441000Y-66972000D01*
X63441000Y-66972000D02*
X63440000Y-66980000D01*
X63440000Y-66980000D02*
X63439000Y-66987000D01*
X63439000Y-66987000D02*
X63438000Y-66995000D01*
X63438000Y-66995000D02*
X63436000Y-67003000D01*
X63436000Y-67003000D02*
X63434000Y-67010000D01*
X63434000Y-67010000D02*
X63431000Y-67018000D01*
X63431000Y-67018000D02*
X63428000Y-67025000D01*
X63428000Y-67025000D02*
X63425000Y-67032000D01*
X63425000Y-67032000D02*
X63421000Y-67039000D01*
X63421000Y-67039000D02*
X63417000Y-67046000D01*
X63417000Y-67046000D02*
X63412000Y-67052000D01*
X63412000Y-67052000D02*
X63408000Y-67058000D01*
X63408000Y-67058000D02*
X63402000Y-67064000D01*
X63402000Y-67064000D02*
X63397000Y-67070000D01*
X63397000Y-67070000D02*
X63391000Y-67075000D01*
X63391000Y-67075000D02*
X63385000Y-67081000D01*
X63385000Y-67081000D02*
X63379000Y-67085000D01*
X63379000Y-67085000D02*
X63373000Y-67090000D01*
X63373000Y-67090000D02*
X63366000Y-67094000D01*
X63366000Y-67094000D02*
X63359000Y-67098000D01*
X63359000Y-67098000D02*
X63352000Y-67101000D01*
X63352000Y-67101000D02*
X63345000Y-67104000D01*
X63345000Y-67104000D02*
X63337000Y-67107000D01*
X63337000Y-67107000D02*
X63330000Y-67109000D01*
X63330000Y-67109000D02*
X63322000Y-67111000D01*
X63322000Y-67111000D02*
X63314000Y-67112000D01*
X63314000Y-67112000D02*
X63307000Y-67113000D01*
X63307000Y-67113000D02*
X63299000Y-67114000D01*
X63299000Y-67114000D02*
X63291000Y-67114000D01*
X63291000Y-67114000D02*
X62666000Y-67114000D01*
X62666000Y-67114000D02*
X62666000Y-66814000D01*
X62666000Y-66814000D02*
X62666000Y-66814000D01*
G36*
X63307000Y-66815000D02*
G01*
X63314000Y-66816000D01*
X63322000Y-66817000D01*
X63330000Y-66819000D01*
X63337000Y-66821000D01*
X63345000Y-66824000D01*
X63359000Y-66830000D01*
X63373000Y-66838000D01*
X63379000Y-66843000D01*
X63385000Y-66847000D01*
X63391000Y-66853000D01*
X63397000Y-66858000D01*
X63402000Y-66864000D01*
X63408000Y-66870000D01*
X63412000Y-66876000D01*
X63417000Y-66882000D01*
X63425000Y-66896000D01*
X63431000Y-66910000D01*
X63434000Y-66918000D01*
X63436000Y-66925000D01*
X63438000Y-66933000D01*
X63439000Y-66941000D01*
X63440000Y-66948000D01*
X63441000Y-66956000D01*
X63441000Y-66972000D01*
X63440000Y-66980000D01*
X63439000Y-66987000D01*
X63438000Y-66995000D01*
X63436000Y-67003000D01*
X63434000Y-67010000D01*
X63431000Y-67018000D01*
X63425000Y-67032000D01*
X63417000Y-67046000D01*
X63412000Y-67052000D01*
X63408000Y-67058000D01*
X63402000Y-67064000D01*
X63397000Y-67070000D01*
X63391000Y-67075000D01*
X63385000Y-67081000D01*
X63379000Y-67085000D01*
X63373000Y-67090000D01*
X63359000Y-67098000D01*
X63345000Y-67104000D01*
X63337000Y-67107000D01*
X63330000Y-67109000D01*
X63322000Y-67111000D01*
X63314000Y-67112000D01*
X63307000Y-67113000D01*
X63299000Y-67114000D01*
X62666000Y-67114000D01*
X62666000Y-66814000D01*
X63299000Y-66814000D01*
X63307000Y-66815000D01*
G37*
X63307000Y-66815000D02*
X63314000Y-66816000D01*
X63322000Y-66817000D01*
X63330000Y-66819000D01*
X63337000Y-66821000D01*
X63345000Y-66824000D01*
X63359000Y-66830000D01*
X63373000Y-66838000D01*
X63379000Y-66843000D01*
X63385000Y-66847000D01*
X63391000Y-66853000D01*
X63397000Y-66858000D01*
X63402000Y-66864000D01*
X63408000Y-66870000D01*
X63412000Y-66876000D01*
X63417000Y-66882000D01*
X63425000Y-66896000D01*
X63431000Y-66910000D01*
X63434000Y-66918000D01*
X63436000Y-66925000D01*
X63438000Y-66933000D01*
X63439000Y-66941000D01*
X63440000Y-66948000D01*
X63441000Y-66956000D01*
X63441000Y-66972000D01*
X63440000Y-66980000D01*
X63439000Y-66987000D01*
X63438000Y-66995000D01*
X63436000Y-67003000D01*
X63434000Y-67010000D01*
X63431000Y-67018000D01*
X63425000Y-67032000D01*
X63417000Y-67046000D01*
X63412000Y-67052000D01*
X63408000Y-67058000D01*
X63402000Y-67064000D01*
X63397000Y-67070000D01*
X63391000Y-67075000D01*
X63385000Y-67081000D01*
X63379000Y-67085000D01*
X63373000Y-67090000D01*
X63359000Y-67098000D01*
X63345000Y-67104000D01*
X63337000Y-67107000D01*
X63330000Y-67109000D01*
X63322000Y-67111000D01*
X63314000Y-67112000D01*
X63307000Y-67113000D01*
X63299000Y-67114000D01*
X62666000Y-67114000D01*
X62666000Y-66814000D01*
X63299000Y-66814000D01*
X63307000Y-66815000D01*
X62666000Y-68014000D02*
X63291000Y-68014000D01*
X63291000Y-68014000D02*
X63299000Y-68014000D01*
X63299000Y-68014000D02*
X63307000Y-68015000D01*
X63307000Y-68015000D02*
X63314000Y-68016000D01*
X63314000Y-68016000D02*
X63322000Y-68017000D01*
X63322000Y-68017000D02*
X63330000Y-68019000D01*
X63330000Y-68019000D02*
X63337000Y-68021000D01*
X63337000Y-68021000D02*
X63345000Y-68024000D01*
X63345000Y-68024000D02*
X63352000Y-68027000D01*
X63352000Y-68027000D02*
X63359000Y-68030000D01*
X63359000Y-68030000D02*
X63366000Y-68034000D01*
X63366000Y-68034000D02*
X63373000Y-68038000D01*
X63373000Y-68038000D02*
X63379000Y-68043000D01*
X63379000Y-68043000D02*
X63385000Y-68047000D01*
X63385000Y-68047000D02*
X63391000Y-68053000D01*
X63391000Y-68053000D02*
X63397000Y-68058000D01*
X63397000Y-68058000D02*
X63402000Y-68064000D01*
X63402000Y-68064000D02*
X63408000Y-68070000D01*
X63408000Y-68070000D02*
X63412000Y-68076000D01*
X63412000Y-68076000D02*
X63417000Y-68082000D01*
X63417000Y-68082000D02*
X63421000Y-68089000D01*
X63421000Y-68089000D02*
X63425000Y-68096000D01*
X63425000Y-68096000D02*
X63428000Y-68103000D01*
X63428000Y-68103000D02*
X63431000Y-68110000D01*
X63431000Y-68110000D02*
X63434000Y-68118000D01*
X63434000Y-68118000D02*
X63436000Y-68125000D01*
X63436000Y-68125000D02*
X63438000Y-68133000D01*
X63438000Y-68133000D02*
X63439000Y-68141000D01*
X63439000Y-68141000D02*
X63440000Y-68148000D01*
X63440000Y-68148000D02*
X63441000Y-68156000D01*
X63441000Y-68156000D02*
X63441000Y-68164000D01*
X63441000Y-68164000D02*
X63441000Y-68172000D01*
X63441000Y-68172000D02*
X63440000Y-68180000D01*
X63440000Y-68180000D02*
X63439000Y-68187000D01*
X63439000Y-68187000D02*
X63438000Y-68195000D01*
X63438000Y-68195000D02*
X63436000Y-68203000D01*
X63436000Y-68203000D02*
X63434000Y-68210000D01*
X63434000Y-68210000D02*
X63431000Y-68218000D01*
X63431000Y-68218000D02*
X63428000Y-68225000D01*
X63428000Y-68225000D02*
X63425000Y-68232000D01*
X63425000Y-68232000D02*
X63421000Y-68239000D01*
X63421000Y-68239000D02*
X63417000Y-68246000D01*
X63417000Y-68246000D02*
X63412000Y-68252000D01*
X63412000Y-68252000D02*
X63408000Y-68258000D01*
X63408000Y-68258000D02*
X63402000Y-68264000D01*
X63402000Y-68264000D02*
X63397000Y-68270000D01*
X63397000Y-68270000D02*
X63391000Y-68275000D01*
X63391000Y-68275000D02*
X63385000Y-68281000D01*
X63385000Y-68281000D02*
X63379000Y-68285000D01*
X63379000Y-68285000D02*
X63373000Y-68290000D01*
X63373000Y-68290000D02*
X63366000Y-68294000D01*
X63366000Y-68294000D02*
X63359000Y-68298000D01*
X63359000Y-68298000D02*
X63352000Y-68301000D01*
X63352000Y-68301000D02*
X63345000Y-68304000D01*
X63345000Y-68304000D02*
X63337000Y-68307000D01*
X63337000Y-68307000D02*
X63330000Y-68309000D01*
X63330000Y-68309000D02*
X63322000Y-68311000D01*
X63322000Y-68311000D02*
X63314000Y-68312000D01*
X63314000Y-68312000D02*
X63307000Y-68313000D01*
X63307000Y-68313000D02*
X63299000Y-68314000D01*
X63299000Y-68314000D02*
X63291000Y-68314000D01*
X63291000Y-68314000D02*
X62666000Y-68314000D01*
X62666000Y-68314000D02*
X62666000Y-68014000D01*
X62666000Y-68014000D02*
X62666000Y-68014000D01*
G36*
X63307000Y-68015000D02*
G01*
X63314000Y-68016000D01*
X63322000Y-68017000D01*
X63330000Y-68019000D01*
X63337000Y-68021000D01*
X63345000Y-68024000D01*
X63359000Y-68030000D01*
X63373000Y-68038000D01*
X63379000Y-68043000D01*
X63385000Y-68047000D01*
X63391000Y-68053000D01*
X63397000Y-68058000D01*
X63402000Y-68064000D01*
X63408000Y-68070000D01*
X63412000Y-68076000D01*
X63417000Y-68082000D01*
X63425000Y-68096000D01*
X63431000Y-68110000D01*
X63434000Y-68118000D01*
X63436000Y-68125000D01*
X63438000Y-68133000D01*
X63439000Y-68141000D01*
X63440000Y-68148000D01*
X63441000Y-68156000D01*
X63441000Y-68172000D01*
X63440000Y-68180000D01*
X63439000Y-68187000D01*
X63438000Y-68195000D01*
X63436000Y-68203000D01*
X63434000Y-68210000D01*
X63431000Y-68218000D01*
X63425000Y-68232000D01*
X63417000Y-68246000D01*
X63412000Y-68252000D01*
X63408000Y-68258000D01*
X63402000Y-68264000D01*
X63397000Y-68270000D01*
X63391000Y-68275000D01*
X63385000Y-68281000D01*
X63379000Y-68285000D01*
X63373000Y-68290000D01*
X63359000Y-68298000D01*
X63345000Y-68304000D01*
X63337000Y-68307000D01*
X63330000Y-68309000D01*
X63322000Y-68311000D01*
X63314000Y-68312000D01*
X63307000Y-68313000D01*
X63299000Y-68314000D01*
X62666000Y-68314000D01*
X62666000Y-68014000D01*
X63299000Y-68014000D01*
X63307000Y-68015000D01*
G37*
X63307000Y-68015000D02*
X63314000Y-68016000D01*
X63322000Y-68017000D01*
X63330000Y-68019000D01*
X63337000Y-68021000D01*
X63345000Y-68024000D01*
X63359000Y-68030000D01*
X63373000Y-68038000D01*
X63379000Y-68043000D01*
X63385000Y-68047000D01*
X63391000Y-68053000D01*
X63397000Y-68058000D01*
X63402000Y-68064000D01*
X63408000Y-68070000D01*
X63412000Y-68076000D01*
X63417000Y-68082000D01*
X63425000Y-68096000D01*
X63431000Y-68110000D01*
X63434000Y-68118000D01*
X63436000Y-68125000D01*
X63438000Y-68133000D01*
X63439000Y-68141000D01*
X63440000Y-68148000D01*
X63441000Y-68156000D01*
X63441000Y-68172000D01*
X63440000Y-68180000D01*
X63439000Y-68187000D01*
X63438000Y-68195000D01*
X63436000Y-68203000D01*
X63434000Y-68210000D01*
X63431000Y-68218000D01*
X63425000Y-68232000D01*
X63417000Y-68246000D01*
X63412000Y-68252000D01*
X63408000Y-68258000D01*
X63402000Y-68264000D01*
X63397000Y-68270000D01*
X63391000Y-68275000D01*
X63385000Y-68281000D01*
X63379000Y-68285000D01*
X63373000Y-68290000D01*
X63359000Y-68298000D01*
X63345000Y-68304000D01*
X63337000Y-68307000D01*
X63330000Y-68309000D01*
X63322000Y-68311000D01*
X63314000Y-68312000D01*
X63307000Y-68313000D01*
X63299000Y-68314000D01*
X62666000Y-68314000D01*
X62666000Y-68014000D01*
X63299000Y-68014000D01*
X63307000Y-68015000D01*
D11*
X88802800Y-104500000D03*
D12*
X86897200Y-104500000D03*
D13*
X65786000Y-70612000D03*
X66806000Y-70612000D03*
D14*
X59100000Y-139675000D03*
X57550000Y-139675000D03*
D15*
X47692400Y-69044000D03*
D16*
X47692400Y-76244000D03*
D17*
X48352400Y-69894000D03*
X48352400Y-70394000D03*
X48352400Y-70894000D03*
X48352400Y-71394000D03*
X48352400Y-71894000D03*
X48352400Y-72394000D03*
X48352400Y-72894000D03*
X48352400Y-73394000D03*
X48352400Y-73894000D03*
X48352400Y-74394000D03*
X48352400Y-74894000D03*
X48352400Y-75394000D03*
X46652400Y-75144000D03*
X46652400Y-74644000D03*
X46652400Y-74144000D03*
X46652400Y-73644000D03*
X46652400Y-73144000D03*
X46652400Y-72644000D03*
X46652400Y-72144000D03*
X46652400Y-71644000D03*
X46652400Y-71144000D03*
X46652400Y-70644000D03*
X46652400Y-70144000D03*
X46652400Y-69644000D03*
D18*
X40492400Y-68154000D03*
X46442400Y-76774000D03*
X40492400Y-77134000D03*
X46442400Y-68514000D03*
D19*
X101125000Y-100299999D03*
D20*
X100975000Y-99750000D03*
D19*
X101125000Y-99200001D03*
D21*
X99525001Y-98999999D03*
X99525001Y-99500000D03*
X99525001Y-100000000D03*
X99525001Y-100500001D03*
D22*
X97000000Y-100525000D03*
X97000000Y-98975000D03*
D23*
X99000000Y-77425000D03*
X99000000Y-79075000D03*
D24*
X106300000Y-136675000D03*
X107950000Y-136675000D03*
D25*
X69090000Y-141367500D03*
X69090000Y-139792500D03*
D26*
X68630800Y-69189600D03*
X68630800Y-70739600D03*
D27*
X98947100Y-104500000D03*
X94552900Y-104500000D03*
D28*
X112437500Y-126025000D03*
X112437500Y-126675000D03*
X112437500Y-127325000D03*
X112437500Y-127975000D03*
D29*
X113325000Y-128862500D03*
X113975000Y-128862500D03*
X114625000Y-128862500D03*
X115275000Y-128862500D03*
D28*
X116162500Y-127975000D03*
X116162500Y-127325000D03*
X116162500Y-126675000D03*
X116162500Y-126025000D03*
D29*
X115275000Y-125137500D03*
X114625000Y-125137500D03*
X113975000Y-125137500D03*
X113325000Y-125137500D03*
D30*
X114300000Y-127000000D03*
D31*
X65925700Y-114935000D03*
X65925700Y-116205000D03*
X65925700Y-117475000D03*
X65925700Y-118745000D03*
X71234300Y-118745000D03*
X71234300Y-117475000D03*
X71234300Y-116205000D03*
X71234300Y-114935000D03*
D32*
X64262000Y-62534800D03*
X65812000Y-62534800D03*
D33*
X102500000Y-82075000D03*
X102500000Y-83975000D03*
D23*
X80550000Y-121900000D03*
X80550000Y-123550000D03*
D22*
X62230000Y-64529000D03*
X62230000Y-62979000D03*
D34*
X58267600Y-72747600D03*
X58267600Y-71727600D03*
D33*
X106475000Y-98725000D03*
X106475000Y-100625000D03*
D27*
X98447100Y-87750000D03*
X94052900Y-87750000D03*
D14*
X70325000Y-82475000D03*
X68775000Y-82475000D03*
D35*
X121442000Y-141730000D03*
D22*
X52857400Y-130315000D03*
X52857400Y-128765000D03*
D36*
X97750000Y-95575000D03*
X97750000Y-93925000D03*
D24*
X106300000Y-139800000D03*
X107950000Y-139800000D03*
X57595000Y-137160000D03*
X59245000Y-137160000D03*
D37*
X58267600Y-74599700D03*
X58267600Y-76174700D03*
D25*
X76710000Y-141387500D03*
X76710000Y-139812500D03*
D36*
X97250000Y-79075000D03*
X97250000Y-77425000D03*
X117881400Y-133717800D03*
X117881400Y-132067800D03*
D23*
X55880000Y-128715000D03*
X55880000Y-130365000D03*
D24*
X106300000Y-141350000D03*
X107950000Y-141350000D03*
X106300000Y-135100000D03*
X107950000Y-135100000D03*
D38*
X68632700Y-80111600D03*
X70457700Y-80111600D03*
D39*
X128362000Y-76825000D03*
D40*
X130902000Y-76825000D03*
X128362000Y-79365000D03*
X130902000Y-79365000D03*
X128362000Y-81905000D03*
X130902000Y-81905000D03*
X128362000Y-84445000D03*
X130902000Y-84445000D03*
X128362000Y-86985000D03*
X130902000Y-86985000D03*
X128362000Y-89525000D03*
X130902000Y-89525000D03*
X128362000Y-92065000D03*
X130902000Y-92065000D03*
X128362000Y-94605000D03*
X130902000Y-94605000D03*
X128362000Y-97145000D03*
X130902000Y-97145000D03*
X128362000Y-99685000D03*
X130902000Y-99685000D03*
X128362000Y-102225000D03*
X130902000Y-102225000D03*
X128362000Y-104765000D03*
X130902000Y-104765000D03*
X128362000Y-107305000D03*
X130902000Y-107305000D03*
X128362000Y-109845000D03*
X130902000Y-109845000D03*
X128362000Y-112385000D03*
X130902000Y-112385000D03*
X128362000Y-114925000D03*
X130902000Y-114925000D03*
X128362000Y-117465000D03*
X130902000Y-117465000D03*
X128362000Y-120005000D03*
X130902000Y-120005000D03*
X128362000Y-122545000D03*
X130902000Y-122545000D03*
X128362000Y-125085000D03*
X130902000Y-125085000D03*
D36*
X121031000Y-133692400D03*
X121031000Y-132042400D03*
D22*
X68326000Y-67323000D03*
X68326000Y-65773000D03*
D41*
X68427600Y-76593799D03*
X68427600Y-76993801D03*
X68427600Y-77393800D03*
X68427600Y-77793799D03*
X68427600Y-78193801D03*
X70815200Y-78193801D03*
X70815200Y-77793799D03*
X70815200Y-77393800D03*
X70815200Y-76993801D03*
X70815200Y-76593799D03*
D42*
X69621400Y-77393800D03*
D43*
X64008000Y-137922000D03*
D44*
X66548000Y-137922000D03*
X69088000Y-137922000D03*
X71628000Y-137922000D03*
X74168000Y-137922000D03*
X76708000Y-137922000D03*
X79248000Y-137922000D03*
X81788000Y-137922000D03*
X84328000Y-137922000D03*
X86868000Y-137922000D03*
X89408000Y-137922000D03*
X91948000Y-137922000D03*
X94488000Y-137922000D03*
X97028000Y-137922000D03*
X97028000Y-130302000D03*
X94488000Y-130302000D03*
X91948000Y-130302000D03*
X89408000Y-130302000D03*
X86868000Y-130302000D03*
X84328000Y-130302000D03*
X81788000Y-130302000D03*
X79248000Y-130302000D03*
X76708000Y-130302000D03*
X74168000Y-130302000D03*
X71628000Y-130302000D03*
X69088000Y-130302000D03*
X66548000Y-130302000D03*
X64008000Y-130302000D03*
D23*
X83820000Y-118555000D03*
X83820000Y-120205000D03*
D45*
X113200000Y-100747200D03*
D46*
X113200000Y-102652800D03*
D35*
X41742000Y-60030000D03*
D32*
X88900000Y-116840000D03*
X90450000Y-116840000D03*
D24*
X65113400Y-73253600D03*
X66763400Y-73253600D03*
D23*
X103475000Y-124850000D03*
X103475000Y-126500000D03*
D33*
X104675000Y-98725000D03*
X104675000Y-100625000D03*
D35*
X41742000Y-141730000D03*
D47*
X67890000Y-61770000D03*
X67890000Y-62730000D03*
D48*
X66143600Y-71882000D03*
X65123600Y-71882000D03*
D22*
X70104000Y-67323000D03*
X70104000Y-65773000D03*
D33*
X104275000Y-82075000D03*
X104275000Y-83975000D03*
D34*
X56337200Y-72747600D03*
X56337200Y-71727600D03*
D32*
X64262000Y-64058800D03*
X65812000Y-64058800D03*
D23*
X97525000Y-124775000D03*
X97525000Y-126425000D03*
D35*
X121442000Y-60030000D03*
D49*
X120865900Y-97129600D03*
D50*
X120865900Y-94792800D03*
X122974100Y-94792800D03*
D49*
X122974100Y-97129600D03*
D51*
X53340000Y-139050000D03*
X53340000Y-140350000D03*
D36*
X119456200Y-133717800D03*
X119456200Y-132067800D03*
D22*
X58420000Y-117615000D03*
X58420000Y-116065000D03*
D49*
X118325900Y-69189600D03*
D50*
X118325900Y-66852800D03*
X120434100Y-66852800D03*
D49*
X120434100Y-69189600D03*
D25*
X66550000Y-141367500D03*
X66550000Y-139792500D03*
D26*
X53340000Y-116065000D03*
X53340000Y-117615000D03*
D22*
X96250000Y-83815000D03*
X96250000Y-82265000D03*
D14*
X63906400Y-70916800D03*
X62356400Y-70916800D03*
X86505000Y-126600000D03*
X84955000Y-126600000D03*
D25*
X71630000Y-141397500D03*
X71630000Y-139822500D03*
D52*
X110925000Y-128005000D03*
X110925000Y-127045000D03*
D53*
X117188600Y-107173800D03*
X119500000Y-107173800D03*
X121811400Y-107173800D03*
D54*
X119500000Y-100976000D03*
D33*
X102900000Y-98725000D03*
X102900000Y-100625000D03*
X106075000Y-82100000D03*
X106075000Y-84000000D03*
D24*
X106300000Y-138225000D03*
X107950000Y-138225000D03*
D37*
X56337200Y-74574200D03*
X56337200Y-76149200D03*
D14*
X70421800Y-74879200D03*
X68871800Y-74879200D03*
D19*
X100815000Y-83589999D03*
D20*
X100665000Y-83040000D03*
D19*
X100815000Y-82490001D03*
D21*
X99215001Y-82289999D03*
X99215001Y-82790000D03*
X99215001Y-83290000D03*
X99215001Y-83790001D03*
D23*
X113200000Y-105250000D03*
X113200000Y-106900000D03*
D55*
X70045000Y-62738000D03*
X72195000Y-62738000D03*
D25*
X74160000Y-141407500D03*
X74160000Y-139832500D03*
D23*
X83820000Y-113475000D03*
X83820000Y-115125000D03*
D56*
X53340000Y-122857500D03*
X53340000Y-120982500D03*
D22*
X72136000Y-66561000D03*
X72136000Y-65011000D03*
D23*
X99500000Y-93925000D03*
X99500000Y-95575000D03*
D39*
X48088000Y-124236800D03*
D40*
X48088000Y-126776800D03*
X48088000Y-129316800D03*
X48088000Y-131856800D03*
X48088000Y-134396800D03*
M02*
